<?xml version="1.0" encoding="UTF-8" standalone="no"?>
<!-- Created with Inkscape (http://www.inkscape.org/) -->

<svg
   xmlns:dc="http://purl.org/dc/elements/1.1/"
   xmlns:cc="http://creativecommons.org/ns#"
   xmlns:rdf="http://www.w3.org/1999/02/22-rdf-syntax-ns#"
   xmlns:svg="http://www.w3.org/2000/svg"
   xmlns="http://www.w3.org/2000/svg"
   xmlns:sodipodi="http://sodipodi.sourceforge.net/DTD/sodipodi-0.dtd"
   xmlns:inkscape="http://www.inkscape.org/namespaces/inkscape"
   width="7.4945707in"
   height="4.770556in"
   viewBox="0 0 674.51137 429.35006"
   id="svg2"
   version="1.1"
   inkscape:version="0.91 r13725"
   sodipodi:docname="TexasCuttingBoardForPrint.svg">
  <defs
     id="defs4" />
  <sodipodi:namedview
     id="base"
     pagecolor="#ffffff"
     bordercolor="#666666"
     borderopacity="1.0"
     inkscape:pageopacity="0.0"
     inkscape:pageshadow="2"
     inkscape:zoom="0.78326043"
     inkscape:cx="342.22005"
     inkscape:cy="231.85259"
     inkscape:document-units="in"
     inkscape:current-layer="layer1"
     showgrid="false"
     units="in"
     fit-margin-top="0"
     fit-margin-left="0"
     fit-margin-right="0"
     fit-margin-bottom="0"
     inkscape:window-width="1440"
     inkscape:window-height="851"
     inkscape:window-x="0"
     inkscape:window-y="1"
     inkscape:window-maximized="1" />
  <metadata
     id="metadata7">
    <rdf:RDF>
      <cc:Work
         rdf:about="">
        <dc:format>image/svg+xml</dc:format>
        <dc:type
           rdf:resource="http://purl.org/dc/dcmitype/StillImage" />
        <dc:title></dc:title>
      </cc:Work>
    </rdf:RDF>
  </metadata>
  <g
     inkscape:label="Layer 1"
     inkscape:groupmode="layer"
     id="layer1"
     transform="translate(-93.214265,-276.59438)">
    <g
       id="g4426"
       style="fill:#000000;stroke:none;stroke-opacity:1;fill-opacity:1">
      <g
         style="font-style:normal;font-weight:normal;font-size:78.47411346px;line-height:125%;font-family:sans-serif;letter-spacing:0px;word-spacing:0px;fill:#000000;fill-opacity:1;stroke:none;stroke-width:1px;stroke-linecap:butt;stroke-linejoin:miter;stroke-opacity:1"
         id="text4363">
        <path
           d="m 288.9863,655.4037 0.72803,0 q 1.91587,0 2.91212,2.68222 l 0,0.49813 q 0,0.8813 -0.95793,1.37943 l -0.15327,-0.26823 q 0.15327,-0.30654 0.15327,-0.53644 0,-0.72803 -1.18784,-0.95794 -0.6514,0 -0.76635,0.95794 l 0,0.26822 q 0,1.03457 1.83924,1.30279 0.99625,0 4.90463,-1.60933 5.78593,-1.87755 11.30364,-1.87755 10.57562,0 20.72974,5.51771 6.89714,4.13828 13.52605,13.87091 2.83549,4.29155 4.48314,7.77844 l 0,0.15327 q 0,0.11495 -0.11495,0.11495 l -0.19159,0 q -3.98501,-3.90838 -6.8205,-5.67098 -7.20368,-4.67473 -13.33447,-5.44107 -0.95794,-0.22991 -2.49063,-0.22991 l -0.34486,0 q -4.86631,0 -6.39901,3.33362 -0.30654,0.80466 -0.30654,1.57101 0.0383,0.53645 0.0383,0.57476 -0.11496,0.0383 -0.11496,0.15327 l -0.57476,-0.0766 q -2.37568,0 -3.18035,3.21866 -0.0766,0.22991 -0.0766,0.6514 l 0,0.61308 q 0,2.03082 1.91587,3.64016 1.45606,1.07288 2.98876,1.07288 l 0.11495,0 q 1.22616,0 1.22616,-0.76634 -0.11495,-1.03457 -0.65139,-1.03457 -0.26823,0.0383 -0.61308,0.68971 l -0.11496,0 q -0.2299,-0.0766 -0.2299,-0.53645 l 0,-0.61307 q 0,-1.22616 1.22616,-1.68597 0.49812,-0.11495 0.72803,-0.11495 1.18784,0 2.10746,1.49438 1.03457,-1.3028 2.37568,-1.3028 l 0.49813,0 q 2.06914,0 2.95044,2.49064 0.15327,0.61308 0.15327,1.07289 0,1.60933 -2.22241,2.41399 -0.34486,0.0383 -0.53645,0.0383 l -0.30654,0 q -1.49438,0 -2.03082,-1.64765 l 0.19159,-0.11495 0.11495,0 q 0.68971,0.49813 1.1112,0.53644 1.14953,-0.26822 1.14953,-0.95793 0,-1.03457 -1.5327,-1.37943 -0.72803,0 -1.64765,2.03082 -1.68597,2.14578 -4.52146,2.14578 -4.86631,0 -7.28031,-5.90089 -0.30654,-1.34111 -0.30654,-2.10745 0,-0.61308 0.15327,-1.3028 -5.59435,4.40651 -13.71764,4.40651 l -0.38318,0 q -8.04666,0 -13.02793,-4.1766 -2.26073,-2.29905 -2.26073,-4.98127 0,-2.45232 2.26073,-5.24949 0.19159,-0.11495 0.38318,-0.11495 0.45981,0 0.68971,0.84298 -0.0383,1.07289 -0.0383,1.41775 0,0.99625 1.18784,1.60933 0.95794,0.99625 0.95794,1.68597 0.68971,-0.22991 1.18784,-0.22991 1.72429,0 2.26073,2.06914 0,0.22991 0.0766,0.57477 0,1.53269 -1.68596,1.95419 -0.11495,-0.15327 -0.11495,-0.22991 0.42149,-0.57476 0.42149,-0.91962 -0.26823,-0.68971 -0.76635,-0.68971 l -0.22991,0 q -1.37942,0.2299 -1.37942,1.22616 0,1.26447 3.41025,2.414 2.6439,0.65139 5.01958,0.65139 l 0.99626,0 q 6.78218,0 12.03167,-3.75511 2.52895,-2.29904 3.10371,-3.5252 2.52895,-2.6439 4.52146,-3.2953 3.9467,-1.91587 8.92796,-1.91587 l 0,-0.0766 q -0.38317,-0.53644 -0.38317,-1.07289 0.0766,-0.30654 0.19159,-0.30654 0.65139,1.26448 2.33736,1.26448 1.26448,0 1.41775,-0.76635 l 0.0766,-0.11495 q -0.26822,-1.07289 -1.07289,-1.07289 -0.61308,0 -0.84298,1.11121 l -0.0766,0 q -0.8813,-0.72804 -0.8813,-1.72429 0,-1.83924 2.56727,-2.22241 1.7626,0 2.75886,2.29905 l 0.11495,0.76634 q -0.0766,0.76635 -1.03457,2.64391 l 0.0766,0 q 6.39902,1.72428 13.75596,7.81676 l 1.72429,1.72428 0,-0.0383 q -1.5327,-2.95044 -4.06165,-6.24574 -3.33362,-4.09997 -7.05041,-6.85882 -3.48689,-2.33736 -6.09247,-3.52521 -7.05041,-2.91212 -12.45317,-2.91212 -3.67847,0.0766 -4.09996,1.5327 l 0,0.19158 q 0,0.68972 0.95793,1.60934 l 0,0.11495 q 0,0.11495 -0.11495,0.11495 l -0.19159,0 q -2.29904,0 -3.10371,-1.91587 l -0.11495,-0.68971 q 0,-1.3028 1.18784,-2.29905 l -0.11495,0 q -3.02708,0.26822 -7.85508,2.414 -3.64016,2.10746 -3.64016,5.2878 0,2.37569 1.99251,3.60184 0.76635,0.34486 1.5327,0.34486 1.83924,0 2.22241,-1.41775 l 0,-0.0766 q -0.19159,-0.8813 -0.8813,-0.8813 -0.19159,0 -0.72803,0.19159 l -0.11496,-0.19159 0,-0.30654 q 0,-0.91962 1.41775,-1.41775 l 0.30654,0 q 1.34111,0 1.95419,1.83924 0.15327,0.53645 0.15327,0.84298 0,2.87381 -3.9467,3.64016 l -0.95793,0.0766 q -5.40276,0 -7.31863,-4.90464 -0.4215,-1.37942 -0.4215,-1.87755 -0.84298,1.14952 -2.26072,1.14952 -1.37943,-0.0766 -1.5327,-0.34485 l 0,-0.11496 q 0.53644,-0.42149 0.53644,-0.80466 l 0,-0.11495 q 0,-0.53645 -1.07289,-1.64765 -0.19158,-0.4215 -0.19158,-0.68972 l 0,-0.0383 q 0,-0.57476 0.34485,-1.49438 -1.03457,0 -2.33736,-1.45606 -0.76635,-1.03457 -0.76635,-2.45231 l 0,-0.38318 q 0,-2.414 2.56727,-3.79343 0.68971,-0.2299 1.07289,-0.2299 z m 18.31573,5.21117 0,0.0383 0.22991,0 0,-0.0383 -0.22991,0 z"
           style="font-style:normal;font-variant:normal;font-weight:bold;font-stretch:normal;font-size:78.47411346px;line-height:125%;font-family:'Rio Grande';-inkscape-font-specification:'Rio Grande, Bold';text-align:start;writing-mode:lr-tb;text-anchor:start;fill:#000000;stroke:none;stroke-opacity:1;fill-opacity:1"
           id="path4540" />
        <path
           d="m 375.85193,650.30748 1.26448,0 q 10.30739,0.45981 10.30739,0.6514 0.34485,0.26822 0.34485,0.34485 -1.41774,6.93546 -1.41774,10.03917 l 0,0.8813 q 0,3.48689 1.34111,7.16536 l 0,0.0383 q -0.38317,0.49813 -1.37943,0.49813 l -5.9392,0 q -1.07289,0 -1.49438,-0.61308 l 0,-2.75886 q 0,-2.60558 -1.34111,-3.37193 -1.14952,-0.76635 -4.94295,-0.76635 l -2.91213,0 q -3.2953,0 -3.90838,2.03083 -0.0383,0.2299 -0.0383,0.4598 l 0,6.93546 q 0,1.99251 2.98876,2.414 0.34485,0.0766 1.1112,0.0766 l 6.16911,0 q 1.07289,0 1.41775,0.57477 l 0,0.65139 q -0.26823,0.57476 -2.33737,0.57476 l -6.20742,0 q -1.72429,0 -2.87381,1.37943 -0.26822,0.49813 -0.26822,1.18784 l 0,7.62517 q 0,2.14578 3.48688,2.49064 l 2.75886,0 q 5.17285,0 5.82425,-0.91962 1.07289,-0.99626 1.07289,-2.79718 l 0,-3.94669 q 0.30654,-0.6514 1.72428,-0.6514 l 5.4794,0 q 1.68596,0.0766 1.68596,0.57476 -1.22615,4.1766 -1.22615,8.7747 0,4.09996 1.22615,10.95878 -0.57476,0.45981 -1.68596,0.45981 -8.88965,0.34486 -10.11581,0.34486 -2.45231,0 -9.61767,-1.11121 -3.83175,-0.30653 -6.09248,-0.30653 -4.86631,0 -9.31113,1.07288 -1.37943,-0.26822 -1.37943,-0.57476 l 0,-11.34196 q 0.42149,-0.53644 1.26447,-0.53644 l 1.68597,0 q 3.0654,0 3.9467,-1.37943 0.34485,-0.53645 0.34485,-1.64765 0,-1.5327 0.0766,-3.44857 0,-5.55603 -2.03083,-7.54854 1.11121,-1.37942 1.34112,-2.49063 0.61307,-1.5327 0.61307,-6.05416 l 0,-0.8813 q 0,-1.9925 -1.68596,-2.60558 -0.91962,-0.34486 -2.26073,-0.34486 l -1.99251,0 q -0.91962,0 -1.30279,-0.57476 l 0,-10.49898 q 0.38317,-0.57476 1.30279,-0.57476 4.48314,1.5327 9.15787,1.5327 l 0.45981,0 q 5.40276,0 12.72139,-1.7626 1.30279,-0.22991 2.6439,-0.22991 z m 12.72139,0.6514 0.11495,0 q 1.22616,0.76635 1.22616,1.83923 l 0,0.0766 q -1.45606,7.66349 -1.45606,10.00085 l 0,0.68971 q 0,3.56353 1.45606,7.28032 l 0,0.2299 q 0,1.95419 -3.14203,2.45232 l -6.51396,0 q -1.91588,0 -3.02708,-1.57102 -0.22991,-0.42149 -0.22991,-1.07289 l 0,-2.06914 q 0,-2.37568 -0.65139,-2.37568 -0.6514,-0.38317 -2.414,-0.38317 l -5.01959,0 q -1.03457,0.2299 -1.03457,0.49812 l 0,6.62892 -0.0766,0 q -1.26448,-0.45981 -1.26448,-1.34111 l 0,-6.51396 q 0,-1.91588 3.0654,-1.91588 l 2.98876,0 q 3.98501,0 4.71304,0.91962 0.49813,0.72803 0.49813,2.22241 l 0,2.49064 q 0,1.18784 0.99625,1.57101 0.68972,0.26822 1.34111,0.26822 l 6.05416,0 q 2.14578,0 2.45232,-1.45606 -1.45607,-3.56352 -1.45607,-7.7018 0,-3.21867 1.45607,-10.49898 l 0,-0.11495 q -0.0766,-0.11496 -0.0766,-0.15327 z m -40.11836,0.34485 0.0383,0 0,10.57562 q 0.30654,1.53269 2.26073,1.53269 l 1.95419,0 q 3.06539,0 3.06539,1.91588 l 0,0.26822 q 0,6.89714 -1.37942,8.08498 0,0.19159 -0.11496,0.19159 l 0,-0.11496 q 0.61308,-1.72428 0.61308,-4.67472 l 0,-2.52896 q -0.42149,-0.49812 -1.22616,-0.49812 l -1.68596,0 q -3.71679,0 -4.29156,-2.14578 l 0,-11.34196 q 0,-0.57476 0.76635,-1.26448 z m 29.69602,23.22037 q 1.41774,0.49813 1.41774,2.29905 0,1.91587 -1.91587,2.6439 -0.84298,0.26822 -1.80092,0.26822 l -6.70555,0 q -0.84298,0 -1.26448,0.45981 l 0,7.4719 -0.0766,0 q -1.26448,-0.45981 -1.26448,-1.41774 l 0,-7.08873 q 0,-1.37943 1.03457,-1.7626 0.61308,-0.26822 1.3028,-0.26822 l 6.13079,0 q 2.6439,0 3.10371,-1.03457 0.11495,-0.19159 0.11495,-0.38318 l 0,-0.91962 -0.0766,-0.26822 z m -24.75307,0.57476 q 0.8813,0.38318 1.60933,1.80092 0.76635,1.87756 0.76635,5.51771 l 0,3.44857 q 0,1.22616 -0.76635,1.57102 l -0.11495,0 q 0.0766,-2.10746 0.0766,-3.02708 l 0,-0.30654 q 0,-5.24949 -1.57102,-6.39901 -1.22616,-0.30654 -1.22616,-1.37943 0,-0.61308 1.22616,-1.22616 z m 35.25205,5.55603 q 1.26447,0.80467 1.26447,1.87756 l 0,0.2299 q -1.22616,4.25324 -1.22616,8.39152 l 0,0.61308 q 0,3.87006 1.22616,10.61393 l 0,0.11495 q 0,1.7626 -3.06539,2.37568 l -0.19159,0 -9.46441,0.34486 -1.7626,0 q -1.91587,0 -7.62517,-0.8813 -4.1766,-0.49813 -7.08873,-0.49813 -4.52145,0 -9.65599,1.03457 l -0.0383,0 q -3.33362,-0.42149 -3.33362,-2.45231 l 0,-11.72514 q 0,-0.68971 0.76635,-1.34111 l 0.0383,0 0,11.38028 q 0,1.26447 2.37568,1.5327 4.52146,-1.07289 9.54104,-1.07289 4.71305,0 12.41485,1.22616 1.11121,0.19158 3.0654,0.19158 11.11206,-0.34485 11.11206,-0.45981 1.64765,-0.42149 1.64765,-1.30279 -1.22616,-6.62892 -1.22616,-10.42234 l 0,-1.14952 q 0,-3.87007 1.22616,-8.23825 l 0,-0.19159 -0.0766,-0.11495 q 0.0766,0 0.0766,-0.0766 z m -10.88216,0.42149 0.0383,0 0,4.06165 q 0,1.45606 -0.80467,2.10746 l -0.0383,0 q 0.0383,-0.80467 0.0383,-1.14952 l 0,-3.14203 q 0,-1.30279 0.76635,-1.87756 z"
           style="font-style:normal;font-variant:normal;font-weight:bold;font-stretch:normal;font-size:78.47411346px;line-height:125%;font-family:'Rio Grande';-inkscape-font-specification:'Rio Grande, Bold';text-align:start;writing-mode:lr-tb;text-anchor:start;fill:#000000;stroke:none;stroke-opacity:1;fill-opacity:1"
           id="path4542" />
        <path
           d="m 405.08813,649.84767 1.87756,0 q 5.13454,0 8.16161,0.91962 l 0.19159,0 q 0.42149,0 1.22616,-0.76635 0.42149,-0.15327 0.91962,-0.15327 l 6.1691,0 q 0.84299,0 1.3028,0.49813 l 0,16.36154 q -0.42149,0.61308 -1.5327,0.61308 l -5.63266,0 q -1.57102,0 -1.57102,-1.07289 0,-2.52895 -1.41774,-3.56352 -1.26448,-0.61308 -2.98876,-0.61308 l -5.97752,0 q -3.44857,0 -4.1766,2.37569 -0.19159,0.80466 -0.19159,1.64765 l 0,3.79342 q 0,2.75886 1.60933,3.64016 1.41775,0.53644 2.75886,0.53644 l 0.45981,0 q 2.60558,0 4.4065,-1.22616 2.68222,1.14953 3.98501,1.14953 1.34111,0.2299 4.78968,0.45981 5.4794,0.99625 5.4794,5.36444 l 0,14.2924 q 0,5.59435 -8.3532,7.28032 -1.72429,0.34485 -4.21492,0.34485 l -0.42149,0 q -5.93921,0 -9.34946,-1.18784 l -0.19159,0 q -0.57476,0 -1.1112,0.84299 -0.53645,0.34485 -1.18784,0.34485 l -5.86257,0 q -1.03457,0 -1.45606,-0.57476 l 0,-18.2391 q 0.2299,-0.57476 2.45231,-0.57476 l 3.83175,0 q 2.03082,0 2.37568,0.57476 l 0,1.99251 q 0,2.83549 2.14577,3.44857 1.14953,0.30654 2.14578,0.30654 l 6.28406,0 q 3.14203,0 3.9467,-1.72429 0.26822,-0.80466 0.26822,-2.03082 l 0,-5.17286 q 0,-2.49063 -1.34111,-3.21866 -0.84298,-0.42149 -1.5327,-0.42149 -1.37943,0 -2.6439,0.8813 -1.34111,-1.11121 -3.64016,-1.11121 l -6.09247,0 q -5.44108,0 -7.12704,-3.33362 -1.07289,-1.64765 -1.07289,-3.7551 l 0,-9.92422 q 0,-4.32987 3.56352,-6.74387 3.37193,-2.26073 8.73637,-2.26073 z m 20.61479,0.15327 q 0.57476,0 1.22615,1.22616 0.11496,0.2299 0.11496,0.49813 l 0,16.9363 q 0,1.49438 -2.64391,2.22241 -0.42149,0.0766 -0.65139,0.0766 l -5.97752,0 q -2.10746,0 -3.18035,-1.5327 -0.19159,-0.2299 -0.49813,-2.95044 0,-0.76635 -2.49063,-0.76635 l -5.24949,0 q -2.72054,0 -2.72054,1.26448 -0.0383,0.95793 -0.0383,1.45606 l 0,2.56727 q 0,0.95793 0.15327,1.7626 -0.0383,0 -0.0383,0.0766 -0.72803,-0.26822 -0.95794,-0.76634 -0.45981,-0.76635 -0.45981,-2.52896 l 0,-3.18034 q 0,-2.10746 0.91962,-2.68222 0.8813,-0.57476 2.60559,-0.57476 l 5.86256,0 q 2.49064,0 3.02708,1.03457 0.38318,1.03457 0.49813,2.95044 0.65139,1.22616 2.33736,1.22616 l 5.86257,0 q 1.83924,0 2.33736,-1.34111 l 0,-16.66809 -0.0383,-0.30654 z m -33.33617,4.98127 0.11495,0 0,0.0766 q -0.76635,1.45607 -0.76635,3.79343 l 0,10.26907 q 0,3.10372 2.72054,5.86257 2.29904,1.87756 6.1691,1.87756 l 6.3607,0 q 2.29905,0 3.64016,1.41774 l 0.11495,0 q 1.1112,-1.18784 2.52895,-1.18784 l 0.11495,0 q 1.72429,0.34486 1.72429,1.64765 0.11495,0 0.11495,1.18784 l 0,4.98127 q 0,1.87755 -0.76635,2.33736 l -0.11495,0 q 0.0383,-0.68971 0.0383,-0.99625 l 0,-3.98502 q 0,-2.45231 -0.57476,-2.45231 -0.19158,-0.0766 -0.2299,-0.0766 -1.11121,0 -2.1841,1.18784 l -0.42149,0.0383 -0.11495,0 q -0.42149,0 -1.57101,-0.99625 -0.53645,-0.45981 -2.91213,-0.45981 l -5.63266,0 q -7.51022,0 -9.50273,-6.66724 -0.30654,-0.95793 -0.30654,-1.87755 l 0,-11.11206 q 0,-2.49063 1.45607,-4.86631 z m 32.26328,21.11291 0.0766,0 q 2.33737,1.9925 2.33737,4.71304 l 0,15.48025 q 0,5.09622 -6.82051,7.89339 -3.37193,1.18784 -7.28031,1.18784 l -1.80092,0 q -4.90463,0 -8.16161,-0.99625 -1.14953,0.99625 -2.87381,0.99625 l -5.97752,0 q -2.06914,0 -3.10372,-1.7626 -0.11495,-0.38318 -0.11495,-0.53645 l 0,-18.81386 q 0,-0.6514 0.76635,-1.34111 l 0.0383,0 0,18.27742 q 0.34486,1.5327 2.29905,1.5327 l 5.86256,0 q 1.72429,0 2.45232,-1.14953 l 0.0766,0 q 3.21867,1.14953 9.50273,1.14953 l 0.76635,0 q 8.23825,0 12.03167,-4.67473 1.03457,-1.7626 1.03457,-3.48689 l 0,-15.1737 q 0,-1.83924 -1.1112,-3.21867 l 0,-0.0766 z m -22.4157,6.47564 0.11495,0 q 1.26447,0.72803 1.26447,1.91588 l 0,1.45606 q 0,0.91962 0.11496,1.41774 -0.0766,0 -0.0766,0.0766 -1.30279,-0.49813 -1.30279,-1.95419 -0.0383,-0.19159 -0.0383,-0.68971 l 0,-1.83924 -0.0766,-0.38318 z"
           style="font-style:normal;font-variant:normal;font-weight:bold;font-stretch:normal;font-size:78.47411346px;line-height:125%;font-family:'Rio Grande';-inkscape-font-specification:'Rio Grande, Bold';text-align:start;writing-mode:lr-tb;text-anchor:start;fill:#000000;stroke:none;stroke-opacity:1;fill-opacity:1"
           id="path4544" />
        <path
           d="m 455.7821,650.19253 0.91962,0 q 0.91962,0 10.42235,0.65139 l 0.68971,0 q 0.95794,0 1.41774,0.57477 l 0,18.31573 q -0.42149,0.57476 -1.45606,0.57476 l -5.90088,0 q -1.03457,0 -1.49438,-0.53644 l 0,-2.14578 q 0,-3.87006 -0.80467,-4.32987 -0.84298,-0.68971 -3.21866,-0.68971 l -0.80467,0 q -1.07289,0 -1.07289,1.80092 0,2.29904 -0.0383,3.44857 0,5.32612 1.99251,7.31863 l 0,0.11495 q -1.95419,1.87755 -1.95419,8.04666 0,1.14953 0.0766,3.52521 0,1.34111 2.37568,2.10746 0.61308,0.11495 1.07288,0.11495 l 1.57102,0 q 1.30279,0 1.64765,0.57476 l 0,11.4186 q -0.49813,0.49812 -1.34111,0.49812 -5.17285,-0.99625 -9.84758,-0.99625 -4.32987,0 -9.656,0.99625 -0.76635,0 -1.26447,-0.49812 l 0,-11.4186 q 0.38317,-0.57476 1.45606,-0.57476 l 1.7626,0 q 2.49064,0 3.37194,-1.95419 0.11495,-0.95794 0.11495,-3.18035 l 0,-0.95793 q 0,-6.05416 -2.26073,-7.93171 2.26073,-1.95419 2.26073,-8.16162 l 0,-0.91962 q 0,-3.10371 -0.34486,-3.10371 -0.30654,-0.26822 -0.68971,-0.26822 l -1.5327,0 q -3.25698,0 -3.25698,2.72054 -0.0766,0.49812 -0.0766,1.68596 l 0,2.75886 q -0.42149,0.53644 -1.45606,0.53644 l -5.90088,0 q -1.03457,0 -1.45607,-0.57476 l 0,-18.31573 q 0.45981,-0.57477 1.34111,-0.57477 4.75137,1.26448 9.34946,1.26448 4.828,0 10.23075,-1.57101 1.57102,-0.34486 3.75511,-0.34486 z m 14.21577,0.80466 0.0383,0 q 1.30279,0.72804 1.30279,1.87756 l 0,18.77554 q 0,1.5327 -2.6439,2.22242 -0.30654,0.0766 -0.57476,0.0766 l -6.24574,0 q -2.29905,0 -3.21867,-1.7626 -0.19159,-0.30654 -0.19159,-0.76635 l 0,-3.75511 q 0,-1.26448 -0.34485,-1.26448 -0.45981,-0.11495 -1.45607,-0.19158 -0.0766,2.18409 -0.0766,3.18034 0,3.64016 0.8813,5.40276 -0.99625,-0.45981 -1.57101,-2.06914 -0.57477,-1.80092 -0.57477,-5.17285 0.0383,-3.48689 0.0383,-3.90838 l 0.11495,-0.0766 0.57477,0 q 2.56726,0 2.95044,0.6514 0.26822,0.76635 0.26822,1.57102 l 0,3.64015 q 0,1.18784 0.99625,1.57102 0.72804,0.30654 1.34111,0.30654 l 6.16911,0 q 1.64765,0 2.26073,-1.22616 l 0,-18.77555 -0.0383,-0.30654 z m -40.0034,0.4215 0.0383,0 0,18.35405 q 0,1.22616 2.18409,1.5327 l 6.24574,0 q 1.72429,0 2.29905,-1.22616 0.0383,-0.22991 0.0383,-0.45981 l 0,-3.56352 q 0,-2.1841 0.84298,-2.1841 0.6514,-0.30654 1.57101,-0.30654 l 1.37943,0 0.11495,0.0766 q 0.0766,2.10746 0.0766,3.02708 0,5.55603 -1.5327,7.16536 l 0,-0.15327 q 0.72803,-1.7626 0.72803,-5.7093 -0.0766,-1.7626 -0.11495,-1.7626 -1.11121,0 -1.72428,0.2299 -0.0383,1.07289 -0.0383,1.57102 l 0,3.41025 q 0,1.87755 -2.95044,2.52895 l -6.70556,0 q -2.14577,0 -3.14203,-1.87755 l -0.0766,-0.4215 0,-19.00545 q 0,-0.53644 0.76635,-1.22615 z m 28.01004,23.91008 q 1.34112,0.53644 1.34112,0.84298 0.15327,0.22991 0.15327,0.61308 0,0.76635 -1.37943,1.34111 -1.45607,1.49438 -1.45607,6.28406 l 0,0.8813 q 0,0.11495 -0.0766,0.22991 0.0766,0.0766 0.0766,0.2299 l 0,2.14578 -0.0766,0 q -1.22616,-0.42149 -1.22616,-1.26448 l 0,-4.09996 q 0,-5.44108 2.1841,-7.01209 0.34485,-0.19159 0.4598,-0.19159 z m -16.01668,0.0766 q 1.14952,0.34486 2.03082,2.14578 0.76635,1.95419 0.76635,5.28781 l 0,0.68971 q 0,1.18784 -0.0766,3.25698 0,0.42149 -0.72803,0.95794 l -0.0766,-0.11495 q 0,-0.99626 0.0766,-3.2953 0,-4.828 -1.72428,-6.13079 -1.45606,-0.68972 -1.49438,-0.80467 -0.19159,-0.30654 -0.22991,-0.72803 0,-0.95794 1.45607,-1.26448 z m 20.04002,13.8326 0.0766,0 q 1.26448,0.76635 1.26448,2.18409 l 0,11.11206 q 0,1.87755 -2.33737,2.56727 -0.53644,0.11495 -0.8813,0.11495 l -0.26822,0 q -5.28781,-0.91962 -8.77469,-0.91962 l -1.72429,0 q -3.41025,0 -8.69806,0.91962 l -0.30654,0 q -1.91587,0 -3.02707,-1.68597 -0.15327,-0.57476 -0.15327,-0.99625 l 0,-10.95879 q 0,-1.37943 0.80466,-1.95419 l 0.0383,0.11495 0,11.49524 q 0.42149,1.34111 2.33736,1.34111 5.28781,-0.99626 9.61768,-0.99626 4.21492,0 9.80926,0.99626 l 0.11496,0 q 2.18409,-0.38318 2.18409,-1.37943 l 0,-11.22701 -0.0766,-0.72803 z"
           style="font-style:normal;font-variant:normal;font-weight:bold;font-stretch:normal;font-size:78.47411346px;line-height:125%;font-family:'Rio Grande';-inkscape-font-specification:'Rio Grande, Bold';text-align:start;writing-mode:lr-tb;text-anchor:start;fill:#000000;stroke:none;stroke-opacity:1;fill-opacity:1"
           id="path4546" />
        <path
           d="m 485.17157,691.57536 q 0.76635,0 1.95419,1.34111 0.80467,1.7626 0.80467,2.91213 l 0,4.78968 q 0,3.33361 -2.60559,4.44482 -0.72803,0.15327 -1.34111,0.15327 l -5.09622,0 q -3.56352,0 -4.59809,-2.10746 -0.42149,-1.22616 -0.42149,-1.95419 l 0,-1.34111 0.15327,0 q 0,2.414 3.98501,2.414 l 4.09997,0 q 2.45232,0 2.91212,-1.03457 0.6514,-1.41775 0.6514,-2.45232 l 0,-4.36819 q 0,-1.37942 -0.6514,-2.72053 l 0.15327,-0.0766 z m -6.47564,0.15327 3.75511,0 q 1.9925,0 1.9925,1.37943 0.15327,0 0.19159,1.1112 l 0,4.21492 q 0,2.45232 -1.30279,2.72054 -0.26822,0.0383 -0.6514,0.0383 l -4.52146,0 q -2.75885,0 -3.06539,-0.99625 -0.19159,-0.6514 -0.19159,-1.45607 l 0,-4.52146 q 0,-1.72428 0.84298,-2.18409 1.11121,-0.30654 2.95045,-0.30654 z"
           style="font-style:normal;font-variant:normal;font-weight:bold;font-stretch:normal;font-size:78.47411346px;line-height:125%;font-family:'Rio Grande';-inkscape-font-specification:'Rio Grande, Bold';text-align:start;writing-mode:lr-tb;text-anchor:start;fill:#000000;stroke:none;stroke-opacity:1;fill-opacity:1"
           id="path4548" />
        <path
           d="m 527.12918,650.23085 1.26448,0 q 11.61018,0 14.59894,6.66723 0.38318,1.14952 0.38318,2.26073 l 0,12.14663 q 0,0.42149 -2.03083,1.64765 -2.91212,1.83923 -4.06165,3.10371 -0.99625,1.07289 -0.99625,2.45232 l 0,0.2299 q 0,0.11495 -1.57102,0.26822 -2.18409,0.57476 -4.55977,2.68222 l -3.48689,3.37194 q -0.30654,0.72803 -0.30654,0.95793 0,2.29905 3.25698,2.79718 l 1.14953,0 q 3.33362,0 3.83174,-2.14578 0.11495,-0.61308 0.11495,-1.34111 l 0,-2.26073 q 0.49813,-0.72803 1.91588,-0.72803 l 4.82799,0 q 1.91588,0.11495 1.91588,0.80467 l 0,17.43443 q -0.57477,0.76635 -1.57102,0.76635 -4.63641,-0.99626 -8.46815,-0.99626 -4.1766,0 -10.7672,1.22616 -0.8813,0.0383 -1.5327,0.0383 -8.31489,-0.26822 -8.31489,-0.45981 -0.72803,-0.30654 -0.72803,-0.68971 l 0,-11.87841 q 1.37943,-1.30279 7.74013,-6.36069 4.63641,-4.21492 4.63641,-7.66349 2.29904,-0.22991 3.33361,-0.76635 1.26448,-0.38317 5.67098,-4.90463 1.34111,-1.72429 1.34111,-2.72054 l 0,-0.42149 q 0,-2.33737 -1.14952,-2.91213 -0.91962,-0.45981 -3.06539,-0.45981 l -5.40276,0 q -3.41025,0 -4.06165,1.34111 -0.38318,0.95794 -0.38318,2.03083 l 0,2.03082 q 0,0.91962 -2.45231,0.91962 l -3.87006,0 q -1.83924,0 -2.33737,-0.68971 l 0,-8.85133 q 0,-6.3607 10.00085,-8.46815 2.45232,-0.45981 5.13454,-0.45981 z m 14.82885,3.5252 0.0766,0 q 3.41026,3.10371 3.41026,6.43733 l 0,13.14288 q 0,1.34111 -3.71679,3.41025 -3.37194,2.22241 -3.37194,3.21867 l 0.61308,1.18784 0,0.19159 q 0,0.11495 -0.11495,0.11495 l -2.68222,0 q -2.49064,0.2299 -2.49064,1.83923 l 0,1.91588 q 0,1.57101 -0.45981,2.03082 -0.11495,0 -0.30654,0.19159 l -0.11495,0 q 0.0766,-0.57476 0.0766,-0.8813 l 0,-1.83924 q 0,-0.61308 0.2299,-1.07289 l -0.0766,0 q -0.8813,0.61308 -4.09997,3.71679 -0.0383,0 -0.42149,0.30654 -1.30279,-0.61308 -1.30279,-1.45606 0,-0.6514 1.72428,-2.03082 3.60184,-3.56353 4.67473,-3.7168 1.41774,-0.68971 3.10371,-0.68971 0.30654,0.0766 0.91962,0.0766 l 0.0383,0 0,-0.0766 q -0.53645,-0.72803 -0.57476,-1.37943 0,-1.83923 5.0579,-4.82799 2.03082,-1.26448 2.03082,-1.91588 l 0,-12.83634 q 0,-2.56727 -2.22241,-5.0579 z m -30.34741,2.14578 0,0.11495 q -0.6514,1.30279 -0.6514,3.14203 l 0,8.69806 q 0,1.83923 3.41025,1.83923 l 3.67848,0 q 3.41025,0 3.41025,-1.83923 l 0,-1.80092 q 0,-1.83924 0.8813,-2.33737 0.76635,-0.34485 3.2953,-0.34485 l 3.87006,0 q 3.02708,0 3.64016,0.42149 0.53644,0.53644 0.53644,1.95419 l 0,0.45981 q -0.2299,1.1112 -0.80466,1.57101 l 0,-0.11495 q 0,-1.49438 -0.42149,-1.49438 -0.49813,-0.11495 -1.26448,-0.11495 l -6.5906,0 q -1.7626,0 -1.7626,0.57476 -0.11495,0.49813 -0.11495,1.26447 l 0,1.72429 q 0,2.10746 -3.41026,2.68222 l -5.2878,0 q -2.95045,0 -3.79343,-2.14578 -0.0766,-0.2299 -0.0766,-0.45981 l 0,-9.38777 q 0,-2.52895 1.45606,-4.4065 z m 11.57187,18.08583 q 0.11495,0.26822 0.11495,0.68971 0,1.64765 -1.26448,3.41025 l 0,-0.0383 q 0.42149,-0.99626 0.42149,-1.87756 0,-0.30654 -0.11495,-1.18784 0,-0.61308 0.84299,-0.99625 z m 20.92132,8.62142 0.0766,0 q 1.26448,0.76635 1.26448,1.91587 l 0,17.97088 q 0,1.57102 -2.83549,2.37568 -0.38318,0.0383 -0.6514,0.0383 l -0.2299,0 q -4.48314,-0.91962 -7.97003,-0.91962 l -0.30654,0 q -4.40651,0 -10.49898,1.14952 -0.76635,0.0766 -1.60933,0.0766 l -0.76635,0 q -8.39152,-0.26822 -8.39152,-0.57476 -2.03082,-0.8813 -2.03082,-2.14578 l 0,-12.64475 q 0,-0.57476 0.76635,-1.26448 l 0.0383,0 0,12.06999 q 0,1.72429 4.1766,1.72429 4.48314,0.2299 5.67098,0.2299 1.99251,0 7.0121,-0.91961 2.6439,-0.30654 5.2878,-0.34486 3.75511,0 8.50647,0.95793 2.56727,-0.34485 2.56727,-1.49438 l 0,-17.77929 -0.0766,-0.42149 z"
           style="font-style:normal;font-variant:normal;font-weight:bold;font-stretch:normal;font-size:78.47411346px;line-height:125%;font-family:'Rio Grande';-inkscape-font-specification:'Rio Grande, Bold';text-align:start;writing-mode:lr-tb;text-anchor:start;fill:#000000;stroke:none;stroke-opacity:1;fill-opacity:1"
           id="path4550" />
        <path
           d="m 567.63072,649.6944 1.57101,0 q 8.50647,0 13.48774,4.32987 1.99251,2.06914 1.99251,4.48314 l 0,3.41025 q 0,10.11581 2.68222,12.37654 0,0.0766 0.45981,0.49812 l 0,0.0766 q -1.95419,2.10746 -2.52895,5.09622 -0.61308,3.02708 -0.61308,8.62142 l 0,4.78968 q 0,5.40276 -8.23825,8.00835 -3.37194,0.8813 -7.16536,0.8813 l -0.42149,0 q -10.46067,0 -14.56063,-5.01959 -1.22616,-1.91587 -1.22616,-3.87006 l 0,-3.02708 q 0,-11.76345 -2.414,-14.48399 0,-0.15327 -0.84298,-1.07289 l 0,-0.0383 q 3.25698,-2.68222 3.25698,-11.68682 l 0,-4.63641 q 0,-5.40276 7.58685,-7.85508 3.44857,-0.8813 6.97378,-0.8813 z m 15.97837,4.02333 q 3.21866,2.68222 3.21866,6.74387 l 0,4.67473 q 0,6.39901 1.76261,9.08123 l -0.0766,0 q -2.83549,-1.95419 -2.98876,-10.03917 l 0,-5.01958 q 0,-3.2953 -1.91587,-5.36444 l 0,-0.0766 z m -30.88386,1.49438 0,0.0383 q -0.72803,1.80092 -0.72803,3.02708 l 0,4.48314 q 0,7.4719 -1.91587,10.15412 l -0.11495,0 0,-0.0383 q 1.22616,-2.60558 1.22616,-8.3532 -0.0383,-1.83924 -0.0383,-4.06165 0,-3.10371 1.57101,-5.24949 z m 9.54105,11.34196 0,17.7793 q 0,3.56352 1.87755,4.36818 0.76635,0.34486 1.80092,0.34486 l 5.90089,0 q 2.18409,0 3.02707,-1.7626 0.45981,-0.8813 0.45981,-2.91213 l 0,-18.58395 q 0,-2.52896 -0.91962,-2.98876 -0.8813,-0.68972 -2.68222,-0.68972 l -5.47939,0 q -2.87381,0 -3.64016,1.49438 -0.34485,0.76635 -0.34485,2.95044 z m 3.90837,-3.44856 5.36445,0 q 1.9925,0 2.56726,0.95793 0.19159,0.38318 0.19159,2.52895 l 0,18.20079 q 0,2.06914 -0.8813,2.75885 l -0.0766,0 0.0766,-0.68971 0,-19.84844 q 0,-1.07288 -0.42149,-1.07288 0,-0.15327 -1.80092,-0.15327 l -4.06165,0 q -2.56727,0 -2.56727,0.49812 -0.11495,0.34486 -0.11495,1.26448 l 0,19.38862 q 0.0383,0.57476 0.0383,0.91962 -1.26448,-0.72803 -1.26448,-2.10746 -0.0766,0 -0.0766,-0.53644 l 0,-19.61853 q 0,-1.49438 0.57476,-1.95419 0.72803,-0.53644 2.45231,-0.53644 z m 23.25869,11.95504 q 1.5327,0.49812 1.5327,1.22615 l 0,0.34486 q 0,0.68971 -1.64765,1.37943 -2.49064,2.29904 -2.49064,10.72888 l 0,5.97752 q 0,7.08873 -9.34945,10.15412 -3.64016,1.07289 -7.74012,1.07289 l -1.11121,0 q -10.84383,0 -15.67183,-5.59435 -1.80092,-2.49063 -1.80092,-5.82425 l 0,-4.06164 q 0,-11.4186 -3.18035,-12.83635 -0.49813,0 -1.03457,-0.8813 l 0,-0.38317 q 0,-0.8813 1.34111,-1.26448 1.64765,0.76635 2.60559,3.60184 1.1112,3.21867 1.1112,12.22327 l 0,2.60558 q 0,5.01959 6.09248,7.85508 4.55977,1.91587 10.1158,1.91587 l 1.30279,0 q 8.62143,0 13.64101,-4.44483 2.37568,-2.37568 2.37568,-6.01583 l 0,-0.42149 q 0,-2.29905 -0.0383,-4.13829 0,-10.69056 3.14203,-12.83634 0.57476,-0.38317 0.80467,-0.38317 z"
           style="font-style:normal;font-variant:normal;font-weight:bold;font-stretch:normal;font-size:78.47411346px;line-height:125%;font-family:'Rio Grande';-inkscape-font-specification:'Rio Grande, Bold';text-align:start;writing-mode:lr-tb;text-anchor:start;fill:#000000;stroke:none;stroke-opacity:1;fill-opacity:1"
           id="path4552" />
        <path
           d="m 613.87986,650.23085 q 0.95793,0 1.5327,0.68971 -0.53645,11.72514 -0.53645,13.71764 0,7.93171 2.45232,10.11581 l 0,0.0383 q -2.03083,1.80092 -2.03083,7.20368 0,5.32613 0.45981,5.32613 0.38318,0.68971 1.22616,1.07288 0.95794,0.45981 1.99251,0.45981 l 5.78593,0 q 2.18409,0 2.6439,0.72803 l 0,11.11206 q 0,0.72803 -1.83923,0.8813 -2.83549,0 -11.99336,-1.1112 -1.60933,-0.19159 -3.18035,-0.19159 l -1.18784,0 q -1.91587,0 -10.72888,1.11121 -1.45606,0.19158 -3.2953,0.19158 -0.99626,0 -1.60933,-0.72803 l 0,-11.22701 q 0.49812,-0.76635 2.06914,-0.76635 l 7.28031,0 q 2.33736,0 3.41025,-1.7626 0.22991,0 0.30654,-5.09622 0,-4.32987 -2.6439,-7.01209 l 0,-0.0766 q 2.56727,-1.76261 2.56727,-7.58686 0,-3.79342 -0.45981,-3.79342 -0.84299,-1.49438 -4.36819,-1.49438 l -1.49438,0 q -1.07289,0 -1.5327,-0.68972 l 0,-6.51396 q 0,-0.53645 2.29905,-1.60933 4.98127,-2.98876 5.63266,-2.98876 l 7.242,0 z m 2.29904,0.2299 0.0383,0 q 1.30279,0.84298 1.30279,1.99251 l 0,0.45981 q 0,1.1112 -0.53644,13.14288 0,5.97752 1.41775,8.27656 l 0,0.0766 -0.0766,0 q -0.99625,-0.49813 -1.87755,-2.75886 -0.68972,-2.72053 -0.68972,-6.43733 l 0,-0.15327 q 0,-0.34485 -0.0766,-0.42149 0.0766,-0.30654 0.0766,-0.57476 0,-1.64765 0.45981,-13.02793 l 0,-0.15327 -0.0383,-0.42149 z m -18.62227,4.1766 0.0766,0 0,6.74387 q 0,1.41775 2.64391,1.64765 0,0.0766 0.99625,0.0766 l 1.64765,0 q 1.80092,0 2.49063,1.41774 0.0383,0 0.11496,1.99251 0,5.63266 -1.41775,6.8205 l 0,-0.0766 q 0.53645,-1.5327 0.53645,-3.44857 l 0,-3.21867 q -0.22991,-0.84298 -1.64765,-0.84298 l -1.87756,0 q -3.67847,0 -4.29155,-2.414 -0.0766,-0.45981 -0.0766,-0.99625 l 0,-5.40276 q 0,-1.80092 0.80467,-2.29905 z m 21.38113,20.34656 0.0383,0 q 1.41774,0.57476 1.41774,1.07289 0.0766,0.30654 0.0766,0.34486 0,0.84298 -1.5327,1.45606 -1.49438,1.37943 -1.49438,4.90463 l 0,0.15327 q 0,1.72429 0.0766,4.71305 l -0.19158,0 q -1.11121,-0.6514 -1.11121,-1.34111 -0.0383,-2.95045 -0.0383,-4.71305 0,-4.98127 2.22242,-6.39901 0.42149,-0.19159 0.53644,-0.19159 z m -16.43818,0.19159 q 3.06539,2.29904 3.06539,7.08872 0,4.78968 -0.38317,4.78968 -0.38317,0.34486 -0.53644,0.34486 l 0,-0.0766 q 0.0383,-1.80092 0.0383,-2.87381 l 0,-0.80467 q 0,-4.55977 -3.21866,-6.47565 -0.22991,-0.34485 -0.22991,-0.65139 l 0,-0.30654 q 0,-0.76635 1.26448,-1.03457 z m 25.67268,13.98586 0.0383,0 q 1.30279,0.8813 1.30279,1.83924 l 0,11.61018 q 0,1.99251 -3.2953,2.60559 l -1.30279,0 q -2.10746,0 -11.57187,-1.11121 -1.83923,-0.19158 -3.48688,-0.19158 -2.33737,0 -11.91673,1.22615 -0.91961,0.0766 -1.64765,0.0766 l -1.1112,0 q -1.64765,0 -3.0654,-1.34111 -0.42149,-0.72803 -0.42149,-1.26448 l 0,-11.61018 q 0,-0.72803 0.76635,-1.41775 l 0.0383,0 0,11.15038 q 0,1.49438 2.37568,1.83924 l 0.34486,0 q 2.52895,0 11.227,-1.11121 1.41775,-0.19159 2.95045,-0.19159 l 0.65139,0 q 2.68222,0 11.76346,1.11121 1.68596,0.19159 3.83174,0.19159 l 0.0383,0 q 1.95419,0 2.52895,-1.5327 l 0,-11.45692 -0.0383,-0.42149 z"
           style="font-style:normal;font-variant:normal;font-weight:bold;font-stretch:normal;font-size:78.47411346px;line-height:125%;font-family:'Rio Grande';-inkscape-font-specification:'Rio Grande, Bold';text-align:start;writing-mode:lr-tb;text-anchor:start;fill:#000000;stroke:none;stroke-opacity:1;fill-opacity:1"
           id="path4554" />
        <path
           d="m 653.42347,650.23085 q 0.95793,0 1.5327,0.68971 -0.53645,11.72514 -0.53645,13.71764 0,7.93171 2.45232,10.11581 l 0,0.0383 q -2.03083,1.80092 -2.03083,7.20368 0,5.32613 0.45981,5.32613 0.38318,0.68971 1.22616,1.07288 0.95794,0.45981 1.99251,0.45981 l 5.78593,0 q 2.18409,0 2.6439,0.72803 l 0,11.11206 q 0,0.72803 -1.83923,0.8813 -2.83549,0 -11.99336,-1.1112 -1.60933,-0.19159 -3.18035,-0.19159 l -1.18784,0 q -1.91587,0 -10.72888,1.11121 -1.45607,0.19158 -3.2953,0.19158 -0.99626,0 -1.60933,-0.72803 l 0,-11.22701 q 0.49812,-0.76635 2.06914,-0.76635 l 7.28031,0 q 2.33736,0 3.41025,-1.7626 0.22991,0 0.30654,-5.09622 0,-4.32987 -2.6439,-7.01209 l 0,-0.0766 q 2.56727,-1.76261 2.56727,-7.58686 0,-3.79342 -0.45981,-3.79342 -0.84299,-1.49438 -4.36819,-1.49438 l -1.49438,0 q -1.07289,0 -1.5327,-0.68972 l 0,-6.51396 q 0,-0.53645 2.29905,-1.60933 4.98127,-2.98876 5.63266,-2.98876 l 7.242,0 z m 2.29904,0.2299 0.0383,0 q 1.30279,0.84298 1.30279,1.99251 l 0,0.45981 q 0,1.1112 -0.53644,13.14288 0,5.97752 1.41775,8.27656 l 0,0.0766 -0.0766,0 q -0.99625,-0.49813 -1.87755,-2.75886 -0.68972,-2.72053 -0.68972,-6.43733 l 0,-0.15327 q 0,-0.34485 -0.0766,-0.42149 0.0766,-0.30654 0.0766,-0.57476 0,-1.64765 0.45981,-13.02793 l 0,-0.15327 -0.0383,-0.42149 z m -18.62227,4.1766 0.0766,0 0,6.74387 q 0,1.41775 2.64391,1.64765 0,0.0766 0.99625,0.0766 l 1.64765,0 q 1.80092,0 2.49063,1.41774 0.0383,0 0.11496,1.99251 0,5.63266 -1.41775,6.8205 l 0,-0.0766 q 0.53645,-1.5327 0.53645,-3.44857 l 0,-3.21867 q -0.22991,-0.84298 -1.64765,-0.84298 l -1.87756,0 q -3.67847,0 -4.29155,-2.414 -0.0766,-0.45981 -0.0766,-0.99625 l 0,-5.40276 q 0,-1.80092 0.80467,-2.29905 z m 21.38113,20.34656 0.0383,0 q 1.41774,0.57476 1.41774,1.07289 0.0766,0.30654 0.0766,0.34486 0,0.84298 -1.5327,1.45606 -1.49438,1.37943 -1.49438,4.90463 l 0,0.15327 q 0,1.72429 0.0766,4.71305 l -0.19158,0 q -1.11121,-0.6514 -1.11121,-1.34111 -0.0383,-2.95045 -0.0383,-4.71305 0,-4.98127 2.22242,-6.39901 0.42149,-0.19159 0.53644,-0.19159 z m -16.43818,0.19159 q 3.06539,2.29904 3.06539,7.08872 0,4.78968 -0.38317,4.78968 -0.38318,0.34486 -0.53644,0.34486 l 0,-0.0766 q 0.0383,-1.80092 0.0383,-2.87381 l 0,-0.80467 q 0,-4.55977 -3.21866,-6.47565 -0.22991,-0.34485 -0.22991,-0.65139 l 0,-0.30654 q 0,-0.76635 1.26448,-1.03457 z m 25.67268,13.98586 0.0383,0 q 1.30279,0.8813 1.30279,1.83924 l 0,11.61018 q 0,1.99251 -3.2953,2.60559 l -1.30279,0 q -2.10746,0 -11.57187,-1.11121 -1.83923,-0.19158 -3.48688,-0.19158 -2.33737,0 -11.91673,1.22615 -0.91962,0.0766 -1.64765,0.0766 l -1.1112,0 q -1.64765,0 -3.0654,-1.34111 -0.42149,-0.72803 -0.42149,-1.26448 l 0,-11.61018 q 0,-0.72803 0.76635,-1.41775 l 0.0383,0 0,11.15038 q 0,1.49438 2.37568,1.83924 l 0.34486,0 q 2.52895,0 11.227,-1.11121 1.41775,-0.19159 2.95045,-0.19159 l 0.65139,0 q 2.68222,0 11.76346,1.11121 1.68596,0.19159 3.83174,0.19159 l 0.0383,0 q 1.95419,0 2.52895,-1.5327 l 0,-11.45692 -0.0383,-0.42149 z"
           style="font-style:normal;font-variant:normal;font-weight:bold;font-stretch:normal;font-size:78.47411346px;line-height:125%;font-family:'Rio Grande';-inkscape-font-specification:'Rio Grande, Bold';text-align:start;writing-mode:lr-tb;text-anchor:start;fill:#000000;stroke:none;stroke-opacity:1;fill-opacity:1"
           id="path4556" />
        <path
           d="m 728.29572,655.4037 q 0.38318,0 1.07289,0.2299 2.56727,1.37943 2.56727,3.79343 l 0,0.38318 q 0,1.41774 -0.76635,2.45231 -1.30279,1.45606 -2.33736,1.45606 0.34486,0.91962 0.34486,1.49438 l 0,0.0383 q 0,0.26822 -0.19159,0.68972 -1.07289,1.1112 -1.07289,1.64765 l 0,0.11495 q 0,0.38317 0.53644,0.80466 l 0,0.11496 q -0.15327,0.26822 -1.53269,0.34485 -1.41775,0 -2.26073,-1.14952 0,0.49813 -0.42149,1.87755 -1.91588,4.90464 -7.31863,4.90464 l -0.95794,-0.0766 q -3.9467,-0.76635 -3.9467,-3.64016 0,-0.30653 0.15327,-0.84298 0.61308,-1.83924 1.95419,-1.83924 l 0.30654,0 q 1.41775,0.49813 1.41775,1.41775 l 0,0.30654 -0.11495,0.19159 q -0.53645,-0.19159 -0.72804,-0.19159 -0.68971,0 -0.8813,0.8813 l 0,0.0766 q 0.38318,1.41775 2.22241,1.41775 0.76635,0 1.5327,-0.34486 1.99251,-1.22615 1.99251,-3.60184 0,-3.18034 -3.64016,-5.2878 -4.828,-2.14578 -7.85507,-2.414 l -0.11496,0 q 1.18785,0.99625 1.18785,2.29905 l -0.11496,0.68971 q -0.80466,1.91587 -3.10371,1.91587 l -0.19159,0 q -0.11495,0 -0.11495,-0.11495 l 0,-0.11495 q 0.95794,-0.91962 0.95794,-1.60934 l 0,-0.19158 q -0.4215,-1.45607 -4.09997,-1.5327 -5.40276,0 -12.45317,2.91212 -2.60558,1.18785 -6.09247,3.52521 -3.71679,2.75885 -7.05041,6.85882 -2.52895,3.2953 -4.06165,6.24574 l 0,0.0383 1.72429,-1.72428 q 7.35695,-6.09248 13.75596,-7.81676 l 0.0766,0 q -0.95793,-1.87756 -1.03457,-2.64391 l 0.11496,-0.76634 q 0.99625,-2.29905 2.75885,-2.29905 2.56727,0.38317 2.56727,2.22241 0,0.99625 -0.8813,1.72429 l -0.0766,0 q -0.2299,-1.11121 -0.84298,-1.11121 -0.80467,0 -1.07289,1.07289 l 0.0766,0.11495 q 0.15327,0.76635 1.41774,0.76635 1.68597,0 2.33736,-1.26448 0.11496,0 0.19159,0.30654 0,0.53645 -0.38317,1.07289 l 0,0.0766 q 4.98126,0 8.92796,1.91587 1.99251,0.6514 4.52146,3.2953 0.57476,1.22616 3.10371,3.5252 5.24949,3.75511 12.03168,3.75511 l 0.99625,0 q 2.37568,0 5.01958,-0.65139 3.41026,-1.14953 3.41026,-2.414 0,-0.99626 -1.37943,-1.22616 l -0.22991,0 q -0.49812,0 -0.76634,0.68971 0,0.34486 0.42149,0.91962 0,0.0766 -0.11496,0.22991 -1.68596,-0.4215 -1.68596,-1.95419 0.0766,-0.34486 0.0766,-0.57477 0.53645,-2.06914 2.26073,-2.06914 0.49813,0 1.18784,0.22991 0,-0.68972 0.95794,-1.68597 1.18784,-0.61308 1.18784,-1.60933 0,-0.34486 -0.0383,-1.41775 0.22991,-0.84298 0.68971,-0.84298 0.19159,0 0.38318,0.11495 2.26073,2.79717 2.26073,5.24949 0,2.68222 -2.26073,4.98127 -4.98127,4.1766 -13.02793,4.1766 l -0.38317,0 q -8.1233,0 -13.71765,-4.40651 0.15327,0.68972 0.15327,1.3028 0,0.76634 -0.30654,2.10745 -2.414,5.90089 -7.28031,5.90089 -2.83549,0 -4.52146,-2.14578 -0.91962,-2.03082 -1.64765,-2.03082 -1.5327,0.34486 -1.5327,1.37943 0,0.68971 1.14953,0.95793 0.42149,-0.0383 1.1112,-0.53644 l 0.11496,0 0.19158,0.11495 q -0.53644,1.64765 -2.03082,1.64765 l -0.30654,0 q -0.19159,0 -0.53644,-0.0383 -2.22242,-0.80466 -2.22242,-2.41399 0,-0.45981 0.15327,-1.07289 0.8813,-2.49064 2.95045,-2.49064 l 0.49812,0 q 1.34111,0 2.37568,1.3028 0.91962,-1.49438 2.10746,-1.49438 0.22991,0 0.72803,0.11495 1.22616,0.45981 1.22616,1.68597 l 0,0.61307 q 0,0.45981 -0.2299,0.53645 l -0.11495,0 q -0.34486,-0.6514 -0.61308,-0.68971 -0.53645,0 -0.6514,1.03457 0,0.76634 1.22616,0.76634 l 0.11495,0 q 1.5327,0 2.98876,-1.07288 1.91587,-1.60934 1.91587,-3.64016 l 0,-0.61308 q 0,-0.42149 -0.0766,-0.6514 -0.80467,-3.21866 -3.18035,-3.21866 l -0.57476,0.0766 q 0,-0.11495 -0.11495,-0.15327 0,-0.0383 0.0383,-0.57476 0,-0.76635 -0.30654,-1.57101 -1.53269,-3.33362 -6.39901,-3.33362 l -0.34485,0 q -1.5327,0 -2.49064,0.22991 -6.13079,0.76634 -13.33447,5.44107 -2.83549,1.7626 -6.8205,5.67098 l -0.19159,0 q -0.11495,0 -0.11495,-0.11495 l 0,-0.15327 q 1.64765,-3.48689 4.48314,-7.77844 6.62892,-9.73263 13.52606,-13.87091 10.15412,-5.51771 20.72973,-5.51771 5.51771,0 11.30364,1.87755 3.90838,1.60933 4.90464,1.60933 1.83923,-0.26822 1.83923,-1.30279 l 0,-0.26822 q -0.11495,-0.95794 -0.76635,-0.95794 -1.18784,0.22991 -1.18784,0.95794 0,0.2299 0.15327,0.53644 l -0.15327,0.26823 q -0.95793,-0.49813 -0.95793,-1.37943 l 0,-0.49813 q 0.99625,-2.68222 2.91212,-2.68222 l 0.72803,0 z m -18.54564,5.21117 0,0.0383 0.22991,0 0,-0.0383 -0.22991,0 z"
           style="font-style:normal;font-variant:normal;font-weight:bold;font-stretch:normal;font-size:78.47411346px;line-height:125%;font-family:'Rio Grande';-inkscape-font-specification:'Rio Grande, Bold';text-align:start;writing-mode:lr-tb;text-anchor:start;fill:#000000;stroke:none;stroke-opacity:1;fill-opacity:1"
           id="path4558" />
      </g>
      <g
         style="font-style:normal;font-variant:normal;font-weight:bold;font-stretch:normal;font-size:187.82608032px;line-height:125%;font-family:'Rio Grande';-inkscape-font-specification:'Rio Grande, Bold';text-align:center;letter-spacing:0px;word-spacing:0px;writing-mode:lr-tb;text-anchor:middle;fill:#000000;fill-opacity:1;stroke:none;stroke-width:1px;stroke-linecap:butt;stroke-linejoin:miter;stroke-opacity:1"
         id="text4359-9">
        <path
           d="m 272.38941,506.18515 q 15.13247,2.38451 27.88043,2.38451 l 1.5591,0 q 12.74796,0 28.52242,-2.38451 l 0.18342,0 q 1.83424,0 2.93479,1.28396 l 0,25.58764 q -1.00883,1.37568 -3.20992,1.37568 l -4.12704,0 q -3.39334,0 -3.39334,2.84307 6.23641,18.80095 9.90489,23.29483 2.47622,3.0265 5.68614,4.95245 l 0,0.0917 q -1.28397,2.10938 -1.28397,5.41101 l 0,0.0917 q 0,7.42867 6.8784,24.21195 2.65965,3.20992 7.88723,3.20992 l 2.2928,0 q 2.56793,0 3.57676,1.37568 l 0,27.42188 q -1.19225,1.46739 -3.30163,1.46739 -9.9966,-1.46739 -19.07608,-1.46739 l -0.82541,0 q -9.35462,0 -22.19429,1.46739 -1.92596,0 -3.11821,-1.46739 l 0,-27.42188 q 0.27514,-1.37568 7.24524,-1.65081 5.50272,-1.83424 5.50272,-5.68614 l 0,-0.27514 q 0,-1.10054 -4.12704,-12.01427 -0.91712,-3.1182 -3.20992,-4.49388 -2.65964,-1.28397 -5.50271,-1.28397 l -15.68275,0 q -6.69497,0 -8.62092,5.96128 -4.21875,10.82201 -4.21875,12.10598 0,4.31046 6.51155,5.77785 5.411,0 6.05299,1.46739 l 0,27.69701 q -1.10055,1.28397 -3.30163,1.28397 -11.55571,-1.83424 -22.65286,-1.83424 l -0.18342,0 q -8.25408,0 -19.07609,1.83424 -1.83423,0 -3.1182,-1.46739 l 0,-27.42188 q 1.00883,-1.37568 3.57676,-1.37568 l 2.20109,0 q 6.23641,0 8.34579,-4.12704 7.06182,-16.69157 7.06182,-23.29483 0,-3.11821 -1.65082,-5.77785 l 0,-0.27514 q 6.60326,-5.22758 9.1712,-11.46399 2.20109,-4.12704 6.51155,-16.23302 0,-2.93478 -3.39334,-2.93478 l -4.12704,0 q -2.2928,0 -3.20992,-1.37568 l 0,-25.58764 q 1.10054,-1.28396 3.11821,-1.28396 z m 63.09782,0.45856 0.0917,0 q 3.11821,1.5591 3.11821,5.86956 l 0,23.29484 q 0,5.04415 -4.21875,6.69497 -2.65965,0.82541 -5.50272,0.82541 4.76902,13.94021 7.24525,17.33356 0.0917,0.0917 1.10054,1.46739 l 0,0.0917 q -4.5856,-2.75136 -9.07948,-15.49932 l -3.39335,-9.62976 0.45856,-0.27513 4.76902,0 q 5.41101,-0.7337 5.41101,-3.20992 l 0,-26.96331 z m -68.96739,0.8254 0.18342,0 0,25.86277 q 0,3.0265 5.77786,3.48506 l 4.49388,0 q 0.27514,0.0917 0.27514,0.27513 l 0,0.18343 q -4.40217,13.38994 -7.88723,18.4341 l 0,-0.27514 q 2.56794,-4.95244 4.95245,-12.10597 l -0.0917,0 q -9.62976,0 -9.62976,-7.52038 l 0,-22.83628 q 0,-4.31046 1.92595,-5.50272 z m 24.30367,56.58628 q 0,4.21875 5.96128,5.77785 1.10054,0.36685 2.38451,0.36685 l 4.67731,0 q 5.68614,0 7.88722,-4.31046 0.27514,-0.55027 0.27514,-1.55911 l 0,-0.36684 q 0,-1.37568 -5.04416,-16.78329 -2.56793,-6.78669 -5.411,-6.78669 -3.66848,0 -6.60326,10.27174 -1.83424,5.22758 -4.12704,13.38995 z m 10.18003,-21.18546 0.18342,0 q 2.47622,0 7.88723,19.80978 0.36685,0.45856 0.36685,1.37568 l 0,0.55027 q 0,1.10054 -1.92596,2.47622 l -0.45856,0 q -2.75135,-10.18002 -5.22758,-16.23301 l -0.0917,0 q -2.38451,6.1447 -5.411,16.59986 l -0.0917,0 q -3.30163,-1.00883 -3.30163,-3.20992 4.21875,-15.40761 7.24525,-20.63519 l 0.82541,-0.73369 z m 40.53668,22.46943 q 3.66848,1.00883 3.66848,3.1182 l 0,0.27514 q 0,1.74252 -2.2928,2.84307 -0.55027,1.00883 -0.82541,3.1182 0,5.59443 5.77785,20.91033 -2.2928,0 -4.03532,-6.41984 -4.86074,-12.2894 -4.86074,-17.79212 0,-4.49388 2.56794,-6.05298 z m -80.88994,0.18342 q 2.84307,1.5591 2.84307,6.1447 0,5.68614 -7.24525,22.46943 l -0.73369,0.55027 0,-0.27514 q 5.77785,-14.03192 5.77785,-19.07608 l 0,-0.55027 q 0,-3.11821 -2.75136,-3.94362 -1.19225,-1.00883 -1.19225,-1.92595 l 0,-0.45856 q 0,-2.20109 3.30163,-2.93478 z m 32.74116,11.37228 15.40761,0 q 5.50272,0 6.60326,4.40218 3.94362,10.63858 3.94362,11.18885 l 0,0.36685 q 0,1.65082 -2.38451,2.56794 -3.57677,-10.18003 -4.40218,-11.28057 -1.10054,-0.82541 -3.94361,-0.82541 l -13.94022,0 q -3.94361,0 -4.49389,1.5591 -4.03532,10.7303 -4.40217,11.00544 l -0.18342,0 q -2.10938,-0.82541 -2.93479,-2.56794 l 0,-1.10054 q 4.5856,-12.74796 5.50272,-13.57337 1.92595,-1.74253 5.22758,-1.74253 z m 1.65082,22.10258 0.18342,0 q 3.11821,1.74253 3.11821,4.76902 l 0,27.69701 q 0,4.5856 -7.06182,6.05299 l -1.28397,0 q -13.75679,-1.83424 -21.36888,-1.83424 -8.71264,0 -19.9015,1.83424 l -0.64198,0 q -5.22758,0 -7.61209,-4.49388 l -0.18343,-1.00883 0,-29.07269 q 0,-1.28397 1.83424,-3.11821 l 0.18343,0 0,27.69701 q 0.8254,3.66848 5.50271,3.66848 10.91372,-1.83424 18.98438,-1.83424 10.36345,0 23.0197,1.83424 5.411,-0.82541 5.411,-3.57677 l 0,-27.69701 -0.18342,-0.91712 z m 64.4735,0 0.27514,0 q 2.93478,1.83424 2.93478,4.49389 l 0,28.52242 q 0,3.02649 -4.76902,4.95244 -1.46739,0.55027 -2.84307,0.55027 l -0.55027,0 q -11.73913,-1.37568 -18.80095,-1.37568 -8.4375,0 -23.20313,1.37568 l -0.0917,0 q -4.86073,0 -7.52038,-4.21875 -0.27514,-1.28396 -0.27514,-1.83424 l 0,-27.42187 q 0,-2.75136 1.83424,-4.12704 l 0.18343,0 0,26.68818 q 0,3.02649 2.65964,4.03533 1.83424,0.55027 2.84307,0.55027 12.83968,-1.46739 22.56114,-1.46739 8.52922,0 19.62636,1.46739 3.8519,0 5.22758,-3.11821 l 0,-28.4307 -0.0917,-0.64199 z"
           style="font-style:normal;font-variant:normal;font-weight:bold;font-stretch:normal;font-size:187.82608032px;line-height:125%;font-family:'Rio Grande';-inkscape-font-specification:'Rio Grande, Bold';text-align:center;writing-mode:lr-tb;text-anchor:middle;fill:#000000;stroke:none;stroke-opacity:1;fill-opacity:1"
           id="path4561" />
        <path
           d="m 401.79497,504.90118 4.03533,0 q 11.37228,0 20.08491,2.93478 l 0.18343,0 q 1.65081,0 2.84307,-2.20109 1.65081,-0.73369 2.2928,-0.73369 l 15.77445,0 q 1.74253,0 3.11821,1.10054 -1.92595,13.0231 -1.92595,24.39538 l 0,2.2928 q 0,9.26291 1.83424,20.54348 -0.7337,1.28396 -5.68614,1.28396 l -9.99661,0 q -5.04415,0 -5.86956,-1.46739 l 0,-1.00883 q 0,-9.90489 -2.38451,-11.92255 -4.21875,-5.41101 -13.11481,-5.41101 l -1.28397,0 q -11.55571,0 -15.3159,6.69498 -1.28396,3.1182 -1.28396,5.13586 l 0,3.94362 q 0,0.45856 -0.0917,0.73369 l 0.0917,0.82541 0,1.55911 q 0,7.06182 4.12703,11.46399 -4.21874,4.03533 -4.21874,12.93138 0,12.01427 1.5591,13.7568 3.8519,7.52038 14.76562,7.52038 l 1.28397,0 q 10.18003,0 14.5822,-7.70381 1.28397,-3.39334 1.28397,-6.1447 l 0,-4.95244 q 1.00883,-1.46739 3.57676,-1.46739 l 14.49049,0 q 2.56794,0 3.57677,1.46739 l 0,23.75339 q 0,17.97555 -12.83967,23.0197 -8.89606,3.85191 -23.93682,3.85191 l -0.27514,0 q -29.1644,0 -36.31793,-12.28941 -3.30163,-5.22758 -3.30163,-16.23301 l 0,-8.98777 q 0,-22.28601 -6.41984,-28.52242 l 0,-0.18342 q 6.41984,-6.32813 6.41984,-31.64063 l 0,-6.97011 q 0,-13.02309 9.07948,-17.42527 7.15353,-3.94361 19.25951,-3.94361 z m 50.16644,0.36685 q 1.46739,0 3.02649,3.02649 0.27514,0.55027 0.27514,1.19226 l 0,0.36684 q -2.01766,15.95788 -2.01766,25.12908 0,10.18003 2.01766,22.10258 l 0,0.55027 q 0,3.94362 -6.97011,5.59443 -1.10054,0.0917 -2.38451,0.0917 l -12.56454,0 q -7.7038,0 -9.26291,-5.13587 -0.36684,-10.91372 -1.5591,-10.91372 -2.2928,-3.76019 -10.18003,-3.76019 -8.52921,0 -10.91372,3.76019 -1.19225,1.37568 -1.19225,5.22758 l 0,3.57677 q 0,5.22758 1.74252,8.16236 l -0.18342,0 q -4.5856,-2.65964 -4.67731,-11.5557 l 0,-4.49389 q 0,-11.09715 14.21535,-11.09715 l 0.91712,0 q 10.36345,0 12.93139,6.8784 0.73369,1.65082 0.73369,8.98777 0,3.94362 7.97894,3.94362 l 10.45517,0 q 6.05298,0 7.52038,-2.38452 l 0.27513,-1.00883 q -2.01766,-12.01426 -2.01766,-21.55231 0,-10.73029 2.01766,-26.22961 -0.18342,-0.27514 -0.18342,-0.45856 z m -79.23913,10.18002 0,0.0917 q -1.83424,4.5856 -1.83424,10.27174 l 0,6.41984 q 0,24.5788 -5.13587,30.08152 l 0,-0.27513 q 3.11821,-5.50272 3.11821,-31.4572 l 0,-1.92596 q 0,-7.88722 3.8519,-13.20652 z m 30.54008,50.07473 q 2.75136,1.74253 2.93478,2.20109 0.36685,0.55027 0.36685,1.19225 l 0,0.55027 q 0,1.55911 -3.57676,3.11821 -2.75136,2.56793 -2.75136,8.71264 l 0,5.13586 q 0,6.14471 1.5591,7.97894 l 0,0.27514 q -4.67731,-2.75136 -4.67731,-11.37228 0,-3.0265 -0.18342,-4.31046 0,-10.45517 5.13587,-13.11481 l 1.19225,-0.36685 z m -39.80299,0.27514 q 7.42867,3.30163 7.42867,29.80638 l 0,8.80435 q 0,18.34239 13.84851,24.48709 10.18002,4.5856 26.96331,4.5856 l 1.92595,0 q 27.23845,0 34.94226,-12.83968 3.57676,-6.60326 3.57676,-13.94021 l 0,-26.50476 -0.18342,-0.73369 0.36685,0 q 2.93478,1.83424 2.93478,4.58559 l 0,26.50476 q 0,13.38994 -9.07948,21.18546 -10.36346,8.16236 -31.36549,8.16236 l -3.11821,0 q -42.82948,0 -42.82948,-30.08152 l 0,-7.15353 q 0,-28.52242 -6.1447,-30.81522 -1.65082,-0.73369 -2.10938,-1.92595 l 0,-1.28396 q 0,-1.37568 2.84307,-2.84307 z m 62.27242,14.67391 0.18342,0 0,4.95244 q 0,3.85191 -2.38451,7.42867 l -0.36685,0 q 0.7337,-2.20109 0.7337,-4.31046 l 0,-4.67731 q 0,-1.74253 1.83424,-3.39334 z"
           style="font-style:normal;font-variant:normal;font-weight:bold;font-stretch:normal;font-size:187.82608032px;line-height:125%;font-family:'Rio Grande';-inkscape-font-specification:'Rio Grande, Bold';text-align:center;writing-mode:lr-tb;text-anchor:middle;fill:#000000;stroke:none;stroke-opacity:1;fill-opacity:1"
           id="path4563" />
        <path
           d="m 520.28681,505.72659 2.56793,0 q 19.1678,0 27.42188,14.21535 2.56793,5.59443 2.56793,11.37228 l 0,15.40761 q 0,9.72147 -4.12704,11.5557 -3.1182,2.10938 -11.5557,4.5856 -3.94362,0.45856 -3.94362,3.57677 l 0,0.0917 q 0,4.76902 5.68614,6.32813 6.32813,0.8254 9.72147,2.84307 4.03533,2.47622 4.03533,9.9966 0.18342,0 0.18342,2.2928 l 0,0.82541 q 0,1.19225 -0.27514,4.21875 0,3.76019 6.32813,5.50271 1.5591,0.0917 2.65965,0.0917 l 5.59443,0 q 2.56793,0 3.57676,1.4674 l 0,27.23845 q -1.00883,1.46739 -3.57676,1.46739 l -22.46943,0 q -13.11481,0 -16.59987,-4.12704 -1.83424,-3.0265 -1.83424,-7.97894 l 0,-29.34783 q 0,-9.2629 -2.29279,-12.10597 -4.95245,-7.24525 -17.05843,-7.24525 l -0.0917,0 q -6.1447,0 -8.07065,4.49389 -0.27514,0.55027 -0.27514,1.5591 l 0,18.25068 q 0,4.03533 4.49389,5.68614 1.83424,0.64198 4.21875,0.64198 l 5.50272,0 q 2.29279,0 3.39334,1.4674 l 0,27.23845 q -1.00883,1.46739 -3.48506,1.46739 l -46.31453,0 q -2.56794,0 -3.57677,-1.46739 l 0,-27.23845 q 1.00883,-1.4674 3.57677,-1.4674 l 1.74252,0 q 6.97011,0 8.89606,-4.49388 0.27514,-1.28397 0.27514,-1.83424 l 0,-10.08832 q 0,-12.65624 -4.76902,-17.33355 l 0,-0.18343 q 4.76902,-4.31046 4.76902,-16.875 l 0,-6.51155 q 0,-6.60326 -9.9966,-6.60326 l -1.28397,0 q -2.20109,0 -3.20992,-1.37568 l 0,-25.40421 q 1.00883,-1.37568 3.11821,-1.37568 12.56453,1.83424 20.54347,1.83424 l 2.2928,0 q 11.09715,0 27.6053,-2.38451 1.37568,-0.27513 4.03533,-0.27513 z m -60.25476,2.10937 0.0917,0 0,25.58764 q 0.8254,3.66847 5.411,3.66847 l 1.5591,0 q 7.6121,0 7.6121,4.67731 l 0,6.05299 q 0,10.82201 -3.39335,14.39878 l 0,-0.27514 q 1.37568,-3.94361 1.37568,-10.63858 -0.0917,-5.96128 -0.0917,-6.69498 -0.91712,-1.19225 -7.79551,-1.19225 -6.60326,-1.65082 -6.60326,-5.77785 l 0,-26.68818 q 0,-1.37568 1.83423,-3.11821 z m 87.86006,5.22758 0.18342,0 q 9.9966,8.52921 9.9966,23.38655 l 0,11.92255 q 0,14.76563 -5.96127,17.6087 -3.76019,2.56793 -11.55571,4.95244 l -0.0917,0 q -3.57677,0 -5.13587,-3.30163 l 0,-1.65081 q 0.36685,-0.36685 6.69497,-2.10938 7.79552,-2.65964 10.63859,-6.23641 2.2928,-3.02649 2.2928,-14.85734 l 0,-7.88722 q 0,-11.83085 -3.85191,-17.51699 -1.83424,-2.75135 -3.20991,-4.31046 z m -49.43275,27.88044 0,16.32472 q 0,5.22758 7.33696,6.1447 0,0.18343 1.83424,0.18343 l 9.53804,0 q 6.32813,0 7.06182,-3.48506 0.27514,-2.01766 0.82541,-13.57337 0,-7.88722 -2.75136,-9.72146 -2.56793,-2.10938 -12.56454,-2.10938 l -1.28396,0 q -8.52922,0 -9.81318,4.95245 -0.18343,0.73369 -0.18343,1.28397 z m 9.72147,-3.85191 q 12.65625,0 13.38994,2.65965 0.7337,1.83424 1.00884,7.06182 -0.64199,13.57337 -1.19226,13.57337 -0.64198,0.64198 -1.37568,0.82541 0,-0.18343 -0.18342,-0.18343 0.64198,-7.24524 0.64198,-10.36345 l 0,-0.55027 q 0,-5.68614 -1.46739,-5.68614 0,-0.45856 -5.86956,-0.82541 l -6.51155,0 q -1.92595,0 -2.93479,1.10055 l 0,15.95788 -0.18342,0.27513 q -2.93478,-1.28397 -2.93478,-3.1182 l 0,-17.33356 q 0,-1.37568 2.65964,-2.65965 1.28397,-0.7337 4.95245,-0.7337 z m -39.52785,28.43071 q 1.5591,0 4.03532,4.12704 2.01767,4.67731 2.01767,13.66508 l 0,7.88723 q 0,3.39334 -1.83424,4.03532 0,0.18343 -0.18343,0.18343 0,-0.18343 -0.0917,-0.18343 0.0917,-5.31929 0.0917,-7.42867 0,-14.39877 -4.49388,-16.23301 -2.56794,-0.7337 -2.56794,-2.93478 0,-1.83424 3.0265,-3.11821 z m 37.87703,4.86073 q 12.01427,0 15.86617,7.42867 1.10055,2.65965 1.10055,5.77785 l 0,28.15557 q 0,13.29824 3.39334,15.49932 4.40217,3.94362 18.34239,3.94362 l 21.91916,0 q 4.49388,0 5.50271,-3.20992 l 0,-28.15557 -0.0917,-0.7337 0.0917,0 q 3.11821,1.65082 3.11821,4.49389 l 0,28.43071 q 0,4.03532 -7.15353,5.50271 l -24.48709,0 q -16.50816,0 -20.36006,-7.06182 -2.20109,-3.8519 -2.20109,-11.28057 l 0,-31.36549 q 0,-11.09714 -14.94904,-11.09714 -1.46739,0 -2.93479,1.10054 l 0,17.88383 -0.18342,0.27514 q -2.93478,-1.28397 -2.93478,-3.11821 l 0,-19.1678 q 1.10054,-3.30163 5.96127,-3.30163 z m 46.0394,6.05299 0.0917,0 q 5.411,3.39334 5.411,16.41644 -0.18342,2.10938 -0.18342,2.84307 -0.27514,0 -0.27514,0.27514 -1.92595,-0.7337 -2.84307,-2.20109 l -0.0917,-0.73369 q 0,-1.00884 0.27514,-4.40218 0,-7.79551 -2.38452,-12.19769 z m -34.66711,22.65285 0.18342,0 q 3.0265,1.65082 3.0265,4.76903 l 0,27.78872 q 0,4.76902 -7.6121,5.86956 l -47.5985,0 q -4.95245,0 -7.42867,-4.21875 -0.27513,-0.91712 -0.27513,-1.28396 l 0,-28.98098 q 0,-1.28397 1.83423,-3.11821 l 0.0917,0 0,27.6053 q 0.91712,3.66848 5.50271,3.66848 l 46.95652,0 q 3.85191,0 5.50272,-2.93478 l 0,-28.43071 -0.18342,-0.7337 z"
           style="font-style:normal;font-variant:normal;font-weight:bold;font-stretch:normal;font-size:187.82608032px;line-height:125%;font-family:'Rio Grande';-inkscape-font-specification:'Rio Grande, Bold';text-align:center;writing-mode:lr-tb;text-anchor:middle;fill:#000000;stroke:none;stroke-opacity:1;fill-opacity:1"
           id="path4565" />
        <path
           d="m 645.19851,506.09343 3.02649,0 q 24.67052,1.10055 24.67052,1.55911 0.82541,0.64198 0.82541,0.8254 -3.39335,16.59987 -3.39335,24.02854 l 0,2.10937 q 0,8.34579 3.20992,17.15014 l 0,0.0917 q -0.91712,1.19225 -3.30163,1.19225 l -14.21535,0 q -2.56794,0 -3.57677,-1.46739 l 0,-6.60326 q 0,-6.23641 -3.20992,-8.07065 -2.75135,-1.83424 -11.83084,-1.83424 l -6.97011,0 q -7.88722,0 -9.35462,4.86073 -0.0917,0.55028 -0.0917,1.10055 l 0,16.59986 q 0,4.76902 7.15353,5.77785 0.82541,0.18343 2.65965,0.18343 l 14.76563,0 q 2.56793,0 3.39334,1.37568 l 0,1.5591 q -0.64199,1.37568 -5.59443,1.37568 l -14.85734,0 q -4.12704,0 -6.87839,3.30163 -0.64199,1.19226 -0.64199,2.84307 l 0,18.25068 q 0,5.13587 8.34579,5.96128 l 6.60326,0 q 12.38111,0 13.94022,-2.20109 2.56793,-2.38451 2.56793,-6.69497 l 0,-9.44633 q 0.7337,-1.55911 4.12704,-1.55911 l 13.11481,0 q 4.03533,0.18343 4.03533,1.37568 -2.93479,9.9966 -2.93479,21.00204 0,9.81318 2.93479,26.22962 -1.37568,1.10054 -4.03533,1.10054 -21.27717,0.82541 -24.21196,0.82541 -5.86956,0 -23.0197,-2.65965 -9.17119,-0.73369 -14.5822,-0.73369 -11.64742,0 -22.286,2.56793 -3.30163,-0.64198 -3.30163,-1.37568 l 0,-27.14674 q 1.00883,-1.28396 3.02649,-1.28396 l 4.03533,0 q 7.33695,0 9.44633,-3.30163 0.82541,-1.28397 0.82541,-3.94362 0,-3.66848 0.18342,-8.25407 0,-13.29824 -4.86073,-18.06726 2.65964,-3.30163 3.20992,-5.96128 1.46739,-3.66847 1.46739,-14.49048 l 0,-2.10938 q 0,-4.76902 -4.03533,-6.23641 -2.20109,-0.82541 -5.411,-0.82541 l -4.76903,0 q -2.20108,0 -3.1182,-1.37568 l 0,-25.12907 q 0.91712,-1.37568 3.1182,-1.37568 10.7303,3.66848 21.91916,3.66848 l 1.10054,0 q 12.93139,0 30.44837,-4.21875 3.11821,-0.55028 6.32813,-0.55028 z m 30.44837,1.55911 0.27513,0 q 2.93478,1.83424 2.93478,4.40217 l 0,0.18342 q -3.48505,18.3424 -3.48505,23.93682 l 0,1.65082 q 0,8.52921 3.48505,17.42527 l 0,0.55027 q 0,4.67731 -7.52038,5.86957 l -15.59103,0 q -4.5856,0 -7.24524,-3.76019 -0.55027,-1.00883 -0.55027,-2.56794 l 0,-4.95244 q 0,-5.68614 -1.55911,-5.68614 -1.5591,-0.91712 -5.77785,-0.91712 l -12.01427,0 q -2.47622,0.55027 -2.47622,1.19225 l 0,15.86617 -0.18342,0 q -3.0265,-1.10054 -3.0265,-3.20992 l 0,-15.59103 q 0,-4.5856 7.33696,-4.5856 l 7.15353,0 q 9.53805,0 11.28057,2.20109 1.19226,1.74253 1.19226,5.31929 l 0,5.96128 q 0,2.84307 2.38451,3.76019 1.65081,0.64198 3.20992,0.64198 l 14.49049,0 q 5.13586,0 5.86956,-3.48505 -3.48505,-8.52921 -3.48505,-18.4341 0,-7.70381 3.48505,-25.12908 l 0,-0.27514 q -0.18342,-0.27513 -0.18342,-0.36684 z m -96.02242,0.8254 0.0917,0 0,25.3125 q 0.7337,3.66848 5.41101,3.66848 l 4.67731,0 q 7.33695,0 7.33695,4.5856 l 0,0.64198 q 0,16.50815 -3.30163,19.35123 0,0.45855 -0.27513,0.45855 l 0,-0.27513 q 1.46739,-4.12704 1.46739,-11.18886 l 0,-6.05299 q -1.00883,-1.19225 -2.93478,-1.19225 l -4.03533,0 q -8.89606,0 -10.27174,-5.13587 l 0,-27.14674 q 0,-1.37568 1.83424,-3.0265 z m 71.07677,55.57745 q 3.39334,1.19225 3.39334,5.50272 0,4.58559 -4.5856,6.32812 -2.01766,0.64198 -4.31046,0.64198 l -16.04959,0 q -2.01767,0 -3.0265,1.10055 l 0,17.88383 -0.18342,0 q -3.0265,-1.10055 -3.0265,-3.39334 l 0,-16.96672 q 0,-3.30163 2.47623,-4.21875 1.46739,-0.64198 3.1182,-0.64198 l 14.67391,0 q 6.32813,0 7.42867,-2.47622 0.27514,-0.45856 0.27514,-0.91712 l 0,-2.20109 -0.18342,-0.64198 z m -59.24593,1.37568 q 2.10938,0.91712 3.85191,4.31046 1.83423,4.49388 1.83423,13.20652 l 0,8.25408 q 0,2.93478 -1.83423,3.76019 l -0.27514,0 q 0.18342,-5.04416 0.18342,-7.24525 l 0,-0.73369 q 0,-12.56454 -3.76019,-15.3159 -2.93478,-0.7337 -2.93478,-3.30163 0,-1.46739 2.93478,-2.93478 z m 84.375,13.29823 q 3.02649,1.92595 3.02649,4.49389 l 0,0.55027 q -2.93478,10.18002 -2.93478,20.08492 l 0,1.46739 q 0,9.2629 2.93478,25.40421 l 0,0.27513 q 0,4.21875 -7.33695,5.68615 l -0.45856,0 -22.65285,0.8254 -4.21875,0 q -4.5856,0 -18.25068,-2.10937 -9.99661,-1.19226 -16.96671,-1.19226 -10.82201,0 -23.11142,2.47623 l -0.0917,0 q -7.97894,-1.00884 -7.97894,-5.86957 l 0,-28.06386 q 0,-1.65081 1.83424,-3.20992 l 0.0917,0 0,27.23845 q 0,3.0265 5.68614,3.66848 10.82201,-2.56793 22.83628,-2.56793 11.28057,0 29.71467,2.93478 2.65965,0.45856 7.33696,0.45856 26.59647,-0.82541 26.59647,-1.10054 3.94361,-1.00884 3.94361,-3.11821 -2.93478,-15.86617 -2.93478,-24.94565 l 0,-2.75136 q 0,-9.26291 2.93478,-19.71807 l 0,-0.45856 -0.18342,-0.27514 q 0.18342,0 0.18342,-0.18342 z m -26.04619,1.00883 0.0917,0 0,9.72147 q 0,3.48505 -1.92595,5.04416 l -0.0917,0 q 0.0917,-1.92595 0.0917,-2.75136 l 0,-7.52038 q 0,-3.11821 1.83424,-4.49389 z"
           style="font-style:normal;font-variant:normal;font-weight:bold;font-stretch:normal;font-size:187.82608032px;line-height:125%;font-family:'Rio Grande';-inkscape-font-specification:'Rio Grande, Bold';text-align:center;writing-mode:lr-tb;text-anchor:middle;fill:#000000;stroke:none;stroke-opacity:1;fill-opacity:1"
           id="path4567" />
        <path
           d="m 715.17469,504.99289 4.49389,0 q 12.2894,0 19.53465,2.20109 l 0.45856,0 q 1.00883,0 2.93478,-1.83424 1.00883,-0.36685 2.20109,-0.36685 l 14.76562,0 q 2.01766,0 3.11821,1.19226 l 0,39.161 q -1.00883,1.46739 -3.66848,1.46739 l -13.48166,0 q -3.76019,0 -3.76019,-2.56793 0,-6.05299 -3.39334,-8.52922 -3.0265,-1.46739 -7.15353,-1.46739 l -14.30707,0 q -8.25407,0 -9.9966,5.68614 -0.45856,1.92596 -0.45856,3.94362 l 0,9.07948 q 0,6.60326 3.8519,8.71264 3.39334,1.28396 6.60326,1.28396 l 1.10055,0 q 6.23641,0 10.54687,-2.93478 6.41984,2.75136 9.53804,2.75136 3.20992,0.55027 11.464,1.10054 13.11481,2.38451 13.11481,12.83968 l 0,34.20856 q 0,13.38994 -19.99321,17.42527 -4.12704,0.8254 -10.08831,0.8254 l -1.00884,0 q -14.21535,0 -22.37771,-2.84307 l -0.45856,0 q -1.37568,0 -2.65965,2.01767 -1.28397,0.8254 -2.84307,0.8254 l -14.03193,0 q -2.47622,0 -3.48505,-1.37567 l 0,-43.65489 q 0.55027,-1.37568 5.86956,-1.37568 l 9.1712,0 q 4.86073,0 5.68614,1.37568 l 0,4.76902 q 0,6.78668 5.13587,8.25407 2.75136,0.7337 5.13587,0.7337 l 15.04076,0 q 7.52038,0 9.44633,-4.12704 0.64198,-1.92595 0.64198,-4.86073 l 0,-12.38112 q 0,-5.96127 -3.20992,-7.7038 -2.01766,-1.00883 -3.66847,-1.00883 -3.30163,0 -6.32813,2.10937 -3.20992,-2.65964 -8.71263,-2.65964 l -14.5822,0 q -13.0231,0 -17.05843,-7.97894 -2.56793,-3.94362 -2.56793,-8.98777 l 0,-23.7534 q 0,-10.36345 8.52921,-16.1413 8.07065,-5.41101 20.91032,-5.41101 z m 49.34104,0.36685 q 1.37567,0 2.93478,2.93478 0.27513,0.55027 0.27513,1.19226 l 0,40.53668 q 0,3.57677 -6.32812,5.31929 -1.00883,0.18343 -1.5591,0.18343 l -14.30707,0 q -5.04416,0 -7.61209,-3.66848 -0.45856,-0.55027 -1.19226,-7.06182 0,-1.83424 -5.96127,-1.83424 l -12.56454,0 q -6.51155,0 -6.51155,3.02649 -0.0917,2.2928 -0.0917,3.48506 l 0,6.1447 q 0,2.2928 0.36685,4.21875 -0.0917,0 -0.0917,0.18342 -1.74252,-0.64198 -2.29279,-1.83424 -1.10055,-1.83424 -1.10055,-6.05299 l 0,-7.61209 q 0,-5.04416 2.20109,-6.41983 2.10937,-1.37568 6.23641,-1.37568 l 14.03193,0 q 5.96128,0 7.24525,2.47622 0.91711,2.47622 1.19225,7.06182 1.5591,2.93478 5.59443,2.93478 l 14.03193,0 q 4.40217,0 5.59443,-3.20992 l 0,-39.8947 -0.0917,-0.73369 z m -79.7894,11.92255 0.27513,0 0,0.18343 q -1.83424,3.48505 -1.83424,9.07948 l 0,24.5788 q 0,7.42867 6.51155,14.03193 5.50272,4.49389 14.76563,4.49389 l 15.22418,0 q 5.50272,0 8.71264,3.39334 l 0.27513,0 q 2.65965,-2.84307 6.05299,-2.84307 l 0.27514,0 q 4.12703,0.82541 4.12703,3.94361 0.27514,0 0.27514,2.84307 l 0,11.92256 q 0,4.49388 -1.83424,5.59443 l -0.27513,0 q 0.0917,-1.65082 0.0917,-2.38451 l 0,-9.53805 q 0,-5.86956 -1.37568,-5.86956 -0.45856,-0.18343 -0.55027,-0.18343 -2.65965,0 -5.22758,2.84307 l -1.00884,0.0917 -0.27513,0 q -1.00883,0 -3.76019,-2.38451 -1.28397,-1.10055 -6.97011,-1.10055 l -13.48166,0 q -17.97554,0 -22.74456,-15.95788 -0.7337,-2.2928 -0.7337,-4.49388 l 0,-26.59647 q 0,-5.96128 3.48506,-11.64742 z m 77.22146,50.53329 0.18342,0 q 5.59443,4.76902 5.59443,11.28057 l 0,37.05163 q 0,12.19769 -16.32472,18.89266 -8.07066,2.84307 -17.42527,2.84307 l -4.31047,0 q -11.73913,0 -19.53464,-2.38451 -2.75136,2.38451 -6.8784,2.38451 l -14.30706,0 q -4.95245,0 -7.42867,-4.21875 -0.27514,-0.91712 -0.27514,-1.28397 l 0,-45.03057 q 0,-1.5591 1.83424,-3.20991 l 0.0917,0 0,43.7466 q 0.82541,3.66848 5.50272,3.66848 l 14.03193,0 q 4.12704,0 5.86956,-2.75136 l 0.18343,0 q 7.7038,2.75136 22.74456,2.75136 l 1.83424,0 q 19.71807,0 28.79755,-11.18886 2.47623,-4.21875 2.47623,-8.34579 l 0,-36.31793 q 0,-4.40218 -2.65965,-7.70381 l 0,-0.18342 z m -53.65149,15.49932 0.27513,0 q 3.0265,1.74253 3.0265,4.5856 l 0,3.48505 q 0,2.20109 0.27513,3.39334 -0.18342,0 -0.18342,0.18343 -3.11821,-1.19226 -3.11821,-4.67731 -0.0917,-0.45856 -0.0917,-1.65082 l 0,-4.40217 -0.18342,-0.91712 z"
           style="font-style:normal;font-variant:normal;font-weight:bold;font-stretch:normal;font-size:187.82608032px;line-height:125%;font-family:'Rio Grande';-inkscape-font-specification:'Rio Grande, Bold';text-align:center;writing-mode:lr-tb;text-anchor:middle;fill:#000000;stroke:none;stroke-opacity:1;fill-opacity:1"
           id="path4569" />
      </g>
      <g
         id="g4405"
         style="fill:#000000;stroke:none;stroke-opacity:1;fill-opacity:1">
        <g
           style="font-style:normal;font-variant:normal;font-weight:bold;font-stretch:normal;font-size:286.21118164px;line-height:125%;font-family:'Rio Grande';-inkscape-font-specification:'Rio Grande, Bold';text-align:center;letter-spacing:0px;word-spacing:0px;writing-mode:lr-tb;text-anchor:middle;fill:#000000;fill-opacity:1;stroke:none;stroke-width:1px;stroke-linecap:butt;stroke-linejoin:miter;stroke-opacity:1"
           id="text4359">
          <path
             d="m 144.92234,276.59438 6.84783,0 q 18.7267,0 29.76708,3.35403 l 0.69875,0 q 1.53727,0 4.47205,-2.79503 1.53727,-0.559 3.35404,-0.559 l 22.5,0 q 3.07454,0 4.75155,1.81677 l 0,59.67391 q -1.53726,2.23602 -5.59006,2.23602 l -20.54348,0 q -5.72981,0 -5.72981,-3.91304 0,-9.2236 -5.17081,-12.99689 -4.6118,-2.23603 -10.90062,-2.23603 l -21.80124,0 q -12.57764,0 -15.23292,8.6646 -0.69876,2.93478 -0.69876,6.00931 l 0,13.83541 q 0,10.06211 5.86957,13.2764 5.17081,1.95652 10.06211,1.95652 l 1.67702,0 q 9.5031,0 16.07143,-4.47205 9.78261,4.19254 14.53416,4.19254 4.8913,0.83851 17.46894,1.67702 19.98447,3.63354 19.98447,19.56522 l 0,52.12733 q 0,20.40373 -30.46583,26.55279 -6.28882,1.25777 -15.37267,1.25777 l -1.53727,0 q -21.66149,0 -34.09938,-4.3323 l -0.69876,0 q -2.09627,0 -4.05279,3.07453 -1.95653,1.25777 -4.3323,1.25777 l -21.38199,0 q -3.77329,0 -5.31056,-2.09627 l 0,-66.52174 q 0.83851,-2.09628 8.9441,-2.09628 l 13.97516,0 q 7.40683,0 8.66459,2.09628 l 0,7.26708 q 0,10.34161 7.82609,12.57764 4.19255,1.11801 7.82609,1.11801 l 22.91925,0 q 11.45963,0 14.39441,-6.28882 0.97826,-2.93478 0.97826,-7.40683 l 0,-18.86646 q 0,-9.08385 -4.8913,-11.73913 -3.07454,-1.53727 -5.59006,-1.53727 -5.03106,0 -9.64286,3.21428 -4.89131,-4.05279 -13.2764,-4.05279 l -22.2205,0 q -19.84472,0 -25.99379,-12.15839 -3.91304,-6.00931 -3.91304,-13.69565 l 0,-36.19565 q 0,-15.79193 12.9969,-24.59627 12.29813,-8.24534 31.86335,-8.24534 z m 75.18634,0.559 q 2.09627,0 4.47205,4.47205 0.41925,0.83851 0.41925,1.81677 l 0,61.77019 q 0,5.45031 -9.64286,8.10559 -1.53726,0.2795 -2.37577,0.2795 l -21.80125,0 q -7.68633,0 -11.59937,-5.59006 -0.69876,-0.83851 -1.81677,-10.76087 0,-2.79503 -9.08386,-2.79503 l -19.14596,0 q -9.92236,0 -9.92236,4.6118 -0.13975,3.49379 -0.13975,5.31056 l 0,9.36335 q 0,3.49379 0.55901,6.42857 -0.13976,0 -0.13976,0.27951 -2.65528,-0.97826 -3.49378,-2.79503 -1.67702,-2.79504 -1.67702,-9.22361 l 0,-11.59938 q 0,-7.68633 3.35403,-9.7826 3.21429,-2.09628 9.50311,-2.09628 l 21.38199,0 q 9.08385,0 11.04037,3.77329 1.39752,3.7733 1.81677,10.76087 2.37578,4.47205 8.52485,4.47205 l 21.38198,0 q 6.70808,0 8.52485,-4.8913 l 0,-60.79193 -0.13975,-1.11801 z m -121.583856,18.1677 0.419255,0 0,0.27951 q -2.795031,5.31056 -2.795031,13.8354 l 0,37.45342 q 0,11.31987 9.922362,21.38198 8.38509,6.84783 22.5,6.84783 l 23.19876,0 q 8.38509,0 13.27639,5.17081 l 0.41926,0 q 4.05279,-4.3323 9.2236,-4.3323 l 0.41926,0 q 6.28882,1.25776 6.28882,6.00932 0.41925,0 0.41925,4.33229 l 0,18.16771 q 0,6.84782 -2.79503,8.52484 l -0.41926,0 q 0.13976,-2.51553 0.13976,-3.63354 l 0,-14.53416 q 0,-8.9441 -2.09628,-8.9441 -0.69875,-0.2795 -0.83851,-0.2795 -4.05279,0 -7.96584,4.33229 l -1.53726,0.13976 -0.41926,0 q -1.53726,0 -5.72981,-3.63354 -1.95652,-1.67702 -10.62112,-1.67702 l -20.54348,0 q -27.3913,0 -34.658382,-24.31677 -1.118013,-3.49379 -1.118013,-6.84783 l 0,-40.52795 q 0,-9.08385 5.310559,-17.74845 z m 117.670806,77.00311 0.27951,0 q 8.52484,7.26708 8.52484,17.18944 l 0,56.45963 q 0,18.58695 -24.87578,28.78882 -12.29813,4.3323 -26.55279,4.3323 l -6.56832,0 q -17.8882,0 -29.76709,-3.63354 -4.19254,3.63354 -10.48136,3.63354 l -21.80124,0 q -7.546588,0 -11.31988,-6.42858 -0.419255,-1.39751 -0.419255,-1.95652 l 0,-68.61801 q 0,-2.37578 2.795031,-4.8913 l 0.139752,0 0,66.66149 q 1.257764,5.59006 8.385092,5.59006 l 21.38199,0 q 6.28882,0 8.9441,-4.19255 l 0.2795,0 q 11.73913,4.19255 34.65839,4.19255 l 2.79503,0 q 30.04658,0 43.88199,-17.04969 3.77329,-6.42857 3.77329,-12.71739 l 0,-55.34162 q 0,-6.70807 -4.0528,-11.73913 l 0,-0.2795 z m -81.75466,23.61801 0.41926,0 q 4.6118,2.65528 4.6118,6.98758 l 0,5.31056 q 0,3.35404 0.41925,5.17081 -0.2795,0 -0.2795,0.2795 -4.75155,-1.81677 -4.75155,-7.12733 -0.13975,-0.69876 -0.13975,-2.51553 l 0,-6.70807 -0.27951,-1.39752 z"
             style="font-style:normal;font-variant:normal;font-weight:bold;font-stretch:normal;font-size:286.21118164px;line-height:125%;font-family:'Rio Grande';-inkscape-font-specification:'Rio Grande, Bold';text-align:center;writing-mode:lr-tb;text-anchor:middle;fill:#000000;stroke:none;stroke-opacity:1;fill-opacity:1"
             id="path4572" />
        </g>
        <g
           style="font-style:normal;font-variant:normal;font-weight:bold;font-stretch:normal;font-size:286.21118164px;line-height:125%;font-family:'Rio Grande';-inkscape-font-specification:'Rio Grande, Bold';text-align:center;letter-spacing:0px;word-spacing:0px;writing-mode:lr-tb;text-anchor:middle;fill:#000000;fill-opacity:1;stroke:none;stroke-width:1px;stroke-linecap:butt;stroke-linejoin:miter;stroke-opacity:1"
           id="text4359-2">
          <path
             d="m 519.38851,276.59441 6.84783,0 q 18.72671,0 29.76708,3.35403 l 0.69876,0 q 1.53726,0 4.47205,-2.79503 1.53726,-0.559 3.35403,-0.559 l 22.5,0 q 3.07454,0 4.75156,1.81677 l 0,59.67391 q -1.53727,2.23602 -5.59007,2.23602 l -20.54347,0 q -5.72982,0 -5.72982,-3.91304 0,-9.2236 -5.17081,-12.99689 -4.6118,-2.23603 -10.90062,-2.23603 l -21.80124,0 q -12.57764,0 -15.23292,8.6646 -0.69876,2.93478 -0.69876,6.00931 l 0,13.83541 q 0,10.06211 5.86957,13.2764 5.17081,1.95652 10.06211,1.95652 l 1.67702,0 q 9.50311,0 16.07143,-4.47205 9.78261,4.19254 14.53416,4.19254 4.8913,0.83851 17.46894,1.67702 19.98448,3.63354 19.98448,19.56522 l 0,52.12733 q 0,20.40373 -30.46584,26.5528 -6.28882,1.25776 -15.37267,1.25776 l -1.53727,0 q -21.66149,0 -34.09938,-4.3323 l -0.69876,0 q -2.09627,0 -4.05279,3.07454 -1.95652,1.25776 -4.3323,1.25776 l -21.38199,0 q -3.77329,0 -5.31056,-2.09627 l 0,-66.52174 q 0.83851,-2.09628 8.9441,-2.09628 l 13.97516,0 q 7.40683,0 8.66459,2.09628 l 0,7.26708 q 0,10.34161 7.82609,12.57764 4.19255,1.11801 7.82609,1.11801 l 22.91925,0 q 11.45963,0 14.39441,-6.28882 0.97826,-2.93478 0.97826,-7.40683 l 0,-18.86646 q 0,-9.08385 -4.8913,-11.73913 -3.07454,-1.53727 -5.59006,-1.53727 -5.03106,0 -9.64286,3.21429 -4.8913,-4.0528 -13.2764,-4.0528 l -22.22049,0 q -19.84473,0 -25.99379,-12.15838 -3.91305,-6.00932 -3.91305,-13.69566 l 0,-36.19565 q 0,-15.79192 12.9969,-24.59627 12.29813,-8.24534 31.86335,-8.24534 z m 75.18634,0.559 q 2.09627,0 4.47205,4.47205 0.41925,0.83851 0.41925,1.81677 l 0,61.77019 q 0,5.45031 -9.64286,8.10559 -1.53726,0.2795 -2.37577,0.2795 l -21.80124,0 q -7.68634,0 -11.59938,-5.59006 -0.69876,-0.83851 -1.81677,-10.76087 0,-2.79503 -9.08385,-2.79503 l -19.14597,0 q -9.92236,0 -9.92236,4.6118 -0.13975,3.49379 -0.13975,5.31056 l 0,9.36335 q 0,3.49379 0.55901,6.42857 -0.13975,0 -0.13975,0.27951 -2.65528,-0.97826 -3.49379,-2.79503 -1.67702,-2.79503 -1.67702,-9.22361 l 0,-11.59937 q 0,-7.68634 3.35404,-9.78261 3.21428,-2.09628 9.5031,-2.09628 l 21.38199,0 q 9.08385,0 11.04037,3.7733 1.39752,3.77329 1.81677,10.76086 2.37578,4.47205 8.52485,4.47205 l 21.38198,0 q 6.70808,0 8.52485,-4.8913 l 0,-60.79193 -0.13975,-1.11801 z m -121.58385,18.1677 0.41925,0 0,0.27951 q -2.79503,5.31056 -2.79503,13.8354 l 0,37.45342 q 0,11.31987 9.92236,21.38198 8.38509,6.84783 22.5,6.84783 l 23.19876,0 q 8.38509,0 13.2764,5.17081 l 0.41925,0 q 4.05279,-4.3323 9.2236,-4.3323 l 0.41926,0 q 6.28882,1.25776 6.28882,6.00932 0.41925,0 0.41925,4.3323 l 0,18.1677 q 0,6.84782 -2.79503,8.52484 l -0.41925,0 q 0.13975,-2.51553 0.13975,-3.63354 l 0,-14.53416 q 0,-8.9441 -2.09628,-8.9441 -0.69875,-0.2795 -0.83851,-0.2795 -4.05279,0 -7.96583,4.3323 l -1.53727,0.13975 -0.41926,0 q -1.53726,0 -5.72981,-3.63354 -1.95652,-1.67702 -10.62112,-1.67702 l -20.54348,0 q -27.3913,0 -34.65838,-24.31677 -1.11801,-3.49379 -1.11801,-6.84783 l 0,-40.52795 q 0,-9.08385 5.31056,-17.74845 z m 117.6708,77.00311 0.27951,0 q 8.52484,7.26708 8.52484,17.18944 l 0,56.45963 q 0,18.58696 -24.87577,28.78882 -12.29814,4.3323 -26.5528,4.3323 l -6.56832,0 q -17.8882,0 -29.76708,-3.63354 -4.19255,3.63354 -10.48137,3.63354 l -21.80124,0 q -7.54659,0 -11.31988,-6.42857 -0.41925,-1.39752 -0.41925,-1.95653 l 0,-68.61801 q 0,-2.37578 2.79503,-4.8913 l 0.13975,0 0,66.66149 q 1.25776,5.59006 8.38509,5.59006 l 21.38199,0 q 6.28882,0 8.9441,-4.19255 l 0.2795,0 q 11.73913,4.19255 34.65839,4.19255 l 2.79503,0 q 30.04658,0 43.88199,-17.04969 3.77329,-6.42857 3.77329,-12.71739 l 0,-55.34162 q 0,-6.70807 -4.0528,-11.73913 l 0,-0.2795 z m -81.75466,23.61801 0.41926,0 q 4.6118,2.65528 4.6118,6.98758 l 0,5.31056 q 0,3.35404 0.41926,5.17081 -0.27951,0 -0.27951,0.2795 -4.75155,-1.81677 -4.75155,-7.12733 -0.13975,-0.69876 -0.13975,-2.51553 l 0,-6.70807 -0.27951,-1.39752 z"
             style="font-style:normal;font-variant:normal;font-weight:bold;font-stretch:normal;font-size:286.21118164px;line-height:125%;font-family:'Rio Grande';-inkscape-font-specification:'Rio Grande, Bold';text-align:center;writing-mode:lr-tb;text-anchor:middle;fill:#000000;stroke:none;stroke-opacity:1;fill-opacity:1"
             id="path4575" />
        </g>
        <g
           style="font-style:normal;font-variant:normal;font-weight:bold;font-stretch:normal;font-size:96.33449554px;line-height:125%;font-family:'Rio Grande';-inkscape-font-specification:'Rio Grande, Bold';text-align:center;letter-spacing:0px;word-spacing:0px;writing-mode:lr-tb;text-anchor:middle;fill:#000000;fill-opacity:1;stroke:none;stroke-width:1px;stroke-linecap:butt;stroke-linejoin:miter;stroke-opacity:1"
           id="text4359-0">
          <path
             d="m 269.85378,344.23551 q 7.76133,1.22299 14.29965,1.22299 l 0.79966,0 q 6.53832,0 14.62892,-1.22299 l 0.0941,0 q 0.94077,0 1.50523,0.65853 l 0,13.1237 q -0.51742,0.70557 -1.64634,0.70557 l -2.11673,0 q -1.74042,0 -1.74042,1.45819 3.19861,9.64286 5.08014,11.94773 1.27004,1.55227 2.91638,2.54007 l 0,0.047 q -0.65854,1.08188 -0.65854,2.77526 l 0,0.047 q 0,3.81011 3.52788,12.41812 1.36411,1.64634 4.04529,1.64634 l 1.17596,0 q 1.31708,0 1.8345,0.70558 l 0,14.06446 q -0.6115,0.75261 -1.69338,0.75261 -5.12718,-0.75261 -9.78398,-0.75261 l -0.42334,0 q -4.79791,0 -11.38328,0.75261 -0.9878,0 -1.5993,-0.75261 l 0,-14.06446 q 0.14112,-0.70558 3.71603,-0.84669 2.8223,-0.94077 2.8223,-2.91638 l 0,-0.14111 q 0,-0.56446 -2.11673,-6.16203 -0.47038,-1.5993 -1.64634,-2.30487 -1.36411,-0.65854 -2.8223,-0.65854 l -8.04355,0 q -3.4338,0 -4.4216,3.05749 -2.16377,5.55052 -2.16377,6.20906 0,2.2108 3.33972,2.96341 2.77527,0 3.10453,0.75262 l 0,14.20557 q -0.56446,0.65854 -1.69338,0.65854 -5.92683,-0.94077 -11.61846,-0.94077 l -0.0941,0 q -4.23345,0 -9.78397,0.94077 -0.94077,0 -1.5993,-0.75261 l 0,-14.06446 q 0.51742,-0.70558 1.83449,-0.70558 l 1.12892,0 q 3.19861,0 4.28049,-2.11672 3.62195,-8.56098 3.62195,-11.94774 0,-1.5993 -0.84669,-2.96341 l 0,-0.14112 q 3.38676,-2.68118 4.70383,-5.87979 1.12892,-2.11672 3.33972,-8.32578 0,-1.50523 -1.74042,-1.50523 l -2.11672,0 q -1.17596,0 -1.64634,-0.70557 l 0,-13.1237 q 0.56446,-0.65853 1.5993,-0.65853 z m 32.36237,0.23519 0.047,0 q 1.5993,0.79965 1.5993,3.01045 l 0,11.94774 q 0,2.5871 -2.16376,3.43379 -1.36411,0.42335 -2.8223,0.42335 2.44599,7.14982 3.71603,8.89024 0.047,0.047 0.56446,0.75262 l 0,0.047 q -2.35192,-1.41115 -4.6568,-7.94947 l -1.74041,-4.93903 0.23519,-0.14111 2.44599,0 q 2.77526,-0.37631 2.77526,-1.64634 l 0,-13.82927 z m -35.37282,0.42334 0.0941,0 0,13.26481 q 0,1.55227 2.96341,1.78746 l 2.30488,0 q 0.14111,0.047 0.14111,0.14111 l 0,0.0941 q -2.25784,6.86759 -4.04529,9.4547 l 0,-0.14111 q 1.31707,-2.54007 2.54007,-6.20906 l -0.047,0 q -4.93903,0 -4.93903,-3.85714 l 0,-11.71255 q 0,-2.2108 0.98781,-2.8223 z m 12.46516,29.02265 q 0,2.16376 3.05749,2.96341 0.56446,0.18816 1.22299,0.18816 l 2.39896,0 q 2.91637,0 4.04529,-2.2108 0.14112,-0.28223 0.14112,-0.79965 l 0,-0.18816 q 0,-0.70557 -2.58711,-8.60801 -1.31707,-3.48084 -2.77526,-3.48084 -1.88153,0 -3.38676,5.26829 -0.94077,2.68119 -2.11672,6.8676 z m 5.22125,-10.86585 0.0941,0 q 1.27003,0 4.04529,10.16028 0.18816,0.23519 0.18816,0.70557 l 0,0.28223 q 0,0.56446 -0.98781,1.27004 l -0.23519,0 q -1.41115,-5.22126 -2.68118,-8.32579 l -0.047,0 q -1.223,3.15157 -2.77526,8.51394 l -0.047,0 q -1.69338,-0.51742 -1.69338,-1.64634 2.16376,-7.90244 3.71603,-10.58363 l 0.42334,-0.3763 z m 20.79094,11.52439 q 1.88153,0.51742 1.88153,1.5993 l 0,0.14111 q 0,0.89373 -1.17595,1.45819 -0.28223,0.51742 -0.42335,1.59931 0,2.86933 2.96342,10.72474 -1.17596,0 -2.06969,-3.29269 -2.49303,-6.30313 -2.49303,-9.12543 0,-2.30488 1.31707,-3.10453 z m -41.4878,0.0941 q 1.45818,0.79966 1.45818,3.15157 0,2.91638 -3.71602,11.52439 l -0.37631,0.28223 0,-0.14111 q 2.96341,-7.19687 2.96341,-9.78398 l 0,-0.28223 q 0,-1.5993 -1.41115,-2.02264 -0.61149,-0.51743 -0.61149,-0.98781 l 0,-0.23519 q 0,-1.12892 1.69338,-1.50523 z m 16.79268,5.83276 7.90244,0 q 2.8223,0 3.38676,2.25784 2.02265,5.45644 2.02265,5.73867 l 0,0.18816 q 0,0.84669 -1.223,1.31707 -1.8345,-5.22126 -2.25784,-5.78572 -0.56446,-0.42334 -2.02265,-0.42334 l -7.14982,0 q -2.02265,0 -2.30488,0.79965 -2.06969,5.50349 -2.25784,5.6446 l -0.0941,0 q -1.08188,-0.42334 -1.50523,-1.31707 l 0,-0.56446 q 2.35192,-6.53833 2.8223,-6.96168 0.98781,-0.89372 2.68119,-0.89372 z m 0.84669,11.33623 0.0941,0 q 1.5993,0.89373 1.5993,2.446 l 0,14.20557 q 0,2.35192 -3.62195,3.10453 l -0.65854,0 q -7.05575,-0.94077 -10.95993,-0.94077 -4.46864,0 -10.20732,0.94077 l -0.32926,0 q -2.68119,0 -3.90419,-2.30488 l -0.0941,-0.51742 0,-14.91115 q 0,-0.65854 0.94076,-1.5993 l 0.0941,0 0,14.20557 q 0.42335,1.88154 2.8223,1.88154 5.59756,-0.94077 9.73693,-0.94077 5.31533,0 11.80662,0.94077 2.77527,-0.42335 2.77527,-1.8345 l 0,-14.20557 -0.0941,-0.47039 z m 33.06794,0 0.14112,0 q 1.50522,0.94077 1.50522,2.30488 l 0,14.62892 q 0,1.55227 -2.44599,2.54007 -0.75261,0.28223 -1.45819,0.28223 l -0.28223,0 q -6.0209,-0.70557 -9.64285,-0.70557 -4.32753,0 -11.9007,0.70557 l -0.047,0 q -2.49303,0 -3.85714,-2.16376 -0.14112,-0.65854 -0.14112,-0.94077 l 0,-14.06446 q 0,-1.41115 0.94077,-2.11672 l 0.0941,0 0,13.68815 q 0,1.55226 1.36411,2.06969 0.94076,0.28223 1.45819,0.28223 6.58536,-0.75262 11.57142,-0.75262 4.37457,0 10.06621,0.75262 1.97561,0 2.68118,-1.59931 l 0,-14.58188 -0.047,-0.32927 z"
             style="font-style:normal;font-variant:normal;font-weight:bold;font-stretch:normal;font-size:96.33449554px;line-height:125%;font-family:'Rio Grande';-inkscape-font-specification:'Rio Grande, Bold';text-align:center;writing-mode:lr-tb;text-anchor:middle;fill:#000000;stroke:none;stroke-opacity:1;fill-opacity:1"
             id="path4578" />
          <path
             d="m 321.26667,344.09439 q 4.51568,0.94077 8.4669,0.94077 2.8223,0 8.98432,-0.94077 1.64635,0 2.35192,2.2108 11.99477,22.81359 12.32404,23.37805 1.41115,1.36411 3.57492,1.36411 l 0.14111,0 q 3.01045,0 4.0453,-2.30488 0.14111,-0.28223 0.14111,-0.79965 l 0,-6.20906 q 0,-2.54007 -3.99826,-3.10453 l -3.10453,0 q -1.5993,0 -2.11672,-0.70557 l 0,-13.07666 q 0,-0.42334 1.45819,-0.75261 l 0.0941,0 5.45645,0.94077 q 3.52787,0.51742 7.14983,0.51742 5.73867,0 12.51219,-1.45819 1.03484,0 1.5993,0.65854 l 0,13.17073 q -0.51742,0.70557 -1.88153,0.70557 l -2.16376,0 q -3.01045,0 -4.13937,2.25784 -0.18816,0.75262 -0.18816,0.79965 -0.047,3.48084 -0.047,5.36237 0,4.93903 3.57492,7.19687 0,0.18815 -0.79966,1.36411 -2.72822,4.84495 -2.72822,20.3676 l 0,10.4425 q -0.51742,0.65854 -1.64634,0.65854 l -7.99652,0 q -1.74041,0 -2.11672,-1.12892 -11.14808,-21.87282 -12.60627,-24.64808 -1.36411,-1.69338 -3.71603,-1.69338 l -0.28223,0 q -3.10453,0 -4.09233,2.49303 -0.047,0.37631 -0.047,0.70557 l 0,5.59757 q 0,1.9756 2.44599,2.86933 0.98781,0.28223 1.5993,0.28223 l 2.63415,0 q 1.36411,0 1.92857,0.70558 l 0,14.1115 q -0.56446,0.70557 -1.64634,0.70557 -7.90244,-1.12892 -14.1115,-1.12892 -5.17421,0 -11.05401,1.12892 -1.5993,-0.28223 -1.5993,-0.70557 l 0,-14.1115 q 0,-0.56446 2.11673,-0.70558 l 2.68118,0 q 2.96342,0 4.13937,-2.25784 0.14112,-0.70557 0.14112,-1.08188 l 0,-4.79791 q 0,-6.91463 -3.24565,-9.36062 l 0,-0.0941 q 1.92858,-1.55227 2.8223,-5.73868 0.42335,-3.01045 0.42335,-6.53833 0,-2.2108 -3.38676,-2.96341 -0.37631,-0.0941 -0.89373,-0.0941 l -2.86934,0 q -1.41115,0 -1.92857,-0.70557 l 0,-13.17073 q 0.56446,-0.65854 1.5993,-0.65854 z m 19.99129,0.14112 q 0.89373,0 2.96342,4.4216 5.0331,9.50174 5.45644,10.48955 l 0.0941,0 0,-12.41812 q 0,-1.17596 0.94077,-1.97561 l 0.047,0 0,12.84146 q 0,1.45819 1.41115,1.97561 0.94076,0.28223 1.5993,0.28223 l 3.24564,0 q 3.01046,0.37631 3.01046,1.97561 l 0,5.87979 q 0,1.17596 -0.94077,1.69338 l -0.18815,0 0,-5.59756 q 0,-0.51742 -2.02265,-0.65854 l -2.8223,0 q -1.27004,0 -2.54007,-0.6115 3.62195,6.91464 3.62195,7.00872 l -0.047,0 q -0.84669,0 -2.2108,-3.01046 l -11.61847,-22.15505 0,-0.14111 z m 40.17074,0 q 1.55226,1.12892 1.55226,2.2108 l 0,13.8763 q 0,1.55227 -2.54007,2.54007 -0.79965,0.28223 -1.55226,0.28223 l -2.16377,0 q -1.41115,0 -2.02265,0.56446 l -0.14111,4.93903 q 0,2.72822 1.223,4.4216 l 0,0.0941 -0.0941,0 q -2.72822,-1.8345 -2.72822,-7.05575 0,-0.84669 0.14111,-4.56272 0.79965,-1.69338 2.96342,-1.69338 l 2.16376,0 q 2.58711,0 3.15157,-1.64634 l 0,-13.5 -0.0941,-0.37631 0.14112,-0.0941 z m -63.12544,0.51742 0.0941,0 0,13.21777 q 0,1.45819 2.5871,1.88153 l 3.29269,0 q 2.25784,0 3.10453,1.55226 0,0.18816 0.0941,0.51743 0,7.57317 -2.06968,10.30139 l -0.14112,0 0,-0.0941 q 1.12892,-2.02264 1.12892,-7.90244 l 0,-0.42334 q -0.47038,-0.65854 -2.06968,-0.65854 l -2.91638,0 q -2.68119,0 -3.90418,-2.25784 -0.14112,-0.28223 -0.14112,-0.56446 l 0,-13.8763 q 0,-0.84669 0.94077,-1.69338 z m 58.98606,29.63414 q 1.88154,0.70558 1.88154,1.55227 l 0,0.42334 q 0,0.75262 -1.45819,1.45819 -3.10453,3.19861 -3.10453,22.06098 0.0941,5.83275 0.0941,8.65505 0,2.25784 -3.66898,3.05749 l -9.87805,0 q 0,-0.18815 -1.08189,-0.42334 -1.41114,-0.51743 -2.96341,-4.13938 -6.02091,-11.71254 -6.35017,-12.37108 l -0.047,0 0,13.87631 q 0,1.92857 -2.68119,2.8223 -0.42334,0.047 -0.42334,0.23519 l -2.35192,0 q 0,-0.14111 -0.047,-0.14111 -7.43205,-1.03485 -12.277,-1.03485 -5.73868,0 -10.39547,1.08188 l 0,0.0941 -1.03484,0 q -3.15157,0 -4.13938,-2.63415 l 0,-15.14634 q 0,-0.70557 0.94077,-1.55226 l 0.0941,0 0,14.15853 q 0.3763,1.88154 2.86933,1.88154 5.78572,-1.12892 11.00697,-1.12892 5.78572,0 14.06446,1.12892 l 0.0941,0 q 2.68118,-0.32927 2.68118,-1.88154 l 0,-14.15853 -0.0941,-0.51742 0.0941,0 0.14112,0.0941 0,-0.0941 q -3.57491,-7.00871 -3.76307,-7.24391 -0.9878,-0.3763 -1.55226,-0.3763 l -0.047,0 q -1.223,0 -1.74042,0.6115 l 0,5.26829 -0.0941,0.14111 q -0.98781,-0.32926 -1.45819,-1.12892 -0.14112,-0.32926 -0.14112,-1.17595 l 0,-4.56272 q 0,-1.55227 1.31708,-2.06969 0.65853,-0.32927 1.83449,-0.32927 l 0.047,0 q 2.63414,0 3.48083,2.446 12.04182,23.5662 12.5122,24.22473 0.9878,0.75262 2.54007,0.75262 l 8.04355,0 q 2.86934,-0.32927 2.86934,-1.78746 -0.0941,-6.35017 -0.0941,-8.51394 0,-20.27352 3.57491,-23.00174 0.047,-0.18815 0.70557,-0.6115 z m -53.81184,0.0941 q 0.89372,0 2.68118,2.25784 1.31707,2.58711 1.31707,6.53833 l 0,0.70557 q 0,0.42335 0.047,0.51742 -0.047,0.37631 -0.047,0.65854 l 0,2.91638 q 0,1.31707 -1.03484,1.78745 l -0.047,0 0,-0.047 q 0.047,-1.92858 0.047,-3.01046 l 0,-0.84669 q 0,-6.44425 -2.44599,-7.99651 -2.11673,-0.75262 -2.11673,-1.55227 l 0,-0.32927 q 0,-1.03484 1.59931,-1.5993 z"
             style="font-style:normal;font-variant:normal;font-weight:bold;font-stretch:normal;font-size:96.33449554px;line-height:125%;font-family:'Rio Grande';-inkscape-font-specification:'Rio Grande, Bold';text-align:center;writing-mode:lr-tb;text-anchor:middle;fill:#000000;stroke:none;stroke-opacity:1;fill-opacity:1"
             id="path4580" />
          <path
             d="m 417.31894,344.18847 q 7.14982,0 13.40592,4.09233 3.81011,3.05749 3.81011,9.17248 l 0,3.90418 q 0,9.87805 2.68118,12.70035 l 0,0.14111 q -2.8223,2.39895 -2.8223,11.10105 0.14112,4.79791 0.14112,8.04355 0,9.17247 -9.54879,12.37108 -3.8101,1.41115 -8.09059,1.41115 l -0.3763,0 q -1.69338,0 -10.48955,-1.12892 -5.08014,-0.28223 -5.45645,-0.28223 -0.47038,0.047 -0.94076,0.047 l -0.84669,0 q -4.42161,0 -10.20732,1.03484 -0.94077,0 -1.55227,-0.75261 l 0,-13.92335 q 0.51743,-0.70557 1.88154,-0.70557 l 3.01045,0 q 2.44599,0 3.76307,-1.92857 0.23519,-0.47039 0.32926,-1.08188 0.047,-3.71603 0.047,-5.6446 0,-6.11499 -2.35191,-8.56098 2.30487,-2.39895 2.30487,-8.74913 l 0,-3.24564 q 0,-2.16377 -2.39895,-3.01046 -0.9878,-0.28223 -1.78746,-0.28223 l -2.86933,0 q -1.36412,0 -1.92858,-0.70557 l 0,-13.02962 q 0.56446,-0.6115 1.36412,-0.6115 l 0.047,0 4.0453,0.84669 q 3.10453,0.37631 5.78571,0.37631 5.6446,0 16.65157,-1.5993 l 2.39896,0 z m -31.6568,0.9878 0.047,0 0,13.07666 q 0,1.5993 3.01045,1.88153 l 3.0575,0 q 2.91637,0.23519 2.91637,2.16376 l 0,2.86934 q 0,5.78572 -1.64634,7.8554 l -0.14111,0 q 0.79965,-2.02265 0.79965,-6.49129 0,-0.28223 -0.0941,-2.58711 -0.65854,-0.61149 -1.78746,-0.61149 l -2.77526,0 q -3.05749,0 -4.18641,-2.2108 -0.14111,-0.28223 -0.14111,-0.79966 l 0,-13.5 q 0,-0.84669 0.94076,-1.64634 z m 47.08537,3.52788 0.047,0 q 2.63414,2.44599 3.24564,4.51568 1.17596,2.25784 1.17596,8.04355 0,1.03484 -0.0941,1.50523 0,8.4669 1.74042,11.19512 l -0.0941,0 q -1.41115,-0.98781 -2.16376,-3.05749 -1.08188,-2.86934 -1.08188,-11.19512 0,-0.79966 0.0941,-2.02265 0,-5.55053 -2.86934,-8.89025 l 0,-0.0941 z m -25.91812,13.21777 q 0,1.64634 -0.047,3.99825 0,5.8798 2.39896,8.27875 l 0,0.047 q -2.49303,2.58711 -2.49303,8.70209 0.0941,0.51742 0.0941,0.84669 0,1.223 0.047,4.70383 0,2.30488 3.85714,2.91638 l 3.76307,0 q 6.77352,0 8.18467,-2.30488 1.08188,-1.64634 1.08188,-5.6446 l 0,-1.17596 q 0,-6.6324 -1.74042,-7.80836 l -0.047,-0.37631 q 1.78746,-1.45818 1.78746,-6.35017 l 0,-0.75261 q 0,-6.06795 -2.72822,-7.10279 -2.2108,-0.98781 -6.77352,-0.98781 l -3.19861,0 q -2.54007,0 -3.8101,1.78746 -0.37631,0.65854 -0.37631,1.223 z m 3.95122,-1.78746 3.15157,0 q 5.83275,0 7.2439,1.50523 1.223,1.22299 1.223,5.50348 0,5.0331 -1.36411,6.11498 l -0.047,0 q 0.32927,-1.12892 0.32927,-2.63414 l 0,-2.86934 q 0,-4.0453 -2.77527,-4.0453 -1.41115,-0.3763 -6.49129,-0.3763 l -0.75261,0 q -1.12892,0 -1.78746,0.61149 -0.0941,1.69338 -0.0941,2.49304 l 0,1.5993 q 0,4.0453 1.12892,5.73868 l -0.047,0 q -1.12892,-0.51743 -2.02265,-2.68119 -0.65853,-1.83449 -0.65853,-5.08014 l 0,-2.96341 q 0,-2.06969 0.94076,-2.35192 0.89373,-0.56446 2.02265,-0.56446 z m 28.41115,14.20558 q 0.0941,0.18815 1.223,0.94076 0.28223,0.42335 0.28223,0.79965 l 0,0.32927 q 0,0.70558 -1.78746,1.5993 -1.83449,2.25784 -1.83449,8.79617 0,3.01046 0.14111,8.27875 0,11.57143 -12.22997,15.28745 -3.76306,1.223 -7.6202,1.223 l -1.223,0 q -1.5993,0 -9.59582,-1.08188 -3.19861,-0.28223 -6.53833,-0.28223 l -0.56446,0 q -4.51568,0 -10.48954,0.9878 l -0.28223,0 q -2.63415,0 -3.85715,-2.25784 l -0.0941,-0.51742 0,-14.81707 q 0,-0.65854 0.94076,-1.50523 l 0.047,0 0,14.01742 q 0.42335,1.88154 2.8223,1.88154 5.92683,-1.03485 9.97213,-1.03485 l 1.12892,0 q 0.32926,0 0.61149,-0.047 0.28223,0.047 0.56446,0.047 l 0.42335,0 q 4.13937,0 13.21777,1.31708 0.56446,0.047 1.69338,0.047 l 0.79965,0 q 8.37282,0 14.95819,-5.22126 3.71603,-3.85714 3.71603,-10.0662 0,-0.14112 -0.0941,-0.79965 0,-0.56446 -0.047,-6.96167 0,-8.56098 2.63415,-10.44251 0.70557,-0.51742 1.08188,-0.51742 z m -27.98781,0.047 q 1.31708,0.84669 1.50523,1.17596 0.14112,0.23519 0.14112,0.42335 l 0,0.42334 q 0,0.79965 -1.41115,1.36411 -2.06969,1.50523 -2.11673,6.82056 0,2.2108 0.18815,5.40941 -0.0941,0 -0.0941,0.047 -0.94077,-0.32927 -1.45819,-1.12892 -0.14111,-0.70558 -0.14111,-1.08188 -0.047,-4.46865 -0.047,-5.03311 0,-7.05574 3.38676,-8.41986 l 0.047,0 z m -19.23867,0.18816 q 2.8223,1.45818 2.8223,8.60801 0,0.6115 -0.0941,5.08014 0,0.94077 -0.9878,1.50523 0,-0.047 -0.0941,-0.047 0.0941,-1.36411 0.14112,-4.60976 0,-5.92683 -1.97561,-7.38502 -1.45819,-0.3763 -1.45819,-1.45818 l 0,-0.28223 q 0,-0.79965 1.64634,-1.41115 z m 28.08188,0.047 0.14112,0 q 2.2108,1.22299 2.2108,6.53832 l 0,1.50523 q 0,5.26829 -1.223,6.2561 l -0.14111,0 q 0.3763,-1.12892 0.3763,-6.11499 0,-4.28048 -1.74042,-5.17421 -1.12892,-0.42335 -1.12892,-1.41115 0,-1.03484 1.50523,-1.5993 z"
             style="font-style:normal;font-variant:normal;font-weight:bold;font-stretch:normal;font-size:96.33449554px;line-height:125%;font-family:'Rio Grande';-inkscape-font-specification:'Rio Grande, Bold';text-align:center;writing-mode:lr-tb;text-anchor:middle;fill:#000000;stroke:none;stroke-opacity:1;fill-opacity:1"
             id="path4582" />
        </g>
      </g>
    </g>
  </g>
</svg>
