<?xml version="1.0" encoding="UTF-8"?>
<!DOCTYPE svg PUBLIC "-//W3C//DTD SVG 1.1//EN" "http://www.w3.org/Graphics/SVG/1.1/DTD/svg11.dtd">
<!-- Creator: CorelDRAW X6 -->
<svg xmlns="http://www.w3.org/2000/svg" xml:space="preserve" width="5.25in" height="2.75in" version="1.1" style="shape-rendering:geometricPrecision; text-rendering:geometricPrecision; image-rendering:optimizeQuality; fill-rule:evenodd; clip-rule:evenodd"
viewBox="0 0 5250 2750"
 xmlns:xlink="http://www.w3.org/1999/xlink"
 xmlns:dc="http://purl.org/dc/elements/1.1/"
 xmlns:cc="http://creativecommons.org/ns#"
 xmlns:rdf="http://www.w3.org/1999/02/22-rdf-syntax-ns#"
 xmlns:svg="http://www.w3.org/2000/svg"
 xmlns:sodipodi="http://sodipodi.sourceforge.net/DTD/sodipodi-0.dtd"
 xmlns:inkscape="http://www.inkscape.org/namespaces/inkscape"
 inkscape:version="0.91 r13725"
 sodipodi:docname="Ayana's Softball Ornament.svg">
 <defs>
  <style type="text/css">
   <![CDATA[
    .str0 {stroke:black;stroke-width:3}
    .fil1 {fill:none}
    .fil0 {fill:black}
    .fil2 {fill:#373435;fill-rule:nonzero}
   ]]>
  </style>
 </defs>
 <g id="Layer_x0020_1">
  <metadata id="CorelCorpID_0Corel-Layer"/>
  <sodipodi:namedview id="base" pagecolor="#ffffff" bordercolor="#666666" borderopacity="1.0" inkscape:pageopacity="0.0" inkscape:pageshadow="2" inkscape:zoom="1.979899" inkscape:cx="223.25769" inkscape:cy="136.07482" inkscape:document-units="in" inkscape:current-layer="layer1" showgrid="false" units="in" inkscape:window-width="1920" inkscape:window-height="1018" inkscape:window-x="-8" inkscape:window-y="-8" inkscape:window-maximized="1"/>
  <path id="path3351" class="fil0" d="M1489 2434c-3,-3 -3,-53 -1,-113 3,-99 12,-150 26,-150 5,0 29,-40 29,-49 0,-2 -3,-4 -8,-4 -4,0 -8,6 -8,12 0,10 -2,11 -11,3 -6,-5 -9,-12 -7,-16 2,-4 -3,-7 -11,-7 -8,0 -17,3 -20,8 -3,4 -10,8 -16,8 -6,0 -9,-3 -7,-7 3,-4 -13,-6 -39,-3 -90,7 -108,11 -108,22 0,7 -8,11 -22,11 -12,0 -25,4 -27,8 -3,5 -14,6 -26,4 -17,-3 -24,0 -36,17 -19,25 -37,31 -63,21 -10,-4 -29,-8 -41,-9 -28,-2 -80,-19 -80,-26 0,-13 11,-13 35,2 29,17 30,17 34,-5 3,-14 -12,-20 -47,-20 -33,0 -38,1 -38,8 0,6 -10,6 -48,1 -4,0 -3,-5 2,-11 6,-7 20,-9 46,-7 37,4 37,4 33,-17 -3,-16 0,-24 14,-35l18 -14 -21 0c-12,0 -27,4 -35,9 -11,7 -19,7 -35,0 -19,-9 -20,-8 -16,7 2,9 1,25 -4,36l-8 20 -6 -22c-3,-12 -4,-26 -1,-30 3,-5 5,-16 6,-24 0,-12 -3,-15 -11,-10 -24,12 -76,25 -82,20 -3,-3 -4,-29 -3,-58 1,-31 -1,-53 -5,-53 -4,0 -6,-13 -3,-32 6,-46 15,-68 26,-62 6,4 7,1 2,-9 -4,-8 -8,-31 -10,-51 -2,-28 -1,-36 6,-31 7,4 8,1 5,-12 -3,-10 1,-28 7,-40 16,-30 78,-96 91,-96 6,0 8,-4 6,-10 -2,-5 11,-24 29,-42l32 -32 37 38c20,21 39,38 43,38 3,0 17,10 30,22 13,12 25,20 26,19 7,-7 29,28 30,49 1,18 5,24 17,23 8,0 11,-2 6,-4 -5,-2 -9,-7 -9,-11 0,-4 7,-3 15,2 8,5 13,12 11,15 -2,3 0,6 5,6 5,0 -1,9 -11,20 -26,26 -18,33 12,11 23,-17 24,-17 40,-3 9,8 20,17 24,22 4,4 22,18 40,30 18,12 32,25 32,28 0,4 6,7 13,7 7,0 26,14 43,32 27,28 30,35 26,61 -3,25 -2,29 11,29 10,0 14,5 14,16 0,9 3,14 7,11 4,-3 6,0 3,7 -2,6 -8,12 -12,12 -4,0 -5,3 -2,8 3,4 -7,1 -23,-8 -15,-8 -37,-15 -49,-15 -12,0 -24,-3 -27,-8 -7,-11 -41,16 -41,32 0,15 19,18 25,4 3,-7 7,-8 19,0 8,5 23,7 31,5 9,-2 20,-1 26,3 5,4 32,6 61,4 46,-3 52,-5 56,-21 8,-30 22,-37 41,-19 9,9 21,15 26,12 14,-5 36,12 33,25 -4,19 22,17 27,-1l5 -17 14 18c10,13 16,16 20,9 5,-7 7,-7 12,1 5,7 7,5 7,-8 0,-18 1,-18 10,-4 10,13 10,12 9,-8 -1,-26 -42,-94 -57,-94 -7,0 -9,-6 -6,-19 3,-10 2,-39 0,-64 -5,-44 -6,-46 -23,-42 -11,3 -18,1 -18,-5 0,-5 5,-7 11,-5 7,3 11,0 9,-5 -1,-5 2,-8 8,-7 6,1 9,-9 9,-32 0,-38 -6,-36 80,-35 86,0 77,-9 77,81 0,46 4,84 8,88 13,13 45,1 50,-18 7,-28 5,-102 -3,-124 -10,-26 -86,-107 -97,-103 -5,2 -10,-6 -13,-16 -3,-11 -10,-24 -17,-29 -9,-7 -11,-7 -6,0 3,5 2,9 -2,9 -4,0 -8,11 -8,24 0,32 -27,62 -47,51 -8,-4 -18,-6 -22,-3 -4,3 -7,1 -7,-4 0,-5 -4,-7 -9,-5 -10,4 -14,-42 -4,-52 3,-3 6,-12 6,-19 0,-8 5,-14 11,-14 13,0 14,-1 4,-26 -5,-12 -5,-21 0,-24 4,-2 7,-9 7,-14 0,-5 -4,-3 -8,4 -5,8 -13,11 -23,9 -17,-4 -19,0 -7,21 6,11 5,14 -3,10 -6,-2 -13,0 -16,4 -3,5 -2,7 1,6 8,-3 10,4 10,29 0,13 -3,18 -9,14 -6,-4 -7,-1 -4,6 5,14 -12,14 -26,0 -5,-5 -13,-7 -19,-4 -6,2 -10,1 -10,-3 0,-14 -24,-64 -28,-60 -2,2 0,14 5,27 5,12 10,32 11,43 1,11 8,24 15,28 10,6 11,9 4,18 -7,9 -7,10 3,6 10,-4 11,-2 7,9 -4,9 -2,12 4,8 5,-3 9,-2 9,3 0,5 -10,10 -23,13 -13,3 -23,8 -23,12 0,4 9,6 19,4 11,-2 21,-1 23,3 7,12 -13,29 -34,29 -15,0 -26,8 -44,34l-24 34 22 8c23,8 28,25 15,46 -6,9 -10,8 -27,-6 -11,-9 -25,-16 -30,-16 -11,0 -46,-36 -40,-42 2,-2 -4,-13 -14,-24 -12,-13 -17,-26 -15,-38 3,-14 1,-17 -6,-11 -7,6 -13,2 -22,-14 -15,-25 -10,-52 6,-38 13,11 24,-6 12,-18 -12,-12 -10,-21 5,-21 9,0 14,-6 15,-17 1,-9 5,-25 10,-34 14,-25 2,-30 -19,-8l-18 19 -17 -16c-13,-13 -16,-13 -13,-4 2,7 0,14 -5,17 -5,2 -2,6 7,9 10,3 15,10 13,18 -2,9 -11,13 -34,12 -40,-1 -54,-18 -139,-159 -35,-58 -79,-124 -98,-147 -19,-22 -35,-44 -35,-48 0,-4 -7,-18 -16,-30 -13,-18 -16,-33 -16,-84 0,-41 -3,-69 -11,-84 -6,-12 -8,-20 -4,-18 9,6 35,-59 28,-71 -3,-4 -10,-8 -16,-8 -17,0 -13,-27 5,-35 16,-7 16,-8 -7,-17 -16,-7 -25,-17 -28,-32 -8,-36 -36,-52 -91,-52 -40,0 -51,3 -70,19 -34,29 -43,57 -34,110 8,51 6,53 -54,54 -17,0 -43,5 -58,10 -60,21 -37,-24 75,-148 29,-32 66,-77 82,-100 22,-30 34,-42 44,-40 10,2 12,1 6,-6 -6,-7 -1,-17 15,-35 20,-22 23,-24 19,-9 -2,9 -1,15 3,13 4,-2 7,6 7,19 0,29 10,35 34,19 43,-28 83,18 53,62 -11,17 -16,19 -40,14 -35,-6 -30,-1 11,13 29,10 32,10 40,-3 12,-19 39,-5 39,21 0,21 14,22 29,1 8,-11 17,-13 36,-10 28,5 39,-5 25,-22 -8,-9 -7,-10 3,-6 7,3 12,1 12,-4 0,-12 36,-11 40,1 5,14 20,-45 16,-62 -2,-8 0,-17 4,-20 12,-7 10,-27 -2,-27 -7,0 -10,-8 -9,-23 1,-14 5,-23 12,-23 6,0 8,-2 6,-5 -3,-3 2,-10 10,-16 8,-6 15,-19 15,-29 0,-10 3,-20 7,-23 5,-3 5,-11 0,-24 -9,-24 -9,-33 0,-33 4,0 7,4 6,8 -1,5 7,10 17,12 28,5 43,22 31,35 -5,6 -7,16 -4,23 3,7 2,12 -2,12 -4,0 -16,13 -29,28 -12,15 -18,25 -14,23 12,-8 21,11 9,19 -8,5 -7,9 6,20 10,8 16,20 15,30 -1,16 -13,25 -13,9 0,-4 -5,-8 -12,-8 -20,0 -7,19 14,21 14,2 20,7 20,16 0,8 2,19 4,26 4,10 1,10 -19,3 -17,-6 -23,-14 -23,-26 0,-10 -3,-17 -8,-17 -4,0 -8,12 -8,27 0,15 -3,27 -8,27 -12,0 -9,15 4,20 6,2 17,-1 23,-8 16,-16 32,-15 41,3 13,24 2,38 -31,38 -21,0 -30,3 -30,11 0,8 -8,11 -27,11 -25,0 -26,1 -19,15l8 15 21 -15c12,-8 23,-13 26,-10 3,3 11,0 18,-7 7,-6 23,-13 34,-15 19,-3 21,-2 21,22 0,14 4,25 8,25 4,0 6,-3 3,-8 -3,-4 1,-8 9,-8 12,0 12,-1 1,-9 -7,-5 -13,-16 -15,-25 -2,-12 2,-15 17,-15 17,0 19,3 18,25 -1,22 4,28 22,26 9,-1 7,13 -3,19 -6,4 -5,7 2,12 6,4 7,7 3,7 -21,2 -37,7 -44,14 -5,5 -3,7 7,5 52,-11 55,-12 53,-25 -3,-18 10,-32 24,-27 8,3 10,2 6,-5 -3,-5 -11,-8 -18,-7 -7,1 -18,-3 -26,-9 -17,-14 -5,-31 19,-26 15,3 15,2 -2,-6 -24,-12 -32,-23 -20,-30 16,-10 28,-6 28,10 0,9 3,14 7,11 4,-2 8,4 10,14 2,10 0,20 -5,22 -5,2 -1,4 8,4 9,0 18,4 19,7 1,4 11,9 21,12 12,4 16,3 13,-3 -8,-14 2,-10 19,8 16,16 37,10 26,-8 -4,-6 -7,-6 -10,-1 -6,9 -33,-11 -41,-30 -4,-9 -2,-12 6,-9 7,3 11,0 11,-8 0,-7 3,-12 7,-12 4,0 9,-10 11,-23 3,-14 9,-23 16,-23 10,0 10,2 1,17 -11,16 -10,17 7,17 10,0 19,-3 19,-6 0,-3 -4,-6 -8,-6 -5,0 -4,-4 2,-10 5,-6 16,-9 23,-7 17,4 18,25 2,25 -7,0 -10,3 -7,8 3,4 8,5 13,3 5,-3 7,2 3,15 -6,23 -5,23 21,13 15,-6 21,-4 31,6 11,12 11,15 -3,30 -9,9 -19,15 -23,12 -5,-3 -6,3 -3,15 4,17 3,20 -15,20 -20,0 -20,0 -7,18l14 18 5 -16c4,-16 5,-16 10,3 3,11 5,23 4,27 -4,23 1,28 27,24 23,-4 25,-3 16,7 -6,6 -14,11 -17,11 -3,0 -11,7 -16,15 -8,13 -8,15 4,16 7,0 17,0 22,0 24,-3 15,22 -9,27 -4,1 -16,5 -27,9 -18,7 -18,8 -2,8 20,1 32,15 12,16 -10,0 -9,2 5,8l19 8 -17 9c-13,7 -15,12 -9,23 6,10 6,13 -1,9 -5,-3 -11,0 -13,7 -3,7 -8,12 -12,12 -4,0 -5,-3 -3,-7 2,-4 -3,-8 -13,-10 -13,-2 -17,-7 -15,-21 1,-15 0,-16 -6,-8 -5,8 -8,9 -8,1 0,-5 -4,-8 -8,-5 -5,3 -5,8 1,16 7,8 6,11 -3,11 -7,0 -11,-6 -10,-13 1,-7 -1,-15 -5,-18 -4,-3 1,-5 11,-5 10,0 23,-1 29,-3 8,-2 11,3 11,14 -1,15 19,26 20,11 5,-44 4,-47 -14,-43 -22,5 -22,-6 -1,-35 9,-12 14,-28 12,-36 -3,-12 -4,-11 -5,3 0,9 -4,17 -9,17 -4,0 -6,4 -3,9 3,6 3,7 -1,3 -4,-3 -7,-10 -7,-15 0,-5 -7,-10 -15,-12 -20,-4 -49,-24 -34,-24 8,0 7,-4 -4,-14 -8,-8 -21,-12 -28,-10 -17,4 -17,8 4,25l17 14 -24 -2c-13,-1 -27,-5 -32,-8 -6,-4 -7,0 -1,14 6,15 5,19 -3,19 -18,0 -35,-9 -30,-16 2,-4 0,-7 -4,-7 -11,0 -2,29 14,48 7,8 17,12 27,9 9,-3 13,-2 10,3 -3,5 4,7 18,5 16,-2 23,0 23,8 0,7 -7,11 -19,11 -17,0 -19,2 -14,21 7,28 10,33 19,28 9,-5 34,8 32,17 -4,13 7,33 17,33 6,0 10,3 10,6 -3,17 2,25 10,20 5,-3 -2,9 -16,26 -21,26 -24,34 -16,43 12,15 30,14 30,0 0,-6 -5,-11 -12,-11 -7,0 -10,-3 -7,-8 7,-12 22,-9 39,6 11,10 20,12 32,8 21,-8 21,-12 0,-11 -9,0 -18,-5 -20,-11 -3,-10 -2,-10 9,-1 11,9 12,9 8,-3 -4,-11 -2,-13 7,-9 7,3 12,2 11,-1 -5,-21 28,-103 51,-126 10,-10 11,-15 3,-24 -6,-7 -6,-11 -1,-11 4,0 9,4 11,9 4,12 112,-16 112,-29 0,-5 5,-10 11,-10 7,0 9,4 7,11 -3,7 0,11 6,11 6,0 23,4 39,8 23,7 29,11 29,28 1,18 1,18 4,3 4,-22 8,-22 42,6 20,17 31,34 40,63 11,38 9,69 -4,61 -6,-4 -16,35 -11,41 2,2 8,-1 14,-7 10,-8 12,-5 12,29l0 39 -55 0 -55 0 27 -13c15,-7 28,-20 29,-28 2,-8 7,-18 11,-20 5,-3 6,-8 3,-10 -3,-3 -20,7 -37,22 -38,32 -44,34 -39,8 3,-13 0,-19 -8,-19 -11,0 -31,-37 -31,-58 0,-20 -36,-8 -49,16 -7,13 -16,25 -20,28 -5,4 -4,8 2,12 5,4 11,15 12,25 2,17 15,54 24,69 2,4 -4,5 -15,2 -17,-4 -19,-3 -15,13 6,25 17,30 40,18 19,-10 22,-9 73,35 93,78 109,114 114,250 5,126 -6,172 -48,214 -20,20 -24,28 -15,28 7,0 17,9 22,19 13,28 -5,42 -56,46 -78,6 -117,10 -120,11 -7,3 -42,1 -59,-3 -10,-2 -15,-1 -13,3 2,4 -4,7 -14,7 -10,0 -21,-4 -23,-9 -2,-5 -2,-2 0,8 5,20 -6,22 -20,5 -7,-8 -12,-9 -18,-4 -10,10 -45,10 -39,0 3,-4 -1,-8 -7,-8 -7,0 -12,4 -12,8 0,6 -9,7 -27,3 -18,-3 -26,-3 -22,3 3,5 -3,8 -15,8 -17,0 -18,2 -10,10 6,6 15,12 21,15 6,3 0,4 -13,3 -22,-1 -27,3 -48,36 -22,34 -24,45 -31,129 -9,123 -10,127 -15,122l0 0zm-128 -323c9,0 9,-2 -1,-12 -14,-14 -44,-8 -44,10 0,8 5,10 17,7 9,-3 22,-5 28,-5zm150 -13c-7,-2 -18,-2 -23,0 -5,2 1,4 13,3 13,0 17,-2 9,-4l0 0zm40 -2c-15,-10 -23,-10 -23,0 0,4 8,8 17,7 14,0 15,-2 6,-7l0 0zm-218 -18c2,2 9,2 14,-2 5,-3 21,-5 35,-4 14,1 25,-1 25,-6 0,-5 -21,-8 -57,-8 -33,0 -57,-3 -57,-8 0,-4 -6,-8 -13,-7 -11,0 -12,1 -2,7 9,6 6,8 -11,8l-23 1 27 7c15,4 30,11 34,14 4,4 11,4 16,-1 5,-4 11,-5 13,-3l0 0zm-124 -31c-5,-6 -11,-10 -13,-8 -5,5 5,20 15,20 5,0 4,-4 -2,-12zm592 2c0,-7 1,-8 6,0 4,7 28,9 84,7 63,-2 80,-5 85,-15 11,-20 0,-29 -29,-23 -30,6 -46,-4 -61,-39l-10 -23 0 28c0,27 -1,28 -22,24 -15,-3 -26,0 -35,9 -8,8 -15,10 -18,6 -3,-4 -10,-9 -17,-12 -9,-3 -12,1 -12,21 0,20 3,26 14,26 8,0 14,-4 14,-9l0 0zm-23 -1c0,-2 3,-5 8,-8 4,-3 8,-1 8,3 0,4 -3,8 -8,8 -4,0 -8,-2 -8,-3zm-645 -22c0,-2 -6,-8 -13,-13 -12,-9 -12,-9 -3,3 10,13 16,17 16,10l0 0zm-179 -43c-10,-21 -20,-37 -22,-35 -4,4 29,74 36,74 3,0 -3,-17 -14,-39l0 0zm61 12c-2,-6 -7,-11 -11,-11 -4,0 -5,5 -2,11 2,6 7,11 11,11 4,0 5,-5 2,-11zm414 -19c-6,-11 -6,-15 1,-15 5,0 7,-2 5,-5 -3,-3 -8,-3 -12,0 -9,5 -2,35 8,35 4,0 3,-7 -1,-15l0 0zm-174 -24c-4,-10 -7,-14 -8,-9 -1,12 8,34 12,30 2,-2 0,-11 -4,-21zm74 -78c12,-14 3,-20 -29,-20 -15,0 -31,-3 -35,-7 -4,-4 -12,-4 -18,-1 -8,5 -3,8 15,13 14,3 28,7 31,7 3,1 9,2 14,2 4,1 6,4 3,9 -7,11 8,9 18,-3l0 0zm471 -1c0,-6 -3,-11 -7,-11 -4,0 -5,5 -3,11 2,6 6,11 7,11 2,0 3,-5 3,-11zm-569 -24c0,-2 -7,-3 -15,-3 -10,0 -14,4 -10,12 3,9 7,10 15,3 6,-5 10,-10 10,-12zm-299 -31c-3,-3 -4,2 -4,10 0,9 2,11 5,5 2,-5 2,-12 -1,-15l0 0zm56 9c0,-2 -11,-3 -25,-2 -20,0 -22,2 -9,7 14,5 34,3 34,-4l0 0zm250 -11c0,-8 -3,-13 -8,-10 -4,3 -6,8 -3,12 2,4 1,7 -4,7 -5,0 -6,3 -4,8 7,11 19,1 19,-16l0 0zm91 8c0,-4 -3,-8 -8,-8 -4,0 -8,3 -8,8 0,4 3,8 8,8 4,0 8,-3 8,-8zm-45 -15c0,-4 -3,-9 -8,-12 -4,-3 -8,1 -8,7 0,7 3,12 8,12 4,0 8,-3 8,-7zm436 -14c-2,-2 -8,0 -14,5 -7,7 -7,8 4,4 7,-3 12,-7 9,-9l0 0zm-266 -8c2,-4 -1,-11 -7,-16 -9,-7 -10,-6 -7,7 5,17 7,19 13,9zm57 -1c0,-4 -5,-8 -11,-8 -6,0 -11,3 -11,8 0,4 5,8 11,8 6,0 11,-3 11,-8zm-440 -8c10,-6 10,-7 -1,-7 -7,0 -14,-4 -16,-10 -2,-5 -6,-7 -8,-5 -6,5 2,30 9,29 3,0 10,-3 16,-7l0 0zm463 -15c0,-4 -4,-8 -8,-8 -4,0 -6,3 -3,8 3,4 6,8 8,8 2,0 3,-3 3,-8zm-43 -23c3,-10 1,-15 -5,-13 -5,2 -9,10 -10,19 -1,20 9,15 15,-6zm-260 4c0,-2 -3,-3 -8,-3 -4,0 -8,4 -8,8 0,4 3,6 8,3 4,-3 8,-6 8,-8zm235 5c0,-4 -3,-9 -8,-12 -4,-3 -8,1 -8,7 0,7 3,12 8,12 4,0 8,-3 8,-7zm84 -28c-9,-15 -11,-10 -4,9 3,7 6,11 8,9 2,-2 0,-10 -4,-17l0 0zm446 -14c0,-2 -3,-3 -8,-3 -4,0 -8,4 -8,8 0,4 3,6 8,3 4,-3 8,-6 8,-8zm-554 -3c0,-4 -3,-9 -8,-12 -4,-3 -8,1 -8,7 0,7 3,12 8,12 4,0 8,-3 8,-7zm55 -16c3,-10 0,-15 -6,-15 -6,0 -9,-5 -6,-11 3,-7 0,-11 -7,-11 -9,0 -10,5 -3,27 9,30 16,34 22,11l0 0zm-419 -18c11,-14 10,-14 -5,-4 -9,6 -15,13 -13,17 2,4 5,5 5,4 1,-1 6,-9 13,-17l0 0zm453 -8c-2,-2 -7,2 -9,9 -4,11 -3,12 4,4 5,-5 8,-11 5,-14l0 0zm-488 4c10,-4 11,-7 4,-7 -6,0 -16,3 -23,7 -14,9 -2,9 19,0zm591 -68c-3,-4 -6,-8 -8,-8 -2,0 -3,3 -3,8 0,4 4,8 8,8 4,0 6,-3 3,-8zm87 -8c0,-4 -4,-8 -8,-8 -4,0 -6,3 -3,8 3,4 6,8 8,8 2,0 3,-3 3,-8zm-8 -23c0,-4 -3,-8 -8,-8 -4,0 -8,3 -8,8 0,4 3,8 8,8 4,0 8,-3 8,-8zm-83 -31c0,-4 -3,-6 -8,-3 -4,3 -8,6 -8,8 0,2 3,3 8,3 4,0 8,-4 8,-8zm207 -27c-6,-15 -14,-13 -14,4 0,8 4,13 9,11 5,-2 7,-8 5,-14l0 0zm-203 -9c-3,-3 -4,2 -4,10 0,9 2,11 5,5 2,-5 2,-12 -1,-15l0 0zm24 -5c-12,-12 -36,-21 -36,-14 0,3 7,10 15,15 9,6 13,13 10,19 -4,6 -1,6 7,-1 10,-8 11,-12 3,-19l0 0zm29 -25c-2,-8 -5,-17 -5,-21 0,-4 -6,-10 -11,-14 -6,-3 -11,-10 -11,-14 0,-4 4,-5 8,-2 9,5 22,-9 22,-24 0,-5 -6,-10 -14,-12 -18,-5 -32,17 -26,40 3,10 2,15 -3,13 -4,-3 -6,4 -4,18 4,26 16,36 25,22 5,-8 7,-7 11,3 7,17 14,11 8,-8zm-50 -83c0,-2 -3,-3 -8,-3 -4,0 -8,4 -8,8 0,4 3,6 8,3 4,-3 8,-6 8,-8zm-303 -45c8,-9 7,-11 -2,-11 -6,0 -13,5 -16,11 -2,6 -1,11 2,11 4,0 11,-5 16,-11zm659 -28c-8,-6 -8,-9 4,-18 15,-11 15,-12 -5,-31 -11,-11 -30,-21 -43,-22 -13,-1 -23,-1 -23,1 0,1 10,14 22,28 12,14 23,32 25,40 2,8 7,14 12,13 5,-1 9,2 10,8 0,7 2,6 5,-1 2,-6 -1,-13 -6,-17l0 0zm-67 -22c0,-4 -4,-8 -8,-8 -4,0 -6,3 -3,8 3,4 6,8 8,8 2,0 3,-3 3,-8zm-96 -49c6,-15 -10,-24 -18,-11 -7,11 -3,22 8,22 3,0 8,-5 11,-11zm-579 -28c0,-4 -3,-5 -8,-3 -4,3 -8,8 -8,12 0,4 3,5 8,3 4,-3 8,-8 8,-12zm550 -14c-3,-4 -8,-8 -12,-8 -4,0 -7,3 -7,8 0,4 5,8 12,8 7,0 10,-3 7,-8zm-155 -129c0,-4 -4,-8 -8,-8 -4,0 -6,3 -3,8 3,4 6,8 8,8 2,0 3,-3 3,-8zm-180 -34c-3,-13 -7,-17 -16,-14 -8,3 -9,6 -3,8 5,2 9,8 9,14 0,6 3,11 7,11 4,0 5,-8 3,-18l0 0zm-42 -9c-2,-2 -8,-2 -13,1 -7,4 -6,7 1,12 10,6 20,-5 12,-13zm225 8c3,-7 1,-10 -3,-7 -4,3 -7,8 -7,12 0,11 5,9 10,-5zm-95 -15c-2,-2 -7,2 -9,9 -4,11 -3,12 4,4 5,-5 8,-11 5,-14l0 0zm-40 -11c-3,-4 -6,-8 -8,-8 -2,0 -3,3 -3,8 0,4 4,8 8,8 4,0 6,-3 3,-8zm102 0c0,-4 -4,-8 -8,-8 -4,0 -6,3 -3,8 3,4 6,8 8,8 2,0 3,-3 3,-8zm-156 -16c-7,-11 -11,-9 -11,5 0,7 3,10 8,7 4,-3 6,-8 3,-12l0 0zm95 4c0,-6 -1,-11 -3,-11 -2,0 -5,5 -7,11 -2,6 -1,11 3,11 4,0 7,-5 7,-11zm73 -3c-2,-4 -13,-8 -24,-10 -22,-4 -15,6 8,12 8,2 16,4 18,5 1,0 0,-2 -2,-6zm-279 -16c8,-12 13,-14 28,-8 15,6 19,5 19,-4 0,-8 -9,-11 -34,-11 -25,0 -34,-3 -34,-11 0,-6 -3,-11 -6,-11 -7,0 -6,40 1,52 8,13 15,11 25,-6l0 0zm169 -7c0,-4 -3,-9 -8,-12 -4,-3 -8,1 -8,7 0,7 3,12 8,12 4,0 8,-3 8,-7zm-303 -46c0,-4 -3,-8 -8,-8 -4,0 -8,3 -8,8 0,4 3,8 8,8 4,0 8,-3 8,-8zm441 2c-5,-2 -12,-2 -15,1 -3,3 2,4 10,4 9,0 11,-2 5,-5l0 0zm-32 -33c0,-10 -5,-15 -13,-15 -7,0 -9,2 -4,4 5,2 7,9 5,15 -2,6 0,11 4,11 5,0 8,-7 8,-15zm-637 -75c0,-4 -5,-9 -11,-11 -7,-3 -10,-1 -7,7 5,12 18,15 18,4zm-38 -16c0,-4 -3,-6 -8,-3 -4,3 -8,6 -8,8 0,2 3,3 8,3 4,0 8,-4 8,-8zm8 -34c0,-12 -4,-19 -11,-19 -9,0 -10,3 -3,19 5,10 10,19 11,19 1,0 3,-9 3,-19zm3186 1609c-10,-12 -5,-67 12,-125 7,-24 10,-51 7,-66 -4,-24 -3,-27 16,-34 57,-21 118,-50 137,-66l21 -17 -227 -1c-125,0 -251,-1 -281,-1 -36,0 -47,-2 -34,-6 14,-4 2,-7 -45,-12l-64 -6 49 -6c27,-4 129,-9 227,-13l178 -6 -284 -1c-268,-1 -341,-6 -341,-23 0,-4 12,-4 27,0 22,5 27,4 27,-6 0,-10 1,-11 5,-1 7,19 19,23 82,23 88,0 97,-4 91,-35 -6,-32 4,-159 11,-146 3,5 9,7 14,4 12,-8 10,-19 -3,-19 -13,0 -14,-23 -4,-102 4,-29 10,-54 15,-56 4,-1 8,-6 8,-10 0,-4 -4,-5 -8,-3 -5,3 -6,-16 -3,-58 5,-62 9,-80 16,-62 8,22 35,49 42,42 10,-10 -16,-63 -34,-68 -13,-3 -14,-9 -10,-39 2,-19 10,-90 16,-156 7,-67 13,-126 15,-131 2,-7 27,-9 88,-9 71,0 86,2 94,13 9,12 10,12 23,0 7,-7 19,-12 26,-11 10,2 14,20 21,89 5,48 8,88 6,90 -2,2 -7,0 -12,-3 -7,-4 -6,-7 1,-12 7,-4 7,-7 1,-7 -17,0 -18,14 -1,26 15,11 18,27 37,192 11,99 19,183 16,187 -2,4 -5,16 -6,28 -1,16 1,20 10,16 10,-4 11,1 7,27 -3,22 -2,32 5,34 5,2 7,6 5,8 -8,9 -45,-10 -45,-24 0,-11 -1,-11 -7,-3 -4,7 -3,17 2,27 12,22 19,26 36,22 12,-3 14,1 14,23 0,15 -7,44 -15,65 -16,40 -11,51 10,21 6,-9 14,-15 17,-12 3,3 1,11 -5,19 -7,9 -7,11 -1,7 6,-4 9,-1 9,6 0,7 7,12 17,12 12,0 17,-5 18,-17 2,-29 7,-46 16,-49 10,-3 32,19 32,32 0,18 27,32 66,34 40,2 40,2 40,-21 0,-15 -4,-23 -10,-23 -6,0 -21,-16 -35,-36 -17,-25 -23,-30 -19,-17 9,33 8,42 -4,42 -8,0 -11,-7 -10,-23 2,-22 1,-22 -7,-6 -11,22 -22,22 -22,-1 0,-10 -2,-23 -4,-29 -2,-6 8,-22 24,-39 26,-26 28,-29 16,-40 -11,-11 -13,-11 -17,4 -5,15 -6,15 -21,5 -9,-6 -21,-11 -26,-11 -13,0 -12,22 1,27 9,3 9,8 -2,26 -7,12 -15,20 -18,18 -3,-2 -6,-147 -6,-322l-1 -319 19 -23c13,-15 18,-28 15,-37 -4,-13 0,-14 64,-14 63,0 89,7 70,19 -4,3 -5,11 -1,22 11,29 10,407 0,420 -7,9 -7,13 0,17 6,4 9,20 8,47 -1,22 -2,67 -1,100l1 59 49 0 49 0 0 80 0 80 23 0 23 0 0 -75 0 -75 19 4c10,2 19,6 19,10 0,10 67,53 72,46 2,-4 -4,-17 -14,-29 -10,-12 -20,-30 -23,-40 -11,-53 -33,-102 -47,-104 -8,-2 -17,-7 -20,-11 -3,-5 -6,-61 -6,-125 0,-102 2,-118 13,-127 13,-10 13,-11 0,-21 -10,-8 -13,-22 -13,-61 0,-49 1,-51 17,-46 22,6 50,40 53,64l3 19 8 -19c7,-16 6,-21 -10,-33 -10,-8 -18,-18 -18,-23 0,-5 -12,-15 -27,-22l-27 -13 1 -80c1,-80 6,-93 27,-66 8,11 11,11 17,3 10,-16 62,-18 67,-4 4,11 6,11 14,-1 14,-19 38,-12 35,11 -3,24 -7,27 -20,16 -6,-5 -15,-7 -19,-4 -10,6 -10,32 0,38 4,3 8,-1 8,-8 0,-8 4,-11 12,-8 7,3 15,5 19,5 4,0 7,73 7,161 0,486 0,461 12,461 6,0 11,7 11,16 0,14 -4,15 -30,13 -24,-2 -31,0 -35,11 -8,24 5,33 17,13l11 -18 -4 19c-2,10 -4,23 -4,28 0,5 -9,8 -21,8 -19,-1 -21,1 -19,20 3,27 -13,33 -43,17 -31,-16 -35,-15 -21,6 9,14 10,19 3,22 -5,2 -2,4 6,4 8,0 22,3 31,5 12,3 17,0 21,-13 4,-13 6,-15 11,-8 5,7 9,4 16,-13 5,-13 14,-27 19,-31 8,-6 9,-1 6,26 -3,23 -1,34 5,34 5,0 9,-4 9,-9 0,-8 1,-8 4,0 2,5 7,7 11,5 4,-3 4,-9 -2,-15 -7,-8 -7,-13 0,-22 5,-6 7,-15 4,-19 -3,-5 4,-22 16,-40 13,-20 18,-32 12,-34 -5,-2 -9,-8 -9,-14 0,-8 10,-11 34,-11l34 0 0 83c0,72 -2,83 -13,87 -7,2 23,3 68,1 63,-2 85,0 97,9 36,25 15,29 -160,29 -93,0 -214,5 -269,10 -92,9 -101,12 -133,35 -19,14 -60,36 -91,50 -31,14 -58,26 -60,27 -3,2 -14,62 -31,159 -4,22 -9,43 -12,47 -7,11 -23,10 -33,-2l0 0zm242 -323c34,-6 34,-6 -25,-12 -33,-3 -74,-4 -91,0 -17,3 -59,8 -92,11 -52,5 -44,5 57,6 65,0 133,-2 152,-5l0 0zm-329 -59c-3,-9 -1,-11 7,-8 14,5 16,-18 2,-32 -8,-8 -7,-11 1,-16 6,-4 8,-11 5,-17 -3,-6 0,-4 5,3 6,7 13,11 15,9 2,-2 -2,-11 -10,-20 -13,-14 -16,-14 -36,-5 -12,6 -22,15 -22,20 0,10 -24,32 -36,32 -3,0 -6,-17 -6,-38 0,-35 9,-50 18,-28 2,6 4,4 4,-4 0,-7 -5,-13 -11,-13 -8,0 -10,-4 -8,-13 4,-12 0,-13 -34,-11 -34,2 -38,1 -38,-13 0,-9 -3,-16 -8,-16 -10,0 -10,36 1,42 5,3 6,17 4,36 -3,17 -6,46 -7,64l-2 32 59 -1c32,-1 61,1 64,4 3,3 12,5 20,5 10,0 13,-4 10,-12l0 0zm670 -18c0,-4 -4,-8 -8,-8 -4,0 -6,3 -3,8 3,4 6,8 8,8 2,0 3,-3 3,-8zm-318 -58c0,-15 -9,-33 -16,-33 -4,0 -7,10 -7,21 0,14 4,21 11,21 6,0 11,-4 11,-9l0 0zm31 -35c-18,-7 -26,5 -16,24l9 17 9 -18c8,-15 7,-19 -3,-23l0 0zm183 -42c-7,-11 -8,-12 -8,-2 0,13 8,24 13,19 2,-2 0,-9 -5,-17zm-563 -52c5,-10 6,-19 2,-19 -4,0 -9,-8 -11,-17 -6,-21 7,-35 19,-23 5,5 11,9 14,9 8,0 31,-53 26,-61 -8,-12 -21,-9 -16,4 6,15 -13,35 -28,29 -14,-5 -47,54 -35,61 4,3 8,11 8,19 0,21 11,18 21,-4l0 0zm-249 -4c0,-4 -8,-6 -18,-6 -22,2 -20,10 3,11 9,1 16,-2 16,-6l0 0zm43 -5c-1,-7 -5,-18 -9,-24 -5,-8 -4,-10 7,-6 9,4 14,1 17,-10 2,-9 8,-13 14,-11 6,2 11,-1 11,-7 0,-14 16,-21 50,-21 18,0 26,3 26,11 0,6 4,11 8,11 5,0 6,-6 3,-13 -7,-18 -28,-267 -23,-275 2,-4 10,-4 16,-2 9,3 11,2 7,-5 -3,-5 -11,-8 -16,-5 -8,3 -11,-3 -11,-24 -1,-54 -12,4 -22,120 -11,126 -13,138 -24,121 -6,-10 -9,-9 -17,2 -14,18 -18,17 -24,-9 -6,-26 -17,-36 -23,-20 -2,6 -9,10 -14,8 -5,-2 -12,0 -15,5 -6,10 17,38 32,38 15,0 25,31 16,50 -4,9 -17,19 -29,24 -17,6 -21,12 -17,25 2,9 9,15 14,13 5,-2 12,1 14,7 6,15 13,14 10,-2l0 0zm776 -18c0,-9 -3,-14 -7,-11 -4,2 -5,9 -3,16 6,16 10,14 10,-4l0 0zm-642 -4c-2,-6 -6,-10 -8,-8 -2,2 -1,7 1,12 7,12 12,10 7,-4zm636 -58c-11,-11 -31,9 -26,26 3,13 5,13 19,-2 10,-11 13,-19 7,-24l0 0zm-20 -14c3,-5 11,-7 19,-5 12,3 13,1 6,-11 -4,-8 -10,-14 -13,-14 -10,0 -32,20 -32,29 0,11 13,11 19,0zm-535 -72c0,-7 -3,-10 -8,-7 -4,3 -8,8 -8,12 0,4 3,7 8,7 4,0 8,-5 8,-12zm-34 -11c-3,-4 -10,-7 -18,-7 -10,0 -10,2 2,7 20,9 21,9 15,0zm515 -4c-5,-13 -15,-15 -21,-4 -2,4 0,9 5,11 17,7 21,5 16,-6l0 0zm-526 -38c-5,-5 -10,-4 -15,4 -12,18 -9,24 8,13 10,-6 12,-12 7,-17zm48 -9c-6,-17 -32,-13 -28,4 2,9 8,13 18,11 8,-2 12,-8 10,-14zm216 -20c7,-8 11,-7 17,2 6,10 7,10 7,0 -1,-19 -13,-50 -14,-38 -1,8 -3,7 -7,-4 -4,-9 -2,-29 4,-49 6,-19 10,-35 10,-36 0,-1 -5,0 -11,3 -6,2 -11,11 -11,18 0,8 -3,16 -7,18 -4,2 -9,21 -12,42 -7,49 3,66 25,44l0 0zm282 -60c0,-10 -17,-4 -21,8 -2,6 2,7 9,4 7,-3 12,-8 12,-12zm-12 -44c-15,-16 -26,-13 -26,7 0,19 8,24 24,15 14,-8 14,-9 2,-22l0 0zm80 -8c8,-14 7,-15 -5,-8 -34,20 -37,23 -20,23 9,0 21,-7 25,-16l0 0zm-804 -28c0,-3 -5,-13 -11,-21 -11,-14 -11,-14 -11,3 0,10 3,15 7,13 4,-3 8,-1 8,3 0,4 2,8 4,8 2,0 4,-3 4,-6zm814 -64c24,-44 24,-45 3,-42 -14,2 -17,7 -16,27 1,14 -2,23 -5,21 -3,-2 -8,4 -10,13 -11,42 -2,36 28,-19zm-794 -10c5,-14 -8,-30 -19,-23 -9,6 -3,35 7,35 4,0 9,-5 11,-12l0 0zm483 -37c-1,-7 4,-12 9,-12 6,0 11,-3 11,-8 0,-4 -4,-7 -9,-7 -17,0 -36,20 -36,37 0,11 -5,16 -15,16 -15,0 -20,8 -10,18 8,8 52,-30 51,-44l0 0zm225 -4c0,-9 -2,-9 -12,1 -7,7 -10,16 -7,21 7,11 19,-4 19,-23l0 0zm54 -10c-7,-7 -8,-7 -4,4 3,7 7,12 9,9 2,-2 0,-8 -5,-14l0 0zm-16 -11c8,-7 15,-18 15,-24 0,-7 -7,-3 -19,10 -27,29 -25,39 4,14zm-636 -42c7,-12 6,-13 -7,-6 -8,4 -17,6 -20,3 -8,-8 -26,22 -22,37 4,13 5,13 22,-3 10,-10 22,-24 26,-31zm-123 25c0,-4 -4,-8 -8,-8 -4,0 -6,3 -3,8 3,4 6,8 8,8 2,0 3,-3 3,-8zm390 -19c8,-6 13,-13 11,-15 -2,-2 -12,3 -22,11 -21,17 -11,21 12,4zm-238 -35c0,-4 -3,-5 -8,-3 -4,3 -8,8 -8,12 0,4 3,5 8,3 4,-3 8,-8 8,-12zm587 0c-2,-3 -7,-6 -11,-6 -4,0 -7,3 -7,6 0,3 5,6 11,6 6,0 9,-3 7,-6zm-3465 1108c-3,-4 -3,-10 -1,-12 2,-2 6,2 8,8 5,13 1,16 -7,4zm854 -4c5,-6 12,-9 16,-7 10,6 8,9 -9,13 -13,3 -14,2 -7,-7zm-880 -49c0,-4 3,-8 8,-8 4,0 8,3 8,8 0,4 -3,8 -8,8 -4,0 -8,-3 -8,-8zm862 -38c-4,-17 -4,-17 13,-11 15,6 16,26 2,26 -6,0 -12,-7 -14,-15zm-339 0c0,-6 -6,-15 -13,-20 -7,-5 -11,-12 -8,-15 3,-3 12,2 22,12 12,12 14,19 8,25 -6,6 -8,6 -8,-2l0 0zm-529 -5c3,-3 9,-3 15,-1 6,2 4,4 -5,5 -8,0 -12,-1 -10,-4l0 0zm472 -11c3,-4 8,-8 12,-8 4,0 5,3 3,8 -3,4 -8,8 -12,8 -4,0 -5,-3 -3,-8zm137 -10c-18,-16 -28,-49 -13,-39 4,2 11,-1 16,-7 11,-14 31,-15 44,-2 14,14 11,50 -6,59 -20,10 -20,10 -42,-10l0 0zm141 6c1,-8 6,-13 10,-12 11,3 9,19 -3,23 -7,2 -9,-2 -7,-11l0 0zm84 8c3,-3 9,-3 15,-1 6,2 4,4 -5,5 -8,0 -12,-1 -10,-4l0 0zm-972 -21c0,-8 1,-12 4,-10 3,3 3,9 1,15 -2,6 -4,4 -5,-5l0 0zm-334 -25c0,-18 1,-32 3,-32 6,0 9,46 3,55 -4,6 -6,-3 -6,-23zm849 21c0,-4 3,-8 8,-8 4,0 8,2 8,3 0,2 -3,5 -8,8 -4,3 -8,1 -8,-3zm156 -19c-6,-25 -4,-29 10,-20 8,5 9,11 3,24 -8,17 -8,17 -13,-4l0 0zm-786 -12c0,-4 3,-8 8,-8 4,0 8,3 8,8 0,4 -3,8 -8,8 -4,0 -8,-3 -8,-8zm56 0c-20,-4 -22,-6 -13,-14 6,-5 11,-6 11,-2 0,4 9,8 21,10 11,1 17,4 13,7 -4,2 -18,2 -31,0l0 0zm1184 -4c-8,-6 -21,-11 -28,-11 -7,0 -14,-3 -14,-6 0,-3 -2,-12 -3,-19 -1,-8 4,-15 12,-18 8,-3 14,-9 12,-13 -2,-5 5,-15 14,-22 18,-14 56,-18 56,-6 0,16 15,7 27,-16 11,-20 16,-23 37,-21l25 3 -26 -30c-27,-32 -28,-35 -26,-65 1,-10 -1,-17 -4,-14 -11,11 -25,-12 -17,-27 5,-10 5,-19 -1,-31 -12,-23 -6,-511 7,-556 5,-18 24,-49 43,-70 40,-45 94,-65 157,-58 51,5 95,27 95,46 0,10 -4,13 -11,10 -6,-2 -11,0 -12,5 0,5 -9,17 -19,27 -19,18 -19,27 -1,27 5,0 10,13 11,29 2,23 4,27 13,20 7,-6 12,-6 15,-1 7,12 27,10 22,-3 -2,-6 0,-13 5,-16 6,-4 5,-9 -4,-19 -12,-13 -12,-15 3,-34l16 -20 17 33c14,27 18,49 21,134 4,85 2,102 -7,108 -10,6 -10,9 2,30 15,26 19,133 6,137 -5,2 -4,13 1,31 8,26 7,30 -16,57 -24,28 -21,46 5,24 11,-9 12,-4 9,52 -8,136 -88,216 -205,204 -38,-4 -44,-3 -44,9 0,29 -21,46 -66,51 -34,4 -48,10 -64,27 -22,24 -42,27 -64,11l0 0zm174 -182c17,-17 2,-49 -23,-49 -14,0 -18,21 -9,42 10,22 16,23 32,7l0 0zm27 -49c0,-4 -3,-8 -8,-8 -4,0 -8,3 -8,8 0,4 3,8 8,8 4,0 8,-3 8,-8zm67 -18c9,-11 13,-553 4,-576 -8,-21 -35,-12 -43,14 -4,13 -6,112 -6,222 0,170 -2,199 -11,199 -6,0 -11,7 -11,15 0,17 -12,21 -17,6 -2,-6 -6,-5 -9,5 -4,10 -1,18 12,28 10,7 22,12 28,10 7,-3 10,4 10,23 0,53 23,82 45,55l0 0zm-90 -30c0,-14 4,-29 9,-34 5,-5 6,-11 3,-15 -3,-3 -8,-2 -11,2 -3,4 -12,10 -20,13 -8,3 -12,7 -10,10 3,3 1,11 -3,19 -9,18 -3,29 16,29 12,0 15,-5 15,-25zm-61 -101c0,-2 -3,-3 -8,-3 -4,0 -8,4 -8,8 0,4 3,6 8,3 4,-3 8,-6 8,-8zm45 -30c0,-2 -5,-3 -12,-3 -7,0 -10,3 -7,8 4,7 19,4 19,-4zm39 -62c-5,-2 -12,-2 -15,1 -3,3 2,4 10,4 9,0 11,-2 5,-5zm223 -14c-3,-7 -5,-15 -5,-19 0,-4 -5,-3 -11,3 -7,7 -8,13 -3,19 11,13 24,12 18,-3zm-333 -82c-1,-15 -11,-27 -22,-27 -3,0 -4,9 -2,21 3,25 1,22 15,22 6,0 10,-7 10,-16zm260 -8c-6,-7 -6,-12 -1,-16 4,-3 8,-1 8,3 0,4 5,8 10,8 7,0 9,-6 7,-17 -2,-12 -9,-18 -23,-19 -11,-1 -23,-7 -26,-13 -3,-6 -9,-11 -13,-11 -14,0 8,64 24,71 18,7 23,5 14,-6zm42 -25c-3,-3 -4,2 -4,10 0,9 2,11 5,5 2,-5 2,-12 -1,-15zm-65 -120c0,-8 -21,-25 -26,-21 -10,10 -4,25 10,25 8,0 15,-2 15,-4l0 0zm-11 -88c-10,-14 -12,-15 -12,-4 0,7 3,13 8,13 4,0 8,6 8,13 0,8 2,9 4,4 2,-5 -2,-17 -8,-26l0 0zm-186 -43c0,-3 -3,-9 -6,-12 -3,-3 -6,-11 -6,-18 0,-7 -4,-14 -10,-15 -7,-2 -9,7 -9,32 0,33 1,34 15,27 8,-4 15,-11 15,-14l0 0zm-1635 826c-7,-32 -9,-34 -32,-33 -22,1 -24,0 -20,-15 3,-9 13,-24 23,-34 10,-10 18,-23 18,-31 0,-16 41,-22 57,-8 10,8 26,4 26,-7 0,-3 -9,-10 -20,-15l-20 -9 17 -12c15,-10 20,-11 37,-2 15,8 20,8 23,1 5,-16 40,-12 40,5 0,9 7,16 19,19 18,5 19,6 15,59 -4,63 2,75 40,75 23,0 25,2 17,11 -5,6 -16,11 -24,11 -8,0 -14,3 -14,7 0,9 -106,1 -119,-8 -6,-4 -10,-3 -12,3 -2,6 -5,5 -8,-3 -3,-9 -1,-13 8,-13 11,0 11,-1 2,-8 -8,-6 2,-6 33,-3l45 5 -13 -18c-13,-19 -17,-33 -7,-27 3,2 13,-2 21,-8 14,-11 14,-11 -11,-7 -14,3 -34,5 -44,5 -10,0 -20,6 -23,13 -8,21 -22,32 -43,32 -16,0 -19,4 -22,25 -3,24 -3,24 -10,-9l0 0zm-55 8c0,-10 2,-15 4,-9 2,5 2,14 0,19 -2,5 -4,1 -4,-9l0 0zm1277 8c3,-4 8,-8 12,-8 4,0 5,3 3,8 -3,4 -8,8 -12,8 -4,0 -5,-3 -3,-8zm-1257 -28c5,-2 14,-2 19,0 5,2 1,4 -9,4 -10,0 -15,-2 -9,-4l0 0zm1835 -1c56,-1 144,-1 197,0 53,1 8,2 -101,2 -108,0 -152,-1 -96,-2zm384 -1c-33,-4 -7,-6 93,-7 76,-1 138,-4 138,-7 0,-3 -33,-5 -74,-5 -41,0 -93,-2 -116,-5l-42 -5 34 -2c19,-1 49,-4 68,-8 32,-6 30,-6 -27,-8l-61 -2 57 -4 57 -4 -64 -7c-35,-4 -97,-8 -136,-9 -100,-3 -97,-2 -84,-11 9,-6 11,-26 9,-117 -1,-61 1,-110 4,-110 4,0 11,4 16,9 14,14 11,-3 -6,-28 -8,-13 -15,-29 -15,-36 0,-7 -5,-13 -11,-13 -6,0 -11,3 -11,8 0,4 -3,8 -8,8 -5,0 -8,-100 -8,-284l0 -284 144 0 144 0 0 83c0,46 -3,83 -7,83 -11,0 -26,-22 -27,-40 0,-9 -4,-15 -8,-13 -4,2 -7,7 -5,10 1,4 -4,11 -11,17 -9,7 -10,10 -4,11 13,0 4,15 -10,15 -6,0 -14,-10 -18,-23 -10,-29 -19,-30 -13,-1 4,16 2,23 -7,26 -7,3 -10,8 -8,11 2,4 -3,9 -11,11 -8,2 -15,8 -15,13 0,6 6,7 16,4 16,-5 16,-3 13,56l-3 61 52 0 52 0 0 80 0 80 -49 0 -49 0 0 182c0,100 3,183 7,186 4,2 52,6 108,8 70,3 96,2 84,-3 -9,-4 -22,-6 -28,-3 -6,2 -11,1 -11,-4 0,-5 18,-8 49,-8 39,0 49,-2 49,-11 0,-6 5,-11 11,-11 6,0 11,-5 11,-11 0,-6 -5,-16 -11,-22 -9,-9 -11,-37 -11,-152 0,-77 3,-141 6,-141 3,0 13,-5 21,-12 14,-11 14,-12 -6,-9l-21 3 0 -154 0 -154 -51 -2 -51 -2 -1 -72c0,-40 1,-76 2,-82 2,-7 43,-9 169,-9 143,0 166,2 166,11 0,10 9,15 25,12 3,0 6,9 6,22 0,13 -4,23 -9,23 -6,0 -9,12 -9,34 0,24 3,33 9,31 5,-2 9,2 9,8 0,7 -4,9 -8,6 -5,-3 -12,-1 -15,5 -6,9 -8,8 -15,-3 -4,-7 -11,-11 -15,-9 -4,2 -7,0 -7,-5 0,-7 -2,-8 -9,0 -13,13 -21,11 -21,-3 0,-10 -2,-11 -12,-3 -6,5 -10,13 -9,18 2,5 -2,13 -7,18 -7,7 -9,21 -6,42 3,22 2,27 -3,17 -4,-8 -5,-19 -2,-23 2,-4 -1,-3 -7,2 -6,5 -13,8 -16,5 -2,-2 -2,5 0,16 3,15 6,17 10,10 4,-6 6,-7 6,-3 0,4 -5,14 -11,22 -6,8 -9,19 -6,25 2,6 0,14 -6,18 -8,5 -8,9 -1,17 5,6 7,13 4,16 -3,3 1,5 9,5 11,0 13,-4 9,-23 -3,-13 -3,-23 0,-23 7,0 26,21 26,30 0,4 3,8 8,8 5,0 8,92 8,261l0 261 78 5c76,5 168,19 163,24 -3,3 -219,29 -269,33 -5,0 -8,3 -6,7 2,3 -2,6 -9,6 -7,0 -49,3 -92,5 -149,9 -231,11 -277,6l0 0zm394 -99c-3,-4 -8,-8 -12,-8 -4,0 -7,3 -7,8 0,4 5,8 12,8 7,0 10,-3 7,-8zm-15 -30c-3,-4 -8,-6 -12,-3 -11,7 -9,11 5,11 7,0 10,-3 7,-8l0 0zm-72 -110c15,-18 4,-21 -11,-4 -8,8 -10,15 -6,15 4,0 12,-5 17,-12zm-20 -89c-3,-7 -10,-14 -16,-16 -7,-3 -9,-1 -6,5 16,28 31,36 22,11zm-14 -94c-8,-8 -14,4 -8,14 5,8 7,8 9,0 2,-5 1,-12 -1,-14zm94 -36c0,3 7,-1 15,-10 18,-19 19,-29 4,-35 -6,-2 -10,-9 -9,-14 1,-5 1,-7 -1,-4 -2,3 -7,6 -12,6 -5,0 -17,13 -28,28 -24,35 -27,43 -16,36 5,-3 11,0 14,8 4,12 6,11 19,-4 8,-9 14,-14 14,-11l0 0zm-42 -50c3,-4 1,-8 -3,-8 -4,0 -10,3 -12,8 -3,4 -1,8 3,8 4,0 10,-3 12,-8zm-300 -328c0,-13 -2,-15 -7,-6 -4,6 -5,14 -3,17 7,11 10,7 10,-11l0 0zm-2381 821c0,-4 3,-8 8,-8 4,0 8,3 8,8 0,4 -3,8 -8,8 -4,0 -8,-3 -8,-8zm2811 2c14,-2 36,-2 49,0 14,2 2,3 -25,3 -27,0 -38,-1 -25,-3l0 0zm140 0c36,-1 98,-1 136,0 39,1 9,3 -66,3 -75,0 -107,-1 -71,-3l0 0zm270 -8c26,-1 69,-1 95,0 26,1 5,3 -47,3 -52,0 -73,-1 -47,-3l0 0zm-1054 -23c14,-2 36,-2 49,0 14,2 2,3 -25,3 -27,0 -38,-1 -25,-3l0 0zm-2207 -17c-2,-8 -3,-15 -1,-15 2,0 6,7 11,15 4,8 5,15 1,15 -4,0 -9,-7 -11,-15l0 0zm3117 2c30,-1 80,-1 110,0 30,1 5,3 -55,3 -60,0 -85,-1 -55,-3l0 0zm-3019 -7c-9,-9 -5,-17 7,-17 6,0 11,3 11,7 0,10 -12,16 -18,10l0 0zm1053 -3c-2,-4 3,-7 11,-7 18,0 20,4 4,10 -6,2 -13,1 -16,-3l0 0zm2216 3c5,-2 14,-2 19,0 5,2 1,4 -9,4 -10,0 -15,-2 -9,-4l0 0zm-3213 -13c0,-7 5,-12 12,-12 13,0 11,16 -3,21 -5,2 -9,-2 -9,-9l0 0zm2060 -9c-8,-8 -6,-259 2,-264 5,-3 7,25 7,77 0,45 3,99 7,120 6,28 5,42 -2,55 -5,10 -12,15 -15,12zm744 -420l2 -425 61 0c57,0 61,1 61,16 0,15 1,15 13,5 15,-13 70,-25 70,-16 0,3 17,6 37,7 53,1 86,24 112,77 20,40 21,50 21,139 0,108 -6,125 -55,151l-25 13 31 17c20,11 36,28 46,48 18,38 29,146 16,169 -6,11 -6,17 0,21 9,6 2,42 -10,50 -5,3 -5,10 1,21 12,23 -3,74 -30,101 -21,21 -38,28 -38,15 0,-4 5,-21 11,-39 6,-18 11,-33 11,-33 0,-1 -8,-1 -18,-2 -13,-1 -20,4 -22,15 -4,16 -4,16 -21,1 -12,-11 -17,-12 -20,-5 -3,7 -6,8 -13,1 -8,-7 -14,-1 -30,25 -11,18 -20,37 -20,42 0,6 -28,9 -97,9l-97 0 2 -425 0 0zm116 356c0,-4 -3,-8 -8,-8 -4,0 -8,3 -8,8 0,4 3,8 8,8 4,0 8,-3 8,-8zm55 -12c5,-27 -13,-44 -33,-32 -18,11 -19,18 -3,23 6,2 11,10 11,16 0,19 21,13 25,-8zm142 -45c0,-6 -1,-11 -3,-11 -2,0 -5,5 -7,11 -2,6 -1,11 3,11 4,0 7,-5 7,-11zm-272 -9c-5,-2 -12,-2 -15,1 -3,3 2,4 10,4 9,0 11,-2 5,-5zm169 -22c10,-10 12,-31 12,-106 0,-51 -2,-99 -5,-106 -3,-7 -14,-12 -25,-12 -31,0 -49,-18 -43,-42 3,-12 2,-18 -2,-16 -4,2 -9,12 -11,21 -2,9 -6,23 -9,30 -5,11 -2,13 18,9l24 -5 0 100c0,83 -2,100 -11,100 -6,0 -11,3 -11,7 0,4 5,5 11,3 8,-3 11,1 11,12 0,19 24,22 41,4l0 0zm136 -72c-5,-5 -14,-5 -26,0 -18,7 -18,7 -1,8 9,0 17,5 17,10 0,7 2,7 9,0 6,-6 7,-12 1,-17l0 0zm-94 -99c0,-4 -3,-6 -8,-3 -4,3 -8,6 -8,8 0,2 3,3 8,3 4,0 8,-4 8,-8zm72 -45c-3,-4 -6,-8 -8,-8 -2,0 -3,3 -3,8 0,4 4,8 8,8 4,0 6,-3 3,-8zm-118 -72c0,-2 -3,-3 -8,-3 -4,0 -8,4 -8,8 0,4 3,6 8,3 4,-3 8,-6 8,-8zm-7 -17c17,-7 18,-8 4,-13 -9,-4 -16,-3 -18,3 -2,5 -8,9 -13,9 -6,0 -9,5 -6,12 3,7 7,9 9,4 3,-4 13,-11 24,-15l0 0zm-68 -15c0,-16 2,-18 7,-9 7,10 11,5 8,-10 -1,-3 3,-13 7,-22 6,-12 6,-14 -1,-10 -11,7 -61,-19 -61,-32 0,-5 -3,-10 -7,-10 -9,0 -1,38 12,58 6,9 12,26 13,38 3,28 3,27 12,22 4,-3 8,-14 8,-25l0 0zm152 -24c0,-3 -7,-8 -15,-10 -17,-4 -20,2 -6,16 9,9 22,6 22,-5zm-65 -28c3,-7 5,-44 5,-83 0,-65 -1,-72 -17,-83 -31,-22 -35,-16 -38,58 -4,109 -2,119 24,119 13,0 23,-5 26,-12l0 0zm80 -3c0,-4 -3,-9 -8,-12 -4,-3 -8,1 -8,7 0,7 3,12 8,12 4,0 8,-3 8,-7zm-152 -16c0,-4 -3,-6 -8,-3 -4,3 -8,6 -8,8 0,2 3,3 8,3 4,0 8,-4 8,-8zm-115 -31c11,-11 12,-21 2,-21 -4,0 -11,7 -15,15 -9,17 -1,20 14,6zm119 2c-3,-4 -6,-8 -8,-8 -2,0 -3,3 -3,8 0,4 4,8 8,8 4,0 6,-3 3,-8zm-80 -94c0,-11 -10,-26 -16,-23 -8,5 -1,26 9,26 4,0 7,-1 7,-3zm8 -65c0,-4 -3,-8 -7,-8 -4,0 -9,3 -12,8 -3,4 1,8 7,8 7,0 12,-3 12,-8zm38 -16c0,-4 3,-6 6,-4 4,2 7,-6 7,-18 1,-27 -8,-34 -28,-21 -14,9 -14,10 -2,24 12,14 12,14 -15,9 -35,-7 -37,1 -4,11 33,10 36,10 36,0l0 0zm121 -52c0,-14 -15,-16 -27,-5 -11,11 -10,12 8,12 11,0 20,-3 20,-7l0 0zm-1923 778c-6,-15 1,-25 20,-30 13,-3 15,-1 13,16 -3,23 -26,32 -33,14l0 0zm58 -4c0,-10 4,-14 11,-11 6,2 11,9 11,15 0,6 -5,11 -11,11 -6,0 -11,-7 -11,-15zm-1178 -5c-9,-9 -5,-31 6,-35 17,-6 31,15 20,29 -10,12 -17,14 -25,6zm1062 -14c-7,-16 -7,-21 1,-26 22,-13 46,19 28,37 -13,13 -20,10 -30,-11zm548 12c0,-4 2,-8 3,-8 2,0 5,3 8,8 3,4 1,8 -3,8 -4,0 -8,-3 -8,-8zm-1666 -9c5,-14 21,-16 21,-3 0,7 -5,12 -12,12 -7,0 -11,-4 -9,-9l0 0zm108 0c-6,-10 18,-31 28,-25 4,2 6,11 6,19 0,16 -26,21 -35,6l0 0zm3007 2c0,-4 3,-9 8,-12 4,-3 8,1 8,7 0,7 -3,12 -8,12 -4,0 -8,-3 -8,-7zm-2827 -17c3,-23 33,-25 33,-3 0,10 -6,16 -18,18 -15,2 -17,0 -15,-15zm-441 2c0,-4 3,-8 8,-8 4,0 8,2 8,3 0,2 -3,5 -8,8 -4,3 -8,1 -8,-3zm-8 -19c11,-13 15,-15 15,-5 0,4 -6,9 -12,12 -10,4 -11,3 -3,-7l0 0zm1343 -7c-7,-8 -6,-13 3,-20 14,-12 27,-4 27,15 0,17 -17,20 -29,4zm-1229 -8c0,-7 3,-12 8,-12 4,0 8,3 8,7 0,4 -3,9 -8,12 -4,3 -8,-1 -8,-7zm45 -8c0,-6 5,-11 11,-11 6,0 11,5 11,11 0,6 -5,11 -11,11 -6,0 -11,-5 -11,-11zm54 -1c3,-17 33,-19 33,-3 0,6 -8,13 -18,14 -14,2 -17,-1 -15,-11zm62 7c-6,-4 -6,-12 -2,-23 9,-25 41,-20 41,6 0,20 -21,29 -39,17l0 0zm1010 -7c-14,-14 -15,-21 -1,-32 15,-12 35,-2 35,18 0,22 -19,30 -34,14zm-952 -14c0,-17 3,-20 21,-18 15,2 21,7 21,18 0,11 -6,16 -21,18 -18,2 -21,0 -21,-18zm63 8c-7,-18 3,-34 20,-34 19,0 28,19 15,34 -12,15 -30,14 -35,0l0 0zm63 -1c-3,-3 -5,-15 -5,-27 0,-18 -3,-21 -20,-21 -13,0 -21,-5 -24,-15 -2,-8 -7,-15 -10,-15 -3,0 -8,7 -10,15 -3,11 -10,15 -27,15 -27,0 -35,-9 -28,-35 4,-17 8,-19 33,-17 28,2 28,2 30,-28 2,-29 1,-30 -6,-9 -7,18 -12,21 -33,19 -14,-1 -30,2 -35,6 -6,4 -18,10 -27,12 -13,3 -18,0 -22,-14 -2,-10 -1,-24 3,-31 5,-9 5,-18 -1,-26 -10,-16 5,-37 26,-37 23,0 27,23 6,40 -16,13 -17,15 -5,22 7,4 13,13 13,20 0,19 13,2 16,-21 2,-16 6,-19 31,-19 16,0 28,-2 28,-4 0,-12 -14,-22 -34,-24 -19,-2 -23,-7 -25,-24 -2,-16 1,-22 13,-26 9,-2 16,-9 16,-15 0,-8 -5,-9 -15,-6 -11,3 -15,1 -15,-7 0,-6 -8,-24 -19,-39 -20,-30 -31,-70 -25,-95 4,-14 1,-15 -35,-13 -26,1 -41,6 -45,13 -4,8 -5,5 -4,-7 1,-10 5,-18 10,-18 4,1 8,-11 8,-27 0,-27 -1,-28 -25,-26 -14,1 -23,-1 -21,-5 2,-4 1,-9 -4,-12 -4,-3 -8,0 -8,5 0,8 -2,8 -9,0 -8,-8 -7,-11 1,-16 13,-8 -2,-39 -19,-39 -6,0 -10,3 -7,7 2,4 -2,11 -10,15 -13,7 -14,6 -12,-9 2,-9 1,-13 -1,-7 -6,12 -26,12 -26,0 0,-7 -2,-7 -9,0 -5,5 -15,9 -22,9 -18,0 -36,-57 -23,-70 7,-7 9,-7 9,0 0,5 4,9 8,9 5,0 6,-5 4,-11 -4,-10 3,-15 20,-12 3,0 9,-6 14,-15 7,-13 10,-14 15,-6 5,9 7,9 7,0 0,-6 8,-16 17,-24 17,-13 17,-13 25,1 8,15 9,15 21,-4 13,-20 8,-27 -9,-10 -5,5 -9,6 -9,3 0,-10 19,-26 35,-29 11,-2 14,-9 13,-28 -1,-18 1,-23 8,-18 5,4 16,9 26,12 14,4 16,3 13,-9 -2,-8 0,-6 5,3 8,15 7,19 -5,29 -14,11 -14,12 0,7 10,-3 13,-1 10,6 -2,6 1,15 7,20 12,10 11,27 -1,25 -20,-3 -24,44 -5,59 9,7 11,7 7,1 -3,-5 -2,-9 2,-9 4,0 8,-5 8,-12 0,-6 5,-14 11,-16 6,-2 9,-7 7,-11 -2,-4 -7,-5 -11,-3 -3,2 -5,-3 -2,-11 3,-12 6,-14 15,-6 8,7 13,7 20,0 5,-5 15,-9 23,-9 12,0 13,2 5,12 -19,23 0,20 22,-4 20,-20 22,-26 15,-39 -7,-13 -10,-14 -20,-6 -9,8 -13,7 -18,-1 -9,-14 -9,-22 0,-22 4,0 8,4 8,9 0,7 1,7 6,0 4,-7 16,-2 41,15 28,20 35,29 35,46 0,14 -6,23 -15,27 -13,5 -13,6 -3,15 7,5 12,16 12,24 0,8 3,16 8,18 4,3 8,12 8,21 0,16 0,16 11,1 8,-10 10,-11 7,-3 -4,13 22,52 30,44 3,-3 2,-13 -2,-23 -4,-11 -4,-27 1,-41 4,-13 9,-28 11,-34 5,-15 24,13 46,67 13,32 15,44 9,52 -6,8 -6,12 1,16 7,4 7,8 1,11 -5,3 -6,9 -4,13 3,4 -3,26 -12,48 -13,31 -20,40 -29,37 -10,-3 -10,-2 -2,3 16,11 3,40 -22,49 -25,9 -31,22 -7,16 19,-5 19,-1 -4,71 -18,57 -19,63 -12,133 4,40 10,79 13,85 5,12 -5,17 -15,7l0 0zm4 -236c-5,-2 -9,-9 -9,-16 0,-11 -1,-11 -7,-2 -8,13 5,33 17,25 6,-4 5,-6 -1,-8zm-58 -161c3,-4 1,-8 -3,-8 -4,0 -10,3 -12,8 -3,4 -1,8 3,8 4,0 10,-3 12,-8zm-27 -16c0,-4 -3,-6 -8,-3 -4,3 -8,6 -8,8 0,2 3,3 8,3 4,0 8,-4 8,-8zm105 -11c-5,-10 -12,-17 -16,-14 -4,3 -3,7 3,11 6,4 7,7 3,7 -4,0 -2,4 4,8 16,10 16,10 6,-11zm-185 -16c3,-7 1,-10 -3,-7 -4,3 -7,8 -7,12 0,11 5,9 10,-5zm232 -22c0,-6 -1,-11 -3,-11 -2,0 -5,5 -7,11 -2,6 -1,11 3,11 4,0 7,-5 7,-11zm-235 -4c0,-4 -4,-8 -8,-8 -4,0 -6,3 -3,8 3,4 6,8 8,8 2,0 3,-3 3,-8zm190 -4c6,-7 6,-11 1,-11 -4,0 -10,3 -13,7 -2,4 -10,5 -18,3 -11,-4 -11,-3 -2,4 15,11 19,10 30,-3l0 0zm-163 -4c-3,-4 -6,-8 -8,-8 -2,0 -3,3 -3,8 0,4 4,8 8,8 4,0 6,-3 3,-8zm-72 -38c0,-4 -3,-8 -8,-8 -4,0 -8,3 -8,8 0,4 3,8 8,8 4,0 8,-3 8,-8zm92 2c-5,-2 -12,-2 -15,1 -3,3 2,4 10,4 9,0 11,-2 5,-5zm-47 -14c0,-2 -3,-3 -8,-3 -4,0 -8,4 -8,8 0,4 3,6 8,3 4,-3 8,-6 8,-8zm133 4c-3,-4 -6,-8 -8,-8 -2,0 -3,3 -3,8 0,4 4,8 8,8 4,0 6,-3 3,-8zm-93 -15c8,0 12,3 9,8 -3,4 -1,8 4,8 16,0 4,-27 -12,-27 -9,0 -20,-3 -25,-6 -5,-3 -9,-2 -9,3 0,4 4,8 9,8 6,0 5,4 -2,13 -9,11 -8,12 1,4 6,-5 17,-9 25,-9l0 0zm-277 -30c-7,-10 -11,-12 -15,-6 -3,5 -1,12 4,15 16,10 21,6 11,-9l0 0zm93 -4c5,-6 8,-11 5,-11 -2,0 -9,-2 -16,-5 -9,-3 -12,0 -12,11 0,19 9,21 23,5l0 0zm90 -16c-5,-6 -11,-9 -15,-7 -3,2 -8,1 -9,-2 -2,-3 -2,-2 -1,3 1,5 -4,11 -11,13 -7,2 -4,3 6,2 13,-1 18,2 17,9 -2,9 0,9 10,1 9,-7 10,-12 3,-20zm39 20c0,-4 -4,-8 -8,-8 -4,0 -6,3 -3,8 3,4 6,8 8,8 2,0 3,-3 3,-8zm48 -1c15,6 20,5 23,-4 2,-6 7,-11 10,-10 16,3 22,-3 23,-22 1,-19 1,-20 -6,-4 -8,19 -61,34 -67,19 -2,-5 -6,-9 -11,-9 -4,0 -6,5 -3,11 2,6 1,11 -3,11 -4,0 -7,4 -7,9 0,6 3,6 10,0 7,-6 16,-6 30,-1l0 0zm-235 -29c6,-1 8,-8 2,-8 -2,0 -9,0 -15,0 -7,0 -9,4 -7,12 3,7 7,9 9,5 3,-4 7,-8 10,-8l0 0zm88 -27c-2,-2 -7,2 -9,9 -4,11 -3,12 4,4 5,-5 8,-11 5,-14l0 0zm168 4c0,-4 -3,-6 -8,-3 -4,3 -8,6 -8,8 0,2 3,3 8,3 4,0 8,-4 8,-8zm-167 -23c0,-4 -3,-6 -8,-3 -4,3 -8,6 -8,8 0,2 3,3 8,3 4,0 8,-4 8,-8zm33 -36c2,-3 -1,-6 -7,-6 -6,0 -11,3 -11,6 0,3 3,6 7,6 4,0 9,-3 11,-6zm1136 634c1,-9 8,-17 14,-17 6,0 12,8 14,17 2,13 -1,17 -14,17 -12,0 -16,-4 -14,-17zm-1237 6c0,-2 3,-5 8,-8 4,-3 8,-1 8,3 0,4 -3,8 -8,8 -4,0 -8,-2 -8,-3zm54 -3c3,-10 14,-12 14,-3 0,3 -4,7 -9,9 -5,2 -7,-1 -6,-6l0 0zm46 -6c3,-17 33,-19 33,-3 0,6 -8,13 -18,14 -14,2 -17,-1 -15,-11zm62 -6c-7,-17 3,-34 18,-34 21,0 33,15 24,31 -9,17 -36,19 -42,3zm1020 2c-7,-5 -14,-16 -17,-23 -6,-16 21,-26 37,-13 13,11 14,16 1,33 -8,11 -12,11 -22,3l0 0zm13 -34c-5,-5 -20,5 -20,15 0,5 4,4 12,-2 6,-5 10,-11 8,-13zm2936 20c-27,-14 -28,-16 -28,-52 0,-36 1,-37 17,-31 10,4 17,12 16,20 -1,8 1,16 4,18 6,4 25,54 22,58 -1,1 -15,-5 -30,-13l0 0zm-4034 -32c2,-8 10,-16 18,-18 18,-5 18,-8 -1,-23 -17,-14 -10,-37 10,-29 8,3 11,16 12,42 1,36 0,38 -21,41 -18,3 -21,1 -18,-12l0 0zm-43 2c4,-11 16,-13 20,-2 2,5 -3,9 -9,9 -7,0 -12,-3 -10,-8l0 0zm3 -44c-3,-4 -1,-10 3,-13 12,-7 19,3 9,12 -5,5 -10,6 -13,0zm1156 -1c0,-4 3,-8 7,-8 4,0 9,3 12,8 3,4 -1,8 -7,8 -7,0 -12,-3 -12,-8zm-1155 -50c-6,-6 1,-18 10,-18 4,0 7,5 7,11 0,12 -9,15 -17,7l0 0zm48 -10c0,-10 5,-15 14,-15 18,0 27,20 11,26 -20,8 -25,5 -25,-11zm1259 5c0,-11 22,-23 29,-16 5,5 -13,27 -22,27 -4,0 -7,-5 -7,-11zm-1365 0c0,-2 3,-5 8,-8 4,-3 8,-1 8,3 0,4 -3,8 -8,8 -4,0 -8,-2 -8,-3zm165 -53c-3,-22 -1,-25 12,-23 38,7 46,49 9,49 -15,0 -19,-4 -21,-26l0 0zm-105 7c0,-7 4,-11 9,-9 11,4 10,16 -2,20 -4,1 -8,-3 -8,-10l0 0zm1342 4c0,-4 3,-8 8,-8 4,0 8,3 8,8 0,4 -3,8 -8,8 -4,0 -8,-3 -8,-8zm-1297 -12c0,-13 18,-22 30,-15 12,7 1,27 -15,27 -8,0 -14,-5 -14,-12zm-121 -18c0,-4 3,-8 8,-8 4,0 8,2 8,3 0,2 -3,5 -8,8 -4,3 -8,1 -8,-3zm76 -22c0,-10 22,-27 28,-21 6,6 -11,28 -21,28 -4,0 -7,-3 -7,-7zm54 -1c-9,-6 -9,-11 -2,-26 8,-17 7,-20 -6,-20 -14,0 -15,-1 -3,-19 7,-10 17,-19 23,-19 15,0 21,21 10,34 -7,8 -7,14 -1,21 12,14 -6,38 -21,28l0 0zm-120 -6c7,-2 13,-10 13,-18 0,-8 3,-16 8,-19 4,-3 8,0 8,7 0,22 -10,35 -25,34 -13,-1 -13,-2 -3,-4zm67 -47c3,-10 14,-12 14,-3 0,3 -4,7 -9,9 -5,2 -7,-1 -6,-6l0 0zm1205 -5c-6,-7 -7,-12 -2,-12 9,0 20,14 15,20 -2,2 -8,-2 -13,-8zm-1201 -35c-7,-10 -12,-13 -12,-7 0,6 -2,8 -5,6 -10,-10 4,-27 19,-23 18,5 25,19 16,32 -4,7 -9,5 -18,-8l0 0zm41 -6c0,-4 3,-9 8,-12 4,-3 8,1 8,7 0,7 -3,12 -8,12 -4,0 -8,-3 -8,-7zm-99 -16c0,-4 3,-8 8,-8 4,0 8,3 8,8 0,4 -3,8 -8,8 -4,0 -8,-3 -8,-8zm1529 -14c-2,-3 1,-6 7,-6 6,0 9,3 7,6 -2,3 -5,6 -7,6 -2,0 -5,-3 -7,-6zm-1458 -7c4,-6 1,-9 -9,-9 -24,0 -38,-8 -34,-20 6,-15 -5,-13 -18,3 -6,7 -9,9 -6,4 3,-5 0,-10 -5,-10 -7,0 -5,-4 3,-10 8,-6 12,-15 8,-23 -3,-9 2,-6 15,7 11,11 18,25 15,31 -5,14 8,15 21,1 12,-12 29,-8 29,6 0,5 -6,14 -13,20 -9,7 -11,7 -7,1zm2668 -22c-13,-5 -12,-26 2,-44 10,-14 11,-13 11,17 0,17 -1,32 -2,31 -1,0 -6,-2 -11,-4l0 0zm-1245 -44c0,-10 -3,-21 -8,-23 -4,-3 -8,-8 -8,-12 0,-4 7,-1 15,6 16,13 21,48 8,48 -4,0 -8,-8 -8,-19zm2492 6c-9,-9 -6,-18 6,-18 6,0 11,5 11,11 0,12 -9,15 -18,6zm291 -6c5,-6 17,-11 26,-11 16,0 16,0 1,11 -20,15 -40,15 -27,0l0 0zm-3014 -102c-3,-4 -1,-8 3,-8 4,0 8,3 8,8 0,4 -2,8 -3,8 -2,0 -5,-3 -8,-8zm-32 -25c3,-8 5,-19 5,-25 0,-6 5,-11 11,-11 15,0 14,5 -5,29 -10,13 -15,15 -11,6zm-44 -35c-3,-4 1,-8 7,-8 7,0 12,3 12,8 0,4 -3,8 -7,8 -4,0 -9,-3 -12,-8zm-1247 -19c0,-2 3,-5 8,-8 4,-3 8,-1 8,3 0,4 -3,8 -8,8 -4,0 -8,-2 -8,-3zm242 -8c-1,-6 -1,-16 -2,-21 -1,-5 -10,-9 -21,-8 -16,1 -19,-2 -16,-13 4,-17 -17,-50 -24,-38 -7,11 -29,10 -25,-1 2,-5 7,-9 12,-8 5,1 9,-2 9,-6 0,-19 16,-8 51,33 10,11 21,18 25,16 4,-3 7,1 7,7 0,6 -3,13 -7,16 -4,2 -5,11 -3,19 2,8 2,15 -1,15 -3,0 -5,-5 -6,-11l0 0zm1108 -11c-6,-4 -10,-8 -8,-8 2,0 10,-2 17,-3 8,-2 11,1 9,8 -5,13 -3,12 -18,3l0 0zm-148 -8c-8,-13 -1,-14 10,-3 5,6 6,11 2,11 -4,0 -10,-4 -12,-8zm2635 1c0,-4 7,-11 15,-15 17,-9 20,-1 6,14 -11,11 -21,12 -21,2zm-3790 -19c-1,-10 2,-19 6,-19 4,0 7,5 7,12 0,7 3,10 8,7 4,-3 8,-1 8,3 0,6 -17,16 -26,16 -1,0 -2,-9 -3,-19l0 0zm59 5c0,-4 7,-5 15,-3 8,2 15,5 15,7 0,2 -7,3 -15,3 -8,0 -15,-3 -15,-7zm0 -53c0,-4 3,-8 8,-8 4,0 8,2 8,3 0,2 -3,5 -8,8 -4,3 -8,1 -8,-3zm1101 2c-13,-5 -12,-21 2,-32 9,-8 11,-6 8,9 -3,17 -3,17 8,3 6,-8 11,-18 11,-21 0,-4 5,-2 11,5 6,6 11,16 11,21 -1,8 -1,8 -5,0 -3,-8 -8,-7 -20,5 -9,8 -21,13 -26,11l0 0zm271 -2c0,-4 3,-9 8,-12 4,-3 8,1 8,7 0,7 -3,12 -8,12 -4,0 -8,-3 -8,-7zm-326 -8c0,-4 2,-8 3,-8 2,0 5,3 8,8 3,4 1,8 -3,8 -4,0 -8,-3 -8,-8zm-1126 -15c-3,-4 1,-8 7,-8 13,0 15,5 5,11 -4,2 -9,1 -12,-3l0 0zm1384 4c0,-11 13,-31 18,-26 2,2 -1,11 -7,19 -6,8 -11,11 -11,7l0 0zm-1310 -16c3,-3 9,-3 15,-1 6,2 4,4 -5,5 -8,0 -12,-1 -10,-4zm98 -17c1,-17 5,-21 14,-19 7,2 15,0 17,-4 5,-9 -37,-28 -59,-26 -8,1 -19,-4 -23,-10 -4,-6 -29,-14 -56,-18 -54,-9 -88,-26 -99,-51 -6,-13 -5,-20 5,-28 32,-29 73,-21 125,23 14,11 27,16 36,14 10,-3 14,-1 14,9 0,10 13,19 43,31 24,9 44,16 46,14 2,-2 -1,-10 -7,-18 -8,-12 -8,-18 0,-27 5,-7 13,-10 17,-8 4,2 12,0 18,-5 13,-10 15,-30 3,-30 -4,0 -8,5 -8,11 0,6 -3,11 -7,11 -4,0 -12,2 -19,5 -9,4 -12,-1 -12,-19 0,-22 7,-28 27,-24 4,1 13,3 20,4 7,1 17,-1 23,-5 9,-6 9,-8 -3,-15 -9,-5 -13,-17 -13,-38 0,-16 -4,-30 -8,-30 -5,0 -5,-5 0,-15 8,-16 30,-21 30,-8 0,4 3,8 8,8 4,0 8,-5 8,-11 0,-6 3,-11 8,-11 4,0 8,3 8,8 0,4 4,8 8,8 4,0 6,-3 3,-7 -3,-4 0,-6 7,-3 13,5 16,-5 4,-17 -12,-12 0,-41 16,-41 8,0 13,-3 10,-7 -2,-4 0,-8 5,-10 5,-2 7,-6 4,-10 -3,-3 -10,0 -16,7 -16,22 -81,18 -108,-7 -12,-11 -19,-22 -16,-24 3,-3 11,2 18,11 7,9 24,18 36,21 15,3 19,2 13,-2 -8,-6 -7,-8 5,-11 8,-2 19,-1 25,2 5,3 16,2 23,-3 10,-6 16,-6 23,1 5,5 15,9 21,9 10,0 10,-1 0,-8 -10,-6 -10,-8 -1,-14 9,-6 8,-13 -6,-47 -19,-46 -20,-63 -5,-75 24,-20 57,10 42,38 -10,18 -10,45 0,45 4,0 8,8 8,17 1,13 2,14 4,4 2,-7 7,-11 10,-9 4,2 7,-1 7,-7 0,-7 3,-12 7,-12 4,0 9,-10 11,-23 3,-17 9,-23 22,-23 10,0 14,3 9,6 -4,3 -10,11 -13,18 -4,10 -1,11 11,8 9,-2 12,-6 7,-9 -5,-3 -3,-8 6,-13 20,-12 38,0 24,16 -7,8 -7,12 -1,12 5,0 9,5 9,10 0,6 -7,10 -19,8 -10,-1 -18,0 -17,3 4,15 -19,39 -37,39 -17,0 -18,2 -10,12 8,10 6,17 -14,44 -13,18 -27,31 -31,30 -4,-1 -6,3 -4,9 2,6 -5,17 -15,26 -11,8 -19,21 -19,27 0,7 -3,12 -7,12 -4,0 -9,8 -11,17 -2,9 -25,49 -51,87 -36,54 -50,70 -64,70 -23,0 -56,27 -59,48 -2,11 -9,18 -20,19 -15,2 -17,-1 -16,-20l0 0zm215 -229c3,-4 2,-8 -1,-8 -3,0 -14,-2 -24,-4 -15,-3 -17,-2 -9,8 11,13 27,15 34,4zm-70 -17c-9,-10 -14,-11 -18,-4 -8,13 -3,18 15,18 14,0 15,-1 3,-14zm62 -29c5,0 14,-5 20,-12 8,-9 8,-14 0,-21 -7,-7 -9,-7 -7,2 1,6 0,11 -2,11 -9,0 -30,21 -29,29 0,5 2,5 4,-1 2,-5 8,-9 14,-9l0 0zm61 -61c-3,-4 -8,-8 -12,-8 -4,0 -5,3 -3,8 3,4 8,8 12,8 4,0 5,-3 3,-8zm-1 -34c-2,-6 -6,-10 -8,-8 -2,2 -1,7 1,12 7,12 12,10 7,-4zm-320 377c-8,-5 -8,-7 3,-11 20,-8 27,-6 27,7 0,13 -13,15 -29,5zm1424 3c0,-2 3,-5 8,-8 4,-3 8,-1 8,3 0,4 -3,8 -8,8 -4,0 -8,-2 -8,-3zm-1471 -12c0,-4 3,-8 7,-8 4,0 9,3 12,8 3,4 -1,8 -7,8 -7,0 -12,-3 -12,-8zm565 -8c-3,-4 -1,-8 3,-8 4,0 8,3 8,8 0,4 -2,8 -3,8 -2,0 -5,-3 -8,-8zm0 -23c-3,-4 1,-8 7,-8 7,0 12,3 12,8 0,4 -3,8 -7,8 -4,0 -9,-3 -12,-8zm-557 -22c0,-4 3,-8 8,-8 4,0 8,2 8,3 0,2 -3,5 -8,8 -4,3 -8,1 -8,-3zm563 3c3,-3 9,-3 15,-1 6,2 4,4 -5,5 -8,0 -12,-1 -10,-4zm2 -18c-3,-4 -1,-8 3,-8 4,0 10,3 12,8 3,4 1,8 -3,8 -4,0 -10,-3 -12,-8zm-11 -22c0,-4 5,-9 11,-11 7,-3 11,0 11,7 0,6 -5,11 -11,11 -6,0 -11,-3 -11,-7zm697 7c0,-2 -2,-10 -3,-17 -1,-7 0,-15 4,-17 9,-6 15,15 7,27 -4,6 -7,9 -7,7zm81 -11c2,-6 6,-11 7,-11 2,0 3,5 3,11 0,6 -3,11 -7,11 -4,0 -5,-5 -3,-11zm-1233 -15c0,-21 9,-24 22,-8 11,13 4,27 -12,27 -7,0 -11,-8 -11,-19zm1176 8c0,-8 1,-12 4,-10 3,3 3,9 1,15 -2,6 -4,4 -5,-5l0 0zm-1180 -51c-7,-12 13,-30 25,-23 12,7 4,31 -10,31 -6,0 -12,-4 -15,-8zm-44 -4c-6,-6 1,-18 10,-18 4,0 7,5 7,11 0,12 -9,15 -17,7l0 0zm-51 -10c0,-4 3,-8 8,-8 4,0 8,3 8,8 0,4 -3,8 -8,8 -4,0 -8,-3 -8,-8zm1050 -7c-6,-10 -1,-18 10,-14 5,2 5,7 1,13 -5,8 -8,8 -12,1zm-901 -13c-8,-8 -7,-31 2,-36 13,-8 32,5 30,21 -2,16 -21,25 -31,15l0 0zm1241 -13c-6,-17 2,-25 14,-14 7,7 7,11 0,18 -7,7 -10,6 -14,-4l0 0zm-1296 -5c-7,-12 8,-25 23,-20 7,3 10,9 7,16 -5,13 -22,15 -30,3zm-44 -4c-6,-6 1,-18 10,-18 4,0 7,5 7,11 0,12 -9,15 -17,7l0 0zm-51 -10c0,-4 3,-8 8,-8 4,0 8,3 8,8 0,4 -3,8 -8,8 -4,0 -8,-3 -8,-8zm920 -3c-6,-16 3,-27 21,-27 8,0 13,-3 10,-8 -3,-4 -1,-8 4,-8 5,0 7,6 4,16 -3,9 -1,20 3,25 6,7 2,10 -15,11 -14,1 -24,-2 -27,-9l0 0zm118 0c0,-6 -6,-12 -13,-12 -11,0 -11,-1 2,-7 14,-6 14,-7 2,-12 -9,-3 -19,-1 -28,7 -14,12 -15,12 -23,-3 -9,-17 -3,-23 22,-21 6,0 19,-2 28,-5 13,-4 16,-2 16,12 0,10 2,25 5,34 4,11 2,17 -3,17 -5,0 -8,-5 -8,-11l0 0zm45 4c0,-4 4,-8 9,-8 6,0 6,-2 -2,-7 -6,-4 -9,-10 -6,-13 9,-9 23,10 18,23 -5,13 -20,16 -20,4l0 0zm-30 -22c0,-4 3,-8 8,-8 4,0 8,2 8,3 0,2 -3,5 -8,8 -4,3 -8,1 -8,-3zm235 0c0,-4 2,-8 3,-8 2,0 5,3 8,8 3,4 1,8 -3,8 -4,0 -8,-3 -8,-8zm-1135 -6c-8,-5 -8,-67 0,-75 3,-3 7,3 9,12 5,19 24,22 30,5 6,-16 18,-14 18,4 0,12 -5,15 -23,15 -20,0 -22,2 -18,18 5,19 -4,30 -17,21zm1045 0c-8,-5 -6,-7 6,-11 10,-3 16,-1 16,7 0,12 -7,13 -21,4l0 0zm-1105 -9c-6,-10 2,-23 16,-23 6,0 11,7 11,15 0,16 -18,21 -27,8zm-44 -5c-3,-3 -3,-8 -1,-11 5,-8 18,-1 18,9 0,8 -10,9 -17,2l0 0zm648 -12c4,-25 26,-26 31,-2 3,16 1,19 -15,19 -15,0 -18,-3 -16,-17l0 0zm226 11c-15,-5 -22,-17 -18,-29 4,-12 40,-19 40,-9 0,4 6,2 13,-5 16,-14 45,-14 45,0 0,12 -21,20 -38,13 -8,-3 -15,2 -22,14 -6,11 -15,17 -21,15l0 0zm-925 -9c0,-4 3,-8 8,-8 4,0 8,3 8,8 0,4 -3,8 -8,8 -4,0 -8,-3 -8,-8zm1060 -1c-7,-4 -7,-8 -2,-14 10,-10 33,-2 33,11 0,11 -17,12 -32,3zm-308 -15c3,-23 29,-30 29,-7 0,9 -1,16 -3,16 -2,0 -9,2 -16,5 -10,4 -12,1 -10,-13l0 0zm509 -7c-1,-17 13,-22 34,-11 17,9 16,9 -8,16 -22,7 -25,6 -26,-6zm-1041 2c0,-4 5,-10 11,-12 7,-3 9,-9 6,-18 -4,-12 -4,-12 8,-3 14,11 17,31 6,31 -4,0 -12,2 -19,5 -7,3 -12,1 -12,-3l0 0zm1175 -9c0,-10 4,-15 9,-13 5,2 9,8 9,13 0,6 -4,12 -9,13 -6,2 -9,-3 -9,-13zm-287 3c0,-5 -3,-15 -6,-23 -4,-11 -3,-12 5,-5 5,5 8,15 6,23 -2,8 -4,10 -5,5zm-1006 -10c-7,-12 3,-19 12,-9 5,5 6,10 0,13 -4,3 -10,1 -13,-3l0 0zm532 3c-6,-6 1,-18 10,-18 4,0 7,5 7,11 0,12 -9,15 -17,7l0 0zm533 -3c0,-4 2,-8 3,-8 2,0 5,3 8,8 3,4 1,8 -3,8 -4,0 -8,-3 -8,-8zm-1115 -8c0,-4 3,-8 8,-8 4,0 8,3 8,8 0,4 -3,8 -8,8 -4,0 -8,-3 -8,-8zm971 0c0,-4 5,-8 11,-8 6,0 11,3 11,8 0,4 -5,8 -11,8 -6,0 -11,-3 -11,-8zm-336 -11c-3,-8 0,-12 11,-12 9,0 14,4 13,9 -5,14 -19,16 -24,3zm224 1c-11,-13 2,-31 17,-25 7,3 12,10 12,15 0,15 -20,21 -29,10zm-337 -13c2,-8 7,-15 10,-15 3,0 4,7 2,15 -2,8 -7,15 -10,15 -3,0 -4,-7 -2,-15l0 0zm490 11c3,-3 9,-3 15,-1 6,2 4,4 -5,5 -8,0 -12,-1 -10,-4zm-321 -10c0,-13 13,-16 23,-4 8,9 7,11 -7,11 -9,0 -16,-3 -16,-7l0 0zm215 -5c-3,-8 -1,-15 3,-16 5,-2 6,-9 4,-16 -4,-12 -4,-12 9,1 15,14 14,37 -1,42 -5,2 -12,-3 -15,-10l0 0zm-855 -18c-3,-4 -1,-8 3,-8 4,0 8,3 8,8 0,4 -2,8 -3,8 -2,0 -5,-3 -8,-8zm531 0c-3,-4 -1,-8 3,-8 4,0 8,3 8,8 0,4 -2,8 -3,8 -2,0 -5,-3 -8,-8zm375 2c0,-3 4,-10 8,-14 5,-5 4,-11 -4,-18 -11,-9 -16,-31 -8,-31 7,0 41,41 41,50 0,5 -5,11 -12,13 -16,6 -26,6 -26,-1l0 0zm-955 -9c0,-4 2,-8 3,-8 2,0 5,3 8,8 3,4 1,8 -3,8 -4,0 -8,-3 -8,-8zm1016 0c-6,-4 -8,-9 -5,-12 3,-3 10,-2 14,3 11,11 5,18 -9,9zm-167 -14c0,-4 7,-9 16,-11 13,-3 14,-2 7,7 -10,12 -22,14 -22,4zm-167 -8c0,-4 3,-8 8,-8 4,0 8,2 8,3 0,2 -3,5 -8,8 -4,3 -8,1 -8,-3zm220 -8c0,-4 3,-8 8,-8 4,0 8,3 8,8 0,4 -3,8 -8,8 -4,0 -8,-3 -8,-8zm-167 -8c0,-4 3,-8 8,-8 4,0 8,3 8,8 0,4 -3,8 -8,8 -4,0 -8,-3 -8,-8zm144 -23c0,-4 2,-8 3,-8 2,0 5,3 8,8 3,4 1,8 -3,8 -4,0 -8,-3 -8,-8zm-730 -11c-2,-6 1,-13 8,-15 15,-6 21,-1 15,14 -6,15 -17,15 -23,1zm872 -17c-3,-3 -5,-10 -5,-16 0,-9 2,-9 11,-2 6,5 11,12 11,16 0,8 -10,9 -18,2zm-81 -6c0,-2 3,-5 8,-8 4,-3 8,-1 8,3 0,4 -3,8 -8,8 -4,0 -8,-2 -8,-3zm-87 -65c-3,-4 -1,-8 3,-8 4,0 8,3 8,8 0,4 -2,8 -3,8 -2,0 -5,-3 -8,-8zm-72 -38c-10,-6 -9,-7 2,-7 7,0 13,3 13,7 0,9 -1,9 -15,0l0 0zm193 -68c-3,-4 -1,-8 3,-8 4,0 8,3 8,8 0,4 -2,8 -3,8 -2,0 -5,-3 -8,-8z" inkscape:connector-curvature="0"/>
  <path class="fil1 str0" d="M997 204l3256 0c479,0 867,388 867,867l0 607c0,479 -388,867 -867,867l-3256 0c-479,0 -867,-388 -867,-867l0 -607c0,-479 388,-867 867,-867z"/>
  <rect y="18.571428" x="170" height="62.142857" width="241.42857" id="rect3359"/>
  Ayana  <rect y="-18.152821" x="4.6629367e-014" height="116.08466" width="450.99554" id="rect3359-3"/>
  2015  <circle id="path3387" class="fil1 str0" cx="2625" cy="313" r="45"/>
  <path class="fil2" d="M2575 996c0,14 -5,28 -16,39 -11,11 -23,17 -37,17 -27,0 -45,-13 -54,-40l-22 -74 -119 0 -25 80c-1,8 -7,17 -18,25 -8,6 -19,9 -31,9 -16,0 -29,-5 -40,-16 -10,-11 -15,-24 -15,-39l0 -9c0,-4 1,-8 3,-11l134 -454c9,-27 28,-40 54,-40 26,0 44,12 52,36l133 462 2 14zm-172 -502c-14,0 -26,3 -33,9 -7,5 -15,14 -22,28 14,-6 23,-9 27,-9 0,0 1,1 1,1 0,0 1,0 1,0 1,0 1,0 2,0 0,-2 1,-5 3,-8 2,-3 3,-5 4,-6 0,0 6,-5 17,-13l0 -3zm153 480l0 -6 -133 -460c-1,-3 -4,-5 -10,-5 -7,0 -11,3 -12,9l-134 454 -1 5c0,8 4,12 11,12 3,0 5,0 6,-1 1,0 8,-19 19,-57 2,-6 4,-13 7,-23 3,-9 6,-21 11,-33l184 0 31 105c2,6 6,9 12,9 2,0 5,-1 6,-3 2,-2 3,-5 3,-7zm-41 -7l-18 -80 -38 44 16 53 39 -18zm-140 -428l-32 7 -129 431 40 -11 122 -428zm186 473c-2,-3 -5,-5 -9,-5 -2,0 -4,1 -6,3 -2,2 -3,4 -3,8 0,2 1,4 2,6 1,2 4,3 8,3 0,0 1,-1 1,-1 1,0 3,0 4,-1 3,-2 4,-5 4,-9 0,0 -1,-1 -1,-1 0,0 0,-1 0,-1 0,-1 0,-1 0,-2zm-28 -15l0 -5c-3,-1 -4,-1 -4,-2 -3,-1 -6,-3 -7,-6 -13,0 -24,3 -31,8 -2,1 -3,2 -5,3 -2,1 -3,3 -6,5 0,7 3,14 9,20 6,7 13,10 21,10l-6 -12 10 6 -4 -12 9 6 -4 -10 7 4 -3 -8 7 4 -2 -9 6 2 -1 -6 5 0zm-242 15c-2,-3 -5,-5 -9,-5 -2,0 -4,1 -6,3 -2,2 -3,4 -3,8 0,2 1,4 2,6 1,2 4,3 8,3 0,0 1,-1 1,-1 1,0 2,0 4,-1 3,-2 4,-5 4,-9 0,0 -1,-1 -1,-1 0,0 0,-1 0,-1 0,-1 0,-1 0,-2zm-27 -17l0 -5c-2,-1 -4,-2 -4,-2 -4,-2 -6,-4 -7,-7 -12,0 -22,3 -31,9 -3,2 -7,5 -11,9 0,7 3,14 9,20 6,7 13,10 21,10l-6 -12 10 6 -4 -12 9 6 -4 -10 7 4 -3 -8 7 4 -2 -9 6 3 -1 -6 5 0zm233 -148l-170 0 86 -289 84 289zm-22 -19l-61 -210 -16 82 37 129 40 0zm-61 0l-27 -91 -27 91 54 0z"/>
  <path id="1" class="fil2" d="M3065 617l-133 170 0 211c0,16 -6,29 -17,39 -11,11 -23,16 -38,16 -15,0 -28,-5 -39,-15 -11,-12 -16,-25 -16,-39l0 -211 -134 -170 0 -77c0,-16 5,-29 15,-39 11,-11 24,-17 40,-17 16,0 29,5 39,17 11,11 17,24 17,39l0 38 78 101 80 -100 0 -38c0,-8 1,-15 3,-21 2,-6 6,-13 12,-18 10,-11 23,-17 39,-17 14,0 26,5 38,15 11,10 17,23 17,41l0 78zm-44 -123c-16,0 -28,3 -37,11 -9,7 -15,19 -18,35l45 -15c0,-2 -1,-4 -1,-5 0,-2 0,-3 0,-4 0,-2 0,-3 1,-4 0,-2 4,-6 12,-14 0,0 -1,-1 -1,-3zm31 115c-1,-5 -4,-6 -8,-4 -4,1 -5,4 -4,8 2,5 5,6 8,4 4,-1 5,-4 4,-7zm-41 -41l0 -37 -45 16 0 39 -78 99 14 19 109 -136zm-257 -74c-16,0 -28,3 -37,11 -9,7 -15,19 -18,35 3,-2 7,-3 11,-5 4,-2 9,-4 13,-5 2,0 4,-1 7,-2 3,-1 5,-2 8,-3 0,-2 0,-4 1,-6 1,-1 2,-4 4,-9 3,-3 6,-5 8,-7 2,-2 3,-3 4,-4 0,0 -1,-1 -1,-2 0,-1 0,-1 -1,-2zm183 256c-3,-5 -6,-6 -11,-4 -5,2 -6,6 -4,11 1,3 3,4 5,4 2,0 4,0 6,-1 5,-2 6,-6 4,-11zm111 -173l0 -61c0,-4 -1,-7 -3,-9 -2,-2 -5,-4 -8,-4 -8,0 -12,4 -12,12l0 53 -123 155 -122 -156 0 -52c0,-4 -1,-7 -4,-9 -3,-2 -5,-4 -8,-4 -2,0 -5,1 -9,3 -2,3 -3,6 -3,9l0 62 134 169 0 225c0,3 1,6 3,9 2,3 5,4 9,4 8,0 12,-4 12,-12l0 -226 133 -170zm-310 1l0 -47 -39 16 0 58 39 -27zm138 395l0 -217 -39 33 0 208 39 -25zm38 28c-1,-2 -2,-3 -5,-4 -2,-1 -4,-1 -7,0 -4,2 -5,6 -4,12 3,5 7,6 12,3 2,-1 3,-2 4,-5 1,-2 1,-4 -1,-6zm-25 2l0 -5c-1,0 -1,0 -2,0 0,0 -1,0 -1,0 0,0 -1,0 -1,-1 -2,-1 -4,-3 -6,-6 -5,0 -13,3 -25,9 -2,1 -4,3 -7,4 -3,1 -6,3 -10,5 0,7 3,13 8,19 5,6 12,9 20,9l-6 -12 10 6 -4 -12 9 6 -4 -10 7 4 -3 -8 7 4 -2 -9 6 3 -1 -6 5 0z"/>
  <path id="2" class="fil2" d="M3553 996c0,14 -5,28 -16,39 -11,11 -23,17 -37,17 -27,0 -45,-13 -54,-40l-22 -74 -119 0 -25 80c-1,8 -7,17 -18,25 -8,6 -19,9 -31,9 -16,0 -29,-5 -40,-16 -10,-11 -15,-24 -15,-39l0 -9c0,-4 1,-8 3,-11l134 -454c9,-27 28,-40 54,-40 26,0 44,12 52,36l133 462 2 14zm-172 -502c-14,0 -26,3 -33,9 -7,5 -15,14 -22,28 14,-6 23,-9 27,-9 0,0 1,1 1,1 0,0 1,0 1,0 1,0 1,0 2,0 0,-2 1,-5 3,-8 2,-3 3,-5 4,-6 0,0 6,-5 17,-13l0 -3zm153 480l0 -6 -133 -460c-1,-3 -4,-5 -10,-5 -7,0 -11,3 -12,9l-134 454 -1 5c0,8 4,12 11,12 3,0 5,0 6,-1 1,0 8,-19 19,-57 2,-6 4,-13 7,-23 3,-9 6,-21 11,-33l184 0 31 105c2,6 6,9 12,9 2,0 5,-1 6,-3 2,-2 3,-5 3,-7zm-41 -7l-18 -80 -38 44 16 53 39 -18zm-140 -428l-32 7 -129 431 40 -11 122 -428zm173 472c-2,-2 -5,-3 -8,-3 -6,0 -9,3 -9,10 0,2 1,4 3,6 2,2 4,3 7,3 2,0 4,-1 6,-3 2,-2 3,-4 3,-7 0,-2 -1,-4 -2,-5zm-15 -14l0 -5c-3,-1 -4,-1 -4,-2 -3,-1 -6,-3 -7,-6 -13,0 -24,3 -31,8 -2,1 -3,2 -5,3 -2,1 -3,3 -6,5 0,7 3,14 9,20 6,7 13,10 21,10l-6 -12 10 6 -4 -12 9 6 -4 -10 7 4 -3 -8 7 4 -2 -9 6 2 -1 -6 5 0zm-246 14c-1,-2 -3,-4 -6,-4 -2,0 -3,1 -4,2 -2,1 -3,3 -3,6 0,0 0,1 1,4 1,2 3,3 6,3 2,0 3,0 4,-1 3,-1 4,-3 4,-6 0,-2 -1,-3 -2,-4zm-23 -16l0 -5c-2,-1 -4,-2 -4,-2 -4,-2 -6,-4 -7,-7 -12,0 -22,3 -31,9 -3,2 -7,5 -11,9 0,7 3,14 9,20 6,7 13,10 21,10l-6 -12 10 6 -4 -12 9 6 -4 -10 7 4 -3 -8 7 4 -2 -9 6 3 -1 -6 5 0zm233 -148l-170 0 86 -289 84 289zm-22 -19l-61 -210 -16 82 37 129 40 0zm-61 0l-27 -91 -27 91 54 0z"/>
  <path id="3" class="fil2" d="M4042 1015l-39 37 -86 0 -143 -304 0 249c0,16 -5,29 -16,39 -10,10 -23,15 -39,15 -14,0 -27,-5 -39,-15 -10,-12 -15,-25 -15,-39l0 -465 48 -48 76 0 143 306 0 -250c0,-14 5,-28 16,-39 11,-11 24,-17 39,-17 16,0 29,5 40,16 11,11 16,24 16,39l0 476zm-39 -523c-14,0 -25,3 -33,10 -7,6 -14,16 -22,30 8,-4 15,-7 19,-8 5,-1 9,-2 12,-2 0,-2 1,-5 3,-8 1,-2 2,-3 2,-4 1,-1 1,-1 1,-2 0,0 6,-5 17,-13 0,-2 0,-3 1,-3zm-17 393l0 -353 -39 16 0 257 39 80zm36 99l0 -468c0,-4 -1,-7 -3,-10 -2,-2 -5,-3 -7,-3 -4,0 -7,1 -9,4 -2,3 -4,5 -4,8l0 446 -234 -459 -33 0 0 470c0,8 4,12 11,12 8,0 12,-4 12,-12l0 -441 234 452 33 0zm0 28c2,-1 2,-3 2,-5 0,-2 -1,-3 -3,-5 -2,-1 -4,-2 -5,-2 -2,0 -3,1 -5,3 -1,2 -2,4 -2,5 0,2 1,4 3,5 2,1 3,1 4,1 2,0 4,-1 6,-3zm-11 20c2,-2 3,-4 3,-8 0,-5 -1,-9 -4,-11 -3,-2 -6,-3 -10,-3 -5,0 -8,1 -11,4 -2,3 -3,6 -3,10 0,5 2,9 6,11 2,2 4,2 8,2 5,0 8,-2 12,-5zm-293 -59l0 -458 -39 33 0 449 39 -25zm47 27c-3,-3 -6,-3 -8,-1 -3,3 -3,6 -1,8 3,3 5,4 9,1 1,-1 2,-3 2,-4 0,-2 0,-3 -1,-4zm-12 10c-3,-3 -7,-5 -10,-5 -3,0 -6,1 -9,4 -3,3 -4,6 -4,9 0,3 1,6 3,9 2,3 5,4 10,4 4,0 7,-1 10,-4 3,-3 4,-6 4,-10 0,-2 -1,-5 -3,-8zm-22 -6l0 -5c-1,0 -1,0 -2,0 0,0 0,0 -1,0 0,0 -1,0 -1,-1 -3,-2 -5,-4 -6,-6 -5,0 -13,3 -25,9 -2,1 -5,3 -7,4 -3,1 -6,3 -10,6 0,7 3,13 8,19 6,6 12,9 20,9l-7 -12 10 7 -3 -12 8 5 -3 -10 7 4 -3 -7 6 3 -1 -8 6 3 -2 -7 5 0zm120 -130l-73 -178 123 234 -122 -262 157 291 -156 -324 199 359 -210 -403 4 127 79 157z"/>
  <path id="4" class="fil2" d="M4530 996c0,14 -5,28 -16,39 -11,11 -23,17 -37,17 -27,0 -45,-13 -54,-40l-22 -74 -119 0 -25 80c-1,8 -7,17 -18,25 -8,6 -19,9 -31,9 -16,0 -29,-5 -40,-16 -10,-11 -15,-24 -15,-39l0 -9c0,-4 1,-8 3,-11l134 -454c9,-27 28,-40 54,-40 26,0 44,12 52,36l133 462 2 14zm-172 -502c-14,0 -26,3 -33,9 -7,5 -15,14 -22,28 14,-6 23,-9 27,-9 0,0 1,1 1,1 0,0 1,0 1,0 1,0 1,0 2,0 0,-2 1,-5 3,-8 2,-3 3,-5 4,-6 0,0 6,-5 17,-13l0 -3zm153 480l0 -6 -133 -460c-1,-3 -4,-5 -10,-5 -7,0 -11,3 -12,9l-134 454 -1 5c0,8 4,12 11,12 3,0 5,0 6,-1 1,0 8,-19 19,-57 2,-6 4,-13 7,-23 3,-9 6,-21 11,-33l184 0 31 105c2,6 6,9 12,9 2,0 5,-1 6,-3 2,-2 3,-5 3,-7zm-41 -7l-18 -80 -38 44 16 53 39 -18zm-140 -428l-32 7 -129 431 40 -11 122 -428zm173 472c-2,-2 -5,-3 -8,-3 -6,0 -9,3 -9,10 0,2 1,4 3,6 2,2 4,3 7,3 2,0 4,-1 6,-3 2,-2 3,-4 3,-7 0,-2 -1,-4 -2,-5zm-15 -14l0 -5c-3,-1 -4,-1 -4,-2 -3,-1 -6,-3 -7,-6 -13,0 -24,3 -31,8 -2,1 -3,2 -5,3 -2,1 -3,3 -6,5 0,7 3,14 9,20 6,7 13,10 21,10l-6 -12 10 6 -4 -12 9 6 -4 -10 7 4 -3 -8 7 4 -2 -9 6 2 -1 -6 5 0zm-246 14c-1,-2 -3,-4 -6,-4 -2,0 -3,1 -4,2 -2,1 -3,3 -3,6 0,0 0,1 1,4 1,2 3,3 6,3 2,0 3,0 4,-1 3,-1 4,-3 4,-6 0,-2 -1,-3 -2,-4zm-23 -16l0 -5c-2,-1 -4,-2 -4,-2 -4,-2 -6,-4 -7,-7 -12,0 -22,3 -31,9 -3,2 -7,5 -11,9 0,7 3,14 9,20 6,7 13,10 21,10l-6 -12 10 6 -4 -12 9 6 -4 -10 7 4 -3 -8 7 4 -2 -9 6 3 -1 -6 5 0zm233 -148l-170 0 86 -289 84 289zm-22 -19l-61 -210 -16 82 37 129 40 0zm-61 0l-27 -91 -27 91 54 0z"/>
  <path class="fil2" d="M2575 996c0,14 -5,28 -16,39 -11,11 -23,17 -37,17 -27,0 -45,-13 -54,-40l-22 -74 -119 0 -25 80c-1,8 -7,17 -18,25 -8,6 -19,9 -31,9 -16,0 -29,-5 -40,-16 -10,-11 -15,-24 -15,-39l0 -9c0,-4 1,-8 3,-11l134 -454c9,-27 28,-40 54,-40 26,0 44,12 52,36l133 462 2 14zm-172 -502c-14,0 -26,3 -33,9 -7,5 -15,14 -22,28 14,-6 23,-9 27,-9 0,0 1,1 1,1 0,0 1,0 1,0 1,0 1,0 2,0 0,-2 1,-5 3,-8 2,-3 3,-5 4,-6 0,0 6,-5 17,-13l0 -3zm153 480l0 -6 -133 -460c-1,-3 -4,-5 -10,-5 -7,0 -11,3 -12,9l-134 454 -1 5c0,8 4,12 11,12 3,0 5,0 6,-1 1,0 8,-19 19,-57 2,-6 4,-13 7,-23 3,-9 6,-21 11,-33l184 0 31 105c2,6 6,9 12,9 2,0 5,-1 6,-3 2,-2 3,-5 3,-7zm-41 -7l-18 -80 -38 44 16 53 39 -18zm-140 -428l-32 7 -129 431 40 -11 122 -428zm186 473c-2,-3 -5,-5 -9,-5 -2,0 -4,1 -6,3 -2,2 -3,4 -3,8 0,2 1,4 2,6 1,2 4,3 8,3 0,0 1,-1 1,-1 1,0 3,0 4,-1 3,-2 4,-5 4,-9 0,0 -1,-1 -1,-1 0,0 0,-1 0,-1 0,-1 0,-1 0,-2zm-28 -15l0 -5c-3,-1 -4,-1 -4,-2 -3,-1 -6,-3 -7,-6 -13,0 -24,3 -31,8 -2,1 -3,2 -5,3 -2,1 -3,3 -6,5 0,7 3,14 9,20 6,7 13,10 21,10l-6 -12 10 6 -4 -12 9 6 -4 -10 7 4 -3 -8 7 4 -2 -9 6 2 -1 -6 5 0zm-242 15c-2,-3 -5,-5 -9,-5 -2,0 -4,1 -6,3 -2,2 -3,4 -3,8 0,2 1,4 2,6 1,2 4,3 8,3 0,0 1,-1 1,-1 1,0 2,0 4,-1 3,-2 4,-5 4,-9 0,0 -1,-1 -1,-1 0,0 0,-1 0,-1 0,-1 0,-1 0,-2zm-27 -17l0 -5c-2,-1 -4,-2 -4,-2 -4,-2 -6,-4 -7,-7 -12,0 -22,3 -31,9 -3,2 -7,5 -11,9 0,7 3,14 9,20 6,7 13,10 21,10l-6 -12 10 6 -4 -12 9 6 -4 -10 7 4 -3 -8 7 4 -2 -9 6 3 -1 -6 5 0zm233 -148l-170 0 86 -289 84 289zm-22 -19l-61 -210 -16 82 37 129 40 0zm-61 0l-27 -91 -27 91 54 0z"/>
  <path id="1" class="fil2" d="M3065 617l-133 170 0 211c0,16 -6,29 -17,39 -11,11 -23,16 -38,16 -15,0 -28,-5 -39,-15 -11,-12 -16,-25 -16,-39l0 -211 -134 -170 0 -77c0,-16 5,-29 15,-39 11,-11 24,-17 40,-17 16,0 29,5 39,17 11,11 17,24 17,39l0 38 78 101 80 -100 0 -38c0,-8 1,-15 3,-21 2,-6 6,-13 12,-18 10,-11 23,-17 39,-17 14,0 26,5 38,15 11,10 17,23 17,41l0 78zm-44 -123c-16,0 -28,3 -37,11 -9,7 -15,19 -18,35l45 -15c0,-2 -1,-4 -1,-5 0,-2 0,-3 0,-4 0,-2 0,-3 1,-4 0,-2 4,-6 12,-14 0,0 -1,-1 -1,-3zm31 115c-1,-5 -4,-6 -8,-4 -4,1 -5,4 -4,8 2,5 5,6 8,4 4,-1 5,-4 4,-7zm-41 -41l0 -37 -45 16 0 39 -78 99 14 19 109 -136zm-257 -74c-16,0 -28,3 -37,11 -9,7 -15,19 -18,35 3,-2 7,-3 11,-5 4,-2 9,-4 13,-5 2,0 4,-1 7,-2 3,-1 5,-2 8,-3 0,-2 0,-4 1,-6 1,-1 2,-4 4,-9 3,-3 6,-5 8,-7 2,-2 3,-3 4,-4 0,0 -1,-1 -1,-2 0,-1 0,-1 -1,-2zm183 256c-3,-5 -6,-6 -11,-4 -5,2 -6,6 -4,11 1,3 3,4 5,4 2,0 4,0 6,-1 5,-2 6,-6 4,-11zm111 -173l0 -61c0,-4 -1,-7 -3,-9 -2,-2 -5,-4 -8,-4 -8,0 -12,4 -12,12l0 53 -123 155 -122 -156 0 -52c0,-4 -1,-7 -4,-9 -3,-2 -5,-4 -8,-4 -2,0 -5,1 -9,3 -2,3 -3,6 -3,9l0 62 134 169 0 225c0,3 1,6 3,9 2,3 5,4 9,4 8,0 12,-4 12,-12l0 -226 133 -170zm-310 1l0 -47 -39 16 0 58 39 -27zm138 395l0 -217 -39 33 0 208 39 -25zm38 28c-1,-2 -2,-3 -5,-4 -2,-1 -4,-1 -7,0 -4,2 -5,6 -4,12 3,5 7,6 12,3 2,-1 3,-2 4,-5 1,-2 1,-4 -1,-6zm-25 2l0 -5c-1,0 -1,0 -2,0 0,0 -1,0 -1,0 0,0 -1,0 -1,-1 -2,-1 -4,-3 -6,-6 -5,0 -13,3 -25,9 -2,1 -4,3 -7,4 -3,1 -6,3 -10,5 0,7 3,13 8,19 5,6 12,9 20,9l-6 -12 10 6 -4 -12 9 6 -4 -10 7 4 -3 -8 7 4 -2 -9 6 3 -1 -6 5 0z"/>
  <path id="2" class="fil2" d="M3553 996c0,14 -5,28 -16,39 -11,11 -23,17 -37,17 -27,0 -45,-13 -54,-40l-22 -74 -119 0 -25 80c-1,8 -7,17 -18,25 -8,6 -19,9 -31,9 -16,0 -29,-5 -40,-16 -10,-11 -15,-24 -15,-39l0 -9c0,-4 1,-8 3,-11l134 -454c9,-27 28,-40 54,-40 26,0 44,12 52,36l133 462 2 14zm-172 -502c-14,0 -26,3 -33,9 -7,5 -15,14 -22,28 14,-6 23,-9 27,-9 0,0 1,1 1,1 0,0 1,0 1,0 1,0 1,0 2,0 0,-2 1,-5 3,-8 2,-3 3,-5 4,-6 0,0 6,-5 17,-13l0 -3zm153 480l0 -6 -133 -460c-1,-3 -4,-5 -10,-5 -7,0 -11,3 -12,9l-134 454 -1 5c0,8 4,12 11,12 3,0 5,0 6,-1 1,0 8,-19 19,-57 2,-6 4,-13 7,-23 3,-9 6,-21 11,-33l184 0 31 105c2,6 6,9 12,9 2,0 5,-1 6,-3 2,-2 3,-5 3,-7zm-41 -7l-18 -80 -38 44 16 53 39 -18zm-140 -428l-32 7 -129 431 40 -11 122 -428zm173 472c-2,-2 -5,-3 -8,-3 -6,0 -9,3 -9,10 0,2 1,4 3,6 2,2 4,3 7,3 2,0 4,-1 6,-3 2,-2 3,-4 3,-7 0,-2 -1,-4 -2,-5zm-15 -14l0 -5c-3,-1 -4,-1 -4,-2 -3,-1 -6,-3 -7,-6 -13,0 -24,3 -31,8 -2,1 -3,2 -5,3 -2,1 -3,3 -6,5 0,7 3,14 9,20 6,7 13,10 21,10l-6 -12 10 6 -4 -12 9 6 -4 -10 7 4 -3 -8 7 4 -2 -9 6 2 -1 -6 5 0zm-246 14c-1,-2 -3,-4 -6,-4 -2,0 -3,1 -4,2 -2,1 -3,3 -3,6 0,0 0,1 1,4 1,2 3,3 6,3 2,0 3,0 4,-1 3,-1 4,-3 4,-6 0,-2 -1,-3 -2,-4zm-23 -16l0 -5c-2,-1 -4,-2 -4,-2 -4,-2 -6,-4 -7,-7 -12,0 -22,3 -31,9 -3,2 -7,5 -11,9 0,7 3,14 9,20 6,7 13,10 21,10l-6 -12 10 6 -4 -12 9 6 -4 -10 7 4 -3 -8 7 4 -2 -9 6 3 -1 -6 5 0zm233 -148l-170 0 86 -289 84 289zm-22 -19l-61 -210 -16 82 37 129 40 0zm-61 0l-27 -91 -27 91 54 0z"/>
  <path id="3" class="fil2" d="M4042 1015l-39 37 -86 0 -143 -304 0 249c0,16 -5,29 -16,39 -10,10 -23,15 -39,15 -14,0 -27,-5 -39,-15 -10,-12 -15,-25 -15,-39l0 -465 48 -48 76 0 143 306 0 -250c0,-14 5,-28 16,-39 11,-11 24,-17 39,-17 16,0 29,5 40,16 11,11 16,24 16,39l0 476zm-39 -523c-14,0 -25,3 -33,10 -7,6 -14,16 -22,30 8,-4 15,-7 19,-8 5,-1 9,-2 12,-2 0,-2 1,-5 3,-8 1,-2 2,-3 2,-4 1,-1 1,-1 1,-2 0,0 6,-5 17,-13 0,-2 0,-3 1,-3zm-17 393l0 -353 -39 16 0 257 39 80zm36 99l0 -468c0,-4 -1,-7 -3,-10 -2,-2 -5,-3 -7,-3 -4,0 -7,1 -9,4 -2,3 -4,5 -4,8l0 446 -234 -459 -33 0 0 470c0,8 4,12 11,12 8,0 12,-4 12,-12l0 -441 234 452 33 0zm0 28c2,-1 2,-3 2,-5 0,-2 -1,-3 -3,-5 -2,-1 -4,-2 -5,-2 -2,0 -3,1 -5,3 -1,2 -2,4 -2,5 0,2 1,4 3,5 2,1 3,1 4,1 2,0 4,-1 6,-3zm-11 20c2,-2 3,-4 3,-8 0,-5 -1,-9 -4,-11 -3,-2 -6,-3 -10,-3 -5,0 -8,1 -11,4 -2,3 -3,6 -3,10 0,5 2,9 6,11 2,2 4,2 8,2 5,0 8,-2 12,-5zm-293 -59l0 -458 -39 33 0 449 39 -25zm47 27c-3,-3 -6,-3 -8,-1 -3,3 -3,6 -1,8 3,3 5,4 9,1 1,-1 2,-3 2,-4 0,-2 0,-3 -1,-4zm-12 10c-3,-3 -7,-5 -10,-5 -3,0 -6,1 -9,4 -3,3 -4,6 -4,9 0,3 1,6 3,9 2,3 5,4 10,4 4,0 7,-1 10,-4 3,-3 4,-6 4,-10 0,-2 -1,-5 -3,-8zm-22 -6l0 -5c-1,0 -1,0 -2,0 0,0 0,0 -1,0 0,0 -1,0 -1,-1 -3,-2 -5,-4 -6,-6 -5,0 -13,3 -25,9 -2,1 -5,3 -7,4 -3,1 -6,3 -10,6 0,7 3,13 8,19 6,6 12,9 20,9l-7 -12 10 7 -3 -12 8 5 -3 -10 7 4 -3 -7 6 3 -1 -8 6 3 -2 -7 5 0zm120 -130l-73 -178 123 234 -122 -262 157 291 -156 -324 199 359 -210 -403 4 127 79 157z"/>
  <path id="4" class="fil2" d="M4530 996c0,14 -5,28 -16,39 -11,11 -23,17 -37,17 -27,0 -45,-13 -54,-40l-22 -74 -119 0 -25 80c-1,8 -7,17 -18,25 -8,6 -19,9 -31,9 -16,0 -29,-5 -40,-16 -10,-11 -15,-24 -15,-39l0 -9c0,-4 1,-8 3,-11l134 -454c9,-27 28,-40 54,-40 26,0 44,12 52,36l133 462 2 14zm-172 -502c-14,0 -26,3 -33,9 -7,5 -15,14 -22,28 14,-6 23,-9 27,-9 0,0 1,1 1,1 0,0 1,0 1,0 1,0 1,0 2,0 0,-2 1,-5 3,-8 2,-3 3,-5 4,-6 0,0 6,-5 17,-13l0 -3zm153 480l0 -6 -133 -460c-1,-3 -4,-5 -10,-5 -7,0 -11,3 -12,9l-134 454 -1 5c0,8 4,12 11,12 3,0 5,0 6,-1 1,0 8,-19 19,-57 2,-6 4,-13 7,-23 3,-9 6,-21 11,-33l184 0 31 105c2,6 6,9 12,9 2,0 5,-1 6,-3 2,-2 3,-5 3,-7zm-41 -7l-18 -80 -38 44 16 53 39 -18zm-140 -428l-32 7 -129 431 40 -11 122 -428zm173 472c-2,-2 -5,-3 -8,-3 -6,0 -9,3 -9,10 0,2 1,4 3,6 2,2 4,3 7,3 2,0 4,-1 6,-3 2,-2 3,-4 3,-7 0,-2 -1,-4 -2,-5zm-15 -14l0 -5c-3,-1 -4,-1 -4,-2 -3,-1 -6,-3 -7,-6 -13,0 -24,3 -31,8 -2,1 -3,2 -5,3 -2,1 -3,3 -6,5 0,7 3,14 9,20 6,7 13,10 21,10l-6 -12 10 6 -4 -12 9 6 -4 -10 7 4 -3 -8 7 4 -2 -9 6 2 -1 -6 5 0zm-246 14c-1,-2 -3,-4 -6,-4 -2,0 -3,1 -4,2 -2,1 -3,3 -3,6 0,0 0,1 1,4 1,2 3,3 6,3 2,0 3,0 4,-1 3,-1 4,-3 4,-6 0,-2 -1,-3 -2,-4zm-23 -16l0 -5c-2,-1 -4,-2 -4,-2 -4,-2 -6,-4 -7,-7 -12,0 -22,3 -31,9 -3,2 -7,5 -11,9 0,7 3,14 9,20 6,7 13,10 21,10l-6 -12 10 6 -4 -12 9 6 -4 -10 7 4 -3 -8 7 4 -2 -9 6 3 -1 -6 5 0zm233 -148l-170 0 86 -289 84 289zm-22 -19l-61 -210 -16 82 37 129 40 0zm-61 0l-27 -91 -27 91 54 0z"/>
  <path class="fil2" d="M2739 2483c0,5 -1,9 -3,13 -2,4 -4,8 -7,11 -3,3 -6,5 -10,7 -4,2 -8,3 -13,3l-194 0 0 -151c0,-15 5,-27 16,-37 11,-11 23,-16 37,-16l108 0 0 -71 -129 0c-8,0 -16,-3 -23,-10 -6,-6 -10,-14 -10,-23 0,-9 3,-17 9,-23 6,-7 14,-10 24,-10l142 0c15,0 27,5 37,16 11,10 16,22 16,37l0 97c0,15 -5,28 -16,38 -11,10 -23,15 -37,15l-108 0 0 72 128 0c8,0 16,3 23,10 7,6 10,14 10,23zm-29 -178l0 -98 -30 30 0 74c1,1 2,1 3,1 1,0 1,0 2,1 6,1 9,2 9,1 3,0 5,0 7,0 2,0 3,0 4,-1 4,-1 6,-4 6,-8zm11 41c-1,-2 -3,-3 -5,-3 -1,0 -2,0 -4,1 -2,1 -2,3 -2,5 0,1 1,2 2,4 1,1 3,2 5,2 0,0 1,0 1,0 1,0 1,0 2,0 2,-1 3,-3 3,-6 0,0 0,-1 0,-1 0,0 0,-1 0,-1 0,0 0,-1 0,-1zm-169 -164c-8,0 -15,2 -20,5 -5,3 -10,9 -15,17 8,-4 13,-6 18,-6 4,0 7,0 9,0 0,-4 1,-7 2,-9 1,-2 2,-4 4,-5 1,-1 1,-1 1,-1 0,0 1,-1 1,-1zm-2 30l0 -3c-1,0 -1,0 -1,0 0,0 0,0 -1,0 0,0 0,0 0,0 -2,-1 -3,-2 -3,-4 -8,0 -14,2 -20,5 -1,1 -2,1 -3,2 -1,1 -2,2 -4,3 0,4 2,8 5,12 4,4 8,6 12,6l-4 -7 6 4 -2 -7 5 3 -2 -6 4 3 -2 -4 4 2 -1 -5 3 1 -1 -4 3 0zm178 257c0,-2 -1,-4 -2,-5 -1,-1 -3,-2 -5,-2l-154 0 0 -124 134 0c8,0 14,-3 19,-8 5,-5 8,-12 8,-20l0 -96c0,-7 -3,-13 -8,-19 -5,-5 -12,-8 -19,-8l-142 0c-2,0 -4,1 -5,2 -1,2 -2,3 -2,4 0,2 1,4 2,5 1,1 2,2 5,2l155 0 0 123 -134 0c-8,0 -14,3 -19,8 -5,5 -8,12 -8,19l0 124 168 0c2,0 4,-1 5,-2 1,-1 2,-3 2,-4zm-2 17c-1,-2 -3,-3 -6,-3 -1,0 -2,0 -3,1 -1,1 -2,3 -2,5 0,1 0,2 1,4 1,1 3,2 5,2 1,0 2,0 3,-1 2,-1 3,-3 3,-5 0,0 0,-1 0,-1 0,0 0,-1 0,-1 0,0 0,-1 0,-1zm-164 -166c-7,0 -14,2 -19,5 -1,1 -3,3 -6,6 -3,3 -7,7 -12,11 8,-3 14,-5 18,-5l3 0c0,0 1,0 1,1 0,-1 1,-3 2,-5 1,-2 2,-3 2,-3 0,0 4,-3 10,-8l0 -2zm-14 158l0 -131c-14,0 -23,3 -27,9 -1,2 -2,5 -3,9l0 146 30 -33z"/>
  <path id="1" class="fil2" d="M3031 2464c0,14 -5,26 -15,36 -10,10 -22,16 -36,16l-124 0c-15,0 -27,-5 -37,-15 -10,-10 -15,-22 -15,-37l0 -238c0,-14 5,-26 15,-36 11,-10 23,-15 37,-15l124 0c14,0 26,5 36,15 10,11 15,23 15,36l0 238zm-178 -282c-8,0 -15,2 -19,5 -1,1 -3,3 -6,6 -3,3 -7,7 -12,12 4,-2 7,-3 10,-4 3,-1 6,-1 8,-1 2,0 3,0 3,0 1,0 1,0 2,1 0,-1 1,-3 2,-5 1,-1 1,-2 1,-2 1,-1 1,-1 1,-2 0,0 4,-3 10,-8 0,-1 0,-1 0,-1zm167 267l0 -238c0,-3 -1,-6 -2,-9 -1,-3 -3,-6 -6,-8 -2,-2 -5,-4 -8,-6 -3,-2 -6,-2 -9,-2l-124 0c-7,0 -13,3 -18,8 -5,5 -8,11 -8,18l0 238c0,7 3,13 8,18 5,5 11,7 18,7l123 0c7,0 13,-2 18,-7 5,-6 7,-12 7,-18zm-17 37c-1,-2 -3,-3 -5,-3 -1,0 -2,0 -3,1 -1,1 -2,3 -2,5 0,1 0,2 1,4 1,1 2,2 5,2 0,0 1,0 1,0 1,0 1,0 2,0 2,-1 3,-3 3,-6 0,-1 0,-2 -1,-3zm-151 -10c-1,-1 -2,-2 -4,-3 -1,-1 -2,-2 -3,-3 -4,-5 -7,-12 -7,-21l0 -242c-14,0 -23,3 -27,9 -2,2 -3,5 -3,9l0 238c1,2 1,5 2,7 1,2 1,4 2,5 3,9 7,15 12,19 5,-1 11,-4 18,-10 1,-1 3,-2 4,-4 1,-1 3,-3 5,-5zm17 5l-3 0c-2,0 -5,-1 -7,-2 -4,4 -8,7 -12,11 -4,3 -8,6 -12,9 0,0 -1,1 -1,1 -1,0 -1,1 -2,2 1,1 2,2 2,2 4,3 9,5 14,5 6,-3 11,-8 16,-14 5,-6 7,-10 6,-13zm138 -20l-147 0 0 -261 147 0 0 261zm-5 -17l0 -239 -30 30 0 215c1,1 2,1 3,1 1,0 2,0 2,1 5,1 8,2 9,1 3,0 5,0 7,0 2,0 3,0 4,-1 4,-1 6,-4 6,-8zm-36 6l0 -209 -95 0 0 209 95 0z"/>
  <path id="2" class="fil2" d="M3325 2483c0,9 -3,17 -10,23 -6,7 -14,10 -23,10l-161 0c-9,0 -17,-3 -24,-10 -6,-7 -9,-14 -9,-23 0,-9 3,-17 9,-23 7,-6 15,-10 24,-10l48 0 0 -209 -47 0c-8,0 -16,-3 -23,-10 -6,-6 -10,-14 -10,-23 0,-4 1,-9 3,-13 2,-4 4,-7 7,-10 3,-3 6,-5 10,-7 4,-2 8,-3 13,-3l113 0 0 275 14 0 0 -70c0,-8 3,-16 9,-23 3,-3 7,-5 11,-7 4,-2 8,-3 13,-3 9,0 17,3 23,10 7,6 10,14 10,23l0 103zm-183 -301c-8,0 -15,2 -20,5 -5,3 -10,9 -15,17 8,-4 14,-6 18,-6 4,0 7,0 9,0 0,-4 1,-7 2,-9 1,-2 2,-4 4,-5 1,-1 1,-1 1,-1 0,0 1,-1 1,-1zm157 171c-9,0 -16,2 -20,6 -4,3 -9,9 -13,17 8,-3 14,-5 16,-5 0,0 0,0 1,0 0,0 1,0 1,0 0,0 1,0 1,0 0,-1 1,-2 2,-4 0,-1 1,-2 1,-2 1,-1 1,-1 1,-2 0,0 4,-3 10,-8 0,-1 0,-2 0,-2zm-158 -142l0 -3c-1,0 -1,0 -1,0 0,0 0,0 -1,0 0,0 0,0 0,0 -2,-1 -3,-2 -3,-4 -8,0 -14,2 -20,5 -1,1 -2,1 -3,2 -1,1 -2,2 -4,3 0,4 2,8 5,12 4,4 8,6 12,6l-4 -7 6 4 -2 -7 5 3 -2 -6 4 3 -2 -4 4 2 -1 -5 3 1 -1 -4 3 0zm174 257l0 -102c0,-2 -1,-4 -2,-5 -1,-1 -3,-2 -5,-2 -2,0 -3,1 -5,2 -1,2 -2,4 -2,5l0 96 -66 0 0 -274 -87 0c-5,0 -7,2 -7,7 0,2 1,4 2,5 1,1 3,2 5,2l73 0 0 261 -74 0c-2,0 -4,1 -5,2 -1,1 -2,3 -2,5 0,5 2,7 7,7l161 0c2,0 4,-1 5,-2 1,-1 2,-3 2,-5zm-98 -21l0 -239 -30 30 0 215c1,1 2,1 3,1 1,0 1,0 2,1 5,1 8,2 9,1 3,0 5,0 7,0 2,0 3,0 4,-1 4,-1 5,-4 5,-8zm68 3l0 -70 -19 6 0 64 19 0zm27 38c-1,-2 -3,-3 -6,-3 -1,0 -2,0 -4,1 -1,1 -2,3 -2,5 0,1 0,2 1,4 1,1 3,2 5,2 0,0 1,0 1,0 1,0 2,0 2,0 2,-1 3,-3 3,-6 0,0 0,-1 0,-1 0,0 0,-1 0,-1 0,0 0,-1 0,-1zm-172 -32c-8,0 -15,2 -20,5 -5,3 -10,9 -15,17 8,-4 13,-6 18,-6 4,0 7,0 9,0 0,-4 1,-7 2,-9 1,-2 2,-4 4,-5 1,-1 1,-1 1,-1 0,0 1,-1 1,-1zm-2 30l0 -3c-2,-1 -3,-1 -2,-1 -2,-1 -3,-2 -3,-4 -8,0 -14,2 -20,5 -1,0 -2,1 -3,2 -1,1 -2,2 -4,3 0,4 2,8 5,12 4,4 8,6 12,6l-4 -7 6 4 -2 -7 5 3 -2 -6 4 3 -2 -5 4 2 -1 -5 3 1 -1 -4 3 0z"/>
  <path id="3" class="fil2" d="M3623 2463c0,15 -5,27 -16,37 -10,10 -22,16 -37,16l-92 0c-11,0 -21,-2 -31,-7l-30 -12c-13,-6 -20,-16 -20,-31 0,-8 3,-16 9,-23 3,-3 7,-6 10,-7 3,-2 8,-2 13,-2 3,0 6,0 9,1 3,1 6,2 10,4l28 11c1,1 2,1 3,1l79 0 0 -72 -120 0 0 -169 34 -34 119 0c4,0 8,1 12,2 3,1 7,4 11,7 7,7 10,14 10,23 0,10 -3,18 -10,24 -3,3 -7,6 -10,7 -4,2 -8,2 -13,2l-87 0 0 71 67 0c14,0 27,5 37,16 11,11 16,23 16,37l0 98zm-11 -249c-1,-2 -3,-3 -5,-3 -1,0 -2,1 -4,2 -1,1 -2,3 -2,5 0,1 0,2 1,3 1,1 3,2 5,2 0,0 1,0 1,0 1,0 2,0 2,0 2,-1 3,-3 3,-5 0,-1 0,-2 -1,-3zm0 234l0 -97c0,-7 -3,-14 -8,-19 -5,-5 -12,-8 -19,-8l-93 0 0 -123 113 0c2,0 4,-1 5,-2 1,-2 2,-3 2,-4 0,-2 -1,-3 -2,-5 -1,-1 -3,-2 -5,-2l-127 0 0 151 120 0 0 124 -105 0c-4,0 -10,-1 -16,-4l-25 -11c-3,-2 -6,-3 -9,-3 -4,0 -6,2 -6,7 0,3 1,5 4,7l30 13c6,3 13,5 21,5l92 0c7,0 14,-3 19,-8 5,-5 8,-11 8,-19zm-140 -108l0 -151 -28 25 0 157 28 -30zm119 110l0 -107 -26 27 0 79 26 1zm20 30c-1,-2 -3,-3 -6,-3 -1,0 -2,0 -4,1 -1,1 -2,3 -2,5 0,1 0,2 1,4 1,1 3,2 5,2 1,0 2,0 3,-1 2,-1 3,-3 3,-5 0,0 0,-1 0,-1 0,0 0,-1 0,-1 0,0 0,-1 0,-1zm-174 -44c-8,0 -15,2 -20,5 -5,3 -10,9 -14,17 8,-4 13,-6 17,-6 4,0 7,0 9,0 0,-4 1,-7 2,-9 1,-2 2,-4 4,-6 0,0 1,-1 1,-1 1,0 1,-1 2,-1zm-2 30l0 -3c-1,-1 -2,-1 -2,-1 -2,-1 -3,-2 -3,-3 -8,0 -14,2 -20,5 -2,0 -4,2 -7,5 0,4 2,8 5,12 3,4 8,6 13,6l-4 -7 6 4 -2 -7 5 3 -2 -6 4 3 -2 -5 4 2 -1 -5 3 1 -1 -4 3 0z"/>
 </g>
</svg>
