<?xml version="1.0" encoding="UTF-8" standalone="no"?>
<!-- Created with Inkscape (http://www.inkscape.org/) -->

<svg
   xmlns:dc="http://purl.org/dc/elements/1.1/"
   xmlns:cc="http://creativecommons.org/ns#"
   xmlns:rdf="http://www.w3.org/1999/02/22-rdf-syntax-ns#"
   xmlns:svg="http://www.w3.org/2000/svg"
   xmlns="http://www.w3.org/2000/svg"
   xmlns:sodipodi="http://sodipodi.sourceforge.net/DTD/sodipodi-0.dtd"
   xmlns:inkscape="http://www.inkscape.org/namespaces/inkscape"
   width="12in"
   height="23.75in"
   viewBox="0 0 1080 2137.5001"
   id="svg2"
   version="1.1"
   inkscape:version="0.91 r13725"
   sodipodi:docname="Ayana's Penguin Project.svg">
  <defs
     id="defs4" />
  <sodipodi:namedview
     id="base"
     pagecolor="#ffffff"
     bordercolor="#666666"
     borderopacity="1.0"
     inkscape:pageopacity="0.0"
     inkscape:pageshadow="2"
     inkscape:zoom="0.39064327"
     inkscape:cx="540"
     inkscape:cy="1068.75"
     inkscape:document-units="in"
     inkscape:current-layer="layer1"
     showgrid="false"
     units="in"
     inkscape:window-width="1680"
     inkscape:window-height="1001"
     inkscape:window-x="0"
     inkscape:window-y="1"
     inkscape:window-maximized="1" />
  <metadata
     id="metadata7">
    <rdf:RDF>
      <cc:Work
         rdf:about="">
        <dc:format>image/svg+xml</dc:format>
        <dc:type
           rdf:resource="http://purl.org/dc/dcmitype/StillImage" />
        <dc:title></dc:title>
      </cc:Work>
    </rdf:RDF>
  </metadata>
  <g
     inkscape:label="Layer 1"
     inkscape:groupmode="layer"
     id="layer1"
     transform="translate(0,1085.1379)">
    <g
       id="g4237">
      <path
         d="m 691.68486,-802.25988 c 4.68072,-4.68066 6.63085,-8.7589 6.932,-14.4965 0.43341,-8.25724 -3.39379,-16.19864 -12.26816,-25.45689 -8.67715,-9.05244 -19.70055,-16.85612 -41.03135,-29.04675 -34.43173,-19.678 -53.60439,-33.54008 -71.70809,-51.84634 -8.2908,-8.38342 -11.4597,-12.09979 -20.38737,-23.9104 -10.41926,-13.78335 -13.08387,-16.02367 -22.85157,-19.21247 -8.35473,-2.72738 -12.3294,-3.33794 -21.70889,-3.33423 -7.66589,0 -8.96293,0.1299 -11.89412,1.16208 -18.07958,6.36749 -17.74486,24.72037 1.01294,55.5217 14.85551,24.39367 36.94939,48.52396 60.20418,65.7531 34.55488,25.6012 77.30102,42.32164 122.76222,48.01922 0.83512,0.1046 2.85172,0.22442 4.48114,0.26613 l 2.96256,0.0757 3.49451,-3.4945 z M 556.23793,147.67841 c 33.19828,-2.46871 61.77236,-13.61006 87.09875,-33.96086 29.0824,-23.36887 53.05387,-58.274331 70.76717,-103.045642 10.86415,-27.459639 19.14887,-57.804387 23.80344,-87.185509 0.72765,-4.593157 1.6554,-10.401034 2.06165,-12.906391 2.08813,-12.875208 5.16424,-42.480408 6.65245,-64.025828 1.24744,-18.06059 1.24457,-51.96974 0,-58.96449 -1.46222,-8.18442 -1.75089,-10.87862 -2.82052,-26.31892 -2.35773,-34.03334 -3.05266,-52.61404 -3.40712,-91.10394 -0.71517,-77.62805 3.7901,-137.22793 14.5579,-192.5836 8.95704,-46.04637 10.13296,-76.00134 3.9885,-101.5974 -5.66261,-23.58894 -17.84236,-40.17375 -38.96599,-53.05868 -8.08666,-4.93272 -33.39651,-17.07495 -43.01861,-20.63782 -31.82615,-11.7847 -71.00844,-20.14222 -112.36153,-23.96642 -14.1648,-1.30997 -55.46323,-1.31422 -68.32795,-0.007 -40.83934,4.14959 -72.97936,12.97407 -103.50417,28.41841 -6.12421,3.09865 -13.28956,6.97851 -15.92301,8.62193 -30.56383,19.07367 -47.78884,46.40257 -53.65013,85.12049 -1.75642,11.60229 -2.19974,20.55472 -1.88693,38.10483 0.4868,27.31397 2.39765,43.70828 11.74303,100.74997 5.91704,36.11613 7.8691,48.98659 9.82589,64.78502 4.84201,39.09276 5.32359,64.15151 1.81405,94.39381 -7.63523,65.79411 -10.16191,126.48168 -7.81782,187.77534 1.88513,49.292853 7.38,90.951698 15.10573,114.52261584 14.22048,43.38627716 40.1984,81.46640916 73.01356,107.02815416 30.70198,23.91564 68.91869,37.63518 110.92671,39.82199 11.389,0.59287 12.60997,0.59409 20.32985,0.0202 z M 339.96926,282.77594 c -4.07061,-2.01491 -6.35713,-6.36422 -7.22805,-13.7489 -0.84379,-7.15459 0.0565,-15.13555 3.45434,-30.62478 l 0.25539,-1.16426 -7.27626,0.40505 c -12.04582,0.67052 -32.46061,0.39301 -37.27822,-0.50674 -10.54415,-1.96932 -10.23647,-5.49463 1.01316,-11.60897 14.18592,-7.71028 32.05378,-14.55714 55.25031,-21.17164 16.89038,-4.81637 22.28515,-6.75121 28.77443,-10.32021 12.61237,-6.9366 20.00815,-12.79666 22.45051,-17.78865 0.74032,-1.51313 2.88855,-8.95304 4.77387,-16.53309 l 3.42785,-13.7819 -4.1249,-3.73739 c -15.47961,-14.02519 -33.2124,-33.8115 -47.90778,-53.455636 -25.8398,-34.541451 -50.87918,-79.9618274 -64.09697,-116.269126 -4.38455,-12.043739 -6.16326,-18.940915 -8.52067,-33.040109 -4.1695,-24.937022 -5.30537,-39.167512 -5.31665,-66.608829 -0.0152,-36.68254 2.39252,-69.71025 10.62212,-145.71396 6.8068,-62.86365 8.54007,-86.67705 7.17241,-98.54147 -1.04527,-9.06762 -2.37956,-11.2894 -6.77999,-11.2894 -16.54332,0 -67.6898,31.41866 -146.66601,90.09512 -72.310871,53.7244 -117.090533,81.51844 -131.268297,81.47623 -4.1456851,-0.0118 -4.6408856,-0.81882 -3.8257078,-6.2304 2.7146781,-18.02132 32.7854908,-85.07433 69.8367388,-155.72442 58.450806,-111.45524 116.765876,-203.6502 163.430826,-258.38089 8.59031,-10.07509 12.52624,-14.97911 24.57625,-30.62105 27.22265,-35.3373 115.50683,-154.27712 122.84796,-165.5055 4.29139,-6.56369 11.93007,-21.75167 15.52793,-30.87411 4.02914,-10.21592 8.51166,-24.02454 14.21191,-43.7805 13.37144,-46.34284 19.36212,-61.5933 31.11514,-79.20977 29.04773,-43.53974 91.20085,-74.95304 158.30852,-80.01204 9.97589,-0.7519 33.60218,-0.3171 42.38392,0.7802 21.47033,2.6826 38.22164,7.5013 55.42157,15.9421 17.04672,8.3657 30.46228,18.6814 41.6684,32.0398 9.05,10.7881 12.88312,18.88612 18.86493,39.85421 4.79325,16.80176 8.83033,28.10084 12.70749,35.56478 4.19027,8.06691 11.50896,13.68685 32.79404,25.18199 18.66466,10.07985 25.74951,14.77233 33.57737,22.23876 7.12297,6.79416 12.72452,15.44116 15.42305,23.80848 1.32337,4.10327 2.62515,11.03679 2.62515,13.98125 l 0,2.22837 -20.11879,-0.32826 c -20.73846,-0.33839 -34.1736,0.13767 -45.42544,1.6094 -28.24037,3.69405 -45.57846,13.20383 -53.8981,29.56291 -1.37433,2.70213 -1.41954,6.31222 -0.20651,16.46602 2.80904,23.51109 11.02611,45.98845 24.08889,65.89269 13.49992,20.57052 28.34565,36.47989 63.91566,68.49468 32.17336,28.95769 40.38925,37.17502 56.4151,56.42477 25.03807,30.07488 41.73304,51.86451 56.81158,74.14849 36.51834,53.96921 65.95627,117.45499 89.29947,192.58361 19.112,61.51124 29.7606,119.3171 23.5417,127.79858 -1.4928,2.03586 -3.0093,1.83073 -8.8649,-1.19899 -13.9396,-7.21239 -53.70584,-35.77762 -101.54059,-72.93933 -31.04873,-24.12118 -36.80751,-28.92029 -59.23072,-49.36037 -45.76555,-41.71811 -58.77301,-52.41817 -70.48054,-57.97803 -6.77239,-3.21618 -10.66574,-2.85106 -12.34053,1.15737 -3.42163,8.18938 -3.96994,36.2333 -1.97172,100.85646 2.32989,75.34645 2.25869,121.82931 -0.2411,157.66043 -2.70663,38.79414 -9.52913,75.811895 -22.55176,122.361452 -4.5002,16.08576738 -8.46407,27.882564 -13.95628,41.534135 -23.38537,58.127603 -57.8451,105.829473 -97.93404,135.567773 -2.81832,2.09069 -4.72779,3.86357 -4.72779,4.38974 0,1.46085 2.53994,9.7546 3.65918,11.94839 2.30695,4.52199 10.25037,10.68482 22.46859,17.43167 6.54328,3.61323 8.8197,4.43702 25.4978,9.2269 24.21964,6.95585 37.19301,11.71922 52.8909,19.41973 10.26032,5.03308 13.91865,7.6541 13.91865,9.97178 0,2.96846 -4.18285,4.29292 -16.07141,5.08891 -6.6516,0.44534 -11.9498,0.4417 -22.23527,-0.0152 -7.42649,-0.33006 -13.58073,-0.52198 -13.67621,-0.42663 -0.0945,0.0954 0.17866,1.51547 0.60921,3.15574 2.65534,10.11988 3.89301,23.25317 2.82996,30.03231 -1.01479,6.47218 -3.219,10.15531 -7.34787,12.27804 -1.69335,0.87064 -2.66951,0.98752 -6.57973,0.78759 -5.2766,-0.26977 -7.70267,-1.01131 -14.63939,-4.47432 -8.67815,-4.3324 -19.72838,-12.21011 -32.95583,-23.49413 -3.26321,-2.78374 -6.12961,-5.13402 -6.36986,-5.22284 -0.24041,-0.0888 -1.98404,0.73859 -3.87495,1.83868 -4.9785,2.89634 -17.85806,9.27246 -24.21442,11.98735 -14.74449,6.29781 -29.78019,10.25587 -39.77598,10.47079 -3.54243,0.0762 -4.6986,-0.1068 -6.65244,-1.05261 -8.98521,-4.34961 -10.89283,-19.32264 -5.35574,-42.03576 2.32383,-9.53257 6.28703,-21.35623 9.36786,-27.94837 2.49556,-5.3398 3.83649,-9.53241 3.04861,-9.53241 -0.16534,0 -2.19106,0.441 -4.50274,0.98003 -13.44694,3.13544 -26.59998,4.58202 -44.93111,4.94158 -16.6285,0.3262 -25.81261,-0.1984 -37.23333,-2.12667 -14.36491,-2.42539 -25.37482,-5.72265 -42.68976,-12.78462 -0.59886,-0.24425 -0.65706,0.5148 -0.3627,4.72895 0.44515,6.37258 0.87172,7.93354 3.86144,14.13033 4.28336,8.87828 9.58156,26.73409 11.39622,38.40709 1.20729,7.76596 0.86936,19.14084 -0.68716,23.12821 -1.36707,3.50218 -4.08703,6.74335 -6.84259,8.1539 -5.66617,2.90039 -23.1519,-0.30844 -42.13061,-7.73143 -6.80759,-2.66262 -23.08142,-10.51826 -30.34065,-14.64593 l -2.04664,-1.16375 -6.30455,5.43061 c -16.12348,13.88834 -30.74849,23.56697 -40.55779,26.84063 -5.11625,1.70744 -10.79323,1.79658 -13.97936,0.21947 z"
         style="fill:#000000"
         id="path3411" />
      <path
         id="path3429"
         d="m 339.96926,282.77594 c -4.07061,-2.01491 -6.35713,-6.36422 -7.22805,-13.7489 -0.84379,-7.15459 0.0565,-15.13555 3.45434,-30.62478 l 0.25539,-1.16426 -7.27626,0.40505 c -12.04582,0.67052 -32.46061,0.39301 -37.27822,-0.50674 -10.54415,-1.96932 -10.23647,-5.49463 1.01316,-11.60897 14.18592,-7.71028 32.05378,-14.55714 55.25031,-21.17164 16.89038,-4.81637 22.28515,-6.75121 28.77443,-10.32021 12.61237,-6.9366 20.00815,-12.79666 22.45051,-17.78865 0.74032,-1.51313 2.88855,-8.95304 4.77387,-16.53309 l 3.42785,-13.7819 -4.1249,-3.73739 c -15.47961,-14.02519 -33.2124,-33.8115 -47.90778,-53.455636 -25.8398,-34.541451 -50.87918,-79.9618274 -64.09697,-116.269126 -4.38455,-12.043739 -6.16326,-18.940915 -8.52067,-33.040109 -4.1695,-24.937022 -5.30537,-39.167512 -5.31665,-66.608829 -0.0152,-36.68254 2.39252,-69.71025 10.62212,-145.71396 6.8068,-62.86365 8.54007,-86.67705 7.17241,-98.54147 -1.04527,-9.06762 -2.37956,-11.2894 -6.77999,-11.2894 -16.54332,0 -67.6898,31.41866 -146.66601,90.09512 -72.310871,53.7244 -117.090533,81.51844 -131.268297,81.47623 -4.1456851,-0.0118 -4.6408856,-0.81882 -3.8257078,-6.2304 2.7146781,-18.02132 32.7854908,-85.07433 69.8367388,-155.72442 58.450806,-111.45524 116.765876,-203.6502 163.430826,-258.38089 8.59031,-10.07509 12.52624,-14.97911 24.57625,-30.62105 27.22265,-35.3373 115.50683,-154.27712 122.84796,-165.5055 4.29139,-6.56369 11.93007,-21.75167 15.52793,-30.87411 4.02914,-10.21592 8.51166,-24.02454 14.21191,-43.7805 13.37144,-46.34284 19.36212,-61.5933 31.11514,-79.20977 29.04773,-43.53974 91.20085,-74.95304 158.30852,-80.01204 9.97589,-0.7519 33.60218,-0.3171 42.38392,0.7802 21.47033,2.6826 38.22164,7.5013 55.42157,15.9421 17.04672,8.3657 30.46228,18.6814 41.6684,32.0398 9.05,10.7881 12.88312,18.88612 18.86493,39.85421 4.79325,16.80176 8.83033,28.10084 12.70749,35.56478 4.19027,8.06691 11.50896,13.68685 32.79404,25.18199 18.66466,10.07985 25.74951,14.77233 33.57737,22.23876 7.12297,6.79416 12.72452,15.44116 15.42305,23.80848 1.32337,4.10327 2.62515,11.03679 2.62515,13.98125 l 0,2.22837 -20.11879,-0.32826 c -20.73846,-0.33839 -34.1736,0.13767 -45.42544,1.6094 -28.24037,3.69405 -45.57846,13.20383 -53.8981,29.56291 -1.37433,2.70213 -1.41954,6.31222 -0.20651,16.46602 2.80904,23.51109 11.02611,45.98845 24.08889,65.89269 13.49992,20.57052 28.34565,36.47989 63.91566,68.49468 32.17336,28.95769 40.38925,37.17502 56.4151,56.42477 25.03807,30.07488 41.73304,51.86451 56.81158,74.14849 36.51834,53.96921 65.95627,117.45499 89.29947,192.58361 19.112,61.51124 29.7606,119.3171 23.5417,127.79858 -1.4928,2.03586 -3.0093,1.83073 -8.8649,-1.19899 -13.9396,-7.21239 -53.70584,-35.77762 -101.54059,-72.93933 -31.04873,-24.12118 -36.80751,-28.92029 -59.23072,-49.36037 -45.76555,-41.71811 -58.77301,-52.41817 -70.48054,-57.97803 -6.77239,-3.21618 -10.66574,-2.85106 -12.34053,1.15737 -3.42163,8.18938 -3.96994,36.2333 -1.97172,100.85646 2.32989,75.34645 2.25869,121.82931 -0.2411,157.66043 -2.70663,38.79414 -9.52913,75.811895 -22.55176,122.361452 -4.5002,16.08576738 -8.46407,27.882564 -13.95628,41.534135 -23.38537,58.127603 -57.8451,105.829473 -97.93404,135.567773 -2.81832,2.09069 -4.72779,3.86357 -4.72779,4.38974 0,1.46085 2.53994,9.7546 3.65918,11.94839 2.30695,4.52199 10.25037,10.68482 22.46859,17.43167 6.54328,3.61323 8.8197,4.43702 25.4978,9.2269 24.21964,6.95585 37.19301,11.71922 52.8909,19.41973 10.26032,5.03308 13.91865,7.6541 13.91865,9.97178 0,2.96846 -4.18285,4.29292 -16.07141,5.08891 -6.6516,0.44534 -11.9498,0.4417 -22.23527,-0.0152 -7.42649,-0.33006 -13.58073,-0.52198 -13.67621,-0.42663 -0.0945,0.0954 0.17866,1.51547 0.60921,3.15574 2.65534,10.11988 3.89301,23.25317 2.82996,30.03231 -1.01479,6.47218 -3.219,10.15531 -7.34787,12.27804 -1.69335,0.87064 -2.66951,0.98752 -6.57973,0.78759 -5.2766,-0.26977 -7.70267,-1.01131 -14.63939,-4.47432 -8.67815,-4.3324 -19.72838,-12.21011 -32.95583,-23.49413 -3.26321,-2.78374 -6.12961,-5.13402 -6.36986,-5.22284 -0.24041,-0.0888 -1.98404,0.73859 -3.87495,1.83868 -4.9785,2.89634 -17.85806,9.27246 -24.21442,11.98735 -14.74449,6.29781 -29.78019,10.25587 -39.77598,10.47079 -3.54243,0.0762 -4.6986,-0.1068 -6.65244,-1.05261 -8.98521,-4.34961 -10.89283,-19.32264 -5.35574,-42.03576 2.32383,-9.53257 6.28703,-21.35623 9.36786,-27.94837 2.49556,-5.3398 3.83649,-9.53241 3.04861,-9.53241 -0.16534,0 -2.19106,0.441 -4.50274,0.98003 -13.44694,3.13544 -26.59998,4.58202 -44.93111,4.94158 -16.6285,0.3262 -25.81261,-0.1984 -37.23333,-2.12667 -14.36491,-2.42539 -25.37482,-5.72265 -42.68976,-12.78462 -0.59886,-0.24425 -0.65706,0.5148 -0.3627,4.72895 0.44515,6.37258 0.87172,7.93354 3.86144,14.13033 4.28336,8.87828 9.58156,26.73409 11.39622,38.40709 1.20729,7.76596 0.86936,19.14084 -0.68716,23.12821 -1.36707,3.50218 -4.08703,6.74335 -6.84259,8.1539 -5.66617,2.90039 -23.1519,-0.30844 -42.13061,-7.73143 -6.80759,-2.66262 -23.08142,-10.51826 -30.34065,-14.64593 l -2.04664,-1.16375 -6.30455,5.43061 c -16.12348,13.88834 -30.74849,23.56697 -40.55779,26.84063 -5.11625,1.70744 -10.79323,1.79658 -13.97936,0.21947 z"
         style="fill:none;fill-opacity:1;stroke:#ff0000;stroke-opacity:1" />
    </g>
    <g
       id="g4247"
       transform="translate(179.08052,-63.447555)">
      <path
         inkscape:connector-curvature="0"
         d="m 449.50308,591.45684 c 23.6673,-2.5781 46.0695,-13.5681 57.348,-28.1337 l 2.0158,-2.6031 -0.787,-8.2437 c -0.4329,-4.534 -1.2556,-11.3342 -1.8282,-15.1115 -1.9132,-12.6211 -8.4058,-42.093 -9.5183,-43.2054 -0.8873,-0.8873 -8.1047,-0.6661 -11.0611,0.339 -5.7096,1.9413 -11.3021,7.5158 -15.0421,14.994 -5.9318,11.8611 -7.7438,29.1099 -4.2808,40.7508 1.7514,5.8873 1.7573,5.7816 -0.5035,8.9322 -2.5715,3.5834 -6.7192,6.4014 -11.9761,8.1365 -18.4099,6.0765 -44.6755,-1.2836 -51.38244,-14.3984 -1.31189,-2.5651 -1.21691,-3.5119 0.62575,-6.2423 5.01949,-7.4373 4.95184,-18.5774 -0.17495,-28.8098 -5.18533,-10.3491 -15.20272,-19.1087 -25.57119,-22.3603 -2.29211,-0.7189 -4.49784,-1.1804 -4.90122,-1.0255 -1.08482,0.4162 -6.07714,9.1546 -8.64054,15.124 -9.97183,23.2209 -6.73477,43.7847 9.39704,59.6959 11.75814,11.5974 30.75314,19.8285 51.08063,22.1346 5.54974,0.6297 19.52897,0.6445 25.20022,0.027 z m -88.8009,376.7926 c -0.96047,-1.4659 -1.08363,-7.2357 -0.21763,-10.1966 l 0.48116,-1.6449 -6.92407,-0.01 c -7.0943,-0.01 -8.56191,-0.3158 -8.03621,-1.6857 0.41351,-1.0777 7.65492,-4.4413 13.76547,-6.3942 2.78373,-0.8897 6.31401,-2.0172 7.84506,-2.5056 l 2.78373,-0.888 -2.08729,-1.07 c -3.54344,-1.8163 -6.38537,-6.1224 -7.79816,-11.816 -0.57024,-2.2978 -0.64768,-2.3686 -3.4471,-3.1552 -14.34483,-4.0308 -26.52255,-16.2479 -36.9278,-37.0477 -5.23123,-10.4571 -8.50743,-18.942 -16.88983,-43.7423 -4.72931,-13.9925 -7.91305,-21.4823 -10.54326,-24.8031 -3.93265,-4.9654 -4.95892,-26.0514 -2.22783,-45.7721 3.73324,-26.9557 15.51382,-59.3369 30.08995,-82.7072 1.79694,-2.8811 5.49711,-8.1989 8.2228,-11.8172 3.97062,-5.271 4.83847,-6.7197 4.36675,-7.2883 -0.32393,-0.3903 -0.74823,-0.7096 -0.94293,-0.7096 -0.55438,0 -8.13305,10.2723 -12.32265,16.7024 -15.93981,24.4638 -27.72478,56.8138 -32.08276,88.0671 -1.21202,8.6922 -1.22568,30.2088 -0.0236,36.4252 0.63993,3.3079 0.6897,4.3743 0.21832,4.674 -0.88135,0.5601 -6.8716,0.4867 -9.02166,-0.1105 -2.55883,-0.7108 -5.02843,-2.4852 -6.16335,-4.4284 -1.12277,-1.9225 -2.99647,-15.682 -3.9448,-28.9683 -0.73051,-10.2356 -0.32341,-29.3597 0.79733,-37.4538 2.21788,-16.0183 5.66481,-27.4731 12.42169,-41.2802 3.20179,-6.5427 7.54053,-13.7641 17.92318,-29.8315 6.4154,-9.9279 10.72648,-19.3574 12.38001,-27.0781 0.26825,-1.2527 0.84187,-5.0269 1.27478,-8.3871 1.94153,-15.073 7.47845,-29.2973 16.96339,-43.5798 5.19056,-7.8159 10.58526,-14.1964 18.33196,-21.6819 l 6.29208,-6.0802 -1.48719,-1.2316 c -7.53952,-6.2441 -7.03356,-32.0468 1.21607,-62.0206 4.09698,-14.8855 9.27438,-26.9474 14.60177,-34.0174 10.90312,-14.4694 29.32417,-25.1578 51.42294,-29.837 6.079,-1.2872 7.46564,-1.3938 18.22079,-1.4005 10.17801,-0.01 12.22561,0.1302 16.29241,1.0872 26.4667,6.2281 46.6857,28.8352 55.06,61.5631 3.5337,13.8102 5.1477,30.3213 4.5832,46.8898 -0.3789,11.1239 -0.7681,12.5693 -4.7246,17.5445 l -2.0785,2.6135 2.8877,2.1544 c 14.9572,11.1595 31.33791,29.6027 44.46551,50.0647 10.6885,16.66 21.2413,38.8907 28.1108,59.2175 6.7727,20.0409 10.9874,38.0425 15.2867,65.2912 4.569,28.9575 5.4463,48.3769 2.5166,55.6989 -0.9616,2.4035 -3.3335,4.5309 -5.0515,4.5309 -1.9749,0 -5.2155,-1.9161 -7.898,-4.6702 -5.3311,-5.4733 -16.9678,-32.4916 -31.0142,-72.0089 -4.5628,-12.8368 -17.5581,-51.7644 -20.2333,-60.6095 -0.8933,-2.953 -1.5876,-4.4286 -2.0841,-4.4286 -0.4095,0 -0.8694,0.3256 -1.0221,0.7236 -0.31661,0.8252 5.5127,19.4387 13.3159,42.5189 11.1334,32.9301 21.6001,60.5554 29.8279,78.7276 4.7767,10.5498 4.673,9.9421 3.6908,21.6175 -0.7071,8.4059 -2.172,16.977 -3.5155,20.5673 -0.5871,1.5693 -1.8722,3.8164 -2.8557,4.9937 -2.3097,2.7645 -6.7883,11.7529 -10.794,21.6635 -4.6082,11.4012 -10.5703,27.9972 -11.4408,31.8466 -2.8823,12.7465 -8.6832,22.3113 -16.7979,27.6974 -4.32881,2.8734 -10.44021,4.7862 -16.32871,5.1106 l -4.9258,0.2714 -0.2162,4.8643 c -0.1602,3.616 -0.5144,5.5433 -1.3787,7.5099 -1.4583,3.3186 -4.7981,6.4573 -7.7047,7.2408 -4.35,1.1725 -4.326,1.1993 3.0431,3.3985 7.8412,2.34 16.6,6.173 17.1032,7.4846 0.5492,1.4312 -0.8288,1.7377 -7.8503,1.7457 l -6.7611,0.01 0.2911,1.16 c 1.1651,4.6417 0.9399,9.7936 -0.4905,11.224 -2.1593,2.1593 -7.6984,0.1046 -14.3647,-5.3289 -2.0286,-1.6533 -3.8188,-3.006 -3.9784,-3.006 -0.1602,0 -2.1205,0.9051 -4.3579,2.0115 -5.6272,2.7825 -9.5612,4.0691 -13.4903,4.4117 -2.9422,0.2565 -3.4763,0.1643 -4.4004,-0.7598 -0.5785,-0.5785 -1.2138,-1.9153 -1.4117,-2.9706 -0.3979,-2.121 0.4497,-8.0359 1.6609,-11.5908 0.4296,-1.2605 0.6713,-2.4014 0.5374,-2.5354 -0.1333,-0.1339 -3.8606,0.029 -8.2816,0.3628 -8.9059,0.6717 -44.08447,0.6932 -54.60225,0.033 -3.61885,-0.2271 -6.68079,-0.3358 -6.80429,-0.2416 -0.12316,0.094 0.275,2.0763 0.88574,4.4045 1.45952,5.5647 1.48347,10.3125 0.0607,12.1205 -0.85756,1.0903 -1.46761,1.3336 -3.34334,1.3336 -3.49671,0 -7.9581,-1.3297 -13.92085,-4.1491 l -5.40685,-2.5566 -4.09361,3.2754 c -7.37132,5.8978 -12.61047,7.5719 -14.52956,4.6429 z"
         style="fill:#000000"
         id="path3405" />
      <path
         sodipodi:nodetypes="ccccccscccsssccccssssccscccssscssscccssscsccccsccscccccccccscsccsccccccccsscccc"
         inkscape:connector-curvature="0"
         id="path4241"
         d="m 360.70218,968.24944 c -0.96047,-1.4659 -1.08363,-7.2357 -0.21763,-10.1966 l 0.48116,-1.6449 -6.92407,-0.01 c -7.0943,-0.01 -8.56191,-0.3158 -8.03621,-1.6857 0.41351,-1.0777 7.65492,-4.4413 13.76547,-6.3942 2.78373,-0.8897 6.31401,-2.0172 7.84506,-2.5056 l 2.78373,-0.888 -2.08729,-1.07 c -3.54344,-1.8163 -6.38537,-6.1224 -7.79816,-11.816 -0.57024,-2.2978 -0.64768,-2.3686 -3.4471,-3.1552 -14.34483,-4.0308 -26.52255,-16.2479 -36.9278,-37.0477 -5.23123,-10.4571 -8.50743,-18.942 -16.88983,-43.7423 -4.72931,-13.9925 -7.91305,-21.4823 -10.54326,-24.8031 -1.18683,-1.38382 -2.44549,-3.66687 -4.70195,-2.4257 -0.88135,0.5601 -6.8716,0.4867 -9.02166,-0.1105 -2.55883,-0.7108 -5.02843,-2.4852 -6.16335,-4.4284 -1.12277,-1.9225 -2.99647,-15.682 -3.9448,-28.9683 -0.73051,-10.2356 -0.32341,-29.3597 0.79733,-37.4538 2.21788,-16.0183 5.66481,-27.4731 12.42169,-41.2802 3.20179,-6.5427 7.54053,-13.7641 17.92318,-29.8315 6.4154,-9.9279 10.72648,-19.3574 12.38001,-27.0781 0.26825,-1.2527 0.84187,-5.0269 1.27478,-8.3871 1.94153,-15.073 7.47845,-29.2973 16.96339,-43.5798 5.19056,-7.8159 10.58526,-14.1964 18.33196,-21.6819 l 6.29208,-6.0802 -1.48719,-1.2316 c -7.53952,-6.2441 -7.03356,-32.0468 1.21607,-62.0206 4.09698,-14.8855 9.27438,-26.9474 14.60177,-34.0174 10.90312,-14.4694 29.32417,-25.1578 51.42294,-29.837 6.079,-1.2872 7.46564,-1.3938 18.22079,-1.4005 10.17801,-0.01 12.22561,0.1302 16.29241,1.0872 26.4667,6.2281 46.6857,28.8352 55.06,61.5631 3.5337,13.8102 5.1477,30.3213 4.5832,46.8898 -0.3789,11.1239 -0.7681,12.5693 -4.7246,17.5445 l -2.0785,2.6135 2.8877,2.1544 c 14.9572,11.1595 31.33791,29.6027 44.46551,50.0647 10.6885,16.66 21.2413,38.8907 28.1108,59.2175 6.7727,20.0409 10.9874,38.0425 15.2867,65.2912 4.569,28.9575 5.4463,48.3769 2.5166,55.6989 -0.9616,2.4035 -3.3335,4.5309 -5.0515,4.5309 -1.9749,0 -5.2155,-1.9161 -7.898,-4.6702 -5.06858,-4.7136 -7.40657,5.44932 -7.5191,6.5406 -0.7071,8.4059 -2.172,16.977 -3.5155,20.5673 -0.5871,1.5693 -1.8722,3.8164 -2.8557,4.9937 -2.3097,2.7645 -6.7883,11.7529 -10.794,21.6635 -4.6082,11.4012 -10.5703,27.9972 -11.4408,31.8466 -2.8823,12.7465 -8.6832,22.3113 -16.7979,27.6974 -4.32881,2.8734 -10.44021,4.7862 -16.32871,5.1106 l -4.9258,0.2714 -0.2162,4.8643 c -0.1602,3.616 -0.5144,5.5433 -1.3787,7.5099 -1.4583,3.3186 -4.7981,6.4573 -7.7047,7.2408 -4.35,1.1725 -4.326,1.1993 3.0431,3.3985 7.8412,2.34 16.6,6.173 17.1032,7.4846 0.5492,1.4312 -0.8288,1.7377 -7.8503,1.7457 l -6.7611,0.01 0.2911,1.16 c 1.1651,4.6417 0.9399,9.7936 -0.4905,11.224 -2.1593,2.1593 -7.6984,0.1046 -14.3647,-5.3289 -2.0286,-1.6533 -3.8188,-3.006 -3.9784,-3.006 -0.1602,0 -2.1205,0.9051 -4.3579,2.0115 -5.6272,2.7825 -9.5612,4.0691 -13.4903,4.4117 -2.9422,0.2565 -3.4763,0.1643 -4.4004,-0.7598 -0.5785,-0.5785 -1.2138,-1.9153 -1.4117,-2.9706 -0.3979,-2.121 0.4497,-8.0359 1.6609,-11.5908 0.4296,-1.2605 0.6713,-2.4014 0.5374,-2.5354 -0.1333,-0.1339 -3.8606,0.029 -8.2816,0.3628 -8.9059,0.6717 -44.08447,0.6932 -54.60225,0.033 -3.61885,-0.2271 -6.68079,-0.3358 -6.80429,-0.2416 -0.12316,0.094 0.275,2.0763 0.88574,4.4045 1.45952,5.5647 1.48347,10.3125 0.0607,12.1205 -0.85756,1.0903 -1.46761,1.3336 -3.34334,1.3336 -3.49671,0 -7.9581,-1.3297 -13.92085,-4.1491 l -5.40685,-2.5566 -4.09361,3.2754 c -7.37132,5.8978 -12.61047,7.5719 -14.52956,4.6429 z"
         style="fill:none;fill-opacity:1;stroke:#ff0000;stroke-opacity:1" />
    </g>
  </g>
</svg>
