<?xml version="1.0" encoding="UTF-8" standalone="no"?>
<!-- Created with Inkscape (http://www.inkscape.org/) -->

<svg
   xmlns:dc="http://purl.org/dc/elements/1.1/"
   xmlns:cc="http://creativecommons.org/ns#"
   xmlns:rdf="http://www.w3.org/1999/02/22-rdf-syntax-ns#"
   xmlns:svg="http://www.w3.org/2000/svg"
   xmlns="http://www.w3.org/2000/svg"
   xmlns:sodipodi="http://sodipodi.sourceforge.net/DTD/sodipodi-0.dtd"
   xmlns:inkscape="http://www.inkscape.org/namespaces/inkscape"
   width="3.2022007in"
   height="4.75in"
   viewBox="0 0 288.19806 427.5"
   id="svg2"
   version="1.1"
   inkscape:version="0.91 r13725"
   sodipodi:docname="drawing.svg">
  <defs
     id="defs4" />
  <sodipodi:namedview
     id="base"
     pagecolor="#ffffff"
     bordercolor="#666666"
     borderopacity="1.0"
     inkscape:pageopacity="0.0"
     inkscape:pageshadow="2"
     inkscape:zoom="1.5181287"
     inkscape:cx="144.09903"
     inkscape:cy="213.75"
     inkscape:document-units="in"
     inkscape:current-layer="g4239"
     showgrid="false"
     units="in"
     inkscape:window-width="1440"
     inkscape:window-height="851"
     inkscape:window-x="0"
     inkscape:window-y="1"
     inkscape:window-maximized="1"
     fit-margin-top="0.125"
     fit-margin-left="0.125"
     fit-margin-right="0.125"
     fit-margin-bottom="0.125" />
  <metadata
     id="metadata7">
    <rdf:RDF>
      <cc:Work
         rdf:about="">
        <dc:format>image/svg+xml</dc:format>
        <dc:type
           rdf:resource="http://purl.org/dc/dcmitype/StillImage" />
        <dc:title></dc:title>
      </cc:Work>
    </rdf:RDF>
  </metadata>
  <g
     inkscape:label="Layer 1"
     inkscape:groupmode="layer"
     id="layer1"
     transform="translate(-231.87974,-221.98184)">
    <g
       id="g4239"
       transform="translate(-702.77987,360.29297)">
      <g
         id="Layer1002" />
      <g
         id="Layer1003" />
      <g
         id="Layer1004"
         transform="matrix(1.1807613,-0.40307525,0.40307525,1.1807613,-1292.7124,657.10919)">
        <g
           id="g4277"
           transform="translate(302,-74)">
          <g
             id="Layer1005">
            <path
               d="m 1708.7515,96.4008 c -1.0542,-0.3693 -2.1486,-0.6484 -3.2376,-0.8146 -3.0189,-0.4608 -9.3886,-0.4956 -12.3774,-0.0677 -4.6455,0.665 -11.2781,3.1563 -16.9947,6.3843 l -2.0212,1.1417 -1.8881,-1.373 c -3.6295,-2.6396 -9.7961,-4.9294 -15.9504,-5.9227 -6.5021,-1.0497 -13.0243,-1.3237 -15.2041,-0.6385 -0.713,0.2242 -1.3501,0.3896 -1.4157,0.3677 -0.065,-0.0218 -1.2789,0.1951 -2.6963,0.482 l -2.5772,0.5218 -0.7422,-1.964 c -0.4084,-1.0805 -1.0041,-2.7224 -1.3239,-3.6481 -1.2521,-3.6244 -8.0721,-12.8993 -10.3221,-14.0379 -0.2017,-0.1022 -1.0606,-0.6123 -1.9085,-1.1338 -5.3613,-3.2971 -8.8561,-3.5692 -12.6904,-0.9876 -1.6547,1.1141 -6.2817,5.404 -7.0159,6.5049 -0.2144,0.3216 -0.9137,1.2461 -1.5539,2.0545 -1.4696,1.8553 -5.0582,6.8624 -6.7571,9.4284 -0.9638,1.4558 -1.6503,2.1807 -2.6698,2.8168 -4.5419,2.8339 -6.0801,7.1727 -4.0112,11.3167 1.1168,2.2371 3.0539,3.4461 5.7411,3.5846 1.4374,0.0741 5.6445,-1.5264 5.9789,-2.2744 0.031,-0.0684 0.4174,-0.4538 0.8593,-0.8566 0.6684,-0.6093 0.9348,-1.1585 1.5841,-3.2706 0.858,-2.7905 0.8936,-4.7427 0.113,-6.1914 -0.2349,-0.4358 -0.3904,-0.9031 -0.3452,-1.0385 0.1489,-0.4456 3.6679,1.1789 4.5831,2.1155 1.2146,1.2431 3.1928,4.9373 3.8003,7.0972 0.9936,3.5327 1.3991,10.2561 0.8752,14.5104 -0.2702,2.1949 -0.2861,3.4912 -0.066,5.4452 0.2162,1.9236 0.2364,2.176 0.3286,4.1019 0.1013,2.1192 0.7075,6.2025 1.2304,8.2916 0.3008,1.2012 0.5903,2.38 0.6436,2.6191 0.08,0.3583 -0.1,0.3374 -1.0228,-0.1181 -0.8177,-0.4037 -1.2344,-0.481 -1.5457,-0.2876 -0.5894,0.366 -0.4066,0.8671 0.4177,1.1462 1.9031,0.6442 2.4336,1.1203 2.4627,2.2078 0.035,1.3113 -0.7801,3.5968 -1.9096,5.3535 -2.9319,4.5604 -3.6804,7.3717 -3.1133,11.6962 0.4644,3.5414 3.1003,10.805 5.4339,14.9734 2.593,4.632 8,12.8573 8.5785,13.0505 0.109,0.0364 0.4524,0.2739 0.7636,0.5283 0.564,0.4613 0.5636,0.4662 -0.2114,1.4839 -0.8436,1.1081 -0.6649,1.0836 -4.0099,0.5498 -4.1995,-0.67 -7.2738,-0.9992 -14.6298,-1.5662 -2.8057,-0.2164 -5.0062,-0.5656 -7.1956,-1.1416 -4.075,-1.0723 -6.7581,-1.4839 -7.7513,-1.1896 -0.4363,0.1293 -1.1402,0.2075 -1.5641,0.174 -1.0642,-0.0839 -3.8214,0.6556 -5.1245,1.3742 -1.2627,0.6963 -2.5524,1.8097 -3.1136,2.6887 -0.3075,0.4815 -1.0254,0.7319 -3.2082,1.1192 -1.9072,0.3385 -3.0772,0.7151 -3.6361,1.1696 -0.6118,0.4975 -1.0344,0.6148 -1.6403,0.4562 -1.2454,-0.3261 -3.0239,0.0519 -4.6241,0.9823 -1.8698,1.0872 -2.5384,2.0111 -3.1618,4.3711 -0.5806,2.198 -0.4142,3.5182 0.6133,4.8704 0.9612,1.2649 3.3198,1.8545 5.8498,1.4622 1.7563,-0.2722 1.7952,-0.2653 1.469,0.2464 -0.1844,0.2893 -0.8307,1.7439 -1.437,3.2325 l -1.1026,2.7072 -1.5093,0.352 c -0.8301,0.1936 -1.6754,0.2965 -1.8784,0.2287 -0.203,-0.0678 -0.5131,-1e-4 -0.6892,0.1503 -0.176,0.1505 -1.0777,0.52 -2.0039,0.8213 -0.9262,0.3012 -1.7322,0.6925 -1.7912,0.8689 -0.2738,0.82 -0.545,5.3607 -0.4705,7.8849 0.1426,4.8365 0.7401,10.376 1.3654,12.6635 0.3311,1.2113 1.1434,3.2399 1.8049,4.5079 l 1.2024,2.3056 -0.9108,3.6532 c -1.0927,4.3823 -1.1483,6.36 -0.3393,12.065 l 0.5638,3.9758 -2.1427,6.2893 c -2.2499,6.6052 -3.2131,10.7115 -3.9654,16.9053 -0.6698,5.513 -0.9608,13.8653 -0.5342,15.3293 0.459,1.5752 0.4856,3.5642 0.062,4.5854 -0.3564,0.8582 -0.3446,1.0388 0.075,1.179 0.3947,0.1319 0.4201,0.2715 0.1257,0.6855 -0.4208,0.592 -4.9723,5.9978 -7.5622,8.9818 -0.9523,1.0972 -1.9033,2.195 -2.114,2.4392 -0.2106,0.2441 -0.5433,0.6798 -0.7389,0.9684 -0.319,0.4707 -0.461,0.471 -1.3767,0.002 -0.5616,-0.2879 -1.1668,-0.6725 -1.3459,-0.8547 -0.179,-0.1821 -1.7282,-0.6784 -3.4423,-1.1027 -1.7141,-0.4242 -4.1289,-1.0806 -5.3663,-1.459 -2.5409,-0.7771 -2.9823,-0.5636 -1.8571,0.9 l 0.6434,0.8378 -0.7906,0.0305 c -0.4349,0.0167 -1.3436,-0.0844 -2.0196,-0.2249 -1.5973,-0.3319 -3.3389,-0.3247 -7.0709,0.0288 -3.2622,0.309 -3.7125,0.6217 -2.5357,1.7614 0.5181,0.5017 1.0991,0.7012 3.5307,1.2136 1.6009,0.3374 2.948,0.6875 2.9932,0.7782 0.045,0.0906 -0.502,0.5613 -1.2157,1.0457 -0.7138,0.4845 -1.3747,1.1115 -1.4689,1.3935 -0.2842,0.8508 0.627,1.2457 2.0136,0.8734 1.0066,-0.2701 1.3026,-0.2472 1.6084,0.1231 0.3056,0.37 0.6529,0.3968 1.8822,0.1467 0.8291,-0.1686 2.1196,-0.5342 2.868,-0.8124 l 1.361,-0.5056 1.4586,1.4803 c 2.3948,2.4293 2.426,2.5352 0.6947,2.3694 -1.6806,-0.161 -5.5665,0.3259 -6.4148,0.8036 -1.0529,0.5929 -0.3619,1.8387 1.334,2.4051 0.3838,0.1282 1.39,0.8471 2.2358,1.5971 0.8457,0.75 1.7086,1.4283 1.918,1.5077 0.2093,0.0795 0.5572,0.4307 0.7729,0.7808 0.3542,0.5748 0.2901,0.9896 -0.6599,4.2733 -1.7747,6.1345 -2.1341,11.3873 -1.4712,21.5064 0.3671,5.605 2.6578,15.2579 4.6981,19.7991 0.2285,0.5087 0.6346,0.9983 0.9029,1.0879 0.4682,0.1564 0.4763,0.1278 0.1927,-0.722 -2.9825,-8.9323 -4.1602,-14.0964 -4.6664,-20.4648 -1.0881,-13.6907 0.8243,-23.0477 6.735,-32.9534 1.7231,-2.8879 5.4291,-7.8782 8.0258,-10.8073 1.1104,-1.2525 3.0098,-3.4264 4.2205,-4.8304 1.2107,-1.4041 2.3881,-2.6708 2.6163,-2.8154 0.2498,-0.1582 0.8065,-1.3958 1.3979,-3.1074 0.5404,-1.5644 1.8833,-5.3093 2.984,-8.3227 1.4985,-4.1024 2.1043,-6.0907 2.4118,-7.9149 0.7319,-4.3432 1.0864,-8.9864 1.0906,-14.2699 0,-1.8395 0.1222,-2.9708 0.3282,-3.0737 0.2061,-0.1029 0.1538,-1.0481 -0.1424,-2.568 -0.5279,-2.708 -1.8725,-12.13 -1.7735,-12.4264 0.035,-0.1059 0.5979,-0.0992 1.2504,0.0151 0.6524,0.1144 3.0981,0.4002 5.4348,0.635 2.3367,0.2348 5.3217,0.7047 6.6334,1.0449 l 2.3849,0.6188 -0.4885,2.9499 c -1.1138,6.7213 -1.83,13.0873 -1.6667,14.8165 0.2082,2.2068 -0.6433,5.4118 -5.2414,19.727 -2.4632,7.6689 -4.5732,14.3622 -4.6884,14.874 -0.1153,0.512 -0.3133,1.4107 -0.4404,1.9974 -0.127,0.5866 -0.4014,1.8455 -0.6101,2.798 -0.2087,0.9524 -0.5557,2.9597 -0.7707,4.4604 -0.2151,1.5007 -0.5432,3.5999 -0.7287,4.6651 -0.6654,3.8218 -0.2117,16.1532 0.8553,23.2475 0.4753,3.1601 2.2405,10.5322 3.3313,13.9139 0.3609,1.1189 0.3594,1.3347 -0.01,1.2126 -0.2448,-0.0818 -2.1057,-1.7968 -4.1354,-3.8114 -2.0298,-2.0146 -3.8197,-3.7065 -3.9773,-3.7591 -0.3872,-0.1293 -0.5794,0.5257 -0.2872,0.9779 0.489,0.7566 4.5375,4.9346 6.6442,6.8564 1.2053,1.0994 2.2708,2.128 2.3675,2.2858 0.097,0.1578 0.3842,0.3564 0.6389,0.4414 0.5837,0.195 0.6464,0.0614 -1.1379,2.4124 -2.6648,3.511 -3.7738,5.2777 -5.822,9.2731 -2.0925,4.0818 -3.6105,7.5106 -3.6703,8.2898 l -0.058,0.7573 27.101,9.0522 27.101,9.0521 0.6364,-1.0021 c 2.2312,-3.5105 3.1795,-5.6556 5.0931,-11.5225 3.5779,-10.9696 4.5091,-15.5209 4.9568,-24.2196 0.3103,-6.0304 -0.5183,-14.6189 -1.8479,-19.1442 -0.3226,-1.0981 -0.5637,-2.0669 -0.5349,-2.1531 0.088,-0.2619 -1.0801,-3.5691 -2.4931,-7.0611 -2.0319,-5.022 -7.3246,-15.4888 -8.7865,-17.3759 -1.2864,-1.6607 -3.262,-4.4886 -3.7177,-5.3213 -0.13,-0.2375 -0.67,-1.2143 -1.1998,-2.1704 -1.0847,-1.9572 -3.3037,-7.0334 -3.5927,-8.218 -0.6178,-2.5332 0.026,-8.1101 1.266,-10.9685 2.7339,-6.3008 4.562,-8.4299 10.6279,-12.3785 10.6689,-6.9446 17.514,-11.8906 20.2803,-14.654 0.7079,-0.707 1.4545,-1.4227 1.6587,-1.5904 0.2043,-0.1677 0.6709,-0.6553 1.037,-1.0835 0.3662,-0.4281 1.1898,-1.3753 1.8299,-2.1049 0.6402,-0.7297 1.46,-1.71 1.8222,-2.1787 0.3623,-0.4687 0.7234,-0.831 0.8018,-0.8048 0.079,0.0263 0.7471,4.4635 1.4858,9.8603 0.9386,6.8576 1.3174,10.7078 1.2574,12.7858 -0.047,1.6354 -0.049,3.3717 0,3.8585 0.1273,1.3669 0.1759,4.2366 0.09,5.3191 -0.273,3.4391 0.6428,9.9107 2.1332,15.0695 0.5674,1.9645 1.461,5.4515 1.9852,7.7496 0.5242,2.298 1.8611,7.5236 2.9712,11.6125 1.1102,4.0889 2.0146,7.6949 2.0098,8.013 0,0.318 0.2962,1.189 0.6689,1.9355 0.3728,0.7466 0.6481,1.4468 0.6114,1.5566 -0.037,0.1096 0.2004,1.0083 0.527,1.9967 1.555,4.707 1.5893,4.8009 2.297,6.3133 0.1913,0.409 0.3908,0.9681 0.443,1.2425 0.1203,0.632 1.5108,4.0678 2.1403,5.2874 0.2625,0.5086 0.4492,1.0095 0.4145,1.1134 -0.1075,0.3216 2.3442,5.7451 4.5218,10.0034 l 2.0753,4.0581 -0.8608,0.3548 c -1.5383,0.6331 -5.2402,2.9314 -5.3759,3.3376 -0.073,0.2176 -0.4745,0.8352 -0.8924,1.372 -1.022,1.3126 -1.986,4.2045 -2.1382,6.4131 -0.069,0.9939 0.028,2.8911 0.2149,4.2158 0.6796,4.8158 2.606,8.4669 6.3396,12.0158 1.249,1.1872 1.6795,1.4415 3.0191,1.7836 0.8593,0.2196 1.677,0.3422 1.817,0.2722 0.4056,-0.2025 -0.2617,-0.8314 -1.2396,-1.1673 -0.8017,-0.2758 -1.9599,-1.2111 -1.1978,-0.9674 0.1679,0.053 0.7163,-0.4117 1.219,-1.0343 l 0.9137,-1.1318 0.1151,1.6228 c 0.063,0.8923 0.304,1.8829 0.5356,2.2011 0.3911,0.5376 0.3826,0.5863 -0.1155,0.6864 -0.8107,0.1627 -0.8927,0.8176 -0.1342,1.071 1.7451,0.5829 6.6579,0.061 11.4723,-1.2187 2.9529,-0.7849 3.0728,-0.7914 3.6452,-0.2026 0.3254,0.3349 1.0861,0.8567 1.6905,1.1597 1.5164,0.7601 2.5176,0.5061 5.3245,-1.3519 4.1007,-2.7144 10.1444,-5.6444 16.6143,-8.0542 0.2327,-0.0866 0.432,-0.4298 0.4598,-0.7923 0.081,-1.0591 1.8477,-3.4953 4.6051,-6.3513 2.4044,-2.4904 2.5793,-2.7356 2.2683,-3.1739 -0.4682,-0.66 -0.609,-0.6783 -2.4325,-0.3137 -2.2311,0.446 -3.3097,1.0549 -7.0791,3.9938 -2.9826,2.3255 -3.9271,2.8688 -3.675,2.1141 0.05,-0.1502 1.1685,-1.7391 2.4844,-3.5306 1.3161,-1.7916 3.1121,-4.2391 3.9916,-5.4392 0.8795,-1.2001 2.6751,-3.327 3.9905,-4.7263 1.3154,-1.3992 2.4436,-2.6985 2.5067,-2.8875 0.1626,-0.4867 3.0174,-3.3967 3.4269,-3.4931 0.187,-0.044 0.4259,-0.3393 0.5315,-0.6553 0.1056,-0.3161 0.8274,-1.4937 1.6037,-2.6173 1.5608,-2.2594 1.6307,-2.8804 0.3539,-3.1465 -0.5268,-0.1098 -1.2028,0.2597 -2.9375,1.6065 -1.3655,1.0602 -2.4259,1.6914 -2.6919,1.6025 -0.5007,-0.1672 -2.1724,0.264 -4.6707,1.2052 -0.9454,0.3562 -2.5238,0.846 -3.5081,1.0883 -0.9843,0.2424 -2.2865,0.6735 -2.8941,0.9581 l -1.1052,0.5172 0.5729,-1.2255 c 0.3149,-0.6739 0.68,-1.4142 0.8113,-1.6454 0.1313,-0.2312 0.1544,-0.521 0.052,-0.6443 -0.4324,-0.5188 -1.3105,-0.1485 -3.1387,1.3228 -1.0675,0.8591 -2.7378,2.0698 -3.712,2.6911 -0.9742,0.6212 -2.1481,1.5358 -2.6081,2.0324 l -0.836,0.9032 -1.3941,-1.1803 c -0.7667,-0.649 -1.5464,-1.4415 -1.7332,-1.7613 -0.4953,-0.8479 -4.3369,-1.9861 -6.6828,-1.9801 -1.7054,0.004 -1.7815,-0.0181 -2.1291,-0.6304 -0.466,-0.8212 -1.4411,-4.0509 -1.7754,-5.8807 -0.1437,-0.7863 -0.397,-1.965 -0.5629,-2.6187 -0.6699,-2.6399 -3.3733,-20.4227 -3.1887,-20.9753 0.03,-0.0889 -0.1487,-1.8209 -0.3963,-3.8487 -0.5605,-4.5918 -0.557,-3.5611 -0.047,-15.4205 0.1903,-4.4232 -0.3878,-9.89 -1.4428,-13.6489 -0.4984,-1.776 -1.7565,-5.981 -2.7959,-9.3442 -3.0842,-9.9795 -3.1624,-10.3934 -2.5155,-13.2957 0.3019,-1.3548 0.7648,-3.485 1.0286,-4.7335 0.2639,-1.2485 0.7888,-3.1991 1.167,-4.3352 0.4381,-1.3168 0.6225,-2.2921 0.5076,-2.69 -0.1163,-0.4032 0.2417,-2.254 1.0115,-5.2296 0.6553,-2.533 1.4954,-5.8546 1.8662,-7.3818 0.3708,-1.5273 1.1083,-4.4763 1.639,-6.5533 0.5308,-2.0769 1.0958,-4.5258 1.2556,-5.442 0.1598,-0.9161 0.6374,-3.1582 1.062,-4.9821 0.9553,-4.1053 1.3186,-8.279 0.9239,-10.6157 -0.5154,-3.0512 -2.5021,-6.0975 -5.2104,-7.9882 -0.5419,-0.3783 -0.9492,-0.7963 -0.9049,-0.929 0.4729,-1.4158 -3.06,-5.1513 -6.3939,-6.7604 -0.4925,-0.2378 -1.2969,-0.6954 -1.7875,-1.0164 -0.4905,-0.321 -1.4008,-0.7924 -2.0231,-1.0479 -1.4967,-0.6145 -6.4614,-1.8904 -8.7297,-2.2433 -1.673,-0.2602 -1.8606,-0.3448 -2.5174,-1.1329 -0.3904,-0.4684 -1.2444,-1.9944 -1.8975,-3.3913 -1.1016,-2.3563 -1.1603,-2.6213 -0.8107,-3.668 0.4981,-1.4912 2.5194,-5.0885 3.0415,-5.4129 0.2267,-0.141 0.6841,-1.0174 1.0163,-1.9478 0.3322,-0.9303 1.2784,-2.8814 2.1028,-4.3359 0.8244,-1.4544 2.296,-4.1152 3.2703,-5.9126 1.9984,-3.6872 3.1581,-5.4409 4.7577,-7.1973 0.6062,-0.6655 1.0695,-1.2745 1.0299,-1.3539 -0.04,-0.0794 1.2143,-1.4139 2.7872,-2.9651 6.714,-6.6215 11.7018,-12.9758 15.4171,-19.6407 2.2116,-3.9673 5.0441,-10.4482 5.4518,-12.4746 0.9482,-4.7126 3.2715,-9.7392 6.4114,-13.8696 2.1447,-2.8214 5.5101,-6.0025 5.7794,-5.4629 0.047,0.0935 -0.3487,0.9434 -0.8785,1.8891 -0.5299,0.9457 -0.9216,1.8036 -0.8705,1.906 0.1794,0.3594 0.873,0.4421 1.4795,0.1763 0.4877,-0.2138 0.5896,-0.1946 0.4988,0.0948 -0.063,0.2 0.3457,0.9659 0.9078,1.7021 0.5621,0.7362 1.8247,2.8566 2.8054,4.7122 l 1.7826,3.3736 -0.5187,1.4853 c -1.0315,2.9541 0.2564,6.885 2.7687,8.4525 2.3489,1.4655 5.7977,1.7141 8.619,0.6209 2.4541,-0.9509 4.7629,-3.9533 5.0272,-6.5374 0.1782,-1.7432 -0.9015,-4.938 -2.2406,-6.6292 l -1.0267,-1.2959 0.5198,-1.2562 c 0.2856,-0.6909 0.6066,-1.4845 0.7137,-1.7633 0.107,-0.2788 0.2782,-1.379 0.3807,-2.4455 0.1025,-1.0665 0.2758,-2.7941 0.3846,-3.8386 0.4263,-4.0893 -0.1964,-9.1257 -1.6749,-13.5455 -0.5792,-1.7315 -2.5184,-5.0228 -3.6186,-6.1423 -1.4263,-1.4512 -3.5477,-2.7016 -5.8669,-3.5141 l -10e-5,5e-4 z m -3.4592,7.4182 0.086,1.0813 c 0.1058,1.3343 0.4234,1.751 1.0148,1.3314 0.7034,-0.4991 0.8109,-0.2982 0.4382,0.8177 -0.2999,0.8978 -0.2691,1.0537 0.2399,1.2237 0.3208,0.1072 1.1177,0.0441 1.7711,-0.1398 l 1.1882,-0.3345 0.012,0.9091 c 0.016,1.2128 1.0067,2.0742 2.8174,2.4497 l 1.3663,0.2832 -0.5555,0.7191 c -0.888,1.1495 -1.1338,3.465 -0.7427,6.9915 0.1397,1.2585 0.2574,3.6141 0.2618,5.2342 0.01,2.7105 -0.035,2.9597 -0.529,3.1236 -0.6949,0.2303 -1.0005,0.1213 -0.6964,-0.2481 0.4143,-0.5032 0.115,-2.3262 -0.5761,-3.5115 -0.5133,-0.8804 -0.8284,-1.1547 -1.3967,-1.2153 -0.6306,-0.0672 -0.7605,-0.232 -0.9236,-1.173 -0.2374,-1.3693 -1.2559,-3.3772 -1.9344,-3.8127 -0.4193,-0.269 -0.4493,-0.4994 -0.162,-1.2577 0.8349,-2.2039 1.1151,-3.6338 0.8503,-4.3408 -0.3765,-1.0057 -1.1228,-0.9675 -3.4133,0.176 -1.0213,0.5098 -1.9022,0.912 -1.9576,0.8935 -0.055,-0.0185 -0.065,-0.633 -0.023,-1.3657 0.043,-0.7326 0.041,-1.5818 0,-1.8873 -0.078,-0.5328 -0.1031,-0.539 -0.6213,-0.1552 -0.2973,0.2201 -0.7932,0.9353 -1.1021,1.5896 -0.8947,1.8948 -0.9692,1.9451 -1.4756,1.0055 -0.4171,-0.7742 -0.4994,-0.8173 -1.2653,-0.6708 -1.1779,0.2254 -1.8065,0.9759 -2.4699,2.9476 -0.4739,1.4084 -0.7176,1.801 -1.2941,2.0889 -0.6611,0.3301 -0.743,0.3126 -1.1927,-0.257 -0.4582,-0.5802 -0.5162,-0.5856 -1.1272,-0.1032 -0.5958,0.4704 -0.6243,0.5538 -0.3793,1.1125 0.1472,0.3357 0.1195,1.0386 -0.062,1.5822 -0.2749,0.8232 -0.5615,1.0861 -1.8093,1.6602 -0.8155,0.3753 -1.8697,0.8106 -2.3427,0.9672 -1.2069,0.3992 -1.8887,1.8547 -1.7177,3.6666 l 0.129,1.3663 -1.0442,-0.0329 c -1.31,-0.041 -3.2796,0.5091 -4.2482,1.1861 -1.3999,0.9785 -1.9367,2.9059 -1.5345,5.513 0.1322,0.8571 -3.1245,-1.8946 -4.4106,-3.7268 -1.9441,-2.7696 -3.2842,-6.8532 -3.2413,-9.8774 0.035,-2.4671 0.308,-3.7879 0.7524,-3.6395 0.195,0.0651 0.387,0.2583 0.4272,0.429 0.04,0.1707 0.3186,0.392 0.6187,0.4922 0.6746,0.2254 3.4985,-1.2628 3.734,-1.9678 0.1289,-0.386 0.2607,-0.4236 0.5535,-0.1581 0.2112,0.1914 0.7971,0.5427 1.3022,0.7806 1.1178,0.5265 2.8208,0.2092 3.7555,-0.6993 0.8979,-0.8727 1.7324,-3.4982 1.8477,-5.8142 0.08,-1.6022 0.1946,-2.0775 0.5937,-2.4545 l 0.4952,-0.4671 0.338,0.7641 c 0.186,0.4203 0.3857,1.0692 0.4434,1.4422 0.058,0.3731 0.2663,0.7325 0.464,0.7986 0.515,0.172 1.0451,-0.6713 1.5967,-2.5403 l 0.4801,-1.6268 0.7998,0.2672 c 0.4398,0.1469 1.1873,0.6612 1.6611,1.1434 1.382,1.4063 1.7976,1.3311 3.769,-0.6839 l 1.7365,-1.775 0.5631,0.7147 c 0.3097,0.3933 0.6524,1.0155 0.7614,1.3824 0.2478,0.8344 0.8657,0.8316 1.7298,-0.008 0.4819,-0.4685 0.7057,-0.5363 0.8463,-0.2549 0.5063,1.0141 2.228,0.5861 3.7936,-0.9432 l 1.0147,-0.9914 -10e-5,-2e-4 z m -90.5078,-28.6137 c 0.4028,0.1273 0.838,0.2817 1.3157,0.4614 4.4556,1.6765 7.0327,4.1207 9.6173,9.1203 1.639,3.1704 2.6446,6.2535 3.2661,10.0123 l 0.5308,3.2081 -2.7389,1.1973 c -3.4439,1.5054 -6.8779,3.5602 -8.8866,5.3181 -2.6079,2.2822 -6.2709,6.8386 -6.8276,8.4925 -0.3432,1.0187 -0.7619,0.9665 -0.6812,-0.0847 0.1071,-1.3956 -0.594,-6.2343 -1.1526,-7.9542 -0.7073,-2.1768 -3.4065,-7.1909 -4.6159,-8.5745 -1.2745,-1.458 -3.6307,-2.2946 -5.1096,-1.814 -0.7778,0.2529 -1.2626,0.2176 -2.1869,-0.1587 l -1.187,-0.4831 0.6398,-1.7879 c 1.6462,-4.5975 7.2266,-12.351 10.8446,-15.0682 3.1184,-2.3419 4.3521,-2.7763 7.172,-1.8849 l 0,2e-4 z m 25.4146,23.6897 c 0.037,0.0082 0.059,0.0188 0.066,0.0317 0.038,0.0759 -0.5013,0.703 -1.1981,1.3934 -1.736,1.7198 -3.5781,3.7407 -4.1691,4.5743 -2.9198,4.117 -6.498,13.3822 -6.6996,17.3475 -0.059,1.1596 -0.1243,2.2913 -0.1447,2.5147 -0.043,0.4726 -4.3666,-0.0393 -9.9437,-1.1775 -3.1801,-0.6491 -5.2833,-1.2848 -7.32,-2.2123 -0.9013,-0.4105 -0.9101,-0.4372 -0.6304,-1.8304 0.6507,-3.2424 4.083,-8.9919 7.2638,-12.1679 2.0585,-2.0554 5.4147,-4.3954 8.4199,-5.8706 2.0699,-1.0161 3.1851,-1.3403 6.1181,-1.7763 3.8199,-0.5677 7.6853,-0.9501 8.238,-0.8265 l 10e-5,-1e-4 z m 22.6391,7.7905 1.0439,1.0665 c 1.1481,1.1732 2.637,1.674 3.6565,1.2296 0.3077,-0.1341 0.9045,-0.2172 1.326,-0.1844 0.9042,0.0705 0.8756,0.2976 -0.2343,1.8698 -1.0294,1.4584 -2.6397,6.6505 -2.7359,8.8216 -0.04,0.9037 -0.1702,1.7243 -0.2894,1.8236 -0.1191,0.0993 -1.1067,-0.1618 -2.1949,-0.58 -1.7427,-0.6698 -2.0793,-0.901 -2.8252,-1.9426 -2.012,-2.8092 -3.8855,-2.6156 -5.2909,0.5472 -0.6618,1.4892 -0.7306,1.5572 -1.3081,1.2894 -0.8781,-0.4071 -1.525,-1.3281 -1.7839,-2.5394 -0.1241,-0.5803 -0.3019,-1.0781 -0.3946,-1.1068 -0.5201,-0.1603 -1.0862,0.2873 -1.6526,1.3068 -0.3513,0.6326 -0.822,1.2637 -1.0454,1.4024 -0.4374,0.2717 -1.3712,0.0527 -1.701,-0.3989 -0.5133,-0.7028 -0.8232,-2.2129 -0.5947,-2.8967 0.3015,-0.9029 0.1725,-1.8904 -0.2641,-2.0221 -0.4943,-0.149 -1.9364,0.5263 -2.918,1.3662 -0.4919,0.4209 -1.5428,1.0391 -2.3359,1.3739 -0.7931,0.3348 -2.1207,0.729 -2.9503,0.8766 -1.4236,0.2533 -1.523,0.236 -1.7583,-0.3108 -0.3168,-0.7363 -0.2094,-2.4769 0.2781,-4.5157 0.4328,-1.8094 2.2613,-4.9691 3.8233,-6.6067 1.1892,-1.2467 2.5879,-1.7348 3.1791,-1.1091 0.77,0.8149 1.9142,0.984 3.1475,0.4653 l 1.1734,-0.4938 0.9493,1.5434 c 0.9124,1.4835 0.9798,1.5371 1.7543,1.3865 0.6885,-0.1339 0.8723,-0.3399 1.2665,-1.4183 0.2536,-0.6939 0.5157,-1.3816 0.5824,-1.5287 0.069,-0.1528 0.4354,-0.1088 0.8551,0.1035 0.4368,0.2208 1.0559,0.2866 1.5281,0.1621 0.751,-0.1979 0.821,-0.1685 1.2875,0.5405 0.8554,1.3004 3.0434,1.6346 5.4076,0.8268 l 1.0188,-0.3479 10e-5,2e-4 z m 52.6075,22.4349 c 0.8012,0.2731 1.1623,0.5708 1.8924,1.3544 1.3437,1.4424 2.9608,5.3228 2.7762,6.6621 -0.2244,1.6289 -1.2142,3.565 -2.2153,4.3346 -1.0614,0.8157 -3.1904,1.4395 -5.0203,1.4703 -1.7034,0.0287 -4.1807,-0.8452 -5.2646,-1.8566 -1.107,-1.033 -1.8547,-2.582 -2.1225,-4.3963 -0.3851,-2.608 1.1018,-5.4892 3.7675,-7.3006 1.3356,-0.9076 3.1114,-1.0951 5.2091,-0.5499 0.3948,0.1026 0.7106,0.191 0.9777,0.282 l -2e-4,0 z M 1596.6816,96.5153 c 1.4686,0.5242 1.8436,1.2143 2.0577,2.8725 0.1499,1.1595 0.085,1.415 -0.8121,3.1937 -1.3718,2.7201 -2.9979,4.1573 -5.5305,4.8897 -2.0857,0.6031 -2.8529,0.3295 -3.7781,-1.3492 -1.2941,-2.348 -1.287,-4.4882 0.023,-6.7777 0.2361,-0.4125 0.589,-0.6968 0.7835,-0.6318 0.1945,0.065 0.4114,-0.0557 0.4823,-0.268 0.2058,-0.6161 0.2821,-0.7311 0.7755,-1.1708 0.2568,-0.2288 0.5218,-0.5779 0.5894,-0.7761 0.1702,-0.4986 2.199,-0.7739 3.5416,-0.4809 0.7672,0.1676 1.3779,0.3237 1.8674,0.4984 l 10e-5,2e-4 z m 68.3803,32.6304 c 0.5055,0.16 0.4849,0.4691 0.2986,1.0424 -0.087,0.2665 -0.1361,1.386 -0.1099,2.4876 0.049,2.0397 0,3.1936 -0.4611,10.3658 -0.2687,4.204 -0.3316,11.1035 -0.1405,15.3923 0.159,3.5692 -0.1929,4.9334 -1.9606,7.5952 -2.7498,4.1409 -4.6605,6.1094 -11.0317,11.3668 -3.8373,3.1665 -4.8928,3.8802 -8.3049,5.615 -2.5037,1.273 -4.5959,2.0407 -13.7566,5.0481 -1.2363,0.4059 -2.875,0.7922 -3.6413,0.8584 -1.6513,0.1426 -3.4526,-0.1827 -4.2513,-0.7681 -1.7906,-1.3124 -3.7698,-4.0621 -7.9093,-10.9901 -2.1151,-3.5399 -3.0766,-5.5808 -4.6231,-9.8084 -1.6514,-4.5148 -1.9399,-5.6007 -2.0819,-7.8297 -0.152,-2.3858 0.1884,-4.5406 0.9834,-6.221 l 0.6262,-1.3234 0.2119,1.4605 c 0.2861,1.9706 0.8686,3.1249 2.2725,4.5065 1.5482,1.5235 3.1557,2.0546 5.6859,1.8778 1.7795,-0.1243 1.9098,-0.0982 2.0092,0.4049 0.2274,1.1522 1.4198,3.0808 2.4035,3.888 1.0704,0.8783 1.7807,0.9518 1.1929,0.1232 -0.1853,-0.2612 -0.2512,-0.5178 -0.1469,-0.5699 0.1044,-0.0521 -0.043,-0.7736 -0.3269,-1.6036 -0.5537,-1.6185 -0.5104,-2.0346 0.3247,-3.1156 0.4029,-0.5215 0.918,-0.733 2.0714,-0.851 1.8671,-0.1912 4.5135,0.6199 9.3255,2.8583 5.2894,2.4605 10.0848,3.1854 14.9706,2.2636 3.7823,-0.7136 6.7441,-2.4057 8.4198,-4.8097 0.8049,-1.1549 2.6196,-5.3818 2.5384,-5.913 -0.04,-0.261 0.2806,-1.7714 0.7123,-3.3571 1.0127,-3.7203 1.4511,-7.5328 1.0958,-9.5342 -0.4206,-2.3688 -1.7869,-5.1357 -2.6834,-5.4351 -1.5504,-0.5179 -7.1029,-0.5492 -10.8798,-0.0618 -3.6625,0.4727 -4.124,0.6115 -7.8601,2.3703 -2.183,1.0277 -5.0442,2.6262 -6.3584,3.5522 -2.8264,1.9914 -5.7038,3.3813 -7.2716,3.512 -0.6206,0.0517 -1.3579,0.1274 -1.6384,0.1679 -0.3817,0.0552 -1.1054,-0.6849 -2.8771,-2.9419 -2.9908,-3.8098 -3.9037,-4.8336 -5.6151,-6.2987 -1.7777,-1.5218 -4.5561,-3.2071 -5.393,-3.2712 -0.4813,-0.0369 -0.6516,-0.1871 -0.6421,-0.5672 0.01,-0.2845 -0.094,-1.9078 -0.2243,-3.6073 -0.3755,-4.8845 -0.6199,-4.4875 2.1849,-3.5506 4.0948,1.3677 5.9389,1.6819 21.1796,3.6085 12.5899,1.5915 19.1331,2.0362 28.2274,1.9175 1.9181,-0.025 2.9498,-0.0145 3.4553,0.1456 l -5e-4,2e-4 z m -14.0443,16.2699 c 0.2891,0.1024 0.6214,0.2418 1.0426,0.4245 0.9958,0.4318 1.7835,0.8655 1.7506,0.9639 -0.033,0.0985 -0.7407,0.1092 -1.5728,0.0239 -0.8321,-0.0853 -2.878,0.0268 -4.5465,0.2491 -2.2053,0.2938 -3.64,0.6874 -5.254,1.4426 l -2.22,1.0392 1.0047,-0.9424 c 1.5453,-1.4497 4.9148,-3.0173 7.1097,-3.3077 1.3376,-0.1769 1.8184,-0.2006 2.6857,0.1069 z m 4.524,3.2574 c 0.1847,0.0476 0.1142,0.1715 -0.103,0.4748 -0.2016,0.2815 -0.635,0.7763 -0.9629,1.0992 -0.7341,0.7231 -0.9023,0.6916 -0.6322,-0.1169 0.1142,-0.342 0.1994,-0.8126 0.1891,-1.0461 -0.013,-0.2865 0.272,-0.4282 0.8764,-0.436 0.3185,-0.004 0.5217,-0.003 0.6325,0.0252 l 10e-5,-2e-4 z m -2.8495,0.1033 c 0.025,0.0111 0.04,0.0234 0.046,0.0361 0.044,0.0879 0.063,0.5522 0.043,1.0318 -0.03,0.7028 -0.2468,1.0757 -1.117,1.9239 -0.5935,0.5786 -1.4015,1.0855 -1.796,1.1271 -0.3943,0.0417 -1.224,-0.0935 -1.8437,-0.3005 -0.9108,-0.3042 -1.1852,-0.5402 -1.4331,-1.232 -0.1687,-0.4707 -0.2576,-1.0046 -0.197,-1.1861 0.061,-0.1815 0.1013,-0.5369 0.09,-0.7905 -0.015,-0.3462 0.3733,-0.497 1.5602,-0.605 1.9363,-0.1764 4.2792,-0.1727 4.6476,-0.005 l 2e-4,-1e-4 z m -7.3899,0.6221 c 0.071,0.0238 0.073,0.4589 0,0.9668 -0.1273,0.9239 0.3475,2.3556 0.9482,2.8616 0.522,0.4397 -0.3872,0.5742 -2.487,0.3679 -1.9492,-0.1915 -5.2726,-1.165 -5.1572,-1.5106 0.1561,-0.4672 6.1431,-2.8695 6.6933,-2.6857 z m -31.9541,-9.6259 c 0.061,0.0176 0.1301,0.0406 0.207,0.0691 0.088,0.0322 0.1872,0.0712 0.2991,0.1161 0.8858,0.3548 4.2663,3.2766 4.1598,3.5953 -0.061,0.1836 -0.7043,-0.0224 -0.8251,-0.2646 -0.05,-0.0998 -1.1496,-0.6285 -2.4437,-1.1742 l -2.3525,-0.9919 0.2576,-0.7713 c 0.1867,-0.5591 0.2681,-0.7027 0.6978,-0.5784 l 0,-1e-4 z m -0.6389,4.1717 0.8471,0.2861 c 0.4661,0.1574 1.2576,0.5028 1.7587,0.7677 0.8006,0.4231 0.8825,0.5693 0.6708,1.203 -0.3416,1.0226 -0.2479,2.2029 0.2608,3.2852 0.467,0.9933 0.3126,1.0482 -0.5885,0.2086 -0.95,-0.8852 -2.1287,-2.9015 -2.5484,-4.3595 l -0.4005,-1.3911 z m 4.3139,2.0127 c 0.382,0.1276 2.7056,2.104 3.3494,2.849 l 0.8015,0.9275 -0.7343,0.2755 c -0.436,0.1633 -1.1515,0.1355 -1.7606,-0.0679 -0.824,-0.2753 -1.141,-0.5723 -1.6087,-1.5091 -0.3637,-0.7285 -0.4988,-1.4178 -0.3593,-1.8354 0.1229,-0.3678 0.2633,-0.6558 0.3118,-0.6396 l 2e-4,0 z m 4.7163,4.1533 c 0.1693,0.054 0.3404,0.2374 0.3806,0.4081 0.091,0.3853 0,0.3557 -0.3853,-0.1287 -0.1818,-0.2272 -0.18,-0.3385 0,-0.2794 l -10e-5,0 z m 25.6327,18.6479 c -0.1432,-0.037 -0.2868,-0.0399 -0.3976,4e-4 -0.2214,0.0805 -1.0901,0.085 -1.93,0.01 -1.6951,-0.1516 -2.9325,0.1505 -1.9548,0.4771 0.304,0.1015 0.9058,0.1702 1.3369,0.1526 1.1441,-0.047 1.0929,0.2045 -0.2164,1.0597 -1.2896,0.8423 -0.4932,0.8206 -17.9031,0.4805 -8.4329,-0.1649 -8.865,-0.142 -8.8383,0.4631 0.024,0.5521 0.6087,1.2119 1.268,1.4321 0.264,0.0882 0.7433,0.409 1.065,0.713 0.4841,0.4575 0.5288,0.7214 0.2601,1.531 -0.5242,1.5803 0.032,3.5181 1.3222,4.6089 1.6644,1.4071 5.8371,1.8156 9.0588,0.8865 2.5991,-0.7495 7.4364,-3.0848 8.2739,-3.994 0.4143,-0.4498 1.3865,-1.2827 2.1605,-1.8511 1.3961,-1.0254 2.9867,-2.2376 5.0938,-3.8822 0.7064,-0.5513 1.3692,-0.8259 1.8658,-0.773 0.6972,0.0741 1.0977,-0.4118 0.542,-0.6576 -0.1256,-0.0556 -0.4025,-0.2594 -0.6151,-0.4524 -0.1064,-0.0965 -0.2487,-0.1674 -0.3917,-0.2045 l 0,1e-4 z m 38.4501,13.3954 c -0.014,0.0139 -0.029,0.0278 -0.044,0.0416 -0.042,0.0623 -0.077,0.1169 -0.128,0.1918 -0.019,0.0283 -0.026,0.0388 -0.044,0.0653 0.031,-0.0191 0.061,-0.039 0.092,-0.0584 8e-4,-0.003 2e-4,-0.006 9e-4,-0.009 0.024,-0.0905 0.076,-0.162 0.1443,-0.2232 -0.01,-0.003 -0.014,-0.006 -0.021,-0.008 l 10e-5,10e-5 z m -0.3002,0.4231 c -0.01,0.011 -0.013,0.02 -0.021,0.0307 0.01,-0.007 0.019,-0.0152 0.029,-0.0221 0,-0.003 -0.01,-0.006 -0.01,-0.009 z m -65.2525,-21.3825 0.4152,0.6834 c 0.2283,0.3759 0.4019,0.7236 0.3856,0.7724 -0.069,0.2058 -0.2254,-0.0154 -0.5042,-0.7131 l -0.2966,-0.7427 z m 3.6715,13.6728 c 0.3854,0.1079 0.6849,0.3023 0.7353,0.5163 0.087,0.3689 -0.7494,1.198 -1.4537,1.4411 -0.282,0.0974 -0.5819,0.1579 -0.6659,0.1349 -0.6306,-0.1731 -0.057,-2.149 0.6323,-2.1794 0.2584,-0.0113 0.5208,0.0223 0.752,0.0871 z m 58.1824,23.2873 c 0,-0.008 -0.031,-0.003 -0.087,0.0314 -0.034,0.0207 -0.066,0.0444 -0.099,0.0671 0.1122,-0.009 0.195,-0.0817 0.1867,-0.0985 z m -33.1293,-6.3511 c 1.1612,0.3879 1.3336,0.5239 1.1941,0.9416 -0.1184,0.3544 -0.7913,0.5675 -2.4581,0.7786 -1.2623,0.16 -2.606,0.3037 -2.9863,0.3193 -1.0238,0.042 -1.0152,0.8859 0.014,1.4062 0.4587,0.2318 0.8331,0.5954 0.8324,0.8078 0,0.5824 -3.3719,2.03 -6.3122,2.7115 -1.4346,0.3325 -3.1423,0.8622 -3.7949,1.1773 -0.6526,0.3152 -1.6941,0.6857 -2.3142,0.8235 -0.6201,0.1378 -1.2427,0.3915 -1.384,0.5631 -0.1413,0.1716 -0.7194,0.3232 -1.2847,0.3372 -1.2409,0.0305 -1.4362,0.346 -0.4237,0.6842 1.3618,0.4548 12.4345,-0.5947 15.417,-1.4615 l 0.8229,-0.2394 1.2947,2.697 c 0.7121,1.4833 1.5712,3.0153 1.9087,3.4042 0.3376,0.3889 0.5915,0.768 0.5648,0.8431 -0.027,0.075 -0.8164,0.2255 -1.7552,0.3338 -2.7613,0.3184 -5.076,1.2214 -6.7502,2.6337 -2.2647,1.9105 -3.1432,3.3056 -4.3447,6.9029 -0.8681,2.5989 -1.0162,3.3475 -0.9384,4.7378 0.091,1.6222 0.5622,3.4356 0.855,3.2894 0.082,-0.041 0.1315,-1.0283 0.1101,-2.1943 -0.028,-1.5222 0.1429,-2.704 0.6055,-4.1919 0.5722,-1.8404 0.7966,-2.2294 2.0084,-3.4752 1.5467,-1.59 2.3181,-2.0705 4.6683,-2.9078 2.4064,-0.8575 7.2191,-0.9215 11.6838,-0.1557 1.9127,0.3281 2.065,0.6624 0.6382,1.4027 -0.7692,0.3992 -1.033,0.6783 -0.9546,1.0108 0.092,0.3926 0.2476,0.4512 1.0693,0.4024 3.3521,-0.199 4.2952,-0.1222 6.7029,0.5467 3.1283,0.8692 3.3138,0.5967 0.963,-1.417 -0.5107,-0.4375 -0.4693,-0.4491 0.5117,-0.1393 2.4133,0.7624 5.9075,3.4034 5.0618,3.8255 -0.111,0.0554 -1.436,-0.179 -2.9448,-0.5205 -1.5089,-0.3413 -3.4286,-0.596 -4.2657,-0.5662 -1.9219,0.0686 -4.8455,1.0084 -6.5057,2.0913 -0.7038,0.459 -1.6939,1.0154 -2.2001,1.2364 -0.5063,0.2209 -0.9699,0.5496 -1.0303,0.7303 -0.1386,0.4148 -0.3576,0.3382 -1.0312,-0.3599 -0.9018,-0.9349 -1.5669,-1.2783 -1.7005,-0.8782 -0.067,0.199 0.861,1.3359 2.0794,2.5489 4.2887,4.27 4.7274,5.7905 2.4983,8.6607 -0.523,0.6733 -1.5071,1.6435 -2.1867,2.1557 -1.5626,1.1776 -5.6632,3.3868 -6.048,3.2586 -0.5883,-0.1962 -3.8934,0.3613 -4.6187,0.7788 -1.5425,0.8878 -2.8896,2.3338 -3.5707,3.8327 l -0.68,1.4961 -3.837,-1.0277 c -4.3462,-1.1644 -6.9068,-2.0181 -7.8386,-2.6131 -0.9407,-0.6005 -2.0619,-2.7756 -2.3152,-4.491 -0.3441,-2.3289 0.1764,-3.9632 2.2997,-7.2216 0.9945,-1.5261 1.8845,-3.0036 1.9781,-3.2836 0.094,-0.2802 -0.034,-0.8819 -0.283,-1.337 -0.4101,-0.7488 -0.6552,-0.8884 -2.5833,-1.4676 -1.6894,-0.5075 -2.4417,-0.5923 -3.6363,-0.4102 -2.7735,0.4227 -9.5017,1.9498 -10.8612,2.465 -1.3103,0.4966 -1.3666,0.5588 -2.1968,2.4547 -1.1271,2.5741 -2.119,3.6014 -4.8581,5.0296 -2.1886,1.1411 -7.1425,2.4642 -9.4057,2.5118 -0.4751,0.01 -1.0743,0.0151 -1.3321,0.0111 -0.2577,-0.004 -0.8109,-0.3694 -1.2289,-0.8123 -0.4181,-0.443 -1.1138,-0.9239 -1.5466,-1.0684 -1.0247,-0.3423 -3.5148,-3.4917 -4.9923,-6.3143 -1.7893,-3.4186 -1.7966,-5.9114 -0.023,-7.8207 1.0859,-1.1688 4.6013,-3.055 7.3902,-3.9655 1.225,-0.4 2.4263,-0.9145 2.6694,-1.1442 0.9395,-0.8878 0.099,-3.4828 -1.7553,-5.4224 -0.6539,-0.6838 -1.0957,-0.9119 -2.1954,-1.1319 -3.3297,-0.6661 -10.2258,-0.4307 -13.6322,0.4648 -2.4905,0.6548 -4.5871,0.505 -5.4308,-0.3879 -0.5815,-0.6155 -0.4975,-1.1856 0.3307,-2.2491 0.62,-0.7962 0.7734,-1.2083 0.8715,-2.3347 0.1486,-1.7046 -0.9049,-3.9867 -2.2902,-4.9621 -0.5213,-0.367 -0.9221,-0.7445 -0.8906,-0.8389 0.2644,-0.7914 4.6072,-1.5656 9.2067,-1.6414 1.9159,-0.0316 3.8183,-0.2014 4.2273,-0.377 0.4092,-0.1755 0.9512,-0.7181 1.204,-1.206 0.2528,-0.4878 0.6646,-1.2834 0.9154,-1.7676 0.9363,-1.8076 2.412,-1.8706 8.248,-0.3535 1.2299,0.3197 3.0674,0.789 4.0834,1.0427 1.0159,0.2539 4.1001,0.6502 6.8536,0.8807 2.7536,0.2305 6.2464,0.5577 7.7622,0.7274 1.5159,0.1697 2.9407,0.2386 3.166,0.1529 0.3132,-0.1191 0.3394,0.0536 0.1117,0.7351 -0.1636,0.49 -0.3135,1.453 -0.3328,2.1398 -0.057,2.0254 0.56,6.6876 0.9243,6.9874 0.4772,0.393 0.5689,-0.5765 0.4113,-4.3478 -0.1534,-3.673 0.1127,-4.7717 1.2267,-5.0653 1.0192,-0.2686 1.0859,-0.2258 0.833,0.5314 -0.149,0.4462 -0.074,0.69 0.2456,0.7966 0.253,0.0845 0.7215,0.8197 1.0411,1.6342 0.9007,2.2957 1.9031,2.2803 1.1099,-0.017 -0.8809,-2.5509 -0.8792,-2.6034 0.1159,-4.0091 0.6927,-0.9783 0.904,-1.1436 0.9237,-0.7227 0.021,0.4491 0.217,0.5826 1.1061,0.7527 0.5943,0.1136 1.3099,0.1179 1.5902,0.009 0.4573,-0.1776 0.4739,-0.2478 0.1632,-0.686 -0.1905,-0.2685 -0.5826,-0.573 -0.8717,-0.6768 -0.3493,-0.1255 -0.02,-0.268 0.9823,-0.4246 0.8295,-0.1295 2.0408,-0.4264 2.6918,-0.66 0.651,-0.2335 1.3905,-0.3554 1.6431,-0.271 0.2526,0.0844 0.8511,0.163 1.3299,0.1754 1.8965,0.049 5.1314,0.3079 6.2853,0.5029 0.6698,0.1132 2.1764,0.2249 3.3479,0.2486 2.2668,0.0459 5.7928,0.6665 8.0263,1.4125 l 2e-4,7e-4 z m -15.1847,-3.7546 c 0.08,0.0186 0.122,0.0672 0.122,0.1454 -2e-4,0.1811 -0.053,0.3516 -0.1183,0.3792 -0.065,0.0276 -0.4338,0.0324 -0.8193,0.01 l -0.7009,-0.041 0.8194,-0.3388 c 0.3248,-0.1342 0.5636,-0.1858 0.6971,-0.1548 z m 34.5716,13.0664 c -7e-4,0.001 0,0.003 0,0.004 0,-9e-4 0,-0.002 0,-0.003 -5e-4,-6e-4 -9e-4,-0.001 0,-0.002 l 0,1e-4 z m -26.4583,-8.5176 c -0.8777,-0.265 -2.5388,-0.4974 -4.8816,-0.6762 -2.6298,-0.2006 -3.9354,-0.4161 -4.3831,-0.7235 -0.4149,-0.2849 -0.8318,-0.376 -1.1929,-0.2609 -0.5225,0.1668 -0.5319,0.2034 -0.1578,0.6276 0.6973,0.791 2.5594,1.2169 6.1928,1.4159 1.9461,0.1065 3.8788,0.2348 4.2945,0.2849 0.4156,0.0502 0.7936,-0.0219 0.84,-0.1607 0.059,-0.1776 -0.1853,-0.3482 -0.7119,-0.5072 l 0,1e-4 z m 28.919,10.8457 c 0,0.002 0,0.004 0,0.005 0,0.008 -0.01,0.0159 -0.01,0.0239 0,-0.008 0.01,-0.0195 0.012,-0.0289 l 0,-1e-4 z m 28.1988,15.4624 c -0.01,0.007 -0.022,0.0179 -0.029,0.0238 0.01,-0.004 0.028,-0.0185 0.033,-0.022 0,-5e-4 0,-10e-4 0,-0.002 z m -11.2031,-1.3029 c -7e-4,-2e-4 0,3e-4 0,0 0,8e-4 -10e-5,0.002 -10e-5,0.003 9e-4,-6e-4 0,-0.002 0,-0.002 l 2e-4,-4e-4 z m -90.2206,-20.3783 c -0.7909,-0.2501 -2.2597,-0.5315 -3.6601,-0.6597 -1.2646,-0.1159 -3.1549,-0.1549 -4.2,-0.0862 -3.9118,0.257 -8.5472,1.6228 -8.8789,2.616 -0.2477,0.7416 0.2666,0.7591 1.8189,0.0616 2.7879,-1.2528 6.8051,-1.7844 11.9065,-1.575 1.8209,0.0747 3.4155,0.084 3.5437,0.02 0.1753,-0.0875 -0.055,-0.2266 -0.5299,-0.3766 l -2e-4,-1e-4 z m 71.9313,24.3575 c 3.7694,1.2819 6.3311,4.5955 6.6439,8.898 0.104,1.4308 0.028,2.7419 -0.1963,3.3652 -0.3874,1.0784 -1.5053,8.7357 -1.4548,9.9654 0.016,0.3972 -0.1731,1.5521 -0.4206,2.5667 -0.2475,1.0146 -0.5491,2.5652 -0.6701,3.4454 -0.1211,0.8802 -0.296,1.851 -0.3891,2.1573 -0.093,0.3062 -0.6386,2.4588 -1.2115,4.7835 -0.5728,2.3247 -1.3794,5.4643 -1.7929,6.9774 -1.3433,4.9148 -1.9732,7.5382 -2.9536,12.3089 -0.393,1.9129 -0.8565,4.1379 -1.0301,4.9449 -0.3602,1.6742 -0.3737,2.7348 -0.037,2.8473 0.1273,0.0426 0.5264,1.4941 0.8871,3.2265 0.6311,3.0312 0.8409,4.1432 1.9125,10.1455 0.2687,1.505 0.5868,4.1848 0.7067,5.9547 l 0.2182,3.2175 -1.5723,4.1927 c -1.1463,3.0568 -1.9749,4.8516 -3.0596,6.6259 -1.0665,1.7447 -1.4289,2.5256 -1.2803,2.7576 0.1139,0.1782 0.996,1.103 1.9605,2.0556 3.7657,3.7194 5.7048,7.0842 5.5517,9.634 -0.2469,4.1114 0.1005,9.183 0.6411,9.3636 0.3887,0.1298 0.5052,1.1036 0.348,2.9042 -0.07,0.8022 -0.035,1.4892 0.078,1.5269 0.6799,0.2271 -0.06,6.0766 -1.6271,12.8702 -0.5438,2.3567 -0.7965,3.9995 -0.6579,4.2771 0.1238,0.248 0.9736,1.0298 1.8885,1.7375 0.9147,0.7077 3.1208,2.7636 4.9028,4.5684 1.782,1.8047 3.37,3.3289 3.5288,3.3876 0.1589,0.0587 0.5531,0.837 0.8763,1.729 0.323,0.892 0.7304,1.8503 0.9052,2.1296 0.2951,0.4712 0.2479,0.545 -0.6531,1.0268 -1.1943,0.6388 -3.94,1.434 -5.9469,1.7223 -1.9358,0.2781 -2.8017,0.256 -2.6931,-0.0693 0.047,-0.1415 -0.1211,-0.4078 -0.3739,-0.5921 -0.253,-0.1843 -0.4044,-0.501 -0.3367,-0.7037 0.068,-0.2027 -0.088,-0.439 -0.346,-0.5252 -0.258,-0.0861 -1.0354,-1.238 -1.7282,-2.5595 -0.6927,-1.3214 -1.7752,-3.2531 -2.4052,-4.2929 -2.4947,-4.1174 -7.1468,-13.8817 -6.9272,-14.5394 0.034,-0.103 -0.2502,-0.9854 -0.6321,-1.9607 -0.7416,-1.8942 -0.7005,-1.8773 1.0931,0.4491 1.6577,2.1503 1.8927,1.8992 1.937,-2.068 0.041,-3.662 0.4741,-7.1605 1.13,-9.1241 0.3851,-1.1529 0.3779,-1.411 -0.051,-1.8106 -0.6374,-0.5937 -2.738,-4.4076 -6.4083,-11.6344 -2.7421,-5.3991 -2.9266,-5.6856 -3.4374,-5.331 -0.2967,0.206 -0.6994,0.8435 -0.8943,1.4166 l -0.3546,1.042 -0.3908,-1.6367 c -0.3364,-1.4077 -0.618,-3.3849 -1.1603,-8.1517 -0.064,-0.5597 -0.4194,-1.5667 -0.7911,-2.2374 -1.3182,-2.3794 -5.0845,-13.478 -5.9222,-17.4516 -0.2282,-1.0828 -0.5227,-3.3654 -0.6536,-5.0725 -0.131,-1.7071 -0.2675,-3.3711 -0.3033,-3.6976 -0.083,-0.7585 0.025,-4.8415 0.1606,-6.0501 0.057,-0.5074 -0.073,-1.7339 -0.2899,-2.7259 -0.2732,-1.2514 -0.2863,-1.9515 -0.042,-2.2869 0.2568,-0.3524 0.1371,-1.6942 -0.4424,-4.9522 -0.4372,-2.4579 -1.3212,-8.3312 -1.9643,-13.0509 -1.0388,-7.625 -1.2327,-8.5849 -1.7427,-8.619 -0.3157,-0.021 -0.6781,0.0877 -0.8052,0.2422 -0.1271,0.1544 -0.055,1.5016 0.1599,2.9937 l 0.3906,2.7129 -1.053,1.4154 c -1.3036,1.7525 -3.4007,3.9191 -4.2697,4.4114 -0.3591,0.2033 -1.5717,1.2854 -2.6943,2.4042 -2.5152,2.5071 -5.3711,4.7974 -9.0958,7.2944 -3.821,2.5615 -7.411,5.1108 -7.654,5.4344 -0.1296,0.1724 -0.6401,-0.1815 -1.4733,-1.0212 -1.9777,-1.9935 -5.9179,-5.1458 -9.1287,-7.3025 -4.0032,-2.6888 -12.6299,-6.8465 -19.3817,-9.3412 -3.8623,-1.427 -5.146,-1.9935 -5.1585,-2.2767 -0.01,-0.2073 0.3423,-1.9035 0.7809,-3.7696 0.8655,-3.6814 2.7512,-8.7947 4.1079,-11.1396 l 0.8263,-1.429 2.1937,0.7094 c 1.3152,0.4253 2.4977,0.6555 2.953,0.5755 2.2079,-0.3878 3.9208,-1.5667 4.4389,-3.0549 0.3582,-1.0289 0.2577,-1.8155 -0.4172,-3.2659 l -0.5118,-1.1001 1.5324,0.5015 c 1.508,0.4939 3.2616,0.7414 6.4927,0.9165 3.4937,0.1894 6.05,-1.3287 7.7094,-4.5786 3.3019,-6.4668 4.8632,-8.0136 9.1539,-9.0678 2.5822,-0.6345 6.4686,-0.8596 6.7038,-0.3885 0.098,0.1954 0.5019,0.4636 0.8981,0.5959 0.3961,0.1323 0.69,0.3271 0.6528,0.4325 -0.037,0.1055 -0.7424,1.2527 -1.5667,2.5495 -0.8245,1.2968 -1.7391,3.077 -2.0328,3.9562 -1.0461,3.1319 -0.2414,6.9701 1.974,9.414 1.0097,1.1139 1.3488,1.3157 3.2184,1.9201 1.1494,0.3716 3.7102,1.0251 5.6905,1.4518 3.2371,0.6974 3.6131,0.8242 3.7251,1.2584 0.639,2.4774 1.7826,3.8078 3.8737,4.5063 3.0911,1.0324 7.2082,-0.048 8.6881,-2.2804 1.4225,-2.1458 1.0425,-5.3405 -0.8849,-7.4383 -0.4901,-0.5334 -0.8774,-1.0115 -0.8605,-1.062 0.017,-0.0507 1.0638,-0.711 2.3266,-1.4681 3.5205,-2.1107 5.5882,-4.4323 6.2746,-7.044 0.081,-0.3088 -0.086,-1.4202 -0.3728,-2.4699 -0.4933,-1.8074 -0.4888,-1.9574 0.091,-2.8323 1.2626,-1.9046 5.6113,-3.262 9.589,-2.9932 0.9857,0.0665 1.9198,0.2542 2.7897,0.5499 l -9e-4,2e-4 z m -56.0542,-14.7603 c -0.8843,-0.2954 -4.5494,3.0567 -7.5346,6.8912 -2.043,2.6244 -6.6723,7.8328 -8.349,9.3935 -1.1327,1.0542 -1.5351,1.7093 -1.664,2.707 -0.01,0.0639 0.3827,-0.0627 0.8693,-0.2814 1.948,-0.8754 10.7492,-10.8435 13.2859,-15.0474 0.5622,-0.9319 1.2289,-1.6063 2.1092,-2.1346 1.2409,-0.7447 1.7641,-1.3677 1.2832,-1.5283 z m -44.0694,-10.6177 c 1.6296,0.5562 3.4553,3.0173 3.3324,4.622 -0.101,1.318 -2.2592,3.2724 -4.1849,3.7897 -0.33,0.0887 -1.0241,0.2748 -1.542,0.4134 -1.2175,0.3257 -2.0299,0.0332 -3.048,-1.0976 -1.0953,-1.2164 -1.3276,-2.5232 -0.815,-4.5875 0.7227,-2.9103 2.464,-3.8565 5.9346,-3.2254 0.1062,0.0193 0.2144,0.0482 0.3229,0.0854 z m 78.3105,42.4348 c 0.2327,0.0736 0.4745,0.2179 0.791,0.4541 1.6592,1.2384 2.3226,3.0336 1.7521,4.7416 -0.654,1.958 -2.2905,3.1048 -5.0391,3.5308 -1.7004,0.2635 -4.5856,-0.3727 -5.3848,-1.1873 -1.1504,-1.1726 -0.4476,-4.3141 1.3454,-6.0149 1.6798,-1.5931 4.3492,-2.615 4.8258,-1.8474 0.1961,0.3159 0.4311,0.387 0.9743,0.2944 0.2793,-0.0476 0.5028,-0.045 0.7354,0.0286 l -1e-4,1e-4 z m -57.7941,-5.9183 c 0.7345,0.2641 1.1617,0.6049 1.996,1.4466 1.6461,1.6608 2.3998,3.3845 2.0011,4.578 -0.3684,1.1032 -2.0903,2.172 -3.7844,2.349 -1.384,0.1446 -4.0194,-0.6417 -4.7875,-1.4279 -1.7024,-1.7426 -0.9596,-5.7514 1.3173,-7.1103 0.68,-0.4058 1.0939,-0.4216 2.394,-0.0894 0.3396,0.0868 0.6187,0.1662 0.8636,0.2542 l -10e-5,-2e-4 z m 4.9785,12.4993 c -0.3443,-0.115 -0.6355,0.8203 -0.5095,1.6357 0.1618,1.0467 1.2384,4.1151 1.7394,4.9576 0.2518,0.4233 0.7138,1.2581 1.0273,1.855 0.5859,1.1153 2.6108,3.7548 2.976,3.8802 0.1126,0.0386 0.4538,0.3288 0.7588,0.645 0.5556,0.5757 3.3245,2.3013 4.9437,3.0805 0.4742,0.2282 2.9015,1.05 5.394,1.8268 4.3572,1.358 7.5393,1.9085 9.3963,1.6247 0.288,-0.044 1.0174,0.005 1.6208,0.1091 1.5183,0.2625 2.9814,0.0126 3.1663,-0.5409 0.2709,-0.8111 -1.1797,-7.5072 -1.6783,-7.7478 -0.079,-0.0379 -0.398,-0.2105 -0.71,-0.3832 -0.403,-0.2229 -1.141,-0.1199 -2.5487,0.355 -1.0898,0.3678 -2.929,0.7867 -4.0866,0.9306 -6.4997,0.8086 -15.3589,-3.8061 -20.0283,-10.4326 -0.6626,-0.9402 -1.3202,-1.7487 -1.4612,-1.7958 l 0,1e-4 z m 91.9594,122.016 c 1.4768,0.448 2.091,1.3578 2.7683,3.3721 0.2263,0.673 0.6114,1.1258 1.232,1.4472 0.4966,0.2572 1.3191,0.7603 1.8277,1.1183 0.9172,0.6457 0.9184,0.6502 0.1383,0.534 -1.0417,-0.1553 -1.7029,0.3802 -1.502,1.2162 0.1312,0.5458 0.025,0.6811 -0.848,1.0763 -0.9927,0.4495 -1.2074,0.6998 -1.49,1.739 -0.1482,0.5454 0.3423,2.7327 0.8964,3.9958 1.0395,2.3697 1.9144,4.7698 2.0405,5.5978 0.1903,1.25 -0.3961,3.0562 -1.0007,3.083 -0.6773,0.0298 -1.0133,-0.8078 -1.5503,-3.8621 -0.9855,-5.6051 -2.7015,-7.7467 -5.1503,-6.4272 -0.9591,0.5168 -1.3901,1.6705 -1.076,2.8808 0.1194,0.4602 0.9597,2.328 1.8673,4.1507 1.6538,3.3213 2.0236,5.0288 1.2836,5.9278 -0.6928,0.8414 -1.6795,-0.3851 -2.2151,-2.7539 -1.4418,-6.3768 -1.9945,-7.6285 -3.6065,-8.167 -0.8706,-0.2907 -2.3551,0.3819 -2.9639,1.3431 -0.6204,0.9794 -0.2839,2.9259 1.0179,5.8855 1.3623,3.097 1.6421,4.4741 1.271,6.2628 -0.2567,1.2378 -0.309,1.3008 -1.1974,1.4395 -0.5107,0.0797 -1.0439,0.1061 -1.1852,0.059 -0.6008,-0.2007 -1.0327,-2.5886 -1.0765,-5.9536 -0.026,-1.9838 -0.093,-3.9036 -0.149,-4.2661 -0.5442,-3.5237 -4.0062,-3.3068 -5.2199,0.3272 -0.5238,1.5682 -0.4729,2.8606 0.2698,6.7922 0.4538,2.4019 0.4916,3.2548 0.1858,4.208 -0.3531,1.1009 -0.4388,1.1835 -1.081,1.0488 -1.1133,-0.2336 -1.8327,-1.7199 -1.8282,-3.7785 0,-0.9777 0.2367,-3.5931 0.5215,-5.8113 0.5108,-3.9784 0.4646,-6.453 -0.1298,-6.9424 -0.5425,-0.4466 -1.3088,0.0538 -2.2124,1.4454 -1.3283,2.0457 -1.659,3.3768 -1.6573,6.6718 0,2.9741 -0.1511,4.0755 -0.5464,3.9434 -0.4061,-0.1356 -1.2559,-2.3051 -1.5468,-3.9481 -0.3607,-2.0372 -0.1908,-3.0454 1.3249,-7.8489 0.865,-2.741 1.1356,-3.9403 1.0058,-4.4562 -0.3416,-1.3579 -1.6425,-1.7164 -2.6037,-0.7179 -0.8788,0.9129 -2.13,4.3479 -2.5127,6.8979 -0.2767,1.8434 -0.3835,2.1828 -0.5683,1.8118 -0.4735,-0.9504 0.1792,-4.4133 1.4134,-7.4988 1.3348,-3.337 1.2971,-3.842 -0.3306,-4.3857 -0.887,-0.2963 -0.8973,-0.3179 -0.3445,-0.758 0.3132,-0.2492 1.0662,-0.5861 1.6735,-0.7488 0.7672,-0.2054 1.4994,-0.723 2.3996,-1.6963 0.7124,-0.7703 1.377,-1.3745 1.4775,-1.344 0.1005,0.0305 0.2909,0.4226 0.4242,0.8693 0.1333,0.4466 0.5724,1.6866 0.9758,2.7559 0.6415,1.7003 0.6651,1.9215 0.1886,1.7623 -0.2997,-0.1001 -0.6723,-0.0269 -0.8283,0.1627 -0.7352,0.893 1.6614,3.3524 3.9893,4.0939 4.0556,1.292 11.7034,-1.1679 15.4676,-4.9748 0.9086,-0.9189 1.8682,-2.1115 2.1321,-2.6501 l 0.4803,-0.9794 -0.8711,0.1394 c -0.4788,0.0764 -1.0134,0.093 -1.1869,0.0351 -0.1739,-0.0571 -0.5847,0.1084 -0.913,0.3676 -0.4846,0.3826 -1.7786,0.7362 -2.1901,0.5988 -0.1501,-0.0502 -1.7886,-5.5114 -1.671,-5.5701 0.06,-0.0297 1.1145,0.0122 2.3446,0.0932 1.1145,0.0734 1.964,0.1816 2.6353,0.3853 l 3e-4,3e-4 z M 1533.905,317.0406 c 1.1742,0.3989 1.4167,0.7069 0.5857,0.7435 -0.2524,0.0112 -0.4724,-0.004 -0.4891,-0.0329 -0.017,-0.0291 -0.3325,-0.207 -0.7018,-0.3959 -1.0603,-0.5422 -0.6668,-0.747 0.6052,-0.3147 z m 6.5343,2.7983 c 0.5743,0.1946 2.2488,1.3253 2.4297,1.6876 0.091,0.1835 0.028,0.5018 -0.1413,0.7075 -0.4204,0.5105 -0.5874,0.4108 -1.3941,-0.8288 -0.3838,-0.5898 -0.8196,-1.1679 -0.9683,-1.2849 -0.1486,-0.1169 -0.1925,-0.2531 -0.097,-0.3025 0.03,-0.0154 0.089,-0.007 0.1713,0.0211 z m -3.0488,-0.1204 c 1.1894,0.4069 2.267,0.9233 2.6754,1.3465 0.7966,0.8255 0.7872,0.9349 -0.1275,1.4997 -0.7827,0.4832 -0.9188,0.4567 -1.6247,-0.3198 -0.2876,-0.3162 -1.4773,-1.184 -2.6439,-1.9285 -2.0417,-1.3027 -2.0848,-1.3504 -1.1488,-1.2689 0.6804,0.0593 1.525,0.2493 2.3546,0.5041 0.1728,0.053 0.3449,0.1087 0.5148,0.1669 l 10e-5,0 z m 160.8495,54.3156 0.5729,0.8168 c 0.3152,0.4492 0.9146,1.0139 1.3317,1.255 0.9824,0.5678 0.9154,1.0069 -0.1354,0.8891 -1.457,-0.1634 -3.9493,-1.0507 -4.1651,-1.4829 -0.3185,-0.638 -0.1631,-0.7908 1.1629,-1.1468 l 1.2329,-0.3311 10e-5,-10e-5 z m -167.6965,-54.9995 c 0.1446,0.0454 0.2897,0.0942 0.4358,0.1463 0.5394,0.1912 1.0953,0.4254 1.7075,0.7066 2.7539,1.2651 5.8683,3.3471 5.711,3.8181 -0.059,0.1765 0.063,0.4614 0.2713,0.6327 0.2681,0.2207 0.7645,0.0822 1.7017,-0.4737 0.7278,-0.4316 1.3759,-0.683 1.44,-0.5586 0.064,0.1242 -0.4091,0.9758 -1.0519,1.8919 -0.6427,0.9161 -1.1608,1.8444 -1.1512,2.0636 0.01,0.2191 -0.1161,0.4304 -0.2793,0.4688 -0.1633,0.0384 -0.3693,0.2875 -0.4583,0.5538 -0.089,0.2662 -0.3015,0.5166 -0.4722,0.5568 -0.1707,0.0402 -0.2673,-0.0548 -0.215,-0.2114 0.1817,-0.5441 -0.9154,-2.0219 -3.3032,-4.4482 -2.3411,-2.3789 -2.4517,-2.4558 -4.4055,-3.0744 -1.1022,-0.349 -3.4313,-0.9071 -5.1758,-1.2403 -1.7446,-0.3333 -3.4236,-0.6988 -3.7314,-0.8122 -0.5397,-0.1988 -0.5384,-0.2086 0.031,-0.2612 4.6977,-0.4338 6.7782,-0.4419 8.946,0.2415 l 0,-10e-5 z m 162.298,56.3894 0.7876,0.263 c 0.7002,0.2339 0.8223,0.4656 1.0952,2.0812 0.1689,0.9999 0.2728,1.8026 0.2307,1.7834 -0.1387,-0.0635 -0.788,-1.2733 -1.4563,-2.7122 l -0.6572,-1.4154 z M 1529.983,321.8788 c 0.1781,0.0626 0.086,0.1446 -0.1984,0.3233 -0.275,0.1725 -1.1852,0.5333 -2.0221,0.8022 -2.2694,0.7291 -2.2433,0.5587 0.1579,-1.0218 0.2768,-0.1822 0.9219,-0.2777 1.4335,-0.2125 0.3181,0.0406 0.5223,0.0711 0.6292,0.1087 l -10e-5,1e-4 z m 1.7298,0.5914 c 0.1445,0.0204 0.2078,0.1435 0.053,0.3493 -0.1121,0.1493 -0.3568,0.2715 -0.5436,0.2714 -0.2089,-10e-5 -0.227,-0.1373 -0.047,-0.3556 0.1678,-0.2038 0.3932,-0.2855 0.5375,-0.265 l -10e-5,-1e-4 z m 159.7939,55.3714 c 0.2943,0.1049 1.2159,3.1609 1.5501,5.1393 0.1645,0.9735 0.4764,2.162 0.6931,2.6409 0.362,0.7996 0.4507,0.8556 1.0879,0.6851 0.4412,-0.1181 0.868,-0.5322 1.1726,-1.137 0.467,-0.9275 0.4777,-0.9315 0.4466,-0.1745 -0.026,0.6378 -0.3003,0.9917 -1.5386,1.9852 -0.8288,0.665 -1.5823,1.1862 -1.6731,1.1559 -0.091,-0.0304 -0.1439,-0.3366 -0.1174,-0.6834 0.027,-0.3468 -0.2719,-1.422 -0.6629,-2.3891 -0.391,-0.9672 -0.6571,-1.9188 -0.5917,-2.1147 0.065,-0.1958 -0.1048,-1.2268 -0.3782,-2.2914 -0.4587,-1.7857 -0.4537,-2.9823 0.011,-2.8164 l 10e-5,1e-4 z m -154.9179,-49.3667 c 0.4934,0.1652 0.8566,0.4126 1.0605,0.7361 0.3653,0.5797 0.345,0.8098 -0.1602,1.8279 -0.3179,0.6408 -0.6458,1.1317 -0.7289,1.0913 -0.083,-0.0403 -0.5202,-0.4235 -0.9715,-0.8517 -0.4513,-0.4282 -1.5884,-1.207 -2.5265,-1.7303 l -1.7057,-0.9516 1.6204,-0.238 c 1.4065,-0.2065 2.5897,-0.159 3.4119,0.1163 z m 157.6554,52.8622 c 0.093,0.0661 0.282,0.5355 0.4871,1.2999 0.1864,0.6944 0.2604,1.3021 0.1641,1.3502 -0.1754,0.0876 -0.4456,-0.7418 -0.6578,-2.0211 -0.081,-0.4876 -0.066,-0.6804 0.01,-0.629 z m 4.049,5.4863 -0.6814,0.7015 c -0.6758,0.6961 -0.9709,0.839 -0.824,0.3993 0.042,-0.1257 0.3977,-0.425 0.7907,-0.665 l 0.7149,-0.4358 -2e-4,0 z m -37.8202,-11.4651 c 0.1583,0.0456 0.2938,0.1253 0.3909,0.2417 0.206,0.2471 0.028,0.6167 -0.8417,1.7482 -0.6068,0.7891 -1.4808,2.2815 -1.9419,3.3165 -0.7368,1.6538 -0.8289,1.7698 -0.7583,0.9589 0.044,-0.5076 0.1662,-0.9659 0.271,-1.0183 0.1048,-0.0523 0.1309,-0.4781 0.058,-0.9466 -0.1617,-1.0361 0.5072,-3.1312 1.2225,-3.8282 0.4461,-0.4345 1.1248,-0.6089 1.5998,-0.4722 z m 25.4912,9.558 c 0.1914,0.0927 0.4674,0.6538 0.9561,1.8435 1.0081,2.4531 2.2738,4.6006 2.8187,4.7826 0.3697,0.1235 0.2205,0.2628 -0.6689,0.623 -0.6296,0.255 -1.2092,0.4478 -1.2877,0.4278 -0.079,-0.0199 -0.1078,-0.6205 -0.064,-1.3342 0.062,-1.0138 -0.1686,-1.7661 -1.055,-3.4376 -0.6242,-1.1769 -1.0657,-2.3476 -0.981,-2.6013 0.082,-0.2466 0.1669,-0.3595 0.2819,-0.3039 l 10e-5,10e-5 z m -5.0676,-0.3805 c 0.4571,0.1331 1.0619,1.8789 1.6702,4.8628 0.6817,3.3445 1.498,4.9488 2.5695,5.0528 0.7254,0.0703 0.725,0.0713 0.04,0.3487 -0.3779,0.153 -1.2991,0.6752 -2.0472,1.1601 -0.7482,0.4848 -1.6884,0.968 -2.0896,1.0736 -0.7205,0.1899 -0.7255,0.1795 -0.4032,-0.8318 0.1795,-0.5631 0.3302,-1.294 0.3351,-1.6241 0.01,-0.357 0.1633,-0.6361 0.3891,-0.6893 0.5837,-0.1374 0.4915,-1.592 -0.3431,-5.4275 -0.7916,-3.6376 -0.7802,-3.4969 -0.3069,-3.8822 0.059,-0.0478 0.121,-0.062 0.1863,-0.043 l -10e-5,-1e-4 z m -18.2403,-3.5488 c 0.1325,0.0411 0.1251,0.3977 0.087,1.2998 -0.1016,2.379 -0.3495,3.9274 -1.0816,6.7568 -0.3413,1.3191 -0.1662,3.0797 0.4655,4.6744 0.7088,1.7893 -0.1346,0.9185 -2.0341,-2.1002 -0.7772,-1.2348 -0.8132,-1.4336 -0.445,-2.4513 0.2205,-0.6093 0.5625,-1.2849 0.76,-1.5016 0.3571,-0.392 0.437,-0.7351 0.9879,-4.2245 0.241,-1.5269 0.3806,-1.894 0.8501,-2.2416 0.2022,-0.1497 0.3313,-0.2372 0.4106,-0.2118 z m 11.6734,4.9626 c 0.5044,0.1836 0.8831,1.835 0.9362,4.4025 0.025,1.2281 0.064,2.9163 0.086,3.7514 0.022,0.8353 0.2205,1.9772 0.4427,2.5378 0.3503,0.8845 0.34,1.0315 -0.077,1.1108 -0.2644,0.0502 -1.1022,0.3353 -1.8623,0.6333 -0.7602,0.2981 -1.421,0.5288 -1.4682,0.5131 -0.047,-0.0158 0.05,-0.706 0.2164,-1.534 0.1662,-0.8279 0.3007,-3.1836 0.2988,-5.235 0,-3.6413 0.166,-4.7609 0.8886,-5.8541 0.1887,-0.2854 0.3711,-0.387 0.5392,-0.3257 l 0,-1e-4 z m -6.1619,-1.7449 c 0.03,0.0187 0.056,0.0722 0.079,0.1588 0.1822,0.6863 0.04,3.8023 -0.2925,6.4311 -0.1591,1.2573 -0.3454,2.3142 -0.4142,2.3485 -0.329,0.1643 -0.1565,-7.064 0.1934,-8.0996 0.2145,-0.6348 0.3442,-0.8948 0.4345,-0.8388 z m -93.5718,-23.0941 c 0.018,0.01 0.031,0.023 0.039,0.0394 0.029,0.0614 -0.5731,0.4823 -1.3369,0.9349 -1.4483,0.858 -1.6201,0.8369 -0.755,-0.092 0.4404,-0.4728 1.7847,-1.033 2.0527,-0.8824 l 10e-5,10e-5 z"
               style="fill:#000000;fill-rule:evenodd"
               id="path4205"
               inkscape:connector-curvature="0" />
          </g>
          <path
             d="m 1708.7513,96.4008 0,0 z m -150.7836,291.1548 -19.232,-6.4233 c -0.2684,-0.0899 -0.6748,-0.5793 -0.9032,-1.0883 -2.0402,-4.541 -4.331,-14.194 -4.698,-19.7988 -0.6629,-10.1195 -0.3035,-15.3721 1.4711,-21.5066 0.95,-3.2835 1.0143,-3.6984 0.6601,-4.2732 -0.2157,-0.35 -0.5637,-0.7014 -0.7731,-0.781 -0.5969,-0.2262 -3.1498,-2.7692 -4.1536,-3.1044 -1.6959,-0.5665 -2.3871,-1.8124 -1.3343,-2.4055 0.8486,-0.4776 4.7343,-0.9645 6.4149,-0.8035 1.7316,0.1658 1.7001,0.0601 -0.6944,-2.3692 l -1.4586,-1.4805 -4.2293,1.3184 c -3.0043,0.6107 -0.9295,-0.9574 -3.4904,-0.2701 -1.3869,0.3724 -2.2981,-0.0227 -2.0138,-0.8735 0.2454,-0.7348 2.8088,-2.1904 2.6847,-2.4392 -0.045,-0.0907 -1.3921,-0.4407 -2.9931,-0.7782 -2.4318,-0.5122 -3.0128,-0.7117 -3.5306,-1.2136 -1.177,-1.1395 -0.7266,-1.4524 2.5356,-1.7613 7.6131,-0.721 6.0807,0.3126 9.8811,0.1655 -1.3065,-1.7004 -2.3837,-2.8377 1.2136,-1.7376 1.2373,0.3784 3.6522,1.0345 5.3662,1.459 4.187,1.0367 2.7297,0.9018 4.7884,1.9572 1.3569,0.6957 0.9721,0.3571 2.1156,-0.9698 l 9.6762,-11.4209 c 0.2942,-0.414 0.269,-0.5537 -0.1258,-0.6855 -1.094,-0.3653 1.0942,-1.54 -0.1369,-5.7644 -0.4268,-1.4641 -0.1358,-9.8166 0.5342,-15.3293 0.7524,-6.1941 1.7154,-10.3003 3.9654,-16.9056 l 2.1428,-6.2892 -0.564,-3.9759 c -0.8091,-5.7049 -0.7533,-7.6825 0.3395,-12.0647 l 0.9106,-3.6534 -1.2022,-2.3055 c -0.6618,-1.2679 -1.474,-3.2965 -1.805,-4.5078 -0.6252,-2.2876 -1.2226,-7.8273 -1.3654,-12.6635 -0.075,-2.524 0.1966,-7.065 0.4704,-7.8852 0.1499,-0.4489 3.3274,-1.2903 3.795,-1.6899 0.176,-0.1505 0.4864,-0.2185 0.6896,-0.1505 l 3.3875,-0.5807 2.5396,-5.9395 c 0.3262,-0.5118 0.2873,-0.5187 -1.4692,-0.2463 -2.5299,0.3922 -4.8881,-0.1975 -5.8494,-1.4624 -1.0277,-1.3524 -1.194,-2.6724 -0.6133,-4.8702 0.6232,-2.3602 1.2917,-3.2841 3.1616,-4.3712 1.6004,-0.9305 3.3787,-1.3085 4.6243,-0.9826 0.6056,0.159 1.0282,0.0417 1.6403,-0.456 1.5732,-1.2796 6.0867,-1.1027 6.8439,-2.289 0.5615,-0.8786 1.8512,-1.9924 3.1138,-2.6887 1.3031,-0.7184 4.0603,-1.4578 5.1245,-1.3739 2.0439,0.1612 0.995,-1.1739 9.3154,1.0154 2.1893,0.5762 4.3899,0.9253 7.1956,1.1416 7.356,0.5673 10.4304,0.8964 14.6299,1.5666 3.3447,0.5337 3.1661,0.5577 4.0098,-0.5501 0.7749,-1.018 0.7754,-1.0225 0.2115,-1.4839 -0.3112,-0.2542 -0.6547,-0.492 -0.7635,-0.5282 -0.5787,-0.1933 -5.9855,-8.4185 -8.5789,-13.0507 -2.3336,-4.1683 -4.9692,-11.4319 -5.4337,-14.9733 -0.5671,-4.3245 0.1814,-7.1358 3.1132,-11.6964 1.1296,-1.7565 1.9449,-4.0421 1.9098,-5.3534 -0.029,-1.0875 -0.5597,-1.5636 -2.4628,-2.2078 -0.8244,-0.2788 -1.0072,-0.7802 -0.4177,-1.146 0.3112,-0.1933 0.7278,-0.1162 1.5457,0.2876 1.4164,0.6992 1.188,0.7281 0.3794,-2.5013 -0.5231,-2.089 -1.1293,-6.1722 -1.2305,-8.2912 -0.1754,-3.665 -0.7468,-5.612 -0.2621,-9.5473 0.524,-4.2542 0.1181,-10.9779 -0.8752,-14.5102 -0.6076,-2.1601 -2.5858,-5.8543 -3.8004,-7.0976 -0.9151,-0.9366 -4.4342,-2.5608 -4.5829,-2.1153 -0.2404,0.7187 1.9223,1.7325 0.2321,7.2299 -0.6493,2.1119 -0.9157,2.6614 -1.5843,3.2708 -0.4418,0.4027 -0.8286,0.7881 -0.8592,0.8564 -0.3345,0.7479 -4.5416,2.3486 -5.9787,2.2743 -2.6875,-0.1386 -4.6243,-1.3476 -5.7415,-3.5845 -2.0685,-4.1442 -0.5305,-8.4828 4.0113,-11.3168 1.0197,-0.6363 1.7064,-1.3609 2.67,-2.8168 1.699,-2.5659 5.2874,-7.573 6.7568,-9.4282 0.6402,-0.8086 1.3397,-1.733 1.5539,-2.0547 0.7343,-1.1007 5.3615,-5.3906 7.016,-6.5049 3.8344,-2.5815 7.3293,-2.3092 12.6905,0.9876 0.8479,0.5218 1.7069,1.0319 1.9084,1.1339 2.2499,1.1387 9.07,10.4134 10.3224,14.0378 l 2.066,5.6123 2.577,-0.5218 4.1119,-0.8496 c 2.1799,-0.6853 8.7022,-0.4115 15.2043,0.6385 6.1541,0.9933 12.3206,3.2829 15.9505,5.9225 l 1.888,1.3731 2.0212,-1.1418 c 5.7166,-3.2283 12.3493,-5.7194 16.9946,-6.3845 2.989,-0.4277 9.3585,-0.3931 12.3776,0.0677 1.0891,0.1664 2.1831,0.4455 3.2376,0.8142 2.3191,0.8128 4.4406,2.0629 5.867,3.5142 1.0999,1.1195 3.0392,4.4109 3.6185,6.1422 1.4785,4.4197 2.1012,9.4563 1.6752,13.5455 l -0.3849,3.8385 c -0.2601,2.7132 -0.5787,2.9624 -1.6142,5.4651 l 1.0268,1.296 c 1.3388,1.6913 2.4185,4.8859 2.2403,6.6291 -0.2639,2.584 -2.5731,5.5867 -5.0268,6.5375 -2.8215,1.0931 -6.2702,0.8445 -8.6191,-0.6206 -2.5124,-1.5678 -3.8004,-5.4986 -2.7686,-8.4528 l 0.5184,-1.4853 c -1.211,-2.2925 -3.3844,-6.5098 -4.5877,-8.0858 -0.5623,-0.7363 -0.9707,-1.502 -0.9081,-1.7021 0.091,-0.2894 -0.011,-0.3086 -0.4988,-0.0947 -0.6064,0.2659 -1.3002,0.1828 -1.4793,-0.1763 l 1.7489,-3.7953 c -0.2693,-0.5396 -3.635,2.6416 -5.7795,5.4629 -3.1398,4.1306 -5.4631,9.157 -6.4111,13.8697 -0.4078,2.0266 -3.2404,8.5072 -5.4518,12.4746 -3.7155,6.6648 -8.7033,13.0189 -15.4172,19.6406 -1.5728,1.5514 -2.8269,2.8859 -2.7875,2.965 0.04,0.0796 -0.4234,0.6887 -1.0296,1.3541 -1.5995,1.7562 -2.7595,3.5102 -4.7578,7.1973 -1.4425,2.6614 -4.5769,8.0175 -5.373,10.2484 -0.3322,0.9304 -0.7896,1.807 -1.0163,1.9478 -0.5223,0.3245 -2.5433,3.9218 -3.0415,5.413 -0.3497,1.0469 -0.291,1.3116 0.8106,3.6678 0.6529,1.3969 1.5071,2.923 1.8976,3.3915 0.6567,0.7882 0.8443,0.8726 2.5172,1.1328 2.2684,0.3528 7.233,1.6287 8.73,2.2434 1.5958,0.6549 2.4163,1.3915 3.8103,2.0643 3.334,1.6089 6.8669,5.3447 6.3942,6.7606 -0.044,0.1323 0.3627,0.5503 0.9049,0.9287 2.7079,1.8908 4.6948,4.9371 5.2103,7.9885 0.3945,2.3364 0.032,6.5101 -0.9241,10.6155 l -2.3174,10.4241 -3.5051,13.9352 c -0.77,2.9757 -1.128,4.8263 -1.0118,5.2293 0.1151,0.3982 -0.069,1.3734 -0.5076,2.6904 -0.9139,2.747 -1.5388,6.1215 -2.1955,9.0686 -0.647,2.9023 -0.5688,3.3161 2.5155,13.2956 1.0393,3.3631 2.2973,7.5682 2.7958,9.3443 1.0551,3.7588 1.6332,9.2256 1.4428,13.6487 -0.5101,11.8596 -0.5138,10.8288 0.047,15.4208 0.2474,2.0277 0.4256,3.7596 0.3962,3.8483 -0.1845,0.5527 2.5189,18.3356 3.1885,20.9755 0.1661,0.6538 0.4192,1.8325 0.5629,2.6187 0.3347,1.8299 1.3093,5.0596 1.7755,5.8806 0.3477,0.6124 0.424,0.6348 2.1292,0.6305 2.3457,-0.006 6.1876,1.132 6.6827,1.9802 l 3.1276,2.9414 c 1.1183,-1.2087 1.6899,-1.8169 3.4439,-2.9355 0.9743,-0.6212 2.6444,-1.8322 3.712,-2.6909 3.2934,-2.6498 3.381,-1.1968 3.0871,-0.6787 l -1.3841,2.8711 1.105,-0.5175 c 1.4037,-0.6572 4.4639,-1.3164 6.4021,-2.0464 2.4981,-0.9409 4.1699,-1.3723 4.6707,-1.2051 0.7981,0.2667 4.4115,-3.4629 5.6295,-3.2089 1.277,0.2661 1.207,0.887 -0.3539,3.1463 -0.7763,1.1237 -1.4981,2.3012 -1.6038,2.6172 -0.1057,0.3163 -0.3443,0.6113 -0.5314,0.6553 -0.4092,0.0966 -3.2645,3.0069 -3.4269,3.4932 -0.063,0.189 -1.1911,1.4884 -2.5067,2.8876 -3.1718,3.3739 -5.1078,6.253 -7.982,10.1656 -2.6949,3.6684 -4.4143,5.7866 1.1905,1.4165 3.7693,-2.9389 4.8479,-3.5479 7.0792,-3.9937 1.8234,-0.3648 1.9642,-0.3463 2.4324,0.3134 0.3109,0.4384 0.136,0.6836 -2.2683,3.1739 -2.7576,2.8561 -4.524,5.2925 -4.6051,6.3516 -0.028,0.3624 -0.2273,0.7054 -0.4596,0.7921 -6.4701,2.4098 -12.514,5.3396 -16.6145,8.0543 -2.8071,1.858 -3.8078,2.1119 -5.3246,1.3518 -2.9383,-1.4725 -0.8216,-2.157 -5.3356,-0.957 -4.8145,1.2795 -9.727,1.8013 -11.4722,1.2186 -0.7584,-0.2534 -0.6768,-0.9083 0.134,-1.071 0.4983,-0.1 0.5065,-0.1488 0.1157,-0.6864 -0.498,-0.6838 -0.5762,-2.7702 -0.651,-3.8239 -0.367,0.4548 -1.7537,2.2865 -2.1326,2.166 -0.7621,-0.2437 0.3962,0.6918 1.1979,0.9673 0.9778,0.3361 1.6452,0.965 1.2396,1.1676 -0.14,0.07 -0.9576,-0.0527 -1.8169,-0.2721 -1.3396,-0.3423 -1.7701,-0.5965 -3.0193,-1.784 -3.7336,-3.5488 -5.6599,-7.1996 -6.3395,-12.0154 -0.187,-1.3249 -0.2834,-3.222 -0.2148,-4.2159 0.1519,-2.2086 1.116,-5.1004 2.1383,-6.4131 0.4177,-0.5368 0.8196,-1.1546 0.8921,-1.372 0.1358,-0.4061 3.8376,-2.7045 5.3762,-3.3376 l 0.8607,-0.3549 c -1.6911,-3.3067 -6.8102,-13.4239 -6.5971,-14.0616 0.035,-0.1037 -0.1522,-0.6047 -0.4146,-1.1134 -0.6294,-1.2195 -2.0201,-4.6552 -2.1403,-5.2872 -0.052,-0.2746 -0.2516,-0.8335 -0.4429,-1.2424 -0.708,-1.5129 -0.742,-1.6067 -2.297,-6.3137 -0.3268,-0.9879 -0.5637,-1.8869 -0.5271,-1.9966 0.102,-0.3052 -1.2932,-2.6563 -1.2805,-3.4921 0.01,-0.3179 -0.8992,-3.924 -2.0096,-8.0129 -1.1101,-4.0889 -2.4472,-9.3143 -2.9712,-11.6124 -0.524,-2.2981 -1.4178,-5.7851 -1.9852,-7.7497 -1.4904,-5.1588 -2.4064,-11.6305 -2.1335,-15.0696 0.086,-1.0824 0.037,-3.9521 -0.09,-5.3189 -0.045,-0.4869 -0.043,-2.2233 0,-3.8586 0.06,-2.0782 -0.3186,-5.9282 -1.2572,-12.786 -0.7389,-5.3965 -1.4071,-9.8338 -1.4859,-9.8601 -0.079,-0.0261 -0.4393,0.3361 -0.8015,0.8048 l -3.6522,4.2834 -2.696,2.6742 c -2.7663,2.7634 -9.6113,7.7094 -20.28,14.6542 -6.066,3.9483 -7.8942,6.0773 -10.6279,12.3782 -1.2402,2.8584 -1.8841,8.4354 -1.266,10.9685 0.2888,1.1843 2.5079,6.2609 3.5924,8.2181 1.686,3.0421 2.3614,4.1918 4.9176,7.4918 1.4618,1.8869 6.7547,12.3538 8.7867,17.3757 1.4128,3.4918 2.5807,6.7991 2.4931,7.0612 -0.029,0.0859 0.2123,1.0549 0.5348,2.1531 1.3297,4.5253 2.1584,13.1136 1.8478,19.1441 -0.4478,8.6988 -1.3788,13.2499 -4.9565,24.2196 -2.1779,6.677 -2.9765,8.1904 -5.7298,12.5247 l -54.2017,-18.1043 z"
             style="fill:none;stroke:#1b1918;stroke-width:0.21600001;stroke-linecap:butt;stroke-linejoin:miter;stroke-dasharray:none"
             id="path4207"
             inkscape:connector-curvature="0" />
        </g>
      </g>
    </g>
  </g>
</svg>
