<?xml version="1.0" encoding="UTF-8" standalone="no"?>
<!-- Created with Inkscape (http://www.inkscape.org/) -->

<svg
   xmlns:dc="http://purl.org/dc/elements/1.1/"
   xmlns:cc="http://creativecommons.org/ns#"
   xmlns:rdf="http://www.w3.org/1999/02/22-rdf-syntax-ns#"
   xmlns:svg="http://www.w3.org/2000/svg"
   xmlns="http://www.w3.org/2000/svg"
   xmlns:sodipodi="http://sodipodi.sourceforge.net/DTD/sodipodi-0.dtd"
   xmlns:inkscape="http://www.inkscape.org/namespaces/inkscape"
   width="24in"
   height="12in"
   viewBox="0 0 2160 1080.0001"
   id="svg2"
   version="1.1"
   inkscape:version="0.91 r13725"
   sodipodi:docname="Marvel Heros.svg">
  <defs
     id="defs4">
    <clipPath
       id="clipPath4556"
       clipPathUnits="userSpaceOnUse">
      <path
         inkscape:connector-curvature="0"
         id="path4558"
         d="m 0,2834.6 2834.6,0 L 2834.6,0 0,0 0,2834.6 Z" />
    </clipPath>
    <clipPath
       id="clipPath4617"
       clipPathUnits="userSpaceOnUse">
      <path
         inkscape:connector-curvature="0"
         id="path4619"
         d="m 0,2834.6 2834.6,0 L 2834.6,0 0,0 0,2834.6 Z" />
    </clipPath>
    <clipPath
       id="clipPath4762"
       clipPathUnits="userSpaceOnUse">
      <path
         inkscape:connector-curvature="0"
         id="path4764"
         d="m 0,2834.6 2834.6,0 L 2834.6,0 0,0 0,2834.6 Z" />
    </clipPath>
    <clipPath
       id="clipPath4823"
       clipPathUnits="userSpaceOnUse">
      <path
         inkscape:connector-curvature="0"
         id="path4825"
         d="m 0,2834.6 2834.6,0 L 2834.6,0 0,0 0,2834.6 Z" />
    </clipPath>
    <clipPath
       id="clipPath4884"
       clipPathUnits="userSpaceOnUse">
      <path
         inkscape:connector-curvature="0"
         id="path4886"
         d="m 0,2834.6 2834.6,0 L 2834.6,0 0,0 0,2834.6 Z" />
    </clipPath>
  </defs>
  <sodipodi:namedview
     id="base"
     pagecolor="#ffffff"
     bordercolor="#666666"
     borderopacity="1.0"
     inkscape:pageopacity="0.0"
     inkscape:pageshadow="2"
     inkscape:zoom="0.35355339"
     inkscape:cx="1005.5322"
     inkscape:cy="371.14377"
     inkscape:document-units="in"
     inkscape:current-layer="layer1"
     showgrid="false"
     units="in"
     inkscape:window-width="1440"
     inkscape:window-height="851"
     inkscape:window-x="0"
     inkscape:window-y="1"
     inkscape:window-maximized="1" />
  <metadata
     id="metadata7">
    <rdf:RDF>
      <cc:Work
         rdf:about="">
        <dc:format>image/svg+xml</dc:format>
        <dc:type
           rdf:resource="http://purl.org/dc/dcmitype/StillImage" />
        <dc:title></dc:title>
      </cc:Work>
    </rdf:RDF>
  </metadata>
  <g
     inkscape:label="Layer 1"
     inkscape:groupmode="layer"
     id="layer1"
     transform="translate(0,27.6379)">
    <g
       transform="matrix(1.2095293,0,0,-1.2095293,-20.641189,298.01452)"
       inkscape:label="ink_ext_XXXXXX"
       id="g4548"
       style="fill:none;stroke:#000000;stroke-width:0.82542062;stroke-miterlimit:4;stroke-dasharray:none;stroke-opacity:1">
      <g
         transform="scale(0.1,0.1)"
         id="g4550"
         style="fill:none;stroke:#000000;stroke-width:8.2542057;stroke-miterlimit:4;stroke-dasharray:none;stroke-opacity:1">
        <g
           id="g4552"
           style="fill:none;stroke:#000000;stroke-width:8.2542057;stroke-miterlimit:4;stroke-dasharray:none;stroke-opacity:1">
          <g
             clip-path="url(#clipPath4556)"
             id="g4554"
             style="fill:none;stroke:#000000;stroke-width:8.2542057;stroke-miterlimit:4;stroke-dasharray:none;stroke-opacity:1">
            <path
               inkscape:connector-curvature="0"
               id="path4560"
               style="fill:none;fill-opacity:1;fill-rule:evenodd;stroke:#000000;stroke-width:8.2542057;stroke-miterlimit:4;stroke-dasharray:none;stroke-opacity:1"
               d="m 1204.13,886.309 c 23.44,-20.039 46.47,-40.153 80.71,-37.219 21.27,1.828 42.63,-0.481 63.93,-1.434 14.45,-0.636 24.3,-9.527 32.73,-19.847 13.44,-16.461 22.81,-35.27 29.23,-55.5 8.08,-25.532 17.67,-50.481 36.56,-70.102 14.36,-14.93 29.53,-29.25 45.49,-42.437 44.04,-36.512 70.22,-83.602 84.91,-138.051 7.76,-28.801 14.57,-57.789 19.86,-87.141 1.48,-8.199 0.93,-16.351 -0.11,-24.441 -1.66,-12.989 -7.58,-18.219 -20.71,-19.438 -29.03,-2.66 -56.94,0.629 -83.61,13.481 -42.27,20.347 -81.16,45.148 -111.82,81.32 -14.49,17.09 -24.81,36.797 -34.23,56.938 -15.58,33.359 -30.48,67.011 -46.3,100.261 -18.96,39.77 -49.62,65.617 -91.99,79.27 -75.39,24.289 -151.14,47.199 -227.811,67.058 -37.903,9.821 -75.34,21.129 -112.614,33.129 -42.046,13.551 -76.777,37.184 -106.347,69.774 -24.621,27.117 -47.91,55.187 -67.981,85.777 -27.261,41.593 -60.781,77.703 -95.929,112.493 -13.731,13.59 -26.012,28.16 -36.27,44.78 -8.742,14.13 -11.949,28.63 -9.18,44.24 5.481,30.84 7.29,62.01 10.118,93.1 1.113,12.22 6.39,21.13 15.972,28.74 30.867,24.49 65.297,41.2 104.297,46.87 27.102,3.95 54.422,4.68 81.973,1.84 31.109,-3.24 62.16,-6.35 92.73,-13.09 15.688,-3.46 31.297,-7.24 46.957,-10.87 2.211,-0.52 4.434,-1.44 7.012,-0.34 -0.32,1 -0.328,2.02 -0.859,2.51 -37.891,35.59 -74.16,73.03 -118.403,101.22 -14.828,9.45 -28.257,20.34 -37.769,35.87 -11.141,18.17 -19.047,37.77 -26.988,57.28 -5.442,13.36 -9.719,26.82 -22.122,35.65 -3.769,2.68 -4.91,9.63 -9.359,9.53 -3.328,-0.08 -6.371,-5.34 -9.809,-7.95 -11.82,-9.06 -24.062,-17.55 -34.851,-27.95 -5.488,-5.3 -12.34,-9.09 -19.602,-11.36 -13.109,-4.07 -24.398,-11.17 -34.968,-19.55 -16.219,-12.85 -34.668,-18.73 -55.27,-18.78 -29.211,-0.07 -58.43,-0.03 -87.129,-7.02 -9.441,-2.3 -18.512,-5.36 -27.32,-9.32 -6.492,-2.92 -10.11,-6.96 -8.102,-15.09 2.5,-10.13 0.981,-11.12 -9.277,-7.44 1.398,-13.28 3.816,-26.07 7.078,-38.7 1.379,-5.38 2.762,-10.76 2.539,-16.41 -0.308,-7.63 -3.058,-9.28 -10.058,-6.01 -8.61,4.02 -11.872,12.48 -17.629,22.34 -0.774,-15.08 1.296,-27.52 2.25,-39.95 1.027,-13.68 2.898,-27.31 4.179,-40.97 0.34,-3.66 1.231,-8.38 -3,-10.13 -3.601,-1.49 -6.351,2.07 -9.019,4.26 -10.614,8.76 -17.141,19.73 -18.34,33.68 -0.391,4.61 -1.32,9.19 -2.391,16.36 -6.422,-13.78 -11.89,-25.51 -17.351,-37.25 -1.961,-4.23 -3.621,-8.66 -5.899,-12.71 -4.082,-7.22 -9.332,-7.29 -14.101,-0.41 -2.731,3.95 -4.008,8.39 -4.11,13.2 -0.25,10.36 1.782,20.36 5.309,30.02 2.211,6.03 4.641,12.06 7.84,17.6 12.543,21.66 14.301,43.39 1.972,65.79 -1.929,3.5 -3.589,7.78 -3.48,11.65 0.32,11.66 -5.492,20.4 -11.723,29.36 -11.898,17.1 -18.179,35.49 -14.418,56.96 3.211,18.27 -0.441,35.16 -13.449,49.74 -12.41,13.93 -17.371,30.84 -15.851,49.56 0.308,3.84 0.742,7.59 3,10.83 4.628,6.65 11.289,6.55 13.82,-0.99 4.512,-13.53 13.121,-23.14 24.851,-30.61 5.098,-3.24 8.457,-8.18 10.059,-13.95 4.059,-14.53 13.148,-25.03 25.16,-33.65 6.102,-4.38 12.719,-8.49 16.238,-15.68 2.512,-5.12 4.981,-1.98 7.333,0.15 23.66,21.31 47.917,42.03 68.097,66.87 20.051,24.69 44.531,42.53 75.57,51.2 12.852,3.58 25.93,4.11 38.973,5.3 7.551,0.7 13.578,2.99 17.59,9.6 0.461,0.75 0.961,1.53 1.629,2.07 15.82,12.91 18.398,30.89 20.762,49.77 3.32,26.54 11.359,52.06 25.597,74.95 26.289,42.25 64.782,66.29 113.66,74.18 2.313,0.37 4.622,1.23 6.903,1.17 26.508,-0.72 45.699,12.85 62.566,31.42 8.844,9.73 18.5,18.7 27.332,28.43 16.141,17.76 21.34,38.71 18.692,62.46 -2.641,23.77 -4.211,47.68 -5.621,71.56 -0.602,10.18 -6.09,18.2 -9.743,26.98 -23.019,55.32 -36.437,112.65 -38.207,172.71 -0.84,27.98 0.95,55.5 9.481,82.26 17.617,55.27 56.879,86.15 112.25,98.07 81.321,17.51 150.831,-23.93 179.711,-106.54 9.93,-28.39 13.38,-58 16.71,-87.61 2.69,-23.81 1.33,-47.86 2.69,-71.66 1.41,-25.19 -2.52,-49.24 -7.49,-72.97 2.06,-1.98 3.31,-1.04 4.48,-0.23 42.68,29.36 90.37,41.56 141.64,40.82 9.34,-0.14 17.11,1.79 24.08,8.04 6.12,5.47 13.39,9.33 20.59,13.26 2.02,1.1 4.16,2.29 5.69,3.95 8.69,9.42 8.45,12.74 -0.03,22.59 -12.21,14.17 -24.77,28.1 -35.99,43.02 -11.73,15.6 -27.38,24.11 -45.4,29.5 -13.99,4.19 -28.13,7.96 -41.96,12.63 -28.47,9.65 -47.46,29.98 -60.99,55.98 -8.12,15.62 -14.24,32.01 -16.77,49.57 -0.59,4.03 -1.37,8.1 -1.34,12.15 0.08,13.54 9.88,20.39 22.43,15.55 12.73,-4.91 22.67,-14.32 33.7,-21.9 19.95,-13.71 40.5,-25.63 65.27,-27.97 14.81,-1.4 24.76,-12.57 37.02,-19.03 35.87,-18.9 72.66,-24.54 111.57,-11.06 19.8,6.85 33.5,21.95 48.52,35.31 3.92,3.48 7.58,7.75 12.19,9.87 24.92,11.42 41.94,31.16 57.29,52.83 3.75,5.29 8.08,10.07 13.45,13.69 20.43,13.77 37.02,31.23 50.4,51.83 5.31,8.19 11.76,15.01 20.17,20.27 20.72,12.95 35.48,31.83 50.2,50.84 11.41,14.75 25.23,25.81 45.7,24.94 20.35,-0.87 32.73,-15.72 33.1,-36.61 0.29,-15.38 -5.77,-28.4 -14.56,-40.46 -7.06,-9.67 -13.97,-19.51 -22.83,-27.68 -13.21,-12.18 -24.14,-26.06 -33.48,-41.42 -12.56,-20.64 -28.96,-38.16 -46.85,-54.24 -9.52,-8.55 -17.1,-18.28 -21.98,-30.15 -4.47,-10.87 -10.79,-20.61 -18.52,-29.87 12.23,5.11 24.47,10.16 36.67,15.34 11.13,4.73 22.78,7.15 34.69,8.95 21.47,3.25 51.97,-13.96 55.75,-43.33 0.69,-5.3 3.93,-5.28 7.09,-5.75 16.11,-2.43 29.87,-9.35 41.96,-20.24 17.52,-15.79 19.66,-30.86 5.58,-49.92 -12.36,-16.74 -22.98,-34.53 -33.81,-52.22 -4.9,-8.01 -4.06,-10.66 5.16,-12.74 13.1,-2.94 26.56,-6 39.9,-2.82 25.36,6.04 50.56,2.96 75.72,-0.34 10.69,-1.4 21.26,-0.84 31.36,1.37 18.69,4.07 37.17,3.4 55.7,0.67 16.18,-2.4 32.06,0.2 48.03,1.46 10.09,0.81 20.74,2.6 26.8,-7.75 5.84,-9.96 0.49,-19.48 -4.98,-27.75 -10.43,-15.78 -27.52,-20.82 -44.51,-25.53 -4.76,-1.32 -9.83,-2.59 -14.67,-2.37 -27.06,1.21 -51.9,-10.95 -78.42,-12.64 -5.24,-0.34 -10.64,-1.25 -15.71,-0.39 -14.99,2.58 -29.12,-0.77 -43.04,-5.34 -15.55,-5.1 -31.17,-7.45 -47.41,-4.45 -6.3,1.17 -12.2,-0.5 -17.88,-3.05 -18.09,-8.13 -36.87,-12.54 -56.87,-12.7 -16.8,-0.14 -32.55,-6.58 -48.65,-10.74 -3.2,-0.82 -4.25,-3.58 -5.66,-6.2 -18.75,-34.79 -44.15,-62.44 -82.94,-74.89 -8.82,-2.84 -15.11,-7.51 -20.33,-15.24 -10.78,-16 -24.83,-28.52 -42.73,-36.54 -10.09,-4.52 -16.9,-13.44 -24.66,-20.85 -23.8,-22.72 -53.35,-31.74 -84.67,-36.63 -12.99,-2.03 -14.73,-2.68 -17.79,-15.26 -2.15,-8.81 -3.85,-17.93 -2.4,-26.93 8.93,-55.06 0.75,-108.84 -11.45,-162.37 -1.36,-5.98 -2.35,-12.06 -3.98,-17.98 -6.51,-23.74 -4.45,-46.84 4.91,-69.43 9.25,-22.39 17.42,-45.33 31.57,-65.35 1.71,-2.41 2.55,-6.23 7.09,-5.13 1.67,0.41 2.59,-1.14 2.77,-2.69 1.51,-13.37 11.46,-21.41 19.82,-30.08 11.15,-11.54 23.45,-21.94 37.71,-29.71 4.18,-2.28 6.7,-1.67 9.21,2.58 24.13,40.97 53.81,77.85 85.14,113.39 20.89,23.69 44.2,44.97 68.57,65.14 56.2,46.5 120.67,77.32 188.73,101.92 55.99,20.25 113.82,32.81 171.98,44.76 59.22,12.17 119.12,21.16 177.46,37.45 20.25,5.66 37.84,-0.59 54.8,-11.28 16.4,-10.32 31.78,-22.05 45.43,-35.63 12.97,-12.89 18.4,-30.3 23.28,-47.53 8.39,-29.59 12.59,-60.04 17.38,-90.32 2.43,-15.37 6.95,-29.51 15.29,-42.46 7.28,-11.29 11.39,-23.16 11.8,-36.95 0.41,-14 4.16,-27.69 10.73,-40.36 33.05,-63.71 47.59,-131.82 50.66,-203.2 2.29,-52.76 -3.79,-104.96 -6.87,-157.36 -2.05,-34.71 -4.27,-69.39 -5.95,-104.1 -1.36,-28 -2.95,-56.04 -2.79,-84.064 0.26,-45.757 4.01,-91.187 24.13,-133.386 14.86,-31.203 33.56,-60.211 52.38,-89.121 11.97,-18.36 23.65,-36.942 36.19,-54.891 22.97,-32.879 35.1,-69.578 40.9,-108.91 4.32,-29.238 6.55,-58.5 7.21,-88.078 0.91,-41.301 -17.62,-72.211 -48.04,-97.621 -7.63,-6.36 -16.31,-6.211 -24.65,-1.871 -19.58,10.199 -36.26,24.46 -52.82,38.839 -29.19,25.34 -56.33,52.481 -80.03,83.27 -22.89,29.723 -35.13,62.711 -39.01,99.68 -3.06,29.031 -7.77,57.839 -13.57,86.523 -6.21,30.758 -19.41,57.949 -37.23,83.348 -10.41,14.82 -20.56,29.851 -28.67,46.109 -8.44,16.902 -10.72,33.973 -4.62,52.52 7,21.371 12.2,43.382 15.31,65.652 3.65,26.359 -4.48,50.721 -14.81,74.661 -16.37,38.04 -38.74,72.68 -59.79,108.06 -25.69,43.19 -52.58,85.67 -72.18,132.22 -16.82,39.97 -27.32,81.21 -29.81,124.61 -1.22,21.26 -4.08,42.43 -6.47,63.61 -0.32,2.9 1.09,7.42 -2.65,8.44 -2.8,0.75 -4.67,-3.03 -6.72,-5.02 -24.04,-23.17 -45.12,-48.96 -66.31,-74.65 -32.38,-39.23 -66.64,-76.79 -101.09,-114.19 -24.3,-26.37 -53.24,-47.33 -79.97,-70.84 -2.61,-2.31 -5.55,-4.39 -8.65,-5.98 -29.03,-14.92 -52.81,-36.41 -75.06,-59.81 -26.54,-27.9 -56.26,-51.77 -89.24,-71.7 -22.29,-13.47 -46.28,-23.27 -71.43,-28.2 -34.91,-6.84 -59.94,-26.8 -82.63,-52.262 -39.85,-44.73 -88.55,-75.57 -146.61,-91.488 -21.26,-5.84 -42.78,-9.063 -65.13,-11.031"
               sodipodi:nodetypes="ccccccccccccccccccccccccccccccccccccccccccccccccccccccccccccccccccccccccccccccccccccccccccccccccccccccccccccscsccccccccccccccccccccccccccccccccccccccccccccccccccccccccccccccccccccccccccccccccccccccccccccccccccccscccc" />
          </g>
        </g>
      </g>
    </g>
    <path
       style="fill:none;fill-opacity:1;fill-rule:evenodd;stroke:#000000;stroke-width:1.00000012;stroke-miterlimit:4;stroke-dasharray:none;stroke-opacity:1"
       d="m 102.06561,614.17603 c -1.6969,-0.01 -3.398096,0.12205 -5.079696,0.44323 -3.3258,0.62935 -6.5599,1.47819 -9.3141,3.58567 -1.3684,1.0393 -2.0441,2.66132 -3.2682,3.83343 -1.8361,1.76104 -2.6261,3.85786 -2.6954,6.49654 -0.063,2.57517 0.3927,5.23081 -0.5715,7.75401 -0.9643,2.5232 -0.393,4.74571 1.2699,6.81278 0.8661,1.07394 1.1019,2.44283 1.3733,3.78238 0.4735,2.36731 0.8091,4.79759 2.495,6.73185 0.8026,0.91228 1.5646,1.84838 2.2921,2.82994 0.7159,0.95847 0.48,1.57625 -0.2938,2.24602 -2.9967,2.60404 -5.8605,5.36915 -9.3364,7.38424 -2.5868,1.50122 -4.8043,3.64353 -7.5412,4.86183 -4.1226,1.83033 -7.8925,4.23255 -11.6571,6.66337 -0.4562,0.29447 -0.8782,0.73297 -1.1554,1.20643 -2.3326,3.97244 -4.8905,7.77702 -4.8382,12.77145 0.046,4.06484 0.3459,7.9334 2.6208,11.39198 0.5081,0.76215 0.4042,1.12069 -0.1905,1.74428 -3.9263,4.08216 -5.0166,9.12831 -4.8319,14.59044 0.064,1.91117 0.6518,3.66715 1.362,5.41088 0.1328,0.34643 0.5433,0.96409 -0.1033,1.03337 -2.1248,0.22518 -4.1234,1.67984 -6.4156,0.5366 -1.2934,-0.64668 -1.6508,-1.84144 -0.5827,-2.90962 0.3984,-0.40417 0.7907,-0.79102 1.0159,-1.32222 0.8084,-1.89384 1.5935,-3.79384 2.0382,-5.82049 0.4561,-2.1248 0.1735,-3.17055 -1.6684,-4.27915 -1.276,-0.76215 -1.7961,-1.66284 -1.7381,-3.16983 0.092,-2.3673 -1.1034,-4.01758 -3.2918,-4.86057 -1.2703,-0.49079 -2.5453,-1.01109 -3.6193,-1.82521 -1.5012,-1.14902 -2.7834,-1.21775 -4.2443,0.0872 -0.9468,0.84299 -1.3976,0.58301 -1.4205,-0.68725 -0.023,-1.68021 -0.1148,-3.36667 0.1681,-5.04111 0.2367,-1.38574 -0.5599,-2.24556 -1.7493,-2.7017 -0.9932,-0.38108 -2.143,-0.23692 -2.6395,0.69846 -0.7102,1.33377 -1.5706,2.71893 -1.4031,4.3414 0.2887,2.84077 -0.7452,4.66623 -3.43,5.97114 -2.4366,1.18365 -5.0052,2.32616 -6.8875,4.45096 -0.6987,0.77948 -1.4092,1.5886 -1.5015,2.63945 -0.1559,1.76682 -0.1732,3.55646 0.1444,5.3175 0.6524,3.53941 1.848,6.93478 2.8411,10.37604 0.2829,0.97579 0.6059,1.77777 -0.1967,2.68427 -0.4555,0.50811 -0.2074,1.22957 0.01,1.87625 0.9007,2.6791 2.5984,4.87984 4.3998,6.95844 2.5983,3.00244 5.479,5.75562 8.0541,8.78116 3.1584,3.71262 6.2484,7.40255 10.7521,9.66015 4.1283,2.06707 8.4001,3.57961 13.0192,3.40639 3.7992,-0.14436 7.4376,-1.35106 10.9886,-2.70793 0.537,-0.20787 0.9982,-0.64636 1.8065,-0.61753 -0.8314,2.55784 -1.6799,4.98261 -2.4016,7.43653 -2.1537,7.31555 -3.3033,14.87972 -5.3126,22.22991 -0.4677,1.70908 -1.1075,3.51585 -0.9574,5.21915 0.2425,2.77726 -0.2829,5.42817 -0.7794,8.0553 -0.9758,5.16765 -1.0914,10.3809 -1.2761,15.58895 -0.052,1.39731 -0.3413,2.80616 -0.2316,4.17457 0.3176,4.02443 0.087,8.04938 0.1506,12.06803 0.023,1.57626 0.2186,3.07676 0.8479,4.51445 1.634,3.69531 2.6386,7.57629 3.4238,11.53143 0.3638,1.82456 0.4915,3.71173 1.1554,5.48433 1.2876,3.41239 2.7022,6.77318 4.3016,10.05855 0.7621,1.57629 1.5534,3.16968 1.484,5.06352 -0.1095,2.89851 -0.023,5.80341 -0.035,8.7077 0,0.81988 0.1967,1.53594 0.5951,2.26346 0.7102,1.31066 1.5473,2.62719 1.8937,4.04757 0.6638,2.70218 0.5369,5.49596 -0.063,8.20969 -1.2876,5.8028 -0.6119,11.4213 1.3571,16.95848 1.8014,5.08105 3.0199,10.29436 3.5857,15.66988 0.2425,2.27493 0.2876,4.58495 0.7034,6.82522 0.7853,4.18033 0.936,8.36081 0.2951,12.54114 -0.2483,1.58781 -0.5088,3.38324 -1.8252,4.45719 -3.0429,2.477 -5.9177,5.16731 -9.2954,7.22861 -5.2658,3.21029 -10.4795,6.47338 -14.7984,10.98858 -1.8476,1.9285 -1.5998,3.90783 0.7906,5.05107 2.6964,1.28758 5.5553,1.57747 8.4538,1.70444 5.0117,0.21941 9.9823,-0.52645 14.9651,-0.8902 1.4724,-0.10392 2.9798,-0.61125 4.2443,-1.6621 2.1075,-1.74373 4.6368,-2.89304 7.3332,-2.84115 3.8858,0.0693 7.7537,0.16195 11.6223,-0.21912 2.2807,-0.2252 4.573596,-0.32329 6.779196,-1.0508 1.1201,-0.36375 1.6797,-1.02275 1.7255,-2.24105 0.1675,-4.60757 -0.1089,-9.15711 -1.5351,-13.5857 -2.0843,-6.44946 -2.1021,-13.06049 -1.4554,-19.70626 0.2656,-2.72529 0.5366,-5.45032 0.935,-8.16985 0.3465,-2.32111 0.809,-4.60179 1.2824,-6.88249 0.8835,-4.24383 2.303,-8.38351 2.124,-12.80632 -0.081,-1.95737 -0.023,-3.9204 -0.016,-5.87776 0,-0.7102 -0.092,-1.38587 -0.2888,-2.07297 -0.8661,-3.01398 -1.5475,-6.05768 -1.692,-9.20447 -0.1097,-2.34998 -1.1548,-3.37769 -3.5856,-3.56824 -1.1029,-0.0866 -1.929196,-0.58907 -2.160196,-1.67456 -0.7506,-3.60292 -2.9964,-6.40284 -4.9826,-9.33021 -0.5658,-0.83145 -1.0506,-1.66265 -1.2873,-2.60957 -0.6005,-2.4135 -0.964,-4.85549 -0.9239,-7.35561 0.057,-3.65489 0.069,-7.30461 0.035,-10.95372 -0.046,-4.7346 0.3002,-9.41119 1.6397,-13.98412 1.1548,-3.91472 3.4521,-7.47161 3.5733,-11.74432 1.3395,3.17566 3.730096,5.49635 5.866496,8.008 2.4655,2.88119 4.6885,5.86707 6.1666,9.45845 1.074,2.6098 2.3491,5.19076 3.7002,7.67931 1.7553,3.2334 3.8461,6.2928 5.9189,9.34142 1.0047,1.48391 1.5581,3.12423 1.916,4.78713 0.8199,3.77612 2.2238,7.32719 3.9618,10.73957 0.9411,1.84765 0.6635,3.71784 0.6922,5.60013 0.01,0.45614 -0.3511,0.73381 -0.6861,1.01095 -0.97,0.80834 -1.3809,1.89427 -1.3172,3.11257 0.1097,2.0555 0.1325,4.11607 0.2192,6.17158 0.1154,2.8119 1.1781,5.41024 1.3744,8.22215 0.3522,4.95979 3.1415,9.16902 5.2317,13.511 2.6386,5.49101 5.1388,11.01626 6.9634,16.81904 0.4849,1.54164 1.0625,3.06574 1.4031,4.6651 0.9354,4.4517 -0.024,8.96221 0.5478,13.4139 0.1386,1.09127 -0.2593,2.15375 -0.7096,3.12377 -2.1017,4.47478 -4.1807,8.97227 -8.592,11.78416 -1.0393,0.664 -1.5185,1.80169 -0.8603,2.95071 1.9516,3.44125 4.1108,6.39766 8.4413,7.50625 6.5707,1.67445 12.7836,0.90584 18.9617,-1.3633 1.3684,-0.50234 2.6847,-1.25318 2.881,-2.95071 0.1963,-1.68598 1.097,-2.34971 2.7888,-2.46515 2.1017,-0.14435 2.9735,-1.05636 3.3604,-3.13498 0.2886,-1.5705 0.329,-3.17643 0.1269,-4.75848 -0.1155,-0.91804 -0.2994,-1.86495 -0.8652,-2.64443 -1.9863,-2.73106 -3.1068,-5.87195 -4.0364,-9.04759 -1.276,-4.37087 -0.3059,-8.95554 -0.9064,-13.40145 -0.3059,-2.24028 0.7335,-4.3235 0.7794,-6.50027 0.1213,-5.98177 0.531,-11.94692 0.9064,-17.91715 0.1212,-1.88808 0.086,-3.8224 0.554,-5.7047 0.7277,-2.8985 1.282,-5.83146 0.7508,-8.83968 -0.1444,-0.83144 -0.3808,-1.64537 -0.4731,-2.48258 -0.3349,-2.86964 -0.5141,-5.76824 -0.9587,-8.62055 -0.3522,-2.21142 -1.0793,-4.35892 -1.5239,-6.55879 -0.3695,-1.84188 -0.9994,-2.42548 -2.8586,-2.18875 -0.6063,0.0808 -1.079,0.1155 -1.4081,-0.5254 -1.1722,-2.26338 -2.8062,-4.25605 -4.5095,-6.06327 -4.0822,-4.30157 -5.1159,-9.87288 -6.9173,-15.14448 -0.1211,-0.34066 -0.139,-0.7443 -0.1046,-1.10807 0.4157,-4.29579 0.3237,-8.60311 0.2714,-12.90468 -0.029,-2.88696 0.2197,-5.80287 -0.808,-8.62055 -0.3811,-1.02197 -1.0622,-1.84168 -1.4143,-2.88098 -1.0278,-2.95625 -1.9004,-5.97072 -3.0205,-8.88077 -1.6282,-4.22649 -2.5812,-8.69552 -4.6078,-12.77769 -2.0382,-4.0937 -2.2629,-8.77666 -4.2145,-12.89347 -1.2413,-2.62135 -1.8711,-5.46134 -3.176,-8.0827 -1.2356,-2.47123 -2.7479,-4.9601 -2.8287,-7.85859 -0.081,-2.97935 -0.8664,-5.80344 -1.6285,-8.64421 -0.2483,-0.91228 -0.3574,-1.85925 -0.1668,-2.78886 0.9354,-4.51519 2.1989,-8.91461 4.9414,-12.72539 0.9469,-1.31646 1.5539,-2.76616 1.9523,-4.30779 0.7563,-2.95624 2.0091,-5.73303 3.0254,-8.59689 0.2309,-0.6409 0.6695,-1.25892 1.1429,-1.75549 4.5845,-4.7577 8.5115,-10.06329 12.5648,-15.25404 0.5716,-0.73329 0.8192,-0.63594 1.2811,0.0685 0.8142,1.27026 1.825,2.36818 3.1761,3.11879 0.3291,0.18476 0.7441,0.39749 0.5478,0.84786 -0.8776,1.97468 -0.098,4.429 -1.9223,6.1554 -0.6816,0.64668 -0.728,1.68641 -0.7159,2.65066 0.035,2.62134 -0.063,5.21891 -0.4619,7.82871 -0.2423,1.59937 -0.2476,3.31463 0.058,4.89668 0.6813,3.54519 0.4967,7.17686 1.2762,10.70472 0.4792,2.14213 -0.3237,4.27225 -0.2428,6.41437 0.1732,4.72307 -1.7844,8.53428 -5.1333,11.65218 -1.9631,1.82457 -3.551,3.9547 -5.3062,5.95247 -0.8546,0.97578 -1.0734,2.10808 -0.6288,3.27441 0.5658,1.51277 0.669,3.08918 0.9288,4.6539 0.3407,2.0151 0.7917,4.01288 3.2109,4.63648 0.6698,0.17322 0.7494,0.75614 0.7557,1.35085 0.017,1.00467 0.2832,1.92255 0.8952,2.75399 1.4435,1.94582 3.1701,3.51602 5.3872,4.58418 1.2588,0.61206 2.4137,0.74571 3.6031,0.0759 0.97,-0.54277 1.8416,-0.78534 2.8636,-0.0809 0.6351,0.43305 1.4608,0.40437 2.1826,0.16185 1.4665,-0.49653 2.9275,-1.01632 4.0649,-2.13646 0.5601,-0.54275 1.1603,-0.92951 2.0033,-0.77938 1.4723,0.26559 2.6791,-0.22605 3.5857,-1.39816 1.2125,-1.58781 2.4246,-3.07162 4.4397,-3.82223 1.149,-0.42729 1.6112,-1.67929 1.6571,-3.03039 0.104,-3.08905 -0.623,-6.10331 -0.7732,-9.18081 -0.1847,-3.77036 0.6348,-7.02151 2.9097,-9.93157 1.5647,-2.00932 2.1951,-4.37077 2.9283,-6.73807 0.6641,-2.14212 0.7671,-4.41758 1.6621,-6.50774 0.5197,-1.21252 0.583,-2.53963 0.8255,-3.8272 0.5025,-2.68488 0.092,-5.4157 0.5253,-8.10636 0.537,-3.3431 1.7967,-6.58855 1.3521,-10.07598 -0.2656,-2.14213 0.2356,-4.44609 -1.5774,-6.18404 -0.1501,-0.15012 -0.2138,-0.42178 -0.254,-0.64119 -0.3753,-1.94003 -0.5772,-3.89142 -0.3,-5.86033 0.3753,-2.70219 -0.2253,-5.23086 -1.5301,-7.56352 -1.1837,-2.09593 -1.5939,-4.34735 -1.8826,-6.68578 -0.2483,-1.97469 0.8613,-3.62039 1.0172,-5.45072 0.1905,-2.26338 0.5306,-4.50978 0.5765,-6.8078 0.069,-3.21607 -1.5583,-5.77341 -2.9383,-8.32548 -1.2471,-2.29802 -3.412,-4.08832 -3.054,-7.07921 0.058,-0.485 -0.2191,-1.0046 -0.2714,-1.5127 -0.1502,-1.40883 -0.9244,-2.65629 -1.1554,-4.01893 -0.6236,-3.74728 -2.402,-6.83605 -4.9714,-9.55557 -0.9065,-0.95269 -2.0953,-1.43186 -3.2097,-1.97461 -1.761,-0.84876 -3.4757,-2.24581 -5.3984,-2.21116 -3.4933,0.0635 -6.5892,-1.80746 -10.0535,-1.69199 -0.6294,0.0173 -1.3626,-0.12781 -1.8938,-0.45692 -1.4665,-0.88919 -3.0882,-1.29867 -4.7049,-1.7779 -0.664,-0.19631 -1.3281,-0.51341 -1.8825,-0.91758 -2.7483,-1.97468 -6.0336,-2.75415 -9.1111,-3.90315 -2.0843,-0.77949 -4.2147,-1.50175 -6.3222,-2.26968 -0.8141,-0.29447 -1.2072,-0.75097 -1.1728,-1.64593 0.069,-1.63979 -0.058,-3.27919 -0.2714,-4.90166 -0.3061,-2.25182 -0.9009,-4.3307 -3.2047,-5.40465 -0.4732,-0.2194 -0.7733,-0.56 -0.5366,-1.1143 0.9123,-2.17676 1.0449,-4.5554 1.7666,-6.78414 0.6583,-2.02087 0.2076,-3.78166 -1.4379,-5.1905 -0.4965,-0.42727 -1.027,-0.82041 -1.2637,-1.47286 -1.126,-3.11792 -2.9851,-5.83666 -4.8905,-8.48111 -1.9746,-2.73107 -4.8213,-4.37664 -8.1586,-4.69997 -1.009,-0.0974 -2.026,-0.15473 -3.0441,-0.16061 z m -3.799896,68.06425 c 2.033396,0.0535 4.115696,0.53938 6.237596,1.42928 0.6267,0.26347 1.2246,0.57157 1.7916,0.91758 -0.1186,0.0112 -0.2401,0.0251 -0.3474,0.0262 -5.4297,0.0789 -10.858896,0.18536 -16.288596,0.28262 2.7393,-1.87451 5.6195,-2.73421 8.6068,-2.65563 z m 9.682596,3.5396 c 3.0886,2.6138 4.87,6.56253 4.6788,10.86906 -0.2011,4.42941 -1.9511,7.9141 -5.0199,10.38226 0.048,-0.3846 0.047,-0.89777 0.037,-1.61479 0,-0.1465 -0.013,-0.29923 -0.01,-0.44572 0.043,-0.87286 -0.4027,-1.23876 -1.2451,-1.29981 -0.6531,-0.0488 -1.3612,0.16473 -2.1364,-0.31748 2.1181,-1.98986 3.3206,-4.31014 3.369,-7.12403 0.055,-2.87493 -1.3421,-5.13279 -3.6616,-7.36681 1.2452,0 1.9767,0.006 2.7092,-0.006 0.3968,-0.006 0.9043,0.0241 1.0508,-0.39093 0.3073,-0.87318 0.3799,-1.79978 0.2241,-2.68552 z m -19.686296,0.1631 c -0.016,0.39731 -0.036,0.79417 -0.04,1.19148 0,1.99597 0.01,1.98419 1.9472,2.0269 0.4211,0.006 0.8783,-0.15883 1.3483,0.24403 -4.297,4.55959 -4.3881,9.27189 -0.2253,14.04512 -3.1833,0.55743 -3.2733,0.59944 -3.2881,3.66162 -6.7011,-5.435 -6.5688,-15.71912 0.2577,-21.16915 z m 9.5854,5.51296 c 3.161796,-0.0122 5.298696,1.97217 5.280196,4.92034 -0.018,2.8322 -2.3133,5.06573 -5.261496,5.11456 -2.9177,0.0488 -5.3107,-2.20368 -5.335,-5.02367 -0.024,-2.74675 2.3681,-4.99911 5.3163,-5.01123 z m -8.9206,16.36087 c 5.3781,0.0871 10.7506,0.17851 16.129296,0.24776 0.4491,0.006 0.7984,0.005 1.1068,-0.006 -0.7953,0.49824 -1.6536,0.94568 -2.5834,1.33342 -5.157796,2.15458 -10.124496,1.68862 -14.652696,-1.57496 z m -59.1374,0.96863 c 0.7968,-0.0115 1.8017,-0.0115 1.7953,1.06823 -0.01,1.16054 -1.0911,1.03945 -1.8301,1.14916 -0.8141,-0.0808 -1.7729,0.0293 -1.8016,-0.99851 -0.029,-1.1721 0.9877,-1.20155 1.8364,-1.21888 z"
       id="path4668"
       inkscape:connector-curvature="0" />
    <g
       transform="matrix(1.3880005,0,0,-1.3880005,58.518747,1019.6903)"
       inkscape:label="ink_ext_XXXXXX"
       id="g4754"
       style="fill:none;stroke:#000000;stroke-width:0.07204609;stroke-miterlimit:4;stroke-dasharray:none;stroke-opacity:1">
      <g
         transform="scale(0.1,0.1)"
         id="g4756"
         style="fill:none;stroke:#000000;stroke-width:0.72046089;stroke-miterlimit:4;stroke-dasharray:none;stroke-opacity:1">
        <g
           id="g4758"
           style="fill:none;stroke:#000000;stroke-width:0.72046089;stroke-miterlimit:4;stroke-dasharray:none;stroke-opacity:1">
          <g
             clip-path="url(#clipPath4762)"
             id="g4760"
             style="fill:none;stroke:#000000;stroke-width:0.72046089;stroke-miterlimit:4;stroke-dasharray:none;stroke-opacity:1">
            <path
               inkscape:connector-curvature="0"
               id="path4766"
               style="fill:none;fill-opacity:1;fill-rule:evenodd;stroke:#000000;stroke-width:7.20460939;stroke-miterlimit:4;stroke-dasharray:none;stroke-opacity:1"
               d="m 1407.37,2487.35 c 0.19,-0.71 0.37,-1.43 0.54,-2.15 12.43,1.15 25.01,1.66 36.32,8.16 2.34,1.34 5.93,2.85 4.87,5.99 -1.21,3.6 -4.83,1.95 -7.31,1.04 -11.51,-4.23 -22.95,-8.68 -34.42,-13.04 m -63.02,-2.22 c 0.93,2.58 -0.69,3.1 -1.89,3.56 -9.76,3.76 -19.55,7.46 -29.37,11.1 -2.98,1.09 -6.62,2.17 -8.15,-1.6 -1.61,-3.99 2.44,-5.48 4.98,-6.68 10.95,-5.1 22.65,-6.38 34.43,-6.38 M 1012.7,1646.34 c -4.45,0.44 -8.51,-1.41 -11.59,-5.06 -2.762,-3.26 -6.391,-8.72 -1.622,-10.78 7.832,-3.39 9.162,-18.42 21.082,-12.65 5.74,2.78 9.79,8.74 7.53,16.35 -2.22,7.42 -6.19,12.77 -15.4,12.14 m 672.51,713.55 c 9.3,21.7 2.43,35.27 -19.48,41.46 -14.75,4.17 -25.4574,-0.2106 -36.02,-11.68 -7.6884,-9.3703 0.021,-24.3827 6.26,-32.61 16.7306,-20.8786 40.4887,-11.7263 49.24,2.83 z m -466.99,-205.71 c 0,-1.98 -0.09,-3.98 0.02,-5.95 0.45,-8.36 1.1,-17.09 10.01,-20.89 9.31,-3.97 16.93,1.16 24.09,6.59 0.67,0.51 1.12,1.31 1.79,1.8 15.3565,14.8368 20.468,30.7225 22.21,49.79 1.48,6.21 1.25,12.25 -0.01,18.48 -3.96,19.56 -14.11,23.35 -29.46,10.89 -19.27,-15.67 -28.41,-36.08 -28.65,-60.71 M 1642.23,340.508 c -2.04,-0.84 -3.33,-1.32 -4.54,-1.91 -2.56,-1.227 -5.21,-2.969 -7.92,-0.868 -2.75,2.149 -1.47,5.168 -0.9,7.899 5.32,25.801 11.42,51.469 15.82,77.422 9.19,54.32 4.11,108.226 -5.01,162.219 -7.41,43.988 -21.4,85.621 -38.44,126.507 -2.52,6.063 -5.92,11.672 -9.99,16.75 -13.95,17.551 -20.71,38.051 -25.83,59.453 -8.24,34.469 -15.04,69.168 -19.79,104.29 -2,14.699 -1.18,29.41 -0.55,44.128 0.15,3.153 0.27,6.122 -0.96,9.129 -10.92,26.774 -19.88,54.114 -27.91,81.943 -9.24,32.09 -23.67,62.48 -36.19,93.49 -29.47,73.07 -56.05,147.18 -78.48,222.74 -5.31,17.89 -6.97,36.69 -13.71,56.88 -3.18,-19.61 -6.89,-36.78 -10.74,-53.91 -9.74,-43.53 -21.18,-86.85 -41.21,-126.61 -13.52,-26.85 -20.1,-55.06 -27.85,-83.36 -2.91,-10.61 -2.73,-21.29 -2.79,-32.03 -0.08,-16.16 0.01,-32.31 0.04,-48.47 0,-2.26 0.19,-4.56 -0.08,-6.79 -1.01,-8.48 0.16,-10.77 6.54,-17.46 7.72,-8.12 12.55,-18.15 16.4,-28.54 13.19,-35.472 23.83,-71.492 23.03,-109.91 -0.41,-19.84 -9.34,-37.242 -15.86,-55.191 -6.17,-16.989 -13.87,-33.539 -22.3,-49.571 -8.89,-16.867 -14.13,-34.328 -15.62,-53.32 -2.41,-30.77 -6.14,-61.469 2.81,-91.91 4.59,-15.59 10.32,-30.559 19.73,-43.988 4.98,-7.11 6.06,-32.012 -0.48,-36.36 -13.26,-8.851 -2.44,-15.101 1.13,-21.25 6.76,-11.59 11.76,-22.39 3.45,-35.449 -4.22,-6.641 -6.96,-14.242 -10.15,-21.512 -6.38,-14.449 -16.71,-21.461 -32.87,-17.941 -2.09,0.453 -4.09,-0.227 -5.35,-1.899 -6.15,-8.101 -14.7,-8.57 -23.66,-7.531 -2.07,0.211 -4.14,0.633 -5.59,-0.969 -6.64,-7.269 -16.05,-6.191 -24.4,-8.16 -4.08,-0.961 -7.84,0.36 -10.94,3.321 -1.03,0.98 -2.15,1.839 -3.25,2.738 -18.84,15.402 -18.66,15.203 -36.67,-0.77 -6.77,-5.988 -12.35,-12.148 -14.29,-21.3 -0.95,-4.477 -3.69,-7.899 -8.13,-10.25 -20.81,-11.067 -42.15,-20.688 -65.09,-26.5 -4.68,-1.18 -8.71,-1.329 -12.94,1.363 -6.95,4.429 -12.75,2.769 -17.58,-3.852 -6.97,-9.558 -21.69,-11.371 -31.21,-4.07 -5.36,4.129 -11.67,3.34 -14.96,-2.469 -2.05,-3.629 -4.47,-5.551 -8.614,-5.672 -33.301,-0.988 -60.148,11.883 -71.629,46.383 -0.789,2.399 -1.551,5.078 -1.23,7.477 2.121,15.972 6.242,31.461 13.421,45.871 4.809,9.672 13.278,16 22.559,21.301 7.141,4.058 14.262,8.21 21,12.871 6.109,4.218 12.441,6.297 19.893,5.82 11.68,-0.773 20.04,6.859 29.18,12.348 0.86,0.519 2.06,2.019 1.84,2.601 -3.56,9.699 5.47,11.828 10.02,16.25 5.45,5.34 11.76,9.75 17.62,14.668 9.59,8.051 19.17,15.231 24.61,27.961 6.03,14.102 16.49,26.332 25.11,39.32 2.59,3.899 4.33,7.93 3.17,12.739 -0.91,3.84 0.86,7.191 2.08,10.672 15.56,44.07 22.95,89.488 20.07,136.148 -3.26,52.883 -11.22,105.281 -19.16,157.652 -1.64,10.75 -2.59,21.309 0.44,31.95 0.94,3.289 0.79,6.519 -0.08,9.988 -8.02,32.232 -20.45,62.922 -32.76,93.612 -4.27,10.67 -3.82,20.6 -0.6,31.37 8.12,27.1 17.46,53.93 21.16,82.21 0.46,3.47 0.33,6.62 -1.15,9.88 -6.63,14.73 -12.49,29.84 -19.81,44.22 -7.2,14.15 -9.7,28.71 -8.67,44.36 1.32,20.05 2.12,40.15 3.01,60.24 1.28,29.41 2.03,58.87 3.82,88.26 0.96,15.64 6.84,30.37 11.81,45.07 2.13,6.34 8.96,10.49 14.81,13.51 14.02,7.28 17.84,19.57 18.93,33.72 0.51,6.47 1.94,12.27 5.4,18.28 4.32,7.51 3.38,17.05 4.74,25.69 0.67,4.3 1.06,8.52 6.19,10.09 3.15,0.95 2.7,4.07 3.25,6.39 1.94,8.27 3.56,16.62 5.51,24.9 1.03,4.39 0.41,10.36 8.02,9.43 1.77,-0.21 2.27,1.54 1.86,3.03 -4.62,17 2.13,33.08 4.33,49.44 2.04,15.11 5.39,30.12 10.02,44.74 2.13,6.74 4.75,13.08 9.44,18.79 5.4,6.6 2.21,14.17 0.79,22 -4.47,-2.31 -5.97,-5.82 -8.11,-8.65 -9.8,-12.97 -20.82,-24.75 -34.11,-34.15 -22.87,-16.19 -42.37,-35.75 -59.32,-57.97 -1.37,-1.79 -2.74,-4.79 -4.38,-4.98 -10.41,-1.26 -9.16,-9.54 -10.43,-16.32 -1.08,-5.89 -2.8,-11.54 -5.4,-16.95 -2.81,-5.88 -9.01,-11.88 0.19,-17.66 1.33,-15.92 6.99,-33.42 -2.37,-47.09 -8.04,-11.74 -22.31,-18.81 -37.02,-22.45 -9.23,-2.29 -17.9,-1.49 -25.88,4.2 -2.551,1.82 -5.762,2.13 -8.891,2.56 -16.363,2.28 -31.481,7.97 -45.25,17.15 -3.203,2.14 -6.024,4.84 -6.203,8.71 -0.399,8.5 -5.117,14.61 -9.899,21.03 -8.101,10.9 -9.129,23.66 -7.41,36.58 3.899,29.16 14.469,54.83 37.16,75.15 9.879,8.84 18.719,18.88 29.559,26.69 3.641,2.61 6.09,6.11 7.32,10.18 7.114,23.46 21.974,42.66 34.454,63.16 2.54,4.19 4.68,8.39 5.53,13.21 6.83,39.01 25.66,72.99 45.08,106.65 2.93,5.06 7.15,9.59 11.51,13.54 12.48,11.32 17.21,27.81 27.7,40.41 2.16,2.59 1.76,5.91 1.73,8.99 -0.31,36.9 4.06,73.45 7.86,110.06 1.44,13.78 1.49,27.7 2.1,41.57 0.13,2.83 -0.55,5.46 -1.66,8.19 -13.74,33.76 -24.19,68.45 -23.52,105.26 0.44,23.9 8.51,46.1 20.12,66.93 3.31,5.93 8.79,9.48 14.71,12.43 12.95,6.45 26.32,11.91 39.94,16.75 2.91,1.04 6.52,1.59 7.63,4.86 3.66,10.8 12.51,15.73 21.99,19.84 24.72,10.7 49.46,21.43 76.8,23.56 5.89,0.46 7.87,3.21 6.58,9.05 -2.89,13.28 -5.03,26.73 -8.3,39.91 -3.7936,23.7301 -0.4551,34.0386 -12.55,54.16 -1.37,6.35 -3.06,12.75 -3.4,19.2 -2.21,40.82 1.32,81.31 7.18,121.7 2.97,20.46 17.77,30.8 33.41,38.95 49.2,25.62 97.51,22.81 143.84,-8.1 14.21,-9.49 23.84,-21.46 25.71,-39.73 1.85,-17.98 4.44,-35.95 6.96,-53.86 1.58,-11.17 6.33,-21.8 5.62,-33.7 -1.14,-19.12 0.55,-38.32 -9.05,-56.39 -3.16,-5.94 -1.55,-14.43 -2.09,-21.77 -1.31,-17.48 -7.05,-34.45 -6.02,-52.23 0.58,-10.26 2.75,-11.96 10.69,-5.67 19.54,15.48 40.94,26.07 65.9,29.26 5.41,0.69 9.84,14.39 7.49,22.29 -1.92,6.51 -3.71,13.25 -6.89,19.15 -10.84,20.08 -14.77,42.05 -18.75,64.05 -1.33,7.38 -2.65,14.68 6.67,18.63 10.94,4.65 15.15,3.88 23.26,-4.82 13.54,-14.5 18.59,-33.36 26.62,-50.71 1.88,-4.04 2.07,-10.9 8.9,-8.96 6.33,1.79 12.68,4.16 12.13,13.64 -0.85,14.12 -0.1,28.33 -0.43,42.49 -0.31,13.36 3.4,25.76 8.01,38 2.99,7.96 8.59,12.41 17.4,12.21 8.8,-0.19 14.56,-4.88 17.07,-12.87 3.57,-11.3 6.06,-22.75 7.05,-34.77 0.78,-9.67 4.41,-19.17 4.63,-29.14 0.07,-3.95 1.22,-8.03 0.54,-11.83 -1.04,-5.95 1.27,-7.93 6.76,-8.89 5.63,-0.99 6.7,2.23 7.92,6.35 4.76,15.99 10.6,31.56 18.12,46.46 5.73,11.34 14.39,16.36 23.5,13.77 9.37,-2.67 14.88,-12.03 13.48,-24.47 -2.2,-19.62 -4.38,-39.29 -10.06,-58.34 -1.39,-4.61 8.15,-19.91 12.79,-20.76 3.17,-0.57 4.53,1.99 6.02,3.92 8.77,11.52 20.11,20.52 30.15,30.8 10.57,10.82 19.4,12.81 26.93,7.23 10.45,-7.71 3.79,-17.34 1.01,-25.39 -5.68,-16.45 -15.72,-30.72 -26.49,-44.27 -4.35,-5.51 -7.1,-12.18 -12.78,-16.78 -2.79,-2.26 -1.4,-5.79 -0.5,-8.79 4.65,-15.53 2.36,-31.67 -1.81,-46.01 -3.09,-10.58 -7.24,-20.9 -8.75,-32.04 -0.51,-3.76 -0.52,-7.3 0.97,-10.82 11.62,-27.28 10.92,-54.54 0.1,-81.89 -5.2,-13.18 -10.47,-26.31 -17.79,-38.53 -3.4,-5.69 -7.37,-10.67 -13.34,-13.9 -6.03,-3.26 -8.97,-9.36 -12.57,-14.7 -6.8,-10.12 -15.64,-17.2 -27.61,-19.74 -10.54,-2.25 -18.95,-8.81 -28.38,-13.27 -3.25,-1.54 -4.12,-4.42 -4.61,-7.61 -9.45,-62.29 -35.93,-118.5 -62.91,-174.43 -21.01,-43.59 -35.19,-89.59 -49.67,-135.52 -1.01,-3.18 -1.04,-6.69 -1.28,-10.07 -0.25,-3.67 1.04,-8.05 -0.54,-10.92 -6.45,-11.73 0.97,-22.66 1.05,-33.93 0.02,-2.75 1.37,-5.01 3.55,-6.5 16.82,-11.45 22.99,-29.63 29.91,-47.31 7.22,-18.45 13.34,-37.32 20.05,-55.95 5.29,-14.7 14.81,-27.81 20.84,-42.59 3.49,-8.57 4.93,-17.11 3.92,-25.53 -1.11,-9.26 -1.16,-18.68 -3.2,-27.82 -3.46,-15.42 2.09,-29.67 5.42,-44.22 0.52,-2.22 1.6,-4.57 4.29,-4.74 7.28,-0.44 8.92,-5.95 10.67,-11.45 16.58,-52.24 27.92,-105.61 35.46,-159.92 5.1,-36.75 10.27,-73.44 12.61,-110.5 0.91,-14.41 2.53,-28.88 1.94,-43.26 -1.22,-31.47 4.46,-62.05 9.91,-92.73 2.13,-11.98 4.6,-23.94 6.11,-36.02 2.16,-17.24 9.03,-33.32 11.77,-50.39 0.47,-2.92 1.49,-5.9 5,-5.93 5.87,-0.04 9.05,-3.99 12.62,-7.64 42.94,-43.991 65.6,-97.503 71.67,-157.87 3.07,-30.402 1.3,-61.14 -1.54,-91.691 -1.64,-17.739 -3.92,-35.539 -3.95,-53.321 -0.08,-50.968 -4.91,-101.91 -0.43,-152.89 2.9,-32.899 7.63,-65.188 22.56,-95.309 7.35,-14.82 11.03,-31.371 11.75,-47.578 0.39,-8.84 0.34,-17.461 1.94,-26.312 0.94,-5.161 -1.64,-11.11 -3.17,-16.539 -2.57,-9.102 -4.51,-18.082 -1.46,-27.469 1.33,-4.113 -0.13,-7.383 -4.49,-8.653 -7.37,-2.16 -8.83,-7.378 -8.76,-14.359 0.25,-23.809 0.23,-47.609 -0.02,-71.43 -0.25,-25.648 -11.9,-46.738 -27.47,-66.078 -1.36,-1.66 -3.51,-3.562 -5.43,-3.722 -5.42,-0.469 -6.85,-4.211 -8.36,-8.289 -4.14,-11.161 -9.2,-21.36 -22.96,-23.032 -2.48,-0.308 -3.49,-2.75 -4.36,-4.847 -5.94,-14.203 -17.51,-20.313 -31.82,-23.75 -27.67,-6.661 -54.73,-2.161 -81.59,3.898 -19.4,4.371 -29.88,19.121 -30.73,40.5 -0.78,20.149 0.49,40.422 3.75,60.109 4.14,25.04 8.56,50.29 18.43,74.063 2.33,5.609 5.55,9.84 11.88,10.848 3.41,0.539 5.72,2.05 6.43,5.699 1.98,10.242 2.36,20.57 2.72,31.75"
               sodipodi:nodetypes="cccccccccccccccccccccccccccccccccccccccccccccccccccccccccccccccccccccccccccccccccccccccccccccccccccccccccccccccccccccccccccccccccccccccccccccccccccccccccccccccccccccccccccccccccccccccccccccccccccccccccccccccccccccccccccccccccsccccccccccccccccccccccccccccccc" />
          </g>
        </g>
      </g>
    </g>
    <g
       transform="matrix(1.4524196,0,0,-1.4524196,160.34539,637.89851)"
       inkscape:label="ink_ext_XXXXXX"
       id="g4815"
       style="fill:none;stroke:#000000;stroke-width:0.06885064;stroke-miterlimit:4;stroke-dasharray:none;stroke-opacity:1">
      <g
         transform="scale(0.1,0.1)"
         id="g4817"
         style="fill:none;stroke:#000000;stroke-width:0.68850636;stroke-miterlimit:4;stroke-dasharray:none;stroke-opacity:1">
        <g
           id="g4819"
           style="fill:none;stroke:#000000;stroke-width:0.68850636;stroke-miterlimit:4;stroke-dasharray:none;stroke-opacity:1">
          <g
             clip-path="url(#clipPath4823)"
             id="g4821"
             style="fill:none;stroke:#000000;stroke-width:0.68850636;stroke-miterlimit:4;stroke-dasharray:none;stroke-opacity:1">
            <path
               inkscape:connector-curvature="0"
               id="path4827"
               style="fill:none;fill-opacity:1;fill-rule:evenodd;stroke:#000000;stroke-width:6.88506365;stroke-miterlimit:4;stroke-dasharray:none;stroke-opacity:1"
               d="m 937.996,2305.7 c -33.34,-6.64 -62.578,-39.8 -64.527,-71.36 -0.621,-10.06 -1.16,-20.26 3.886,-29.58 4.231,-7.82 10.383,-13.93 19.661,-13.62 8.511,0.28 13.82,6.35 16.961,13.95 1.789,4.32 3.812,8.8 4.32,13.36 3.269,29.47 1.84,59.84 19.699,87.25 m 424.414,364.58 c -0.06,-5.29 -5.62,-4.27 -6.5,-7.79 18.39,2.78 19.86,3.15 27.82,-14.44 10.42,-23.04 25.55,-42.45 41.22,-61.85 21.67,-26.83 36.05,-58.38 54.73,-87.17 2.2,-3.37 3.31,-7.62 6.01,-10.47 9.94,-10.54 9.55,-22.41 5.25,-34.87 -5.47,-15.92 -11.19,-31.77 -16.8,-47.65 -1.18,-3.37 -3.48,-5.59 -6.63,-7.23 -22.1,-11.54 -44.05,-23.34 -66.26,-34.64 -13.98,-7.11 -32.77,-2.36 -41.35,10.7 -15.91,24.21 -31.16,48.85 -46.98,73.12 -2.72,4.18 -4.68,11.68 -11.29,9.64 -7.76,-2.42 -16.29,-5.36 -19.54,-14.4 -7.82,-21.77 -17.62,-42.88 -19.29,-66.55 -0.9,-12.86 -7.39,-24.54 -12.1,-36.21 -6.44,-15.93 -7.3,-32.74 -10.89,-48.99 -3.51,-15.9 -0.04,-32.76 2.84,-48.99 1.42,-7.98 2.97,-15.9 2.88,-24.03 -0.11,-9.84 6.07,-17.78 7.18,-27.74 3.23,-29.19 -3.8,-55.96 -14.37,-82.39 -1.27,-3.18 -2.86,-6.1 -1.81,-9.64 1.87,-6.34 0.3,-12.07 -3.47,-17.19 -4.17,-5.64 -3.06,-11.04 -0.74,-17.12 4.43,-11.54 10.41,-22.37 14.59,-34.14 2.72,-7.63 6.01,-15.6 9.06,-23.43 1.56,-4.03 4.33,-8.63 9.57,-7.15 4.32,1.21 3.78,6.14 3.46,9.65 -0.74,8.04 1.88,15.52 2.32,24.44 5.12,-3.47 4.44,-7.74 4.45,-11.49 0.05,-7.13 0.63,-14.09 3.05,-20.88 1.72,-4.82 4.48,-9.12 9.51,-9.31 4.98,-0.2 9.77,2.13 12.33,7.28 4.08,8.24 9.48,15.68 15.97,22.03 18.16,17.78 40.13,27.96 65.14,20.61 21.19,-6.23 41.14,-16.93 51.28,-39.1 5,-10.93 12.98,-11.82 20.27,-2.04 6.45,8.62 12.43,17.62 18.44,26.55 5.37,7.95 14.4,12.89 17.83,25.42 2.09,-10.27 -1.7,-16.59 -1.73,-23.67 1.3,2.14 2.61,4.28 3.92,6.45 0.85,-0.59 1.86,-1.08 1.8,-1.29 -7.14,-28.75 1.58,-61.32 -20.78,-86.4 -0.44,-0.5 -0.9,-0.98 -1.88,-2.05 5.59,-2.71 8.59,-5.04 2.45,-11.42 -2.68,-2.78 -1.85,-12.13 0.81,-16.33 14.1817,-15.2921 46.5942,-42.7359 49.5,-43.89 8.57,-3.94 17.12,-7.91 25.72,-11.8 17.48,-7.92 35.35,-15.06 49.53,-28.75 5.22,-5.05 12.33,-6.7 19.02,-9.04 4.27,-1.5 5.73,-3.48 0.82,-6.64 -5.76,-3.72 -10.84,-5.19 -18.37,-3.31 -18.36,4.57 -37.13,4.02 -56,1.17 -10.54,-1.6 -21.49,-1.45 -32.23,0.35 -5.21,0.88 -10.53,1.26 -15.94,0.84 21.47,-7.88 45.58,-2.08 66.78,-14.79 -8.11,-6.52 -19.43,-9.57 -27.77,-18.32 14.28,-1.47 18.59,-14.72 25.47,-23.08 10.25,-12.46 22.4,-25 24.78,-42.95 1.53,-11.46 7.44,-22.01 4.94,-34.5 -0.8,-4.05 3.44,-10.55 7.21,-13.78 9.48,-8.1 14.75,-19.03 21.54,-28.88 5.98,-8.64 8.15,-19.18 11.02,-29.01 5.94,-20.36 3.93,-40.88 1.11,-62 -2.09,-15.65 -7.52,-28.58 -14.51,-41.84 -6.19,-11.73 -2.85,-23.87 7.83,-31.63 17.41,-12.65 37.15,-18.29 58.38,-20.31 42.2,-4.04 81.19,9.25 120.62,20.97 75.06,22.31 147.16,52.65 220.11,80.69 34.42,13.23 68.95,25.8 106.66,23.82 30.03,-1.56 59.9,-4.23 87.14,-18.87 22.84,-12.28 42.16,-28.77 58.72,-48.63 13.81,-16.56 27.7,-33.05 41.55,-49.59 1.05,-1.26 2.3,-2.5 1.69,-4.48 -2.02,-1.82 -3.79,-0.25 -5.51,0.56 -26.11,12.28 -53.31,18.72 -82.32,15.23 -27.46,-3.29 -54.69,-7.22 -80.56,-18.1 -12.48,-5.26 -20.25,-13.5 -24.65,-26.11 -7.03,-20.09 -10.92,-41.01 -16.96,-61.35 -13.87,-46.75 -32.14,-91.48 -59.81,-132.03 -8.26,-12.1 -19.3,-21.57 -28.67,-32.59 -18.87,-22.21 -31.52,-47.74 -41.12,-74.87 -5.93,-16.74 -17.01,-28.58 -31.37,-38.28 -18.15,-12.24 -37.96,-22.06 -54.65,-36.36 -26.81,-22.98 -41.45,-52.41 -45.4,-87.448 -2.87,-25.582 -0.19,-51.141 0.12,-76.672 0.26,-22.52 -16.95,-48.649 -42.96,-47.719 -11.21,0.399 -21.75,-8.148 -30.41,-16.391 -7.32,-6.949 -13.93,-14.738 -24.07,-17.871 -4.24,-1.297 -4.29,-4.976 -3.99,-8.297 0.88,-9.64 4.4,-18.472 11.15,-25.292 11.57,-11.68 12.46,-26.688 11.81,-41.098 -0.51,-11.211 1.8,-20.492 7.55,-29.473 3.81,-5.937 7.97,-11.687 11.64,-17.719 2.87,-4.71 4.92,-9.589 0.74,-14.941 -2.28,-2.937 -0.84,-6.59 -0.31,-9.828 7.65,-46.949 10.31,-94.391 14.21,-141.719 0.97,-11.75 3.45,-22.18 16.07,-27.992 7.35,-3.367 12.33,-11.199 13.82,-19.07 1.48,-7.828 6.38,-10.59 12.32,-13.047 21.94,-9.094 33.58,-35 26.06,-57.422 -3.09,-9.199 -2.85,-18.399 2.22,-27.281 13.51,-23.66 30.41,-44.559 52.17,-60.91 23.37,-17.547 37.08,-40.309 41.88,-68.938 3.21,-19.199 -2.78,-32.359 -20.79,-39.793 -35.09,-14.477 -71.78,-15.238 -108.19,-7.68 -20.19,4.192 -36.51,17.321 -43.15,37.661 -5.22,16.011 -16.44,23.312 -30.73,27.14 -22.27,5.973 -32.37,19.52 -31.73,42.61 0.29,10.011 -1.48,20.101 0.03,30.203 0.93,6.218 -1.34,10.757 -6.5,14.738 -21.1,16.281 -22.32,40.328 -9.17,64.391 2.4,4.371 2.94,7.308 0.91,11.91 -4.48,10.179 -8.03,20.8 -7.18,32.238 0.56,7.492 -3.67,12.609 -8.09,17.84 -24.19,28.512 -48.08,57.25 -70.08,87.562 -20.7,28.539 -33.65,59.75 -37.14,94.809 -1.56,15.719 -7.88,29.73 -14.92,43.531 -1.06,2.098 -3.19,4.231 -3.09,6.258 0.67,14.199 -9.4,21.25 -18.36,29.41 -7.72,7.02 -6.82,11.629 2.01,16.141 12.62,6.429 12.14,8.789 5.11,22.23 -4.98,9.489 -11.36,11.391 -20.35,9.981 -28.72,-4.5 -57.05,-1.063 -85.43,3.418 -22.61,3.59 -45.37,6.179 -67.95,10.191 -50.49,8.969 -96.38,29.578 -140.77,54.211 -3.22,1.777 -6.22,4.027 -9.15,6.301 -9.41,7.269 -12.3,7.097 -18.03,-3.934 -8.3,-15.957 -19.05,-29.429 -32.55,-41.558 -13.98,-12.571 -19.33,-31.27 -27.06,-47.969 -3.11,-6.723 2.2,-11.051 10.14,-9.422 3.89,0.789 7.96,3.082 11.15,-1.109 3.34,-4.391 0.51,-8.399 -1.58,-12.141 -2.29,-4.117 -4.5,-8.527 -7.79,-11.75 -9.26,-9.098 -18.13,-17.898 -15.78,-32.758 0.6,-3.812 -2.26,-7.801 -5.28,-10.59 -10.67,-9.84 -11.43,-22.32 -9.63,-35.422 1.28,-9.339 3.34,-18.578 3.04,-28.089 -0.37,-11.852 -4.38,-15.5 -15.04,-11 -8.86,3.742 -12.24,0.73 -16.37,-6.602 -22.96,-40.809 -46.09,-81.527 -69.84,-121.887 -10.79,-18.34 -6.29,-36.902 -2.11,-55.101 2.34,-10.18 8.91,-19.418 13.74,-29 5.23,-10.371 3.84,-14.391 -5.61,-20.692 -6.96,-4.636 -13.24,-10.187 -21.49,-12.797 -5.27,-1.671 -3.85,-6.261 -3.33,-10.292 2.34,-17.75 3.26,-35.418 1.13,-53.368 -2.03,-17.172 -9.13,-30.043 -25.2,-37.222 -12.652,-5.641 -20.433,-13.938 -24.261,-28.45 -4.684,-17.808 -17.051,-30.429 -35.863,-36.597 -31.981,-10.473 -64.039,-15.891 -97.289,-7.332 -10.211,2.629 -19.828,6.691 -28,13.519 -18.442,15.41 -22.871,42.45 -10.461,66.41 8.531,16.512 21.031,30.282 36.832,39.442 15.379,8.918 27.148,20.719 37.519,34.57 5.25,7.008 10.262,14.231 15.95,20.867 10.339,12.071 12.539,23.34 5.359,39.231 -8.41,18.601 2.191,35.172 14.961,49.18 3.371,3.703 7.308,7.421 11.75,9.492 12.43,5.789 14.082,16.058 15.039,28.238 3.633,46.492 2.031,92.91 0.211,139.383 -1.078,27.656 1.101,55.219 5.57,82.558 2.762,16.942 8.762,32.532 19.512,46.02 4.637,5.82 6.598,12.101 6.848,19.519 0.812,23.602 4.589,46.911 7.671,70.29 0.399,2.992 0.438,6.371 4.129,7.351 3.571,0.961 6.828,-0.281 9.073,-3.082 4.84,-6.039 9.69,-12.098 14.02,-18.508 3.73,-5.511 6.09,-4.621 10.88,-0.539 12.12,10.309 17.64,24.199 22,38.5 3.17,10.391 -0.73,21.168 -1.99,31.699 -0.62,5.079 -0.97,9.93 -0.2,14.989 3.76,24.441 7.59,48.871 10.88,73.371 0.79,5.869 2.43,11.169 5.25,16.169 6.72,11.88 5.46,22.83 -0.69,35.05 -24.23,48.18 -39.36,99.28 -48.87,152.4 -8.07,45.05 -9.9,90.25 -10.38,135.8 -1.12,105.71 11.45,209.77 36.72,312.21 10.55,42.81 22.63,85.37 40.79,125.82 3.02,6.72 3.82,13.27 2.42,20.6 -6.09,31.92 -11.64,63.94 -19.38,95.55 -6.3,25.72 -1.92,51.11 5.48,75.68 7.09,23.52 10.14,46.46 2.36,70.34 -6.53,20.04 2.61,38.37 8.1,56.86 1.74,5.89 2.24,10.73 -0.16,16.38 -9.79,23.11 -9.8,47.7 -5.86,71.42 2.62,15.74 11.8,30.43 18.3,45.48 1.34,3.1 2.87,6.07 3.21,9.48 1.9,18.56 12.63,33.02 22.66,47.64 13,18.95 24.11,38.15 17.8,62.56 -1.17,4.52 -1.27,8.78 2.68,13.04 4.58,4.95 -2.12,8.11 -3.84,11.99 -1.61,3.64 -4.35,5.68 -8.95,4.04 -21.59,-7.7 -42.45,-16.93 -62.79,-27.5 -15.82,-8.23 -31.7,-16.24 -46.98,-25.46 -6.4,-3.87 -13.31,-2.49 -18.833,2.31 -5.059,4.4 -8.86,3.07 -13.09,-0.95 -19.66,-18.6 -33.789,-40.17 -36.629,-67.82 -1.313,-12.72 -2.602,-25.46 -3.57,-38.22 -1.719,-22.36 -10.411,-32.38 -32.059,-38.18 -13.652,-3.67 -27.07,-6.3 -40.301,0.56 -19.34,10.04 -23.051,28.23 -22.41,47.39 0.969,28.96 14.039,51.9 36.75,70.09 25.34,20.32 53.949,34.25 83.93,45.8 7.379,2.85 13.168,5.37 11.109,15.62 -1.559,7.74 3.699,13.06 11.02,16.14 27.573,11.59 54.803,23.89 82.893,34.37 13.56,5.05 26.2,13.42 40.21,18.29 3.97,1.37 4.53,4.6 4.31,8.17 -0.28,4.62 0.49,9.26 4.39,11.82 8.94,5.83 14.11,14.92 21.13,22.37 9.6,10.2 23.41,14.8 35.25,22.01 4.44,2.71 8.26,4.83 10.77,9.7 9.03,17.49 27.11,18.57 38.85,2.61 11.56,-15.75 28.28,-18.11 44.61,-6.73 5.1,3.55 2.9,6.64 0.63,10.15 -7.47,11.63 -14.82,23.33 -22.49,34.82 -4.8,7.2 -6.16,14.58 -4.02,23.04 5.13,20.24 9.92,40.57 14.73,60.89 1,4.26 3.22,7.33 7.11,9.24 24.19,11.92 48.34,23.91 74.41,31.36 6.55,1.88 12.99,1.97 19.4,0.33"
               sodipodi:nodetypes="ccccccccccccccccccccccccccccccccccccccccccccccccccccccccccccccccccccccccscssccccccccccccccccccccccccccccccccccccccccccccccccccccccccccccccccccccccccccccccccccccccccccccccccccccccccccccccccccccccccccccccccccccscccccccccccccccccccc" />
          </g>
        </g>
      </g>
    </g>
    <g
       transform="matrix(1.370526,0,0,-1.370526,3.4207505,624.59201)"
       inkscape:label="ink_ext_XXXXXX"
       id="g4876"
       style="fill:none;stroke:#000000;stroke-width:0.63667136;stroke-miterlimit:4;stroke-dasharray:none;stroke-opacity:1">
      <g
         transform="scale(0.1,0.1)"
         id="g4878"
         style="fill:none;stroke:#000000;stroke-width:6.36671352;stroke-miterlimit:4;stroke-dasharray:none;stroke-opacity:1">
        <g
           id="g4880"
           style="fill:none;stroke:#000000;stroke-width:6.36671352;stroke-miterlimit:4;stroke-dasharray:none;stroke-opacity:1">
          <g
             clip-path="url(#clipPath4884)"
             id="g4882"
             style="fill:none;stroke:#000000;stroke-width:6.36671352;stroke-miterlimit:4;stroke-dasharray:none;stroke-opacity:1">
            <path
               inkscape:connector-curvature="0"
               id="path4888"
               style="fill:none;fill-opacity:1;fill-rule:evenodd;stroke:#000000;stroke-width:6.36671352;stroke-miterlimit:4;stroke-dasharray:none;stroke-opacity:1"
               d="m 1306.3199,367.17614 c -0.47,11.351 4.34,20.722 7.85,30.312 9.12,24.898 14.83,50.738 22.14,76.148 1.02,3.54 0.95,7.743 7,6.59 3.66,-0.711 3.96,3.301 4.63,5.84 3.08,11.77 6.87,23.473 8.62,35.492 1,6.828 -4.88,13.411 -2.04,21.399 3.83,10.781 5.88,22.191 9.13,33.179 21.75,73.602 35.07,149.032 47.73,224.52 7.87,46.949 12.99,94.352 15.18,141.99203 0.36,7.66 0.31,11.66 -9.71,7.789 -10.12,-3.879 -18.78,1.512 -25.72,9.449 -1.89,2.172 -3.57,6.102 -7.21,4.813 -2.87,-1.023 -2.34,-4.75 -2.88,-7.422 -6.43,-31.019 -13.01,-61.98803 -19.17,-93.07003 -6.93,-34.899 -20.29,-68.031 -28.31,-102.621 -11.81,-50.93 -27.82,-100.68 -44.96,-149.918 -10.61,-30.492 -25.18,-59.61 -38.58,-89.063 -13.69,-30.097 -27,-60.367 -42.61,-89.566 -5.49,-10.313 -12.31,-19.453 -21.11,-26.934 -22.75,-19.379 -45.36,-39.047 -72.0601,-53.047 -2.83,-1.492 -6.8,-4.492 -9.51,-1.25 -2.61,3.137 0.93,6.457 2.74,9.239 20.6201,31.461 38.4701,64.55 57.7501,96.789 1.21,2.043 2.75,3.871 4.06,5.672 4.39,-0.86 2.23,-7.719 6.85,-6.95 3.89,0.637 4.55,4.899 5.88,8 12.98,30.391 25.88,60.821 38.89,91.168 1.86,4.321 3.58,8.172 -0.42,12.43 -3.62,3.84 -0.7,7.813 0.87,11.602 15.42,37.32 32,74.218 45.92,112.07 14.88,40.43 27.08,81.848 40.9,122.687 2.11,6.25 2.57,12.801 10.5,17.801 6.07,3.813 8.66,16.891 6.4,25.07 -2.39,8.7 -0.18,15.551 1.74,23.051 7.15,27.852 14.45,55.66803 21.8,83.94903 -15.03,-8.05 -20.36,-7.48 -32.54,4.29 -4.88,4.71 -6.84,4.203 -9.02,-2.18 -17.65,-51.82 -39.48,-101.77703 -64.27,-150.62903 -17.93,-35.309 -30.47,-73.199 -49.24,-108.301 -29.52,-55.25 -56.83,-111.82 -90.9501,-164.41 -25.92,-39.98 -54.82,-78.008 -82.49,-116.859 -1.16,-1.641 -2.81,-3.258 -4.61,-4.078 -25.99999,-11.743 -50.34999,-26.903 -76.98999,-37.333 -1.85,-0.718 -3.7,-2.121 -7.7,0.301 42.78,49.18 76.14999,104.762 113.74999,158.379 2.6,-4.98 -2.47,-7.66 -2.54,-11.328 8.08,5.02 47.25,63.277 57.39,85.43 -3.22,1.91 -4.1,-3.36 -7.25,-2.313 0.28,1 0.34,2.031 0.81,2.844 39.5101,67.258 73.2701,137.547 108.3501,207.156 6.79,13.481 13.61,26.883 23.51,38.953 7.4,9.02 11.05,21.68 14.52,33.278 7,23.42203 17.36,45.47203 25.9,68.26103 2.34,6.25 1.34,9.532 -3.78,14.059 -25.94,22.94903 -45.45,50.82003 -58.46,82.82003 -3.99,9.805 -1.24,21.235 0.16,31.695 1.01,7.7 1.63,15.05 0.51,22.73 -3.16,22.02 1.51,42.26 15.01,60.13 2.94,3.87 2.6,7.63 2.69,12.32 0.43,21.57 -6.09,43.55 7.93,64.32 11.33,16.78 22.64,34.31 24.7,55.75 1.35,14.21 -2.65,27.61 -4.3,41.32 -3.29,27.27 -7.6,54.49 -3.76,82.05 0.66,4.79 -3.26,7.56 -3.49,12.29 -0.86,18.12 4.56,34.47 11.28,50.75 2.86,6.93 7.02,13.72 5.3,21.89 -0.26,1.18 0.13,3.13 0.98,3.85 11.18,9.47 11.29,25.15 20.32,35.8 5.96,7.05 1.11,14.91 -1.08,20.73 -8.23,21.86 -0.92,40.1 10.22,58.02 6.43,10.35 13.01,20.6 19.75,30.73 3.57,5.36 3.18,9.86 -0.4,15.25 -7.76,11.71 -20.31,17.82 -30.19,27.02 -1.08,1.01 -3.35,1.42 -4.91,1.14 -22.06,-3.93 -44.49,0.38 -66.65,-3.2 -7.46,-1.19 -11.31,-4.02 -15.23,-10.14 -31.66,-49.2 -64.85,-97.34 -108.8401,-136.69 -12.16,-10.88 -24.83,-21.36 -39.41,-29.06 -14.63,-7.7 -23.77,-19.72 -29.66,-34.96 -13.26,-34.36 -31.65999,-66.02 -62.24999,-87.07 -21.16,-14.56 -38.98,-31.25 -56.43,-49.88 -17.01,-18.11 -20.35,-37.39 -18.14,-59.71 1.14,-11.63 -7.06,-19.38 -11.49,-28.5 -11.13,-22.88 -27.14,-40.29 -52.81,-48.7 -14.88,-4.86 -27.44,-15.09 -35.56,-30.03 -4.27,-7.87 -12.77,-12.9 -20.89,-16.85 -18.4,-8.96 -36.22,-19.59 -56.97,-22.64 -4.09,-0.61 -6.61,-3.26 -9.53,-5.82 -12.28,-10.8 -24.73,-21.39 -37.371,-31.75 -3.16,-2.57 -7.168,-5.48 -10.961,-5.73 -22.641,-1.54 -32.738,-19.24 -44.391,-34.32 -9.547,-12.364 -17.379,-26.035 -22.257,-41.153 -4.762,-14.73 -11.532,-28.402 -22.641,-39.51103 -2.852,-2.828 -3.941,-6.25 -4.691,-10.161 -5.629,-29.179 -13.508,-57.437 -29.668,-83.03103 -16.981,-26.886 -25.36,-56.578 -28.942,-88.379 -5.527,-49.097 -19.34,-96.09 -42.687,-140.007 -4.024,-7.563 -9.422,-13.543 -16.453,-18.461 -26.989,-18.832 -56.547,-31.172 -89.118,-36.129 -24.902,-3.793 -41.902,3.84 -54.293,25.578 -17.886,31.41 -25.418,65.898 -30.16,101.39 -5.679,42.481 3.434,81.93 24.203,118.532 30.039,52.94903 59.039,106.66003 96.418,155.03906 15.93,20.629 32.532,40.859 47.84,61.803 11.84,16.17 23.551,33.22 27.891,54.95 6.941,34.73 16.031,69.13 23.621,103.8 1.91,8.69 1.93,17.01 -0.223,25.74 -7.359,29.89 -10.597,60.08 -7.179,91.03 2.601,23.42 1.031,47.18 6.91,70.48 3.59,14.25 7.742,28.13 13.57,41.6 3.949,9.1 10.961,15.85 20.051,18.67 8.719,2.71 12.929,8.5 14.422,16.09 3.558,18.13 14.476,31.32 27.187,43.48 13.063,12.5 25.582,25.72 41.16,35.24 10.891,6.65 21.782,9.85 34.242,2.28 7.731,-4.66 17.54,-3.75 26.387,-5.44 10.25,-1.97 20.461,-3.54 30.263,-7.63 10.07,-4.22 22.06,0.32 28.71,8.86 10.61,13.62 14.14,27.96 11.78,45.73 -5.38,40.53 1.84,80.59 10.12,120.14 9.79,46.86 27.38,90.75 57.15,128.72 23.82,30.37 47.48,61.03 76.77,86.6 13.55,11.82 29.98,18.2 47.48,19.83 23.51,2.19 45.73,9.46 67.83,16.37 12.82,4 24.32999,13.4 35.19999,21.94 8.96,7.04 16.91,15.4 26.44,21.95 6.43,4.42 8.66,24.33 4.37,34.41 -17.46,41.02 -23.23,82.77 -8.02,125.82 2.92,8.29 3.14,16.04 -1.11,24.04 -2.09,3.93 -3.02,8.53 -4.23,12.88 -4.74,17.1 -10.87,18 -28.11,13.87 -22.55999,-5.41 -40.23999,-17.44 -57.82999,-31.22 -10.03,-7.85 -22.9,-8.09 -35.29,-8.21 -11.8,-0.11 -23.65,-0.87 -35.42,-0.18 -22.33,1.31 -42.51,-5.82 -62.45,-14.39 -20.17,-8.66 -39.79,-18.43 -58.53,-29.89 -0.59,-0.36 -1.58,-0.57 -1.75,-1.06 -5.94,-16.92 -26.84,-16.53 -35.08,-29.23 -12.21,-18.8 -30.46,-24.93 -49.949,-30.32 -2,-0.54 -4.262,-1.1 -5.75,-2.41 -11.82,-10.36 -24.113,-10.84 -37.383,-2.73 -4.82,2.94 -8.519,-0.81 -12,-3.75 -30.289,-25.61 -61.058,-50.68 -90.75,-76.95 -54.187,-47.95 -107.711,-96.67 -161.59,-144.98 -12.449,-11.16 -22.8,-24.47 -36.211,-34.59 -20.379,-15.39 -44.386,-23.14 -68.078,-30.98 -17.609,-5.83 -36.101,-9.02 -54.359,-13.4 -0.422,3.86 1.93,4.66 3.527,5.7 28.344,18.46 52.863,41.88 79.973,61.96 5.488,4.06 11.961,2.47 16.328,5.85 15.98,12.3 34.672,22.99 46.172,38.78 19.078,26.23 46.121,42.13 69.68,62.39 42.71,36.72 89,69.09 131.398,106.23 14.91,13.06 30.031,25.88 44.98,38.91 2.02,1.75 5.469,3.65 4.43,6.46 -1.39,3.76 -5.519,2.06 -8.34,1.7 -5.937,-0.78 -11.758,-0.92 -17.64,0.27 -5.399,1.09 -9.707,3.83 -12.868,8.22 -7.632,10.64 -7.953,11.14 -18.769,2.68 -39.203,-30.65 -78.051,-61.75 -117.172,-92.49 -50.129,-39.41 -102.68,-75.41 -156.09,-110.14 -18.621,-12.1 -36.969,-24.58 -57.488,-33.87 -15.453,-6.99 -30.473,-12.68 -47.582,-13.34 -21.43,-0.82 -42.789,-2.45 -64.879,1.89 9.43,5.32 18.82,10.71 28.301,15.9 23.789,13.08 47.617,26.06 71.437,39.07 4.2,2.3 8,5.52 13.071,0.96 3.058,-2.75 6.64,-0.32 9.621,1.5 16.359,9.91 32.488,20.25 49.148,29.66 6.133,3.47 5.039,10.56 11.289,14.8 21.012,14.25 42.133,28.43 63.762,41.63 22.351,13.66 43.219,29.3 64.691,44.12 10.879,7.52 21.989,14.13 33.957,19.95 18.352,8.91 34.461,21.14 48.942,36.32 12.761,13.4 29.582,22.91 44.531,34.25 3.508,2.66 7.617,4.84 9.488,9.25 -1.758,3.02 -4.988,2.91 -7.461,3.21 -10.257,1.24 -16.609,6.87 -19.218,16.54 -1.801,6.68 -4.942,6.52 -9.579,2.95 -8.8,-6.82 -17.542,-13.72 -26.472,-20.38 -44.199,-32.96 -92.758,-58.98 -139.731,-87.55 -40.129,-24.41 -79.789,-49.66 -122.027,-70.41 -16.551,-8.11 -33.27,-16.02 -50.43,-22.71 -28.191,-11 -56.859,-6.79 -85.190959,-0.06 -6.121,1.47 -16.578,1.16 -16.891,7.24 -0.3,5.75 10.262,6.24 16.129,8.4 33.351959,12.31 64.921959,28.85 98.023959,41.5 12.187,4.66 25.32,6.85 36.879,13.85 51.5,31.19 107.179,54.29 160.339,82.28 30.09,15.82 59.59,32.5 87.809,51.5 12.402,8.35 25.121,16.23 37.859,24.07 4.891,3.02 6.801,5.34 1.293,9.93 -7.179,5.96 -6.472,14.37 -4.492,22.27 2.52,10.1 6.289,19.89 5.551,30.61 -0.289,4 1.809,7.65 4.23,10.48 11.239,13.15 13.75,32.02 28.352,43.05 1.859,1.39 2.047,4.98 3.047,7.54 3.93,9.99 8.73,18.43 20.832,21.07 14.027,3.07 20.668,15.08 25.871,26.82 6.137,13.88 18.406,14.76 30.25,16.3 10,1.32 18.598,-2.03 23,-12.32 0.957,-2.25 2.418,-4.47 4.918,-5.13 13.941,-3.67 22.66,-15.33 34.371,-22.44 3.11,-1.87 5.42,-2.93 8.4,-0.9 31.23,21.13 66.4,37.72 85.11,73.37 4.03,7.69 6.35,16.76 11.86,23.13 14.07,16.28 20.15,37.22 33.29,53.88 0.43,0.54 0.82,1.23 1.4,1.52 13.13,6.8 24.8,17.62 39.32,20.2 15.83,2.8 31.18,7.49 46.02,12.5 16.29,5.53 30.3,1.51 44.25,-3.65 14.32,-5.3 28.4,-11.09 43.06,-15.49 2.62999,-0.79 5.44999,-2.78 8.46999,-4.06 12.86,-5.43 15.55,4.11 17.91,11.95 6.15,20.43 21.99,33.12 34.99,48.52 14.32,16.92 34.38,22.24 52.62,30.23 21.7201,9.5 44.0101,20.28 69.9701,13.91 9.37,-2.32 19.94,-1.17 29.86,-3.26 3.88,-0.82 7.64,-1.88 10.41,-4.44 5.95,-5.5 13.07,-7.5 20.75,-8.81 31.0111,-10.7782 33.6618,-10.0812 49.69,-19.48 24.77,-15.49 49.54,-31.05 66.03,-56.46 3.54,-5.43 8.6,-11.68 16.76,-4.05 59.53,55.61 137.73,50.45 197.23,7.91 25.66,-18.34 46.16,-39.74 55.96,-70.5 7.26,-22.79 4.59,-45.45 1.47,-68.22 -1.74,-12.73 -3.16,-25.58 -7.32,-37.86 -1.27,-3.8 -0.6,-6.6 2.62,-9.15 3.16,-2.49 5.85,-1.33 8.65,0.27 43.29,24.67 85.76,50.5 121.36,86 2.08,2.07 3.83,6.07 7.4,4.26 2.99,-1.5 0.94,-4.97 0.8,-7.63 -0.92,-16.28 -8.28,-30.51 -16.78,-43.39 -16.86,-25.57 -33.42,-51.28 -48.94,-77.69 -4.92,-8.38 -10.08,-16.77 -17.65,-23.15 -4.69,-3.96 -3.32,-7.01 -1.1,-12.32 9.79,-23.43 30.49,-37.41 46.07,-55.78 6.51,-7.68 12.15,-13.48 23.54,-15.68 15.43,-2.98 27.08,-15.38 37.3,-27.29 25.49,-29.68 46.15,-62.75 65.36,-96.75 3.07,-5.44 4.15,-10.92 2.24,-17 -2.49,-7.98 -3.21,-16.96 -7.44,-23.82 -11.26,-18.34 -11.43,-39.43 -17.02,-59.12 -5.39,-19.04 -12.78,-36.92 -24.39,-53.56 -7.88,-11.32 -14.49,-23.58 -24.51,-33.16 -14.99,-14.32 -29.84,-28.96 -46.15,-41.66 -13.18,-10.25 -15.78,-16.44 -7.87,-31.05 10.98,-20.29 18.51,-42.04 25.72,-63.82 2.49,-7.51 5.34,-8.54 12.72,-6.2 27.46,8.69 55.57,11.69 82.74,0.1 20.49,-8.75 37.05,-23.48 48.91,-42.6 6.39,-10.29 11.76,-20.95 21.96,-28.46 9.52,-6.99 15.15,-17.4 19.06,-28.23 8.85,-24.45 14.43,-49.93 19.92,-75.21 5.29,-24.35 3.54,-48.89 -6.22,-72.74 -3.93,-9.61 0.04,-20.82 2.91,-30.58 6.15,-20.9 13.62,-41.43 24.74,-60.41 4.59,-7.87 10.02,-14.99 15.26,-22.37 31.78,-44.71 68.55,-86.31 90.49,-137.3 11.14,-25.84 16.47,-52.88 5.85,-81.1 -10.33,-27.44 -23.53,-52.67 -45.83,-72.42 -8.81,-7.81 -17.5,-9.13 -28.63,-4.29 -23.91,10.43 -48.24,19.33 -68.07,37.59 -18.61,17.15 -30.03,35.8 -29.53,62.5 0.74,38 -4.81,75.88 -14.21,112.59 -6.29,24.57 -15.96,48.5 -34.23,68.02 -6.42,6.85 -12.31,14.96 -15.61,25.1 -3.08,9.49 -13.77,17.12 -23.4,16.99 -22.21,-0.33 -37.49,13.55 -55.09,22.67 -9.9,5.13 -18.52,12.09 -25.89,20.79 -6.06,7.11 -15.79,8.8 -24.07,11.84 -23.39,8.62 -36.51,26.2 -43.94,48.43 -3.38,10.13 -8.36,15.78 -18.35,20.16 -13.23,5.82 -26.81,9.43 -40.66,12.74 -2.3,0.55 -4.78,2.17 -6.88,0.08 -2.52,-2.5 -0.93,-5.18 0.44,-7.62 3.74,-6.72 0.8,-15.02 2.46,-20.52 4.38,-14.62 -0.24,-27.43 -1.99,-41 -3.8,-29.47 -12.67,-58.2 -31.49,-80.34 -14.47,-17 -21.82,-36.68 -32.85,-54.84 -5.58,-9.23 -10.88,-18.76 -17.56,-27.16 -17.4,-21.86 -28.87,-46.41 -37.21,-72.95 -7.71,-24.55 -8.44,-24.35 11.87,-40.76 9.25,-7.48 18.81,-14.26 31.19,-15.82 8.72,-1.13 14.05,-6.11 16.74,-14.88 3.09,-10.06 5.14,-20.25 6.26,-30.63 0.95,-8.84 -4.42,-15.27 -9.59,-21.27 -4.61,-5.35 -6.85,-10.96 -6.86,-17.94 -0.07,-18.56 -4.29,-35.18 -21.63,-45.77 -4.58,-2.79 -4.67,-8.105 -5.25,-13.046 -2.49,-21.387 -4.49,-42.797 -8.95,-63.988 -5.12,-24.25803 -22.81,-31.09003 -43.33,-28.91803 -9.23,0.949 -10.27,-1.512 -10.78,-9.34 -2.68,-41.973 -4.05,-83.98003 -6.37,-125.96103 -5.01,-90.289 -20.53,-179.062 -43.68,-266.332 -11.32,-42.687 -26.01,-84.469 -35.84,-127.629 -2.95,-12.988 -14.53,-21 -21.39,-31.82 -11.66,-18.379 -31.59,-28.531 -44.65,-45.781"
               sodipodi:nodetypes="cccccccccccccccccccccccccccccccccccccccccccccccccccccccccccccccccccscccccccccccccccccccccccccccccccccccccccccccccccccccccccsccccccccccccccccccccccccccccccccccccccccccccccccccccccccccccccccccccccccccccccccccccccccccsccccccccccccccccccccccccccccccccccccccccccccccccccccccscccccccccccccccccsccccccccccc" />
          </g>
        </g>
      </g>
    </g>
  </g>
</svg>
