<?xml version="1.0" encoding="UTF-8" standalone="no"?>
<svg
   xmlns:dc="http://purl.org/dc/elements/1.1/"
   xmlns:cc="http://creativecommons.org/ns#"
   xmlns:rdf="http://www.w3.org/1999/02/22-rdf-syntax-ns#"
   xmlns:svg="http://www.w3.org/2000/svg"
   xmlns="http://www.w3.org/2000/svg"
   version="1.1"
   id="svg4442"
   viewBox="0 0 576.09014 842.00036"
   height="9.3555593in"
   width="6.4010015in">
  <defs
     id="defs4444">
    <clipPath
       clipPathUnits="userSpaceOnUse"
       id="clipPath5076">
      <path
         d="M 0,4940 0,0 l 5952.8,0 0,4940 L 0,4940 Z"
         id="path5078" />
    </clipPath>
    <style
       type="text/css"
       id="style10509"><![CDATA[
    .str0 {stroke:black;stroke-width:35280}
    .fil0 {fill:none}
   ]]></style>
    <style
       type="text/css"
       id="style10688"><![CDATA[
    .str0 {stroke:black;stroke-width:35280}
    .fil0 {fill:none}
   ]]></style>
    <style
       type="text/css"
       id="style10881"><![CDATA[
    .str0 {stroke:black;stroke-width:35280}
    .fil0 {fill:none}
   ]]></style>
    <style
       type="text/css"
       id="style11354"><![CDATA[
    .str0 {stroke:black;stroke-width:35280}
    .fil0 {fill:none}
   ]]></style>
    <style
       type="text/css"
       id="style11421"><![CDATA[
    .str0 {stroke:black;stroke-width:35279.9}
    .fil0 {fill:none}
   ]]></style>
    <style
       type="text/css"
       id="style11488"><![CDATA[
    .str0 {stroke:black;stroke-width:35280}
    .fil0 {fill:none}
   ]]></style>
  </defs>
  <metadata
     id="metadata4447">
    <rdf:RDF>
      <cc:Work
         rdf:about="">
        <dc:format>image/svg+xml</dc:format>
        <dc:type
           rdf:resource="http://purl.org/dc/dcmitype/StillImage" />
        <dc:title></dc:title>
      </cc:Work>
    </rdf:RDF>
  </metadata>
  <g
     transform="translate(-22.186644,-183.80278)"
     id="layer1">
    <g
       id="g5068"
       transform="matrix(1.25,0,0,-1.25,13.664286,715.3979)">
      <g
         id="g5070"
         transform="matrix(0.1,0,0,0.1,200,-33.142857)">
        <g
           id="g5072">
          <g
             transform="matrix(9.999999,0,0,-10,-708.57736,5591.4284)"
             id="surface320900">
            <g
               id="g11554">
              <g
                 style="clip-rule:evenodd;fill:none;fill-rule:evenodd;stroke:#000000;stroke-width:20108.1875;stroke-miterlimit:4;stroke-dasharray:none;stroke-opacity:1;image-rendering:optimizeQuality;shape-rendering:geometricPrecision;text-rendering:geometricPrecision"
                 id="g10520"
                 transform="matrix(1.9892395e-5,0,0,1.9892395e-5,-111.46265,109.49849)">
                <g
                   id="Layer_x0020_1"
                   style="fill:none;stroke:#000000;stroke-width:20108.1875;stroke-miterlimit:4;stroke-dasharray:none;stroke-opacity:1">
                  <metadata
                     id="CorelCorpID_0Corel-Layer" />
                  <path
                     id="path10513"
                     d="m 5144905,11547889 284310,-190690 284310,190690 -284310,336030 -284310,-336030 z m 284310,-4504496 c 427600,0 774279,-346680 774279,-774279 0,-427610 -346680,-774289 -774279,-774289 -427610,0 -774289,346680 -774289,774289 0,427600 346680,774279 774289,774279 z m 335740,378350 c 187890,-54650 356780,-153940 494340,-285700 l 226030,130500 666239,1124629 c -486410,393030 -177520,446370 262750,443550 l 392380,5150 -608299,-1110339 1094399,679309 -460220,797129 c -182600,-47760 -376590,22280 -470000,184050 -26200,45380 -42170,94010 -48710,143420 -46060,-19050 -96160,-29540 -148550,-29540 -186800,0 -344460,132980 -394370,315010 l -920459,0 -41090,-1287429 657419,1081969 191740,-342380 c 222570,-379870 330820,-674049 -252770,-449330 l -640829,-1139289 0,-260710 z m 830289,-867119 c 22350,-91520 34260,-187110 34260,-285510 0,-98410 -11930,-194020 -34260,-285520 l 225850,-130390 1307049,-14660 c 97180,617749 297820,376910 515520,-5780 l 200640,-337260 -1265729,-28350 1135489,-608109 460240,797129 c -132690,134270 -169020,337260 -75630,499060 26190,45380 60320,83520 99870,113880 -39550,30360 -73680,68490 -99870,113870 -93390,161800 -57060,364790 75630,499060 l -460240,797139 -1135489,-608119 1265729,-28350 -200640,-337260 c -217700,-382690 -418340,-623529 -515520,-5780 L 6821094,6685014 6595244,6554624 Z M 6259294,5402175 c -137560,-131750 -306450,-231050 -494340,-285700 l 0,-260700 640829,-1139289 c 583589,224710 475340,-69470 252770,-449330 l -191740,-342390 -657419,1081969 41090,-1287429 920459,0 c 49910,182030 207570,315020 394370,315020 52390,0 102490,-10500 148550,-29550 6540,49410 22510,98040 48710,143420 93410,161780 287400,231810 470000,184050 l 460220,797129 -1094399,679309 608299,-1110339 -392380,5160 c -440270,-2830 -749159,50510 -262750,443540 l -666239,1124629 -226030,130500 z M 5093475,5116475 c -187900,54650 -356790,153950 -494350,285700 L 4373095,5271675 3706856,4147046 c 486410,-393030 177530,-446370 -262750,-443540 l -392370,-5160 608299,1110339 -1094409,-679309 460220,-797129 c 182610,47760 376600,-22270 470010,-184050 26190,-45380 42160,-94010 48700,-143420 46070,19050 96160,29550 148560,29550 186790,0 344450,-132990 394360,-315020 l 920459,0 41100,1287429 -657429,-1081969 -191740,342390 c -222570,379860 -330820,674039 252770,449330 l 640839,1139289 0,260700 z m -830299,867119 c -22350,91530 -34260,187110 -34260,285520 0,98400 11910,193990 34260,285510 l -225840,130390 -1307059,14660 c -97170,-617749 -297810,-376910 -515510,5780 l -200640,337260 1265719,28350 -1135489,608119 -460240,-797139 c 132690,-134270 169020,-337260 75640,-499060 -26200,-45380 -60330,-83510 -99880,-113870 39550,-30360 73680,-68500 99880,-113880 93380,-161800 57050,-364790 -75640,-499060 l 460240,-797129 1135489,608109 -1265719,28350 200640,337260 c 217700,382690 418340,623529 515510,5780 l 1307059,14660 225840,130390 z m 335950,1152449 c 137560,131760 306450,231050 494350,285700 l 0,260710 -640839,1139289 c -583589,-224720 -475340,69460 -252770,449330 l 191740,342380 657429,-1081969 -41100,1287429 -920459,0 c -49910,-182030 -207570,-315010 -394360,-315010 -52400,0 -102490,10490 -148560,29540 -6540,-49410 -22510,-98040 -48700,-143420 -93410,-161770 -287400,-231810 -470010,-184050 l -460220,-797129 1094409,-679309 -608299,1110339 392370,-5150 c 440280,2820 749159,-50520 262750,-443550 l 666239,-1124629 226030,-130500 z m -3883626,1526249 307320,150830 -23010,341610 -433150,-78230 148840,-414210 z m 423520,-2393178 c -182420,128400 -245150,367220 -138370,552159 91030,157660 277610,228220 456130,187420 l 414050,717179 -789179,-346530 -225340,130110 199930,264130 676009,143530 -667239,385260 -589169,-308290 -453020,1396409 1435819,305880 27610,-664359 667269,-385240 -213700,657189 128770,305230 225370,-130110 94460,-856699 414070,717179 c -124580,134180 -156770,331050 -65740,488740 106780,184910 344980,250000 547399,156200 19970,222210 195400,395940 408970,395940 182080,0 336470,-126310 390390,-301300 l 828119,0 -694699,510180 0,260230 328700,-41090 462310,-513680 0,770489 -561529,356070 982809,1090529 982799,-1090529 -561529,-356070 0,-770489 462310,513680 328700,41090 0,-260230 -694699,-510180 828129,0 c 53910,174990 208300,301300 390390,301300 213560,0 389000,-173730 408970,-395940 202410,93800 440610,28710 547389,-156200 91030,-157690 58840,-354560 -65740,-488740 l 414070,-717179 94460,856699 225370,130110 128770,-305230 -213700,-657189 667269,385240 27610,664359 1435819,-305880 -453020,-1396409 -589169,308290 -667239,-385260 676009,-143530 199930,-264130 -225340,-130110 -789179,346530 414050,-717179 c 178520,40800 365100,-29760 456130,-187420 106790,-184940 44050,-423760 -138370,-552159 182420,-128410 245160,-367230 138370,-552159 -91030,-157670 -277610,-228230 -456130,-187430 l -414050,-717169 789179,346520 225340,-130100 -199930,-264140 -676009,-143530 667239,-385260 589169,308290 453020,-1396409 -1435819,-305880 -27610,664369 -667269,385230 213700,-657189 -128770,-305230 -225370,130110 -94460,856699 -414070,-717179 c 124580,-134180 156770,-331050 65740,-488740 -106780,-184910 -344980,-250000 -547389,-156200 -19970,-222200 -195410,-395940 -408970,-395940 -182090,0 -336480,126310 -390390,301300 l -828129,0 694699,-510180 0,-260230 -328700,41090 -462310,513690 0,-770499 561529,-356070 -982799,-1090529 -982809,1090529 561529,356070 0,770499 -462310,-513690 -328700,-41090 0,260230 694699,510180 -828119,0 c -53920,-174990 -208310,-301300 -390390,-301300 -213570,0 -389000,173740 -408970,395940 -202420,-93800 -440620,-28710 -547399,156200 -91030,157690 -58840,354560 65740,488740 l -414070,717179 -94460,-856699 -225370,-130110 -128770,305230 213700,657189 -667269,-385230 -27610,-664369 -1435819,305880 453020,1396409 589169,-308290 667239,385260 -676009,143530 -199930,264140 225340,130100 789179,-346520 -414050,717169 c -178520,-40800 -365100,29760 -456130,187430 -106780,184930 -44050,423750 138370,552159 z m 1822258,3427617 c -47760,-82700 -18760,-188830 64750,-237070 83520,-48210 189940,-20230 237680,62450 47760,82710 18760,188840 -64750,237070 -83520,48210 -189910,20260 -237680,-62450 z M 1226860,6692604 c 47740,82680 154130,110660 237650,62420 83510,-48210 112510,-154330 64770,-237040 -47760,-82700 -154150,-110660 -237670,-62450 -83520,48240 -112520,154340 -64750,237070 z m 8631752,-3309117 -23010,341610 307320,150830 148840,-414210 -433150,-78230 z m -227050,2462128 c -47730,-82680 -154130,-110660 -237640,-62420 -83520,48210 -112520,154340 -64780,237040 47770,82710 154160,110660 237670,62450 83520,-48240 112520,-154340 64750,-237070 z M 7897144,2841488 c 47770,82700 18770,188830 -64750,237070 -83520,48210 -189930,20230 -237670,-62450 -47770,-82700 -18770,-188830 64750,-237070 83510,-48210 189910,-20260 237670,62450 z m 2245778,5820805 -307320,150830 23010,341610 433150,-78230 -148840,-414210 z M 7897144,9696732 c 47770,-82700 18770,-188830 -64750,-237070 -83520,-48210 -189930,-20230 -237670,62450 -47770,82710 -18770,188840 64750,237070 83510,48210 189910,20260 237670,-62450 z M 9631562,6692605 c -47730,82680 -154130,110660 -237640,62420 -83520,-48210 -112520,-154330 -64780,-237040 47770,-82700 154160,-110660 237670,-62450 83520,48240 112520,154340 64750,237070 z M 999810,3383488 l 23010,341610 -307320,150830 -148840,-414210 433150,-78230 z m 227050,2462128 c 47740,-82680 154130,-110660 237650,-62420 83510,48210 112510,154340 64770,237040 -47760,82710 -154150,110660 -237670,62450 -83520,-48240 -112520,-154340 -64750,-237070 z M 2961278,2841489 c -47760,82700 -18760,188830 64750,237070 83520,48210 189940,20230 237680,-62450 47760,-82700 18760,-188830 -64750,-237070 -83520,-48210 -189910,-20260 -237680,62450 z M 5144906,990331 5429216,1181031 5713526,990331 5429216,654301 5144906,990331 Z m 2018728,1427689 c -95480,0 -172890,78150 -172890,174590 0,96450 77410,174630 172890,174630 95500,0 172920,-78180 172920,-174630 0,-96440 -77420,-174590 -172920,-174590 z m -3468847,0 c 95480,0 172900,78150 172900,174590 0,96450 -77420,174630 -172900,174630 -95500,0 -172920,-78180 -172920,-174630 0,-96440 77420,-174590 172920,-174590 z m 3468847,7702193 c -95480,0 -172890,-78160 -172890,-174600 0,-96450 77410,-174620 172890,-174620 95500,0 172920,78170 172920,174620 0,96440 -77420,174600 -172920,174600 z m -3468847,0 c 95480,0 172900,-78160 172900,-174600 0,-96450 -77420,-174620 -172900,-174620 -95500,0 -172920,78170 -172920,174620 0,96440 77420,174600 172920,174600 z"
                     class="fil0 str0"
                     style="fill:none;stroke:#000000;stroke-width:20108.1875;stroke-miterlimit:4;stroke-dasharray:none;stroke-opacity:1" />
                </g>
              </g>
              <g
                 style="clip-rule:evenodd;fill:none;fill-rule:evenodd;stroke:#000000;stroke-width:20134.265625;stroke-miterlimit:4;stroke-dasharray:none;stroke-opacity:1;image-rendering:optimizeQuality;shape-rendering:geometricPrecision;text-rendering:geometricPrecision"
                 id="g10699"
                 transform="matrix(1.9866631e-5,0,0,1.9866632e-5,113.80246,110.7649)">
                <g
                   id="Layer_x0020_1-7"
                   style="fill:none;stroke:#000000;stroke-width:20134.265625;stroke-miterlimit:4;stroke-dasharray:none;stroke-opacity:1">
                  <metadata
                     id="CorelCorpID_0Corel-Layer-9" />
                  <path
                     id="path10692"
                     d="m 5665950,7528340 c -20300,-89300 -38390,-179190 -54260,-269500 -15870,-90310 -29540,-181080 -40960,-272150 -11440,-91080 -20670,-182470 -27670,-274070 -7010,-91600 -11800,-183400 -14370,-275260 78270,48150 155380,98190 231210,150060 75820,51870 150360,105560 223510,161000 73150,55440 144920,112660 215200,171560 70270,58900 139080,119500 206260,181740 -71740,35880 -117710,105410 -140440,191770 -22730,86360 -22240,189580 -1050,292820 21190,103240 63090,206530 123140,293070 60040,86510 138270,156290 232100,192490 -58860,19510 -170470,83170 -219370,126640 15570,-99370 -5760,-201990 -50660,-297260 -44920,-95270 -113430,-183190 -192240,-253170 -78810,-69970 -167940,-122010 -254100,-145490 -86160,-23480 -169360,-18440 -236300,25750 z m 968620,-1677720 c -87490,27070 -174380,56340 -260520,87750 -86150,31410 -171580,64990 -256180,100610 -84580,35620 -168360,73340 -251170,113070 -82830,39730 -164710,81480 -245560,125200 80850,43700 162730,85450 245550,125180 82820,39730 166600,77460 251180,113080 84590,35640 170040,69200 256170,100600 86160,31410 173040,60690 260530,87760 -4790,-80070 32440,-154660 95850,-217530 63420,-62870 153070,-114050 253070,-147310 100010,-33270 210390,-48620 315350,-39890 104960,8750 204510,41590 282770,104750 -11990,-58090 -11990,-195210 0,-253290 -78260,63160 -177800,96020 -282750,104750 -104950,8740 -215360,-6630 -315370,-39890 -100010,-33270 -189640,-84460 -253060,-147320 -63410,-62870 -100650,-137450 -95860,-217520 z m 1780250,541230 c -92170,32430 -168090,59780 -236190,84940 -68100,25150 -128400,48140 -189340,71790 -60930,23660 -122520,48030 -193210,76000 -70680,27960 -150460,59530 -247790,97580 -48360,-73740 -119090,-118730 -192830,-140250 -73740,-21510 -150520,-19570 -211000,570 -60480,20150 -104680,58500 -113270,109790 -8590,51280 18440,115510 100380,187400 -59890,21560 -119920,42640 -180160,63220 81920,44480 163850,88960 245760,133440 81910,44480 163830,88970 245750,133450 81920,44480 163840,88960 245760,133440 81920,44480 163830,88960 245750,133440 30450,-114770 118840,-270110 232810,-420630 113970,-150520 253560,-296240 386400,-391760 132870,-95530 259000,-140890 346080,-90690 87080,50200 135110,195930 111770,482610 249810,148670 340250,261190 332780,346240 -7470,85060 -112890,142680 -254760,181560 -141870,38890 -320230,59060 -473590,69210 -153370,10160 -281760,10330 -323730,9210 43510,22770 89790,47480 138790,73750 49000,26280 100730,54140 155110,83170 54380,29050 111420,59330 171060,90400 59650,31070 121910,63020 186690,95390 40850,-15600 82720,-27870 125170,-36470 42420,-8600 85420,-13560 128470,-14550 43030,-990 86120,1970 128780,9170 42650,7210 84870,18660 126140,34690 27570,110300 71730,201780 127230,270320 55510,68540 122380,114180 195360,132760 72970,18590 152060,10150 232020,-29420 79960,-39560 160810,-110270 237280,-216220 51580,103340 100610,207430 148680,311740 48080,104310 95210,208870 142950,313140 47740,104280 96120,208300 146710,311520 50590,103210 103400,205670 160010,306820 -115910,1560 -231030,7060 -345730,14860 -114690,7800 -228950,17900 -343140,28690 -114180,10790 -228290,22270 -342660,32790 -114370,10520 -229030,20100 -344320,27100 53530,-119200 74340,-224560 68630,-313600 -5710,-89020 -37950,-161760 -90540,-215650 -52590,-53890 -125530,-89010 -212660,-102800 -87100,-13800 -188410,-6310 -297720,24970 -34500,-27730 -65540,-58560 -93110,-91890 -27560,-33330 -51680,-69180 -72330,-106960 -20650,-37780 -37860,-77490 -51620,-118540 -13770,-41050 -24100,-83450 -31010,-126620 -60440,-39920 -119220,-77870 -175970,-113970 -56740,-36100 -111460,-70390 -163810,-102960 -52340,-32560 -102310,-63440 -149570,-92730 -47250,-29290 -91800,-57030 -133280,-83320 21960,35790 86030,147070 153900,284960 67880,137900 139610,302440 176860,444740 37260,142310 40060,262400 -29860,311410 -69930,49010 -212580,26930 -466250,-115080 -236590,163550 -386830,194830 -473840,144510 -87020,-50330 -110800,-182240 -94500,-345050 16300,-162820 72700,-356550 146080,-530520 73370,-173980 163710,-328180 247880,-411930 -79480,-48700 -158980,-97410 -238450,-146100 -79480,-48700 -158960,-97420 -238440,-146120 -79470,-48710 -158960,-97400 -238440,-146110 -79480,-48710 -158960,-97410 -238440,-146100 12320,62430 24070,124990 35320,187630 -103220,-35030 -172350,-26310 -212470,6770 -40110,33070 -51230,90540 -38450,152980 12790,62460 49500,129920 105010,183020 55500,53100 129830,91860 217870,96870 15710,103320 28270,188210 39390,263390 11110,75200 20810,140730 30780,205330 9970,64610 20240,128320 32500,199870 12260,71560 26540,150980 44540,247000 -50270,-5220 -100610,-15660 -149260,-29280 -12520,48960 -28630,97720 -49250,143890 -74160,-63600 -135810,-115680 -191650,-162070 -55830,-46400 -105870,-87140 -156840,-128080 -50970,-40940 -102870,-82100 -162420,-129320 -59560,-47220 -126780,-100550 -208410,-165810 39670,-78750 43270,-162490 25040,-237110 -18220,-74620 -58290,-140150 -105990,-182450 -47680,-42300 -103000,-61400 -151710,-43200 -48710,18190 -90820,73720 -112100,180620 -48620,-41050 -96950,-82520 -144840,-124420 2440,93190 4880,186370 7310,279560 2440,93190 4890,186380 7310,279550 2440,93180 4880,186380 7310,279550 2440,93190 4890,186380 7320,279550 114630,-31020 293340,-32140 480690,-8700 187330,23440 383330,71470 532480,138750 149170,67290 251510,153850 251580,254370 70,100500 -102140,214990 -362080,338110 -3840,290690 -56060,425270 -133460,461310 -77400,36050 -180000,-26430 -284620,-129850 -104600,-103410 -211240,-247790 -296720,-375520 -85490,-127730 -149830,-238860 -169840,-275760 2030,49060 3790,101490 5530,157060 1740,55570 3490,114300 5510,175920 2030,61610 4350,126150 7250,193340 2890,67200 6380,137080 10730,209380 33940,27560 65500,57720 94170,90160 28660,32440 54450,67210 76840,103980 22380,36770 41370,75570 56460,116120 15080,40540 26270,82830 33020,126570 -81730,79030 -138880,163010 -170480,245350 -31610,82340 -37690,163080 -17310,235560 20380,72500 67230,136790 141480,186250 74260,49460 175920,84120 305910,97370 -63710,96330 -129340,190850 -195640,284640 -66300,93770 -133300,186870 -199720,280350 -66430,93490 -132330,187390 -196420,282820 -64110,95420 -126420,192390 -185720,291990 -59300,-99600 -121630,-196570 -185720,-291990 -64100,-95430 -129990,-189340 -196430,-282820 -66430,-93480 -133400,-186560 -199710,-280350 -66310,-93790 -131930,-188310 -195640,-284640 129980,-13250 231640,-47910 305890,-97370 74260,-49470 121120,-113750 141500,-186250 20380,-72480 14300,-153200 -17310,-235550 -31610,-82350 -88750,-166330 -170480,-245360 6750,-43740 17930,-86030 33020,-126570 15090,-40550 34090,-79350 56460,-116120 22390,-36770 48170,-71530 76840,-103980 28670,-32460 60230,-62600 94160,-90160 4350,-72300 7840,-142190 10730,-209380 2890,-67200 5230,-131730 7250,-193340 2030,-61620 3770,-120340 5520,-175910 1750,-55570 3490,-108010 5530,-157070 -20010,36900 -84350,148030 -169830,275760 -85480,127730 -192130,272120 -296740,375520 -104610,103430 -207200,165890 -284600,129850 -77400,-36040 -129630,-170620 -133480,-461310 -259940,-123120 -362130,-237600 -362070,-338110 70,-100510 102420,-187080 251570,-254370 149150,-67280 345140,-115310 532490,-138750 187340,-23440 366060,-22320 480680,8700 2440,-93170 4880,-186370 7310,-279550 2430,-93180 4890,-186370 7310,-279550 2440,-93170 4880,-186370 7310,-279550 2440,-93190 4890,-186370 7320,-279560 -47900,41890 -96210,83370 -144830,124420 -21280,-106900 -63390,-162420 -112100,-180620 -48710,-18200 -104040,900 -151710,43200 -47700,42300 -87770,107830 -106000,182440 -18220,74630 -14630,158370 25050,237120 -81630,65260 -148850,118590 -208410,165810 -59560,47220 -111470,88380 -162420,129320 -50970,40940 -101000,81670 -156840,128080 -55840,46400 -117490,98470 -191650,162070 -20610,-46160 -36730,-94940 -49260,-143890 -48700,13640 -98910,24050 -149250,29280 17990,-96020 32270,-175450 44530,-247000 12260,-71560 22540,-135260 32510,-199870 9970,-64600 19670,-130130 30780,-205330 11120,-75180 23680,-160070 39390,-263390 88030,-5010 162350,-43770 217870,-96870 55510,-53100 92220,-120560 105010,-183020 12780,-62440 1650,-119910 -38460,-152980 -40110,-33080 -109240,-41800 -212460,-6770 11250,-62640 22990,-125200 35320,-187630 -79480,48690 -158970,97390 -238440,146100 -79470,48700 -158960,97420 -238440,146110 -79470,48710 -158950,97420 -238430,146120 -79490,48690 -158980,97400 -238460,146100 84170,83750 174510,237950 247880,411930 73370,173970 129780,367700 146080,530520 16300,162820 -7490,294720 -94500,345050 -87010,50320 -237260,19040 -473840,-144510 -253670,142010 -396320,164090 -466250,115080 -69920,-49010 -67110,-169100 -29860,-311410 37250,-142300 108980,-306840 176850,-444740 67880,-137890 131940,-249170 153910,-284960 -41480,26290 -86030,54030 -133270,83320 -47260,29290 -97250,60170 -149580,92730 -52350,32570 -107090,66850 -163820,102950 -56750,36100 -115530,74060 -175960,113980 -6910,43170 -17250,85570 -31010,126620 -13760,41050 -30970,80780 -51620,118540 -20650,37780 -44770,73630 -72330,106960 -27570,33330 -58610,64160 -93110,91890 -109310,-31280 -210620,-38770 -297720,-24970 -87130,13790 -160070,48910 -212660,102800 -52590,53900 -84830,126620 -90540,215650 -5710,89040 15100,194400 68620,313600 -115280,-7000 -229940,-16580 -344310,-27100 -114380,-10520 -228480,-22000 -342660,-32790 -114190,-10790 -228450,-20890 -343140,-28690 -114700,-7800 -229830,-13300 -345730,-14860 56600,-101150 109420,-203600 160010,-306820 50580,-103210 98970,-207240 146710,-311520 47740,-104270 94870,-208830 142940,-313140 48080,-104310 97110,-208400 148690,-311740 76460,105950 157300,176660 237270,216220 79950,39570 159060,48010 232030,29420 72970,-18590 139850,-64220 195360,-132760 55500,-68540 99660,-160020 127230,-270320 41260,-16030 83480,-27480 126130,-34690 42660,-7210 85770,-10160 128790,-9170 43050,990 86040,5950 128470,14550 42430,8610 84320,20870 125160,36470 64790,-32370 127050,-64310 186690,-95390 59650,-31070 116700,-61350 171070,-90400 54370,-29030 106110,-56880 155110,-83160 48990,-26270 95280,-50990 138790,-73760 -41970,1120 -170360,950 -323740,-9210 -153350,-10150 -331710,-30320 -473580,-69210 -141880,-38880 -247280,-96500 -254760,-181560 -7480,-85050 82960,-197570 332780,-346240 -23340,-286680 24700,-432420 111770,-482610 87080,-50190 213220,-4850 346070,90690 132860,95520 272440,241240 386410,391750 113970,150530 202350,305870 232810,420640 81910,-44480 163830,-88960 245750,-133440 81920,-44480 163840,-88960 245760,-133440 81910,-44480 163830,-88970 245750,-133450 81910,-44480 163840,-88960 245760,-133440 -60240,-20580 -120270,-41660 -180160,-63220 81940,-71890 108960,-136110 100370,-187400 -8580,-51290 -52790,-89640 -113270,-109790 -60480,-20150 -137250,-22080 -210990,-570 -73750,21520 -144470,66510 -192840,140250 -97320,-38050 -177100,-69620 -247780,-97580 -70670,-27970 -132270,-52350 -193200,-76000 -60940,-23660 -121240,-46640 -189340,-71790 -68100,-25160 -144030,-52510 -236200,-84940 29640,-40920 63870,-79300 99990,-114600 -36170,-35400 -70260,-73620 -99990,-114610 92170,-32440 168090,-59790 236190,-84940 68100,-25150 128400,-48130 189330,-71790 60940,-23660 122530,-48040 193210,-76000 70690,-27950 150470,-59530 247790,-97580 48370,73730 119090,118730 192840,140250 73740,21520 150510,19570 210990,-570 60480,-20140 104690,-58510 113270,-109800 8590,-51270 -18430,-115500 -100370,-187380 59850,-21600 119920,-42690 180160,-63220 -81920,-44490 -163840,-88970 -245760,-133450 -81920,-44480 -163840,-88960 -245750,-133450 -81920,-44480 -163840,-88960 -245760,-133440 -81920,-44480 -163840,-88960 -245750,-133440 -30460,114770 -118840,270110 -232810,420630 -113970,150510 -253550,296240 -386410,391770 -132850,95520 -258980,140870 -346060,90680 -87080,-50190 -135120,-195940 -111780,-482610 -249820,-148680 -340260,-261180 -332780,-346240 7480,-85050 112890,-142670 254760,-181560 141870,-38880 320230,-59050 473580,-69210 153380,-10160 281770,-10320 323740,-9200 -43510,-22780 -89800,-47490 -138790,-73750 -49000,-26280 -100740,-54140 -155110,-83180 -54380,-29050 -111420,-59320 -171070,-90390 -59640,-31080 -121900,-63020 -186690,-95400 -40840,15600 -82710,27870 -125160,36470 -42420,8600 -85420,13570 -128470,14560 -43030,990 -86120,-1970 -128780,-9170 -42650,-7210 -84880,-18670 -126140,-34690 -27570,-110300 -71730,-201790 -127230,-270320 -55510,-68550 -122390,-114190 -195360,-132760 -72970,-18600 -152070,-10150 -232030,29410 -79960,39560 -160810,110280 -237270,216230 C 576630,4295750 527600,4191660 479520,4087360 431450,3983040 384320,3878480 336580,3774210 288840,3669930 240450,3565920 189870,3462690 139280,3359480 86460,3257030 29860,3155870 c 115900,-1560 231030,-7050 345730,-14850 114690,-7800 228950,-17900 343140,-28690 114180,-10800 228280,-22280 342660,-32790 114370,-10530 229030,-20110 344310,-27100 -53520,119200 -74330,224560 -68620,313600 5710,89010 37950,161750 90540,215640 52590,53900 125530,89010 212660,102810 87100,13790 188410,6300 297720,-24970 34500,27720 65540,58550 93110,91890 27560,33330 51680,69180 72330,106960 20650,37770 37860,77490 51620,118530 13760,41060 24100,83460 31010,126620 60430,39920 119220,77870 175960,113970 56740,36110 111470,70400 163820,102960 52330,32570 102310,63440 149570,92730 47250,29300 91800,57030 133280,83320 -21970,-35790 -86030,-147070 -153910,-284960 -67870,-137900 -139600,-302440 -176850,-444740 -37260,-142300 -40060,-262390 29860,-311400 69930,-49010 212580,-26940 466250,115070 236580,-163550 386830,-194820 473840,-144500 87010,50320 110800,182240 94500,345040 -16300,162820 -72710,356560 -146080,530530 -73370,173970 -163710,328170 -247880,411930 79480,48690 158970,97400 238450,146100 79480,48700 158960,97420 238440,146110 79470,48700 158970,97410 238440,146100 79480,48700 158960,97410 238440,146120 -12330,-62450 -24070,-124990 -35320,-187640 103220,35030 172360,26320 212460,-6760 40120,-33080 51240,-90550 38460,-152990 -12790,-62460 -49500,-129910 -105010,-183020 -55510,-53100 -129840,-91850 -217870,-96870 -15710,-103310 -28270,-188200 -39390,-263390 -11110,-75200 -20810,-140730 -30780,-205320 -9970,-64620 -20240,-128330 -32500,-199880 -12260,-71560 -26550,-150970 -44540,-247000 50270,5220 100610,15670 149250,29290 12530,-48970 28640,-97720 49260,-143890 74160,63590 135810,115670 191650,162070 55830,46390 105870,87130 156840,128070 50960,40950 102860,82100 162420,129330 59560,47220 126780,100540 208410,165810 -39680,78740 -43270,162490 -25050,237110 18230,74620 58300,140150 106000,182450 47680,42300 103000,61400 151710,43200 48710,-18190 90820,-73720 112100,-180630 48620,41060 96930,82530 144830,124420 -2430,-93190 -4880,-186370 -7320,-279560 -2430,-93160 -4870,-186370 -7310,-279550 -2430,-93180 -4880,-186370 -7310,-279540 -2430,-93180 -4870,-186380 -7310,-279560 -114620,31020 -293340,32140 -480680,8700 -187330,-23440 -383340,-71470 -532490,-138750 -149160,-67290 -251500,-153840 -251570,-254360 -70,-100500 102130,-215000 362070,-338110 3850,-290690 56070,-425270 133470,-461320 77400,-36050 180000,26440 284610,129850 104610,103410 211250,247790 296730,375520 85490,127740 149830,238860 169840,275770 -2040,-49070 -3790,-101490 -5530,-157070 -1750,-55570 -3490,-114300 -5520,-175910 -2020,-61620 -4350,-126160 -7240,-193350 -2890,-67200 -6390,-137080 -10740,-209370 -33930,-27570 -65490,-57720 -94160,-90160 -28660,-32450 -54450,-67210 -76840,-103980 -22380,-36770 -41370,-75580 -56460,-116120 -15090,-40540 -26270,-82830 -33020,-126580 81730,-79030 138880,-163000 170480,-245340 31610,-82340 37690,-163080 17310,-235570 -20380,-72490 -67230,-136790 -141490,-186240 -74250,-49470 -175920,-84120 -305900,-97370 63710,-96340 129340,-190850 195640,-284640 66290,-93780 133290,-186880 199710,-280360 66440,-93490 132330,-187390 196430,-282810 64090,-95430 126420,-192400 185720,-292000 59300,99600 121610,196570 185720,292000 64090,95420 129990,189330 196420,282810 66440,93480 133410,186570 199720,280360 66310,93790 131930,188300 195640,284640 -129990,13250 -231640,47900 -305890,97370 -74260,49460 -121120,113750 -141500,186240 -20380,72490 -14300,153200 17310,235560 31610,82350 88750,166320 170480,245350 -6750,43750 -17940,86040 -33020,126580 -15090,40540 -34090,79350 -56460,116120 -22390,36770 -48170,71520 -76840,103980 -28670,32450 -60230,62590 -94170,90160 -4350,72290 -7830,142190 -10720,209370 -2890,67200 -5230,131730 -7260,193350 -2020,61610 -3770,120330 -5510,175900 -1750,55580 -3500,108010 -5530,157080 20010,-36910 84350,-148030 169830,-275770 85480,-127730 192130,-272120 296730,-375520 104620,-103420 207210,-165880 284610,-129850 77400,36050 129630,170630 133470,461320 259940,123110 362130,237600 362080,338110 -70,100510 -102420,187070 -251580,254360 -149150,67280 -345140,115310 -532480,138750 -187350,23440 -366060,22320 -480690,-8700 -2430,93180 -4880,186370 -7320,279540 -2430,93180 -4870,186380 -7310,279560 -2430,93180 -4870,186370 -7310,279550 -2430,93190 -4870,186370 -7310,279560 47890,-41900 96220,-83360 144840,-124420 21280,106910 63390,162430 112100,180630 48710,18200 104040,-900 151710,-43200 47700,-42300 87770,-107830 105990,-182440 18230,-74630 14630,-158380 -25040,-237120 81630,-65270 148850,-118590 208410,-165810 59550,-47230 111470,-88380 162420,-129330 50970,-40940 101000,-81670 156840,-128070 55840,-46410 117490,-98480 191650,-162070 20610,46160 36730,94930 49250,143890 48710,-13640 98920,-24060 149260,-29290 -18000,96030 -32270,175460 -44530,247000 -12260,71560 -22540,135260 -32510,199880 -9970,64590 -19670,130120 -30780,205320 -11120,75190 -23680,160080 -39390,263390 -88040,5020 -162360,43770 -217870,96870 -55510,53110 -92220,120560 -105010,183020 -12780,62450 -1660,119900 38450,152980 40120,33070 109250,41800 212470,6770 -11250,62650 -23000,125190 -35320,187640 79480,-48710 158960,-97420 238440,-146120 79460,-48690 158970,-97400 238440,-146100 79480,-48690 158970,-97400 238440,-146100 79480,-48700 158970,-97420 238450,-146110 -84170,-83760 -174510,-237960 -247880,-411930 -73380,-173970 -129780,-367710 -146080,-530530 -16300,-162810 7480,-294720 94500,-345040 87010,-50320 237250,-19050 473840,144500 253670,-142010 396320,-164080 466250,-115070 69920,49010 67110,169100 29860,311400 -37250,142300 -108980,306840 -176860,444740 -67870,137890 -131940,249170 -153900,284960 41480,-26290 86030,-54020 133260,-83320 47270,-29290 97250,-60160 149590,-92730 52350,-32560 107080,-66840 163810,-102940 56760,-36110 115530,-74070 175970,-113990 6910,-43160 17240,-85560 31010,-126620 13760,-41040 30970,-80770 51620,-118530 20650,-37780 44770,-73630 72330,-106960 27570,-33340 58610,-64170 93110,-91890 109310,31270 210620,38760 297720,24970 87130,-13800 160070,-48910 212660,-102810 52590,-53900 84830,-126620 90540,-215640 5710,-89040 -15100,-194400 -68630,-313600 115290,6990 229950,16570 344320,27100 114370,10510 228480,21990 342660,32790 114190,10790 228450,20890 343140,28690 114700,7800 229820,13290 345730,14850 -56610,101160 -109420,203600 -160010,306820 -50590,103220 -98970,207240 -146710,311520 -47740,104270 -94870,208830 -142950,313150 -48070,104300 -97100,208390 -148680,311740 -76470,-105950 -157310,-176670 -237280,-216230 -79950,-39560 -159050,-48010 -232020,-29410 -72980,18590 -139850,64210 -195360,132760 -55500,68530 -99660,160020 -127230,270320 -41270,16020 -83480,27480 -126130,34690 -42660,7210 -85770,10160 -128790,9170 -43050,-990 -86040,-5960 -128470,-14560 -42440,-8610 -84320,-20870 -125170,-36470 -64780,32380 -127040,64310 -186690,95400 -59640,31070 -116690,61340 -171060,90390 -54380,29040 -106110,56890 -155110,83170 -49000,26260 -95280,50980 -138790,73760 41970,-1120 170360,-960 323730,9200 153360,10160 331720,30330 473590,69210 141880,38890 247280,96510 254760,181560 7470,85050 -82970,197560 -332780,346240 23340,286670 -24690,432420 -111770,482610 -87080,50200 -213230,4840 -346080,-90680 -132850,-95530 -272430,-241250 -386400,-391770 -113970,-150520 -202360,-305860 -232810,-420630 -81920,44480 -163830,88960 -245750,133440 -81920,44480 -163840,88960 -245760,133440 -81920,44490 -163840,88970 -245750,133450 -81920,44480 -163840,88960 -245760,133450 60240,20530 120300,41620 180160,63220 -81940,71880 -108970,136100 -100380,187380 8590,51290 52790,89660 113270,109800 60480,20150 137260,22090 211000,570 73740,-21520 144470,-66520 192830,-140250 97330,38050 177110,69630 247780,97580 70670,27960 132280,52350 193210,76000 60940,23670 121240,46640 189340,71790 68100,25150 144030,52500 236200,84940 -29730,41000 -63820,79210 -99990,114610 36110,35300 70350,73680 99990,114600 z M 6399250,4355990 c 15570,99360 -5760,201980 -50660,297250 -44920,95270 -113430,183200 -192240,253180 -78810,69970 -167930,122000 -254100,145490 -86150,23490 -169360,18430 -236300,-25760 -20300,89310 -38390,179190 -54260,269500 -15870,90320 -29530,181090 -40950,272160 -11430,91070 -20660,182470 -27660,274070 -7000,91580 -11800,183380 -14370,275250 78270,-48170 155370,-98220 231190,-150080 75810,-51850 150370,-105550 223510,-160990 73160,-55440 144930,-112660 215200,-171540 70270,-58900 139080,-119500 206260,-181740 -71740,-35880 -117710,-105420 -140440,-191770 -22730,-86370 -22240,-189590 -1050,-292820 21190,-103250 63090,-206540 123140,-293070 60040,-86520 138270,-156300 232100,-192500 -56420,-18680 -174950,-87140 -219370,-126630 z M 5251350,6277270 c -80850,-43710 -162730,-85470 -245550,-125200 -82820,-39730 -166600,-77440 -251190,-113080 -84590,-35630 -170020,-69190 -256170,-100610 -86140,-31410 -173020,-60690 -260520,-87760 4800,80070 -32440,154650 -95860,217520 -63410,62860 -153040,114050 -253050,147320 -100010,33260 -210420,48630 -315370,39890 -104960,-8730 -204490,-41590 -282760,-104750 12000,58080 12000,195200 0,253290 78270,-63160 177810,-96010 282770,-104750 104960,-8730 215350,6630 315360,39890 100010,33260 189650,84440 253050,147310 63430,62870 100660,137460 95860,217530 87500,-27070 174370,-56350 260520,-87760 86140,-31400 171580,-64960 256170,-100600 84590,-35630 168370,-73340 251190,-113070 82820,-39710 164700,-81480 245550,-125170 z m -778110,1921240 c -15560,-99370 5770,-201990 50670,-297260 44910,-95270 113430,-183190 192240,-253170 78800,-69970 167940,-122010 254100,-145490 86160,-23480 169350,-18440 236300,25750 20300,-89300 38390,-179180 54260,-269500 15860,-90300 29530,-181080 40950,-272150 11440,-91080 20660,-182490 27660,-274070 7000,-91600 11790,-183400 14370,-275250 -78260,48150 -155370,98190 -231190,150060 -75820,51870 -150360,105560 -223510,161000 -73150,55440 -144930,112650 -215210,171550 -70280,58900 -139070,119500 -206260,181740 71740,35880 117710,105410 140440,191770 22730,86360 22240,189580 1060,292820 -21190,103240 -63090,206530 -123140,293070 -60040,86510 -138270,156290 -232100,192490 56420,18680 174950,87140 219360,126640 z m -3426150,612820 c -19430,26940 -34740,53320 -45570,80630 -10840,27310 -17220,55580 -18790,86270 -1580,30680 1630,63820 9980,100850 8340,37040 21810,78030 40760,124410 -67100,-9150 -122180,-16120 -170380,-21800 -48190,-5680 -89530,-10090 -129090,-14100 -39560,-4020 -77380,-7680 -118580,-11840 -41190,-4170 -85790,-8880 -138880,-15020 21230,-49040 39440,-90020 56430,-127780 16980,-37760 32740,-72350 49040,-108620 16290,-36270 33150,-74250 52330,-118830 19180,-44580 40690,-95770 66320,-158450 30690,39590 59440,71760 87360,97500 27890,25750 54980,45110 82350,59070 27370,13970 55040,22570 84110,26840 29070,4280 59570,4230 92610,870 z m 1977240,-638770 c 85270,82350 149210,179780 190380,273810 41160,94010 59580,184640 53860,253340 -5730,68710 -35640,115520 -91090,121920 -55460,6410 -136500,-27560 -244500,-120450 -101240,85760 -148980,100010 -162930,72040 -13940,-27970 5890,-98180 39790,-181300 33900,-83110 81880,-179150 124200,-258810 42320,-79660 78990,-142950 90290,-160550 z m -435430,-754200 c -28680,-115010 -81100,-219110 -141930,-301760 -60840,-82660 -130110,-143930 -192480,-173310 -62370,-29390 -117860,-26910 -151140,17920 -33280,44810 -44360,131990 -17920,271970 -124910,44790 -161110,79010 -143860,105080 17260,26070 87970,43990 176900,56180 88930,12190 196090,18660 286240,21840 90150,3190 163290,3060 184190,2080 z M 9825410,3743160 c 33040,-3360 63540,-3400 92610,860 29070,4270 56740,12890 84110,26860 27370,13960 54450,33320 82350,59060 27900,25750 56660,57910 87360,97510 25620,-62680 47140,-113870 66320,-158450 19180,-44580 36040,-82570 52320,-118840 16300,-36280 32070,-70850 49050,-108620 16970,-37770 35200,-78730 56430,-127780 -53100,-6140 -97680,-10850 -138870,-15020 -41200,-4170 -79040,-7820 -118590,-11830 -39570,-4020 -80900,-8430 -129090,-14100 -48200,-5670 -103280,-12660 -170380,-21810 18940,46390 32420,87370 40760,124410 8330,37040 11560,70170 9980,100860 -1570,30680 -7950,58950 -18790,86260 -10830,27320 -26150,53700 -45570,80630 z M 8283600,5136130 c 28680,115010 81100,219100 141930,301760 60820,82670 130120,143940 192480,173320 62370,29370 117850,26880 151130,-17940 33270,-44820 44370,-131980 17930,-271950 124910,-44810 161100,-79020 143860,-105080 -17260,-26070 -87970,-44000 -176900,-56190 -88930,-12190 -196090,-18660 -286240,-21840 -90160,-3180 -163300,-3070 -184190,-2080 z m -435440,-754200 c -85260,-82350 -149200,-179780 -190370,-273800 -41160,-94010 -59590,-184640 -53860,-253340 5730,-68720 35640,-115520 91090,-121930 55460,-6410 136500,27570 244500,120460 101240,-85770 148980,-100010 162930,-72040 13940,27970 -5890,98170 -39790,181290 -33900,83110 -81880,179160 -124200,258820 -42320,79660 -78990,142940 -90300,160540 z M 5343830,6117160 c -78270,-48160 -155380,-98210 -231210,-150070 -75820,-51860 -150360,-105580 -223510,-161000 -73160,-55450 -144950,-112660 -215220,-171560 -70290,-58900 -139080,-119510 -206270,-181750 71740,-35880 117710,-105420 140440,-191770 22730,-86370 22240,-189590 1060,-292820 -21190,-103250 -63090,-206540 -123140,-293070 -60040,-86520 -138270,-156300 -232100,-192500 56420,-18690 174940,-87140 219360,-126630 -15560,99360 5770,201980 50670,297250 44910,95270 113430,183200 192240,253180 78800,69970 167930,122000 254100,145490 86150,23490 169350,18430 236300,-25760 20300,89310 38400,179190 54270,269510 15860,90310 29530,181090 40960,272170 11430,91070 20650,182490 27660,274080 7000,91590 11810,183390 14390,275250 z m 4481580,2694170 c 19420,26940 34730,53320 45570,80630 10840,27310 17220,55580 18790,86270 1580,30680 -1630,63820 -9980,100850 -8340,37040 -21820,78030 -40760,124410 67100,-9150 122180,-16120 170380,-21800 48190,-5680 89520,-10090 129090,-14100 39560,-4020 77380,-7680 118570,-11840 41200,-4170 85790,-8880 138890,-15020 -21230,-49040 -39440,-90020 -56430,-127780 -16980,-37760 -32750,-72350 -49050,-108620 -16280,-36270 -33140,-74250 -52320,-118830 -19180,-44580 -40700,-95770 -66320,-158450 -30700,39590 -59440,71760 -87360,97500 -27890,25750 -54980,45110 -82350,59070 -27370,13970 -55040,22570 -84110,26840 -29070,4280 -59570,4230 -92610,870 z M 7848160,8172560 c -85260,82350 -149200,179780 -190370,273810 -41160,94010 -59590,184640 -53860,253340 5730,68710 35640,115520 91090,121920 55460,6410 136500,-27560 244500,-120450 101240,85760 148980,100010 162930,72040 13940,-27970 -5890,-98180 -39790,-181300 -33900,-83110 -81880,-179150 -124200,-258810 -42320,-79660 -78990,-142950 -90300,-160550 z m 435440,-754200 c 28680,-115010 81100,-219110 141930,-301760 60840,-82660 130100,-143930 192480,-173310 62370,-29390 117860,-26910 151140,17920 33270,44810 44360,131990 17920,271970 124910,44790 161110,79010 143860,105080 -17260,26070 -87970,43990 -176900,56180 -88930,12190 -196090,18660 -286240,21840 -90160,3190 -163300,3060 -184190,2080 z M 1047090,3743160 c -33040,-3360 -63540,-3400 -92610,860 -29070,4270 -56740,12890 -84110,26860 -27370,13960 -54450,33320 -82350,59060 -27910,25750 -56670,57910 -87360,97510 -25630,-62680 -47140,-113870 -66320,-158450 -19180,-44580 -36040,-82570 -52330,-118840 -16300,-36280 -32060,-70850 -49040,-108620 -16980,-37770 -35200,-78730 -56430,-127780 53090,-6140 97670,-10850 138870,-15020 41200,-4170 79040,-7820 118590,-11830 39560,-4020 80900,-8430 129090,-14100 48200,-5670 103280,-12660 170380,-21810 -18950,46390 -32420,87370 -40760,124410 -8340,37040 -11560,70170 -9980,100860 1570,30680 7950,58950 18790,86260 10820,27320 26140,53700 45570,80630 z m 1541810,1392970 c -28680,115010 -81100,219100 -141930,301760 -60830,82670 -130120,143940 -192480,173320 -62370,29370 -117850,26880 -151130,-17940 -33280,-44820 -44370,-131980 -17930,-271950 -124910,-44810 -161100,-79020 -143860,-105080 17260,-26070 87970,-44000 176900,-56190 88930,-12190 196090,-18660 286240,-21840 90150,-3180 163290,-3070 184190,-2080 z m 435430,-754200 c 85270,-82350 149210,-179780 190380,-273800 41160,-94010 59580,-184640 53860,-253340 -5730,-68720 -35640,-115520 -91090,-121930 -55460,-6410 -136500,27570 -244500,120460 -101240,-85770 -148980,-100010 -162930,-72040 -13940,27970 5890,98170 39790,181290 33900,83110 81880,179160 124200,258820 42320,79660 78990,142940 90290,160540 z M 5436250,1209080 c 13610,-30300 28810,-56730 47050,-79770 18230,-23050 39530,-42700 65310,-59410 25780,-16720 56080,-30490 92330,-41780 36260,-11290 78480,-20130 128120,-26910 -41460,-53540 -75050,-97760 -104070,-136660 -29010,-38890 -53490,-72500 -76750,-104740 -23270,-32260 -45340,-63200 -69550,-96780 -24210,-33590 -50590,-69850 -82440,-112760 -31870,42910 -58230,79180 -82440,112760 -24210,33600 -46300,64530 -69550,96780 -23260,32250 -47740,65840 -76760,104740 -29010,38900 -62600,83120 -104060,136660 49640,6780 91870,15600 128120,26900 36260,11290 66550,25090 92330,41790 25780,16690 47070,36350 65310,59400 18230,23040 33430,49480 47050,79780 z m 435440,2031740 c 113950,32660 230290,39300 332300,27950 102000,-11340 189700,-40720 246330,-80020 56630,-39320 82220,-88630 60050,-139850 -22180,-51250 -92120,-104430 -226570,-151510 23670,-130570 12120,-179030 -19080,-177120 -31190,1900 -82080,54190 -137100,125110 -55030,70910 -114230,160480 -162040,236960 -47820,76480 -84290,139880 -93890,158480 z m -870880,0 c -113950,32660 -230290,39300 -332300,27950 -102000,-11340 -189700,-40720 -246330,-80020 -56630,-39320 -82220,-88630 -60050,-139850 22170,-51250 92120,-104430 226560,-151510 -23660,-130570 -12110,-179030 19080,-177120 31200,1900 82090,54190 137110,125110 55020,70910 114220,160480 162040,236960 47820,76480 84290,139880 93890,158480 z m 435440,8104600 c 13610,30290 28810,56730 47050,79770 18230,23040 39530,42700 65310,59410 25780,16710 56080,30480 92330,41780 36260,11290 78480,20120 128120,26910 -41460,53540 -75050,97750 -104070,136660 -29010,38880 -53490,72490 -76750,104730 -23270,32270 -45340,63210 -69550,96790 -24210,33580 -50590,69840 -82440,112750 -31870,-42910 -58230,-79180 -82440,-112750 -24210,-33600 -46300,-64530 -69550,-96790 -23260,-32250 -47740,-65840 -76760,-104730 -29010,-38910 -62600,-83120 -104060,-136660 49640,-6790 91870,-15610 128120,-26900 36260,-11300 66550,-25090 92330,-41790 25780,-16700 47070,-36360 65310,-59400 18230,-23040 33430,-49490 47050,-79780 z m 435440,-2031740 c 113950,-32670 230290,-39310 332300,-27960 102000,11350 189700,40720 246330,80030 56630,39320 82220,88620 60050,139850 -22180,51240 -92120,104420 -226570,151510 23670,130570 12120,179020 -19080,177120 -31190,-1910 -82080,-54200 -137100,-125110 -55030,-70920 -114230,-160490 -162040,-236970 -47820,-76470 -84290,-139880 -93890,-158470 z m -870880,0 c -113950,-32670 -230290,-39310 -332300,-27960 -102000,11350 -189700,40720 -246330,80030 -56630,39320 -82220,88620 -60050,139850 22170,51240 92120,104420 226560,151510 -23660,130570 -12110,179020 19080,177120 31200,-1910 82090,-54200 137110,-125110 55020,-70920 114220,-160490 162040,-236970 47820,-76470 84290,-139880 93890,-158470 z"
                     class="fil0 str0"
                     style="fill:none;stroke:#000000;stroke-width:20134.265625;stroke-miterlimit:4;stroke-dasharray:none;stroke-opacity:1" />
                </g>
              </g>
              <g
                 style="clip-rule:evenodd;fill:none;fill-rule:evenodd;stroke:#000000;stroke-width:20089.02929688;stroke-miterlimit:4;stroke-dasharray:none;stroke-opacity:1;image-rendering:optimizeQuality;shape-rendering:geometricPrecision;text-rendering:geometricPrecision"
                 id="g10892"
                 transform="matrix(1.7109796e-5,1.0184174e-5,-1.0184175e-5,1.7109794e-5,-34.32941,467.72579)">
                <g
                   id="Layer_x0020_1-0"
                   style="fill:none;stroke:#000000;stroke-width:20089.02929688;stroke-miterlimit:4;stroke-dasharray:none;stroke-opacity:1"
                   transform="matrix(0.87721743,0.48009332,-0.48009331,0.87721742,3654164.6,-1839763.5)">
                  <metadata
                     id="CorelCorpID_0Corel-Layer-1" />
                  <path
                     id="path10885"
                     d="m 5580690,9965460 252290,0 c 84920,144690 237180,241160 410930,241160 266410,0 482360,-226740 482360,-506440 0,-279710 -215950,-506460 -482360,-506460 -192420,0 -358470,118310 -435890,289400 l -227330,0 0,-445310 487390,-398790 -487390,-917450 0,-11730 c 431740,-45030 808700,-274000 1051360,-607100 l 10250,5910 550820,880830 589060,-222710 385660,222670 -113650,196850 c -186900,-18490 -372380,66180 -468580,232810 -133210,230700 -44820,531090 197420,670950 242240,139860 546560,66210 679770,-164500 86870,-150460 79440,-330560 -3390,-476470 l 126150,-218490 c 140680,81230 261520,155200 365860,223010 -20870,26640 -33340,60110 -33340,96360 l 0,566770 c 10,86200 70530,156750 156770,156750 l 0,-10 c 86220,10 156760,-70520 156760,-156740 l 0,-466500 c 674720,521000 133960,573200 675060,885610 1042890,-23450 1127720,-170360 626570,-1085260 -541110,-312420 -315900,182000 -1104500,-141820 l 404000,-233250 c 74690,-43120 100500,-139470 57380,-214140 l 20,-10 c -43120,-74670 -139470,-100480 -214160,-57380 l -490820,283380 c -31410,18120 -54170,45660 -66800,77070 -110890,-56460 -235360,-124120 -376040,-205350 l 126140,-218490 c 167770,-1200 327440,-84830 414310,-235290 133210,-230720 44820,-531110 -197400,-670940 -242240,-139860 -546580,-66220 -679770,164480 -96230,166640 -76780,369620 32660,522200 l -113660,196880 -385640,-222660 -101680,-621510 -1038240,-36620 -9960,-5760 c 82670,-185490 128630,-390970 128630,-607160 0,-216200 -45990,-421640 -128630,-607150 l 9980,-5770 1038220,-36630 101680,-621490 385660,-222660 113650,196870 c -109450,152590 -128880,355570 -32670,522190 133190,230720 437530,304360 679770,164510 242240,-139840 330630,-440230 197420,-670950 -86870,-150460 -246560,-234090 -414330,-235290 l -126130,-218490 c 140690,-81230 265160,-148900 376050,-205340 12610,31380 35370,58920 66780,77040 l 490820,283380 c 74690,43110 171040,17310 214160,-57370 l -20,-20 c 43120,-74660 17310,-171010 -57380,-214130 l -403970,-233260 c 788540,-323800 563400,170610 1104470,-141810 501150,-914900 416320,-1061810 -626570,-1085260 -541110,312420 -320,364610 -675060,885620 l 0,-466510 c 0,-86220 -70540,-156760 -156760,-156740 l 0,-20 c -86240,0 -156760,70550 -156770,156760 l 0,566760 c 0,36260 12470,69750 33340,96390 -104340,67800 -225180,141760 -365860,223000 l -126150,-218490 c 82850,-145900 90260,-326000 3390,-476460 -133210,-230720 -437530,-304360 -679770,-164510 -242220,139840 -330610,440230 -197410,670950 96190,166640 281690,251310 468570,232800 l 113650,196860 -385640,222670 -589080,-222720 -550830,880860 -10220,5890 C 6389430,5012560 6012430,4783620 5580690,4738580 l 0,-11740 487390,-917450 -487390,-398780 0,-445310 227330,0 c 77420,171080 243470,289390 435890,289390 266410,0 482360,-226740 482360,-506460 0,-279690 -215950,-506440 -482360,-506440 -173750,0 -326010,96470 -410930,241160 l -252290,0 c 0,-162450 3630,-304070 10200,-428330 33480,4740 68720,-1190 100120,-19320 l 490810,-283370 c 74670,-43120 100500,-139470 57390,-214150 l -10,0 c -43100,-74680 -139470,-100490 -214140,-57390 l -403990,233260 c 113840,-844820 429430,-402630 429430,-1027430 -541760,-891440 -711400,-891440 -1253160,0 0,624830 315600,182590 429450,1027430 l -404010,-233260 c -74660,-43100 -171030,-17290 -214130,57390 l -20,0 c -43100,74680 -17270,171030 57390,214150 l 490810,283370 c 31410,18130 66640,24080 100150,19320 6540,124260 10190,265880 10190,428330 l -252290,0 c -84920,-144690 -237180,-241160 -410940,-241160 -266390,0 -482350,226750 -482350,506440 0,279720 215960,506460 482350,506460 192410,0 358490,-118310 435900,-289390 l 227330,0 0,445310 -487400,398780 487400,917470 0,11720 c -431760,45020 -808750,273990 -1051410,607110 l -10200,-5890 -550830,-880860 -589090,222720 -385640,-222670 113660,-196860 c 186870,18510 372370,-66160 468560,-232800 133210,-230720 44810,-531110 -197410,-670950 -242230,-139850 -546560,-66210 -679760,164510 -86880,150460 -79470,330560 3380,476460 l -126140,218490 c -140690,-81240 -261530,-155200 -365870,-223000 20870,-26640 33350,-60130 33350,-96390 l 0,-566760 c -20,-86210 -70540,-156760 -156780,-156760 l 0,20 c -86220,-20 -156760,70520 -156760,156740 l 0,466510 c -674730,-521010 -133940,-573200 -675050,-885620 -1042900,23450 -1127730,170360 -626580,1085260 541080,312420 315940,-181990 1104470,141810 l -403970,233260 c -74660,43120 -100490,139470 -57370,214130 l -20,20 c 43120,74680 139470,100480 214150,57370 l 490830,-283380 c 31400,-18120 54160,-45660 66780,-77040 110880,56440 235350,124110 376040,205340 l -126130,218490 c -167770,1200 -327450,84830 -414330,235290 -133200,230720 -44810,531110 197430,670950 242240,139850 546580,66210 679760,-164510 96210,-166620 76790,-369600 -32670,-522190 l 113660,-196870 385650,222660 101680,621490 1038220,36630 9970,5750 c -82660,185500 -128630,390970 -128630,607170 0,216210 45990,421650 128630,607160 l -9950,5760 -1038240,36620 -101680,621510 -385640,222660 -113650,-196880 c 109440,-152580 128880,-355560 32650,-522200 -133180,-230700 -437520,-304340 -679760,-164480 -242220,139830 -330620,440220 -197410,670940 86870,150460 246540,234090 414310,235290 l 126150,218490 c -140690,81230 -265160,148890 -376050,205350 -12630,-31410 -35390,-58950 -66790,-77070 l -490830,-283380 c -74680,-43100 -171030,-17290 -214150,57380 l 20,10 c -43120,74670 -17290,171020 57370,214140 l 404010,233250 c -788610,323820 -563400,-170600 -1104510,141820 -501150,914900 -416320,1061810 626580,1085260 541090,-312410 330,-364610 675050,-885610 l 0,466500 c 0,86220 70540,156750 156760,156740 l 0,10 c 86240,0 156760,-70550 156780,-156750 l 0,-566770 c 0,-36250 -12480,-69720 -33350,-96360 104340,-67810 225180,-141780 365870,-223010 l 126140,218490 c -82830,145910 -90260,326010 -3380,476470 133200,230710 437530,304360 679760,164500 242240,-139860 330630,-440250 197430,-670950 -96210,-166630 -281690,-251300 -468580,-232810 l -113660,-196850 385660,-222670 589070,222710 550810,-880830 10230,-5910 c 242630,333140 619660,562070 1051400,607100 l 0,11710 -487400,917470 487400,398790 0,445310 -227330,0 c -77410,-171090 -243490,-289400 -435900,-289400 -266390,0 -482350,226750 -482350,506460 0,279700 215960,506440 482350,506440 173760,0 326020,-96470 410940,-241160 l 252290,0 c 0,162460 -3650,304100 -10190,428340 -33510,-4770 -68740,1180 -100150,19320 l -490810,283380 c -74660,43100 -100490,139450 -57390,214130 l 20,0 c 43100,74690 139470,100500 214130,57400 l 404010,-233260 c -113850,844830 -429450,402590 -429450,1027420 541760,891450 711400,891450 1253160,0 0,-624790 -315590,-182600 -429430,-1027420 l 403990,233260 c 74670,43100 171040,17290 214140,-57400 l 10,0 c 43110,-74680 17280,-171030 -57390,-214130 l -490810,-283380 c -31400,-18140 -66640,-24070 -100120,-19320 -6570,-124240 -10200,-265880 -10200,-428340 z m 0,-2595370 0,-874360 757150,437140 c -181320,233460 -450060,395580 -757150,437220 z m 914100,-708620 -757360,-437240 757380,-437270 c 55130,134920 85600,282500 85600,437250 0,154740 -30470,302360 -85620,437260 z m -156930,-1145910 -757170,437140 0,-874370 c 307080,41640 575880,203720 757170,437230 z m -1070690,-437230 0,874370 -757180,-437140 c 181320,-233470 450070,-395610 757180,-437230 z m -914130,708610 757370,437290 -757370,437260 c -55160,-134920 -85630,-282540 -85630,-437280 0,-154750 30470,-302370 85630,-437270 z m 156950,1145930 757180,-437140 0,874360 c -307070,-41620 -575880,-203730 -757180,-437220 z m -2673890,408970 c 52450,90860 167430,122650 256830,71030 89400,-51610 119360,-167080 66900,-257940 -52450,-90830 -167430,-122620 -256830,-71010 -89390,51620 -119350,167080 -66900,257920 z m 826010,1430710 c 52450,90840 167430,122630 256830,71010 89400,-51610 119360,-167080 66900,-257920 -52450,-90850 -167430,-122640 -256830,-71020 -89390,51610 -119350,167080 -66900,257930 z M 766560,9233380 c 321710,-185730 44360,-666110 -277340,-480360 -292810,169030 -15440,649400 277340,480360 z m 2788160,-1642600 -333750,-94710 84880,-336380 567030,-39990 -318160,471080 z M 8185730,3675890 c 52460,90840 22500,206310 -66900,257920 -89400,51620 -204380,19830 -256830,-71030 -52430,-90850 -22480,-206300 66900,-257920 89420,-51610 204400,-19820 256830,71030 z m 826010,1430690 c 52460,90860 22500,206310 -66900,257940 -89400,51600 -204380,19810 -256830,-71030 -52430,-90850 -22480,-206320 66900,-257930 89420,-51620 204380,-19830 256830,71020 z m 1346890,-1411180 c -321700,185740 -599050,-294640 -277350,-480370 292800,-169050 570130,311330 277350,480370 z m -2816640,1593320 84880,-336380 -333750,-94710 -318160,471090 567030,-40000 z m 1469750,2053120 c -52450,90860 -167430,122650 -256830,71030 -89390,-51610 -119350,-167080 -66900,-257940 52450,-90830 167430,-122620 256830,-71010 89400,51620 119360,167080 66900,257920 z m -826010,1430710 c -52450,90840 -167430,122630 -256830,71010 -89390,-51610 -119350,-167080 -66900,-257920 52450,-90850 167430,-122640 256830,-71020 89400,51610 119360,167080 66900,257930 z m 1895550,460830 c -321700,-185730 -44350,-666110 277350,-480360 292800,169030 15440,649400 -277350,480360 z m -2788160,-1642600 333750,-94710 -84880,-336380 -567030,-39990 318160,471080 z M 2662110,3675890 c -52450,90840 -22490,206310 66900,257920 89400,51620 204380,19830 256830,-71030 52440,-90850 22480,-206300 -66900,-257920 -89410,-51610 -204390,-19820 -256830,71030 z m -826010,1430690 c -52450,90860 -22490,206310 66900,257940 89400,51600 204380,19810 256830,-71030 52440,-90850 22480,-206320 -66900,-257930 -89410,-51620 -204380,-19830 -256830,71020 z M 489220,3695400 c 321700,185740 599050,-294640 277340,-480370 -292800,-169050 -570130,311330 -277340,480370 z m 2816630,1593320 -84880,-336380 333750,-94710 318160,471090 -567030,-40000 z M 4597920,2558240 c 104910,0 189930,83680 189930,186910 0,103230 -85020,186910 -189930,186910 -104900,0 -189930,-83680 -189930,-186910 0,-103230 85030,-186910 189930,-186910 z m 1652000,0 c 104930,0 189930,83680 189930,186910 0,103230 -85000,186910 -189930,186910 -104880,0 -189910,-83680 -189910,-186910 0,-103230 85030,-186910 189910,-186910 z M 5701280,686220 c 0,371480 -554710,371480 -554710,0 0,-338090 554710,-338070 554710,0 z m -28480,3235930 -248870,-241690 -248890,241690 248890,511080 248870,-511080 z M 4597920,9890180 c 104910,0 189930,-83680 189930,-186910 0,-103230 -85020,-186910 -189930,-186910 -104900,0 -189930,83680 -189930,186910 0,103230 85030,186910 189930,186910 z m 1652000,0 c 104930,0 189930,-83680 189930,-186910 0,-103230 -85000,-186910 -189930,-186910 -104880,0 -189910,83680 -189910,186910 0,103230 85030,186910 189910,186910 z m -548640,1872010 c 0,-371470 -554710,-371470 -554710,0 0,338090 554710,338080 554710,0 z m -28480,-3235920 -248870,241690 -248890,-241690 248890,-511070 248870,511070 z"
                     class="fil0 str0"
                     style="fill:none;stroke:#000000;stroke-width:20089.02929688;stroke-miterlimit:4;stroke-dasharray:none;stroke-opacity:1" />
                </g>
              </g>
              <g
                 style="clip-rule:evenodd;fill:none;fill-rule:evenodd;stroke:#000000;stroke-width:20082.73632812;stroke-miterlimit:4;stroke-dasharray:none;stroke-opacity:1;image-rendering:optimizeQuality;shape-rendering:geometricPrecision;text-rendering:geometricPrecision"
                 id="g11365"
                 transform="matrix(1.9917607e-5,0,0,1.9917605e-5,113.48727,344.51942)">
                <g
                   id="Layer_x0020_1-1"
                   style="fill:none;stroke:#000000;stroke-width:20082.73632812;stroke-miterlimit:4;stroke-dasharray:none;stroke-opacity:1">
                  <metadata
                     id="CorelCorpID_0Corel-Layer-6" />
                  <path
                     id="path11358"
                     d="m 5263025,5754675 c 106370,17260 213980,16800 318520,-240 l 572509,991619 c -72770,73690 -152560,119300 -241110,129540 -102830,11900 -220010,-26030 -355040,-126370 59790,-58160 98800,-153760 98800,-261840 0,-177280 -104920,-320960 -234370,-320960 -129440,0 -234370,143680 -234370,320960 0,108080 39020,203680 98800,261840 -135010,100370 -252170,138270 -355010,126370 -88580,-10260 -168350,-55880 -241080,-129540 l 572349,-991379 z M 3643246,5643755 c 20460,-80850 83770,-162410 177360,-216460 153500,-88630 330410,-69610 395130,42500 64720,112100 -7260,274820 -160760,363450 -93590,54040 -195890,68050 -276150,45350 -19400,167110 6350,287520 68050,370620 53160,71590 132550,117890 232770,144050 l 572349,-991359 c -68160,-83520 -121510,-176900 -159050,-276000 l -1145019,40 c -27430,99850 -27080,191750 8340,273560 41110,95010 132560,177500 286980,244250 z M 6628953,4076526 c -64720,-112100 7260,-274820 160760,-363450 93610,-54040 195920,-68060 276180,-45350 19390,-167120 -6360,-287550 -68040,-370670 -53170,-71570 -132570,-117850 -232770,-144040 l -572399,991419 c 68130,83520 121550,176900 159060,275980 l 1145039,-40 c 27430,-99880 27040,-191770 -8360,-273600 -41130,-94970 -132540,-177480 -286980,-244240 -20460,80870 -83750,162450 -177360,216490 -153500,88630 -330410,69600 -395130,-42500 z M 3643246,3902516 c 20460,80870 83730,162470 177340,216510 153540,88630 330430,69610 395150,-42490 64720,-112110 -7240,-274810 -160780,-363460 -93590,-54040 -195870,-68040 -276150,-45330 -19380,-167140 6350,-287570 68070,-370690 53140,-71570 132530,-117830 232730,-144000 l 572439,991449 c -33180,40740 -63550,84630 -90650,131580 -27130,46940 -49940,95210 -68650,144290 l -1144839,20 c -27410,-99880 -27040,-191790 8360,-273620 41150,-94990 132560,-177510 286980,-244260 z m 2985707,1567279 c -64720,112100 7240,274820 160760,363450 93610,54040 195920,68060 276180,45350 19390,167110 -6340,287540 -68040,370650 -53170,71560 -132570,117860 -232790,144020 l -572429,-991429 c 33190,-40740 63560,-84640 90660,-131600 27130,-46940 49940,-95190 68650,-144290 l 1144839,20 c 27410,99850 27080,191730 -8360,273530 -41110,95010 -132540,177530 -286980,244270 -20480,-80850 -83770,-162420 -177360,-216470 -153520,-88630 -330410,-69590 -395130,42500 z M 5422334,3379887 c 129450,0 234370,-143690 234370,-320950 0,-108080 -39020,-203680 -98800,-261840 135030,-100340 252210,-138300 355040,-126420 88570,10280 168340,55900 241120,129580 l -572389,991409 c -106430,-17260 -213950,-16800 -318530,220 l -572509,-991609 c 72790,-73720 152560,-119320 241140,-129580 102800,-11900 220000,26030 355010,126370 -59800,58160 -98820,153770 -98820,261870 0,177260 104930,320950 234370,320950 z m 1851168,324500 c 262230,83770 428970,192190 519100,320270 777859,-1190169 882669,-1008599 -536880,-929979 65840,142120 76370,340720 17780,609709 z m 20,2137548 c 262210,-83770 428930,-192190 519080,-320290 777879,1190189 882699,1008639 -536930,929999 65890,-142100 76420,-340720 17850,-609709 z M 3571175,3704377 c -262210,83770 -428970,192190 -519100,320280 -777869,-1190169 -882679,-1008589 536940,-929959 -65870,142100 -76380,340700 -17840,609679 z m 20,2137558 c -262230,-83790 -428960,-192190 -519090,-320290 -777909,1190209 -882719,1008609 536940,929989 -65900,-142100 -76450,-340710 -17850,-609699 z M 5422353,2635598 c -203670,-185190 -380930,-275370 -536930,-289390 641809,-1268729 432130,-1268729 1073839,-30 -156000,14050 -333260,104220 -536910,289420 z m 536910,4564506 c -641789,1268769 -432170,1268759 -1073869,-20 156020,-13990 333280,-104150 536960,-289390 203660,185220 380920,275380 536910,289410 z m 4653746,-2074178 -398840,0 196210,320860 c 79600,130220 -41170,319850 -118340,193560 l -314570,-514400 -752869,0 404370,661309 c 119880,196040 -62000,481450 -178150,291400 l -582579,-952729 -867049,0 c 969069,1584809 873119,1751048 -983919,1704198 l 433510,750879 1116389,28160 c 222710,5660 66340,305830 -163270,300010 l -774909,-19560 376400,651999 602799,15230 c 148000,3730 44070,203100 -108440,199270 l -375980,-9490 199410,345410 c 142720,247110 -468380,599949 -611029,352770 l -199400,-345410 -179770,330370 c -73010,134020 -297540,124250 -226810,-5750 l 288220,-529620 -376450,-651989 -370510,680859 c -109860,201760 -447950,187110 -341430,-8620 l 533770,-980869 -433530,-750879 c -887919,1631678 -1079879,1631698 -1967808,10 l -433520,750869 533770,980869 c 106500,195720 -231640,210380 -341430,8620 l -370530,-680859 -376420,651989 288210,529650 c 70700,129990 -153770,139740 -226830,5710 l -179740,-330360 -199410,345410 c -142710,247140 -753699,-105640 -611029,-352780 l 199410,-345400 -375980,9500 c -152620,3800 -256370,-195600 -108450,-199280 l 602789,-15210 376440,-651999 -774889,19560 c -229720,5730 -386020,-294370 -163290,-300030 l 1116349,-28160 433520,-750859 C 1970357,6876994 1874407,6710754 2843496,5125906 l -867029,40 -582549,952709 c -116330,190060 -298010,-95360 -178190,-291400 l 404360,-661309 -752849,0 -314590,514420 c -77170,126250 -197960,-63360 -118340,-193550 l 196220,-320870 -398860,-20 c -285370,40 -285370,-705629 0,-705509 l 398850,-20 -196210,-320860 c -79590,-130170 41100,-319830 118360,-193560 l 314550,514420 752869,0 -404370,-661319 c -119850,-195960 61970,-481490 178170,-291390 l 582559,952709 867049,20 C 1874427,2835588 1970377,2669349 3827415,2716199 l -433510,-750879 -1116359,-28160 c -222760,-5600 -66350,-305810 163240,-299990 l 774909,19540 -376400,-651999 -602799,-15220 c -147970,-3720 -44100,-203100 108440,-199270 l 375980,9480 -199410,-345390 c -142710,-247130 468360,-599929 610999,-352790 l 199430,345430 179770,-330380 c 73010,-133980 297560,-124260 226800,5740 l -288220,529620 376460,651999 370510,-680869 c 109840,-201740 447910,-187130 341450,8640 l -533790,980849 433500,750869 c 887949,-1631668 1079909,-1631668 1967838,20 l 433520,-750869 -533790,-980869 c -106500,-195820 231640,-210340 341480,-8620 l 370500,680859 376430,-652009 -288220,-529640 c -70750,-129840 153690,-139880 226830,-5720 l 179750,330360 199430,-345390 c 142620,-247140 753689,105600 611019,352780 l -199430,345400 375980,-9520 c 152690,-3760 256340,195620 108450,199290 l -602779,15240 -376430,651979 774909,-19560 c 229560,-5770 386050,294340 163250,300030 l -1116349,28190 -433520,750829 c 1857048,-46850 1952998,119390 983889,1704178 l 867049,0 582569,-952689 c 116280,-190100 297990,95380 178170,291390 l -404360,661299 752849,20 314550,-514450 c 77260,-126220 197970,63400 118380,193570 l -196230,320860 398850,20 c 285360,-80 285410,705619 10,705529 z m -5450925,98060 c 248950,143740 567329,58430 711079,-190550 143730,-248950 58430,-567349 -190560,-711099 -248950,-143720 -567329,-58430 -711079,190550 -143730,248950 -58430,567349 190560,711099 z"
                     class="fil0 str0"
                     style="fill:none;stroke:#000000;stroke-width:20082.73632812;stroke-miterlimit:4;stroke-dasharray:none;stroke-opacity:1" />
                </g>
              </g>
              <g
                 style="clip-rule:evenodd;fill:none;fill-rule:evenodd;stroke:#000000;stroke-width:23122.15429688;stroke-miterlimit:4;stroke-dasharray:none;stroke-opacity:1;image-rendering:optimizeQuality;shape-rendering:geometricPrecision;text-rendering:geometricPrecision"
                 id="g11432"
                 transform="matrix(1.7299428e-5,0,0,1.7299425e-5,-110.74027,333.15059)">
                <g
                   id="Layer_x0020_1-06"
                   style="fill:none;stroke:#000000;stroke-width:23122.15429688;stroke-miterlimit:4;stroke-dasharray:none;stroke-opacity:1">
                  <metadata
                     id="CorelCorpID_0Corel-Layer-4" />
                  <path
                     id="path11425"
                     d="m 3130345,32680 0,0 c -53850,31080 -72460,100550 -41380,154370 l 327259,566839 -3290,230 -578859,52460 c -68220,6180 -98590,55260 -67490,109090 l 20,40 c 31080,53830 112290,92810 180490,86640 l 578879,-52440 3230,-340 437049,756979 c -309510,198730 -561539,462189 -608379,705179 264390,29760 528829,59490 793209,89250 89300,144860 178570,289770 267830,434679 -314359,-43340 -628709,-86660 -943028,-129960 -160690,953878 288300,674809 1372708,827409 306480,497469 441299,843169 398919,1074748 l -112710,-65080 -259190,-149630 c -7110,-21590 -17750,-44020 -32060,-67030 -40460,-65020 -262110,-454669 -302250,-471199 -34390,-26490 -482649,-23630 -559179,-26150 -186630,-6190 -263140,126350 -164480,284860 40460,65000 262160,454699 302250,471209 34350,26460 482699,23620 559189,26140 27080,900 51840,-1110 74070,-5740 l 259190,149650 114150,65910 c -181670,157710 -556579,207450 -1131618,191030 -674399,-862909 -657149,-1391188 -1402938,-775139 194700,250600 389379,501149 584079,751729 -170140,-4870 -340249,-9700 -510379,-14570 -157940,-214120 -315879,-428249 -473859,-642359 -187030,162050 -289170,512039 -306510,879479 l -874099,-20 -1350,-2990 -244020,-527539 C 737048,4718244 662678,4667404 600498,4667384 l -20,20 c -62160,-20 -89500,50860 -60730,112990 l 244020,527559 1410,3010 -654519,-20 c -62160,-20 -113020,50830 -113020,113010 l 20,20 c -20,62160 50840,113040 113000,113040 l 654519,0 -1430,2950 -244000,527529 c -28770,62180 -1450,113020 60730,113000 l 20,20 c 62180,-20 136530,-50820 165300,-113020 l 244020,-527529 1280,-2970 874169,0 c 17340,367399 119510,717379 306490,879459 157980,-214130 315939,-428249 473879,-642359 170130,-4870 340239,-9740 510359,-14590 -194660,250580 -389399,501149 -584059,751679 745789,616119 728539,87820 1402938,-775069 575079,-16430 950058,33280 1131658,191070 l -114190,65940 -259190,149640 c -22230,-4630 -46990,-6640 -74070,-5740 -76540,2520 -524799,-340 -559189,26140 -40140,16540 -261790,406189 -302250,471209 -98660,158510 -22150,291050 164480,284860 76510,-2520 524839,320 559179,-26150 40100,-16510 261820,-406199 302250,-471199 14310,-23010 24950,-45430 32060,-67030 l 259190,-149630 112730,-65080 c 42300,231610 -92490,577259 -398919,1074668 -1084448,152600 -1533398,-126470 -1372728,827429 314319,-43340 628689,-86660 943008,-129980 -89270,144910 -178530,289820 -267790,434679 -264420,29780 -528839,59490 -793229,89240 46840,243000 298890,506489 608399,705209 l -437029,756999 -3270,-340 -578879,-52420 c -68200,-6230 -149410,32770 -180510,86600 l 0,40 c -31100,53830 -710,102910 67490,109110 l 578859,52440 3310,250 -327249,566839 c -31080,53850 -12480,123270 41390,154370 l -20,40 c 53870,31060 123310,12470 154390,-41380 l 327239,-566829 1880,2710 334839,475099 c 39470,56000 97170,57750 128270,3900 l 0,-20 c 31100,-53850 24220,-143670 -15230,-199650 l -334869,-475069 -1880,-2650 437049,-756999 c 326839,168660 680989,255160 914859,174250 -106480,-243890 -212920,-487709 -319379,-731579 80850,-149760 161700,-299510 242550,-449289 119660,293930 239340,587789 358979,881679 906429,-337809 440289,-587059 30200,-1602517 273300,-506239 503859,-806159 731279,-884529 l 0,131900 0,299280 c -15120,16960 -29240,37380 -42010,61280 -36080,67540 -262690,454329 -256940,497349 -5750,43020 220860,429809 256940,497349 87960,164710 240980,164710 328949,0 36050,-67520 262680,-454369 256940,-497349 5740,-42980 -220890,-429829 -256940,-497349 -12780,-23900 -26900,-44320 -42020,-61280 l 0,-299280 0,-130210 c 221720,79160 453689,368719 731259,882839 -410069,1015458 -876229,1264708 30210,1602517 119660,-293870 239320,-587789 358979,-881659 80820,149730 161710,299490 242520,449269 -106440,243870 -212900,487709 -319359,731559 233880,80910 588029,-5620 914899,-174320 l 437089,757109 -1900,2610 -334839,475089 c -39490,55980 -46330,145780 -15250,199650 l 40,20 c 31080,53850 88750,52080 128230,-3900 l 334859,-475079 1840,-2710 327229,566789 c 31100,53850 100590,72480 154420,41380 l 20,-20 c 53830,-31060 72450,-100550 41370,-154390 l -327279,-566819 3310,-250 578859,-52440 c 68230,-6200 98620,-55280 67520,-109110 l 0,-20 c -31100,-53870 -112310,-92830 -180530,-86640 l -578859,52440 -3270,320 -437069,-757049 c 309530,-198710 561529,-462189 608379,-705139 -264440,-29750 -528839,-59460 -793279,-89200 -89240,-144880 -178500,-289810 -267770,-434699 314319,43320 628649,86660 943008,129960 160650,-953898 -288300,-674829 -1372748,-827429 -301730,-489769 -446109,-839329 -400349,-1075528 l 114210,65940 259180,149630 c 7120,21600 17750,44020 32060,67030 40440,65000 262160,454689 302250,471199 34350,26470 482679,23630 559189,26150 186620,6190 263130,-126350 164470,-284860 -40460,-65020 -262110,-454669 -302250,-471209 -34390,-26480 -482649,-23620 -559179,-26140 -27090,-900 -51840,1110 -74080,5740 l -259180,-149640 -112810,-65130 c 179360,-152510 546179,-208580 1130248,-191880 674389,862889 657169,1391188 1402938,775119 -194700,-250580 -389399,-501179 -584069,-751729 170130,4870 340239,9720 510349,14590 157980,214090 315919,428249 473899,642339 186990,-162060 289150,-512019 306480,-879439 l 874159,-20 1320,2990 244000,527529 c 28770,62180 103130,113020 165280,113020 l 50,0 c 62160,0 89500,-50840 60750,-113020 l -244040,-527529 -1440,-2950 654519,-20 c 62180,20 113020,-50840 113020,-113040 l 0,0 c 20,-62180 -50840,-113030 -113020,-113010 l -654519,0 1440,-3020 244010,-527509 c 28760,-62170 1460,-113010 -60720,-112990 l -20,-20 c -62180,0 -136560,50810 -165290,113010 l -244020,527559 -1340,2950 -874119,20 c -17350,-367399 -119510,-717379 -306520,-879459 -157940,214090 -315899,428239 -473879,642359 -170110,4870 -340239,9700 -510349,14590 194720,-250600 389369,-501129 584069,-751729 -745769,-616069 -728509,-87810 -1402908,775099 -575019,16440 -949948,-33300 -1131638,-191010 l 114170,-65910 259180,-149650 c 22240,4630 46990,6640 74080,5740 76490,-2520 524839,320 559179,-26140 40100,-16510 261790,-406209 302250,-471209 98660,-158510 22150,-291050 -164470,-284860 -76540,2520 -524799,-340 -559189,26150 -40140,16530 -261790,406179 -302250,471199 -14310,23010 -24940,45440 -32060,67030 l -259180,149630 -112760,65110 c -42400,-231570 92450,-577279 398939,-1074778 1084428,-152620 1533398,126490 1372708,-827409 -314309,43320 -628669,86640 -943048,129960 89310,-144910 178550,-289820 267840,-434729 264390,-29710 528809,-59460 793229,-89170 -46870,-243000 -298830,-506429 -608339,-705169 l 437089,-757019 3230,320 578839,52460 c 68240,6170 149450,-32790 180530,-86640 l 20,-20 c 31080,-53830 710,-102930 -67540,-109110 l -578839,-52440 -3290,-270 327259,-566819 c 31080,-53850 12500,-123270 -41350,-154390 l -20,20 C 9301836,1580 9232416,20170 9201316,74040 l -327259,566829 -1880,-2750 -334839,-475079 c -39480,-55980 -97170,-57750 -128230,-3900 l -20,20 c -31100,53850 -24260,143640 15230,199630 l 334819,475109 1940,2650 -437069,757029 c -326849,-168710 -681039,-255220 -914919,-174300 106440,243840 212880,487669 319359,731539 -80850,149780 -161700,299530 -242570,449269 -119660,-293880 -239290,-587769 -358949,-881639 -906439,337789 -440279,587039 -30210,1602517 -273280,506189 -503839,806029 -731259,884499 l 0,-131810 0,-299280 c 15120,-16960 29240,-37380 42020,-61280 36050,-67520 262680,-454369 256940,-497349 5740,-42980 -220890,-429829 -256940,-497349 -87970,-164710 -240990,-164710 -328949,0 -36080,67540 -262690,454329 -256940,497349 -5750,43020 220860,429809 256940,497349 12770,23900 26890,44320 42010,61280 l 0,299280 0,130150 c -221740,-79080 -453709,-368679 -731299,-882819 410109,-1015498 876249,-1264748 -30210,-1602557 -119630,293870 -239290,587779 -358949,881679 -80850,-149780 -161720,-299530 -242550,-449269 106460,-243870 212920,-487719 319379,-731579 -233870,-80920 -588019,5610 -914899,174270 l -437029,-756979 1900,-2650 334869,-475089 c 39470,-56010 46310,-145800 15230,-199650 l -20,-20 c -31100,-53850 -88760,-52080 -128250,3900 l -334819,475099 -1880,2730 L 3284755,74040 C 3253655,20190 3184195,1580 3130345,32680 Z m 3715634,5184592 -358059,206730 358009,206700 c 133310,-218560 133290,-194910 50,-413429 z m -725439,418829 -358059,206730 c 122570,224580 102190,212810 358059,206680 l 0,-413409 z m -480509,-5380 358059,-206720 -358079,-206730 c -133270,218520 -133270,194890 20,413449 z m 725429,-418829 358059,-206720 c -122610,-224650 -102190,-212900 -358059,-206770 l 0,413489 z M 4233653,6360210 c 81620,18860 302610,-2330 397239,-5470 -50030,80380 -178870,261150 -203350,341299 -81620,-18870 -302610,2320 -397229,5440 50020,-80350 178870,-261130 203340,-341269 z M 8058457,4151964 c -24470,80120 -153320,260910 -203340,341289 94620,-3140 315589,-24350 397229,-5470 24480,-80120 153320,-260910 203350,-341269 -94630,3120 -315599,24330 -397239,5450 z m -1692997,1484138 358059,206730 c -122540,224580 -102210,212810 -358059,206680 l 0,-413409 z m -244920,-424209 -358079,-206750 c 122590,-224640 102190,-212870 358079,-206740 l 0,413489 z m 2131807,1148318 c -81620,18860 -302610,-2330 -397229,-5470 50020,80380 178870,261150 203340,341299 81620,-18870 302610,2320 397239,5440 -50030,-80350 -178870,-261130 -203350,-341269 z M 4427543,4151965 c 24480,80120 153320,260910 203350,341289 -94630,-3140 -315599,-24350 -397239,-5470 -24470,-80120 -153320,-260910 -203340,-341269 94620,3120 315589,24330 397229,5450 z m 1621577,-936219 c 57130,61260 149280,263240 193880,346739 44600,-83500 136730,-285480 193890,-346739 -57140,-61260 -149290,-263240 -193890,-346739 -44600,83500 -136720,285480 -193880,346739 z m 0,4416503 c 57130,-61260 149280,-263240 193880,-346739 44600,83500 136730,285480 193890,346739 -57140,61260 -149290,263240 -193890,346739 -44600,-83500 -136720,-285480 -193880,-346739 z"
                     class="fil0 str0"
                     style="fill:none;stroke:#000000;stroke-width:23122.15429688;stroke-miterlimit:4;stroke-dasharray:none;stroke-opacity:1" />
                </g>
              </g>
              <g
                 style="clip-rule:evenodd;fill:none;fill-rule:evenodd;stroke:#000000;stroke-width:20112.37695312;stroke-miterlimit:4;stroke-dasharray:none;stroke-opacity:1;image-rendering:optimizeQuality;shape-rendering:geometricPrecision;text-rendering:geometricPrecision"
                 id="g11499"
                 transform="matrix(1.9888253e-5,0,0,1.988825e-5,113.4889,524.67507)">
                <g
                   id="Layer_x0020_1-3"
                   style="fill:none;stroke:#000000;stroke-width:20112.37695312;stroke-miterlimit:4;stroke-dasharray:none;stroke-opacity:1">
                  <metadata
                     id="CorelCorpID_0Corel-Layer-2" />
                  <path
                     id="path11492"
                     d="m 5119495,6592224 -7790,1442279 -915689,380360 197230,507150 655069,-295840 105650,359260 -1648248,922719 281760,464890 1141099,-591679 140870,436720 -922739,500110 309930,507150 612809,-345140 0,1208019 c 246500,2380 475290,2380 721789,0 l 0,-1208019 612809,345140 309930,-507150 -922739,-500110 140870,-436720 1141099,591679 281760,-464890 -1648248,-922719 105660,-359260 655059,295840 197230,-507150 -915689,-380360 -7790,-1442279 1245149,727879 -128440,983199 537820,82770 71340,-715219 363950,88120 -25030,1888788 543489,-11570 58130,-1284059 448650,96370 -28260,1049159 594169,-14820 7500,-703289 1046189,604019 c 125300,-212300 239690,-410420 360890,-625089 l -1046179,-604009 605299,-358150 -284240,-521970 -894479,549049 -307770,-340360 1082959,-692369 -261730,-476450 -1623219,966059 -258290,-271120 583729,-419400 -340600,-424380 -787239,602829 -1252949,-714389 1252949,-714389 787239,602829 340600,-424380 -583729,-419380 258290,-271140 1623219,966059 261730,-476450 -1082959,-692369 307770,-340360 894479,549049 284240,-521970 -605299,-358150 1046179,-603999 c -121200,-214680 -235590,-412800 -360890,-625099 l -1046189,604019 -7500,-703289 -594169,-14820 28260,1049159 -448650,96370 -58130,-1284059 -543489,-11570 25030,1888788 -363950,88120 -71340,-715219 -537820,82770 128440,983199 -1245149,727879 7790,-1442279 915689,-380360 -197230,-507150 -655059,295840 -105660,-359250 1648248,-922729 -281760,-464890 -1141099,591679 -140870,-436720 922739,-500100 -309930,-507160 -612809,345140 0,-1208019 c -246500,-2380 -475290,-2380 -721789,0 l 0,1208019 -612809,-345140 -309930,507160 922739,500100 -140870,436720 -1141099,-591679 -281760,464890 1648248,922729 -105650,359250 -655069,-295840 -197230,507150 915689,380360 7790,1442279 -1245149,-727879 128440,-983199 -537820,-82770 -71340,715219 -363950,-88120 25030,-1888788 -543489,11570 -58130,1284059 -448650,-96370 28260,-1049159 -594169,14820 -7500,703289 L 384839,2724073 C 259539,2936373 145149,3134493 23949,3349172 l 1046179,603999 -605299,358150 284240,521970 894479,-549049 307770,340360 -1082959,692369 261730,476450 1623219,-966059 258290,271120 -583729,419400 340600,424380 787239,-602829 1252949,714389 -1252949,714389 -787239,-602829 -340600,424380 583729,419390 -258290,271130 -1623219,-966059 -261730,476450 1082959,692369 -307770,340360 -894479,-549049 -284240,521970 605299,358150 -1046179,604009 c 121200,214670 235590,412790 360890,625089 l 1046189,-604019 7500,703289 594169,14820 -28260,-1049159 448650,-96370 58130,1284059 543489,11570 -25030,-1888788 363950,-88120 71340,715219 537820,-82770 -128440,-983199 1245149,-727879 z"
                     class="fil0 str0"
                     style="fill:none;stroke:#000000;stroke-width:20112.37695312;stroke-miterlimit:4;stroke-dasharray:none;stroke-opacity:1" />
                </g>
              </g>
            </g>
          </g>
        </g>
      </g>
    </g>
  </g>
</svg>
