<?xml version="1.0" encoding="UTF-8" standalone="no"?>
<svg
   xmlns:dc="http://purl.org/dc/elements/1.1/"
   xmlns:cc="http://creativecommons.org/ns#"
   xmlns:rdf="http://www.w3.org/1999/02/22-rdf-syntax-ns#"
   xmlns:svg="http://www.w3.org/2000/svg"
   xmlns="http://www.w3.org/2000/svg"
   version="1.1"
   id="svg2"
   viewBox="0 0 292.50001 325.89001"
   height="3.6210001in"
   width="3.25in">
  <defs
     id="defs4" />
  <metadata
     id="metadata7">
    <rdf:RDF>
      <cc:Work
         rdf:about="">
        <dc:format>image/svg+xml</dc:format>
        <dc:type
           rdf:resource="http://purl.org/dc/dcmitype/StillImage" />
        <dc:title></dc:title>
      </cc:Work>
    </rdf:RDF>
  </metadata>
  <g
     transform="translate(0,-726.47217)"
     id="layer1">
    <g
       transform="matrix(1.0041768,0,0,1.0041768,-42.573484,676.21747)"
       id="g4414">
      <g
         id="g4419">
        <path
           style="fill:none;stroke:#000000;stroke-width:0.5;stroke-miterlimit:4;stroke-dasharray:none;stroke-opacity:1"
           d="m 146.84021,1024.758 c 2.26813,-4.3431 4.47844,-9.9779 6.27186,-15.9891 5.31095,-17.8013 7.77991,-41.86431 7.19088,-70.08356 -0.19125,-9.16259 -0.50723,-16.01903 -1.19484,-25.92768 l -0.0988,-1.42517 0.62726,-0.75458 c 0.90573,-1.08956 1.12925,-1.61947 1.12925,-2.67707 0,-1.65088 -1.28145,-3.62868 -4.76504,-7.35442 -3.36618,-3.60017 -6.92253,-6.7101 -9.47988,-8.2899 l -0.93278,-0.57626 -0.10395,0.38859 c -0.32997,1.23389 0.64404,4.43222 2.00464,6.58252 1.65567,2.61665 1.65622,2.61876 1.55241,5.86131 -0.0897,2.80081 -0.38213,5.1014 -1.28863,10.13727 -2.01753,11.20793 -5.81938,23.48839 -10.78514,34.83721 -0.17798,0.40675 -0.37865,0.73849 -0.44593,0.73718 -0.46759,-0.009 -0.82292,-0.77554 -0.82292,-1.77505 0,-1.03664 -0.26849,-1.64791 -0.72383,-1.64791 -0.48848,0 -0.83314,0.76667 -0.83314,1.85323 0,0.42533 -0.0728,0.96478 -0.16175,1.19875 -0.15678,0.41237 -0.16831,0.41598 -0.37687,0.11823 -0.55526,-0.79272 -2.7216,-5.37862 -3.77055,-7.98182 -3.16691,-7.8591 -5.57395,-16.59586 -7.66104,-27.80694 -1.26623,-6.80173 -1.543,-9.29072 -1.28981,-11.59942 0.17349,-1.58201 0.51433,-2.52133 1.66664,-4.59306 1.41639,-2.54653 1.82363,-3.58856 1.90834,-4.88288 l 0.075,-1.14614 -0.37191,0.11354 c -0.71934,0.21959 -2.48859,1.16768 -3.37166,1.80679 -1.19018,0.86137 -6.27134,5.98471 -8.20714,8.27524 -1.5572,1.84257 -3.27147,4.13987 -3.75726,5.03505 -0.37118,0.68403 -0.20898,1.11285 0.87222,2.30591 1.09703,1.21052 1.02223,0.50595 0.70403,6.6312 -1.78446,34.34975 -0.64568,61.18554 3.43771,81.01074 2.24586,10.904 5.13979,19.4122 9.21783,27.1008 0.53915,1.0165 0.94853,1.8799 0.90972,1.9187 -0.13651,0.1365 -1.00117,-0.4137 -1.40582,-0.8946 -0.22508,-0.2675 -0.59615,-0.813 -0.82459,-1.2123 -0.22845,-0.3992 -0.95233,-1.6367 -1.60863,-2.7499 -9.42779,-15.9916 -15.01829,-38.1469 -17.81684,-70.60869 -0.63382,-7.35205 -0.94575,-12.33858 -1.67031,-26.70203 -0.29973,-5.94192 -0.2563,-16.02505 0.0834,-19.38428 0.3613,-3.57189 0.41227,-3.80185 0.85677,-3.86585 0.19578,-0.0282 0.63251,0.0594 0.97048,0.19463 0.33798,0.13523 0.79058,0.24587 1.0058,0.24587 0.62617,0 3.5009,-2.30906 11.04866,-8.87463 2.31349,-2.01245 4.51557,-3.92172 4.89356,-4.24285 0.77867,-0.66156 0.79931,-0.65467 -1.28851,-0.43068 -0.78529,0.0843 -2.8291,0.29463 -4.54176,0.46752 -4.05886,0.40971 -6.08637,0.87429 -8.09312,1.85445 -1.73923,0.84948 -4.27316,2.68383 -7.2071,5.21726 -1.05064,0.90724 -3.50287,2.95724 -5.44939,4.55555 -10.87188,8.92713 -17.62338,14.96858 -24.11285,21.57697 l -3.60272,3.66876 -0.11557,2.61865 c -0.20329,4.60866 0.0127,16.16025 0.38011,20.37596 1.51976,17.41389 5.35255,33.83389 12.04785,51.61359 0.72554,1.9268 1.36551,3.6433 1.42211,3.8146 0.22116,0.6691 -4.09575,-7.9811 -5.67223,-11.3659 -10.1159,-21.71962 -15.09735,-39.86643 -16.66869,-60.72187 -0.0902,-1.19886 -0.20505,-5.25505 -0.25494,-9.01374 l -0.0908,-6.83395 0.7421,0.51059 c 2.91165,2.00327 6.35656,0.89435 12.61784,-4.06169 1.02485,-0.8112 3.19457,-2.48247 4.8216,-3.71395 8.86628,-6.71067 16.86552,-13.61988 24.90577,-21.51195 l 3.5868,-3.52068 1.08988,0.14506 c 1.59498,0.21228 7.65697,0.19953 9.73106,-0.0205 3.08246,-0.32697 7.16207,-1.05062 7.16207,-1.27043 0,-0.0576 -0.47332,-0.55126 -1.05184,-1.09684 -4.68932,-4.42238 -13.78979,-4.68969 -27.75212,-0.81517 -7.71154,2.13993 -14.22474,4.94497 -18.25309,7.86103 -0.57673,0.41748 -1.11552,0.75905 -1.19735,0.75905 -0.38429,0 -2.77095,-1.99322 -6.61859,-5.52748 -1.11885,-1.02772 -2.30963,-2.09344 -2.64616,-2.36824 -0.60474,-0.49379 -0.60968,-0.50649 -0.42335,-1.08963 1.1277,-3.52935 1.67509,-6.12052 2.8217,-13.35717 1.09759,-6.92734 1.5615,-9.15754 2.75296,-13.23424 2.03039,-6.94726 4.20542,-13.05411 6.87629,-19.30644 2.68179,-6.27793 6.28518,-13.46039 9.80306,-19.53998 1.57053,-2.71419 3.34482,-5.61566 3.40019,-5.5603 0.0301,0.0301 -0.0862,0.56334 -0.25845,1.18495 -0.32472,1.17178 -0.80074,2.20463 -1.95866,4.24971 -2.15394,3.80426 -6.18597,14.69075 -8.29267,22.39033 -2.4045,8.78785 -3.91388,17.27957 -5.07832,28.5704 -0.19453,1.88624 -0.54044,7.92493 -0.6399,11.17125 -0.0961,3.13728 -0.0811,3.54211 0.13199,3.54211 0.49432,0 14.77893,-3.37197 20.51453,-4.84258 6.90215,-1.76971 7.79253,-2.02137 10.47169,-2.95969 5.35605,-1.87584 5.9769,-1.83194 11.16701,0.78951 2.57035,1.29823 4.23143,1.92832 5.50823,2.08938 l 0.75627,0.0954 -0.10168,-0.42749 c -0.18867,-0.79298 -1.48144,-3.22275 -2.25703,-4.24204 -1.21956,-1.60284 -2.92725,-3.31426 -3.15854,-3.16547 -0.10949,0.0704 -4.64815,0.17455 -10.08587,0.23131 -10.67057,0.11139 -11.41989,0.16603 -13.13906,0.95759 -0.50428,0.23218 -1.39433,0.7761 -1.97789,1.20872 -0.95129,0.70522 -1.09801,0.76724 -1.4186,0.59959 -0.19667,-0.10279 -1.44355,-1.24761 -2.77088,-2.54394 -1.32732,-1.29633 -2.63884,-2.53009 -2.91449,-2.74171 l -0.50119,-0.38474 0.52573,-2.88662 c 1.73361,-9.51846 4.13785,-18.3365 7.72438,-28.33063 2.23471,-6.22719 2.72721,-7.4767 9.22071,-23.39347 0.44545,-1.09183 0.85363,-1.98513 0.90711,-1.98513 0.12416,0 -0.21507,2.10586 -0.5518,3.42532 -0.14205,0.55662 -0.7078,2.41331 -1.25722,4.12598 -2.12684,6.62991 -5.68719,21.94595 -6.77056,29.1259 -0.81921,5.42926 -1.24468,10.59215 -1.24468,15.10384 l 0,2.84386 0.42818,0.0896 c 2.33119,0.48802 9.1485,0.70858 13.05657,0.42244 3.23732,-0.23705 9.22129,-1.05816 11.04806,-1.51602 0.55345,-0.13869 2.1155,1.19386 6.21655,5.30326 l 3.89162,3.89955 0.0935,-1.40128 c 0.16475,-2.46565 0.96346,-3.51986 3.71156,-4.89892 0.86241,-0.43278 1.56799,-0.75858 1.56799,-0.72398 0,0.0346 -0.41777,0.67508 -0.92836,1.42335 -1.21754,1.78426 -1.59026,2.90281 -1.53045,4.59297 0.0344,0.97305 0.10596,1.32445 0.29388,1.44254 0.48326,0.30375 1.02858,-0.0186 1.75609,-1.03813 0.88401,-1.23886 1.09833,-1.3314 1.71953,-0.74258 1.42665,1.35228 3.36314,1.39452 4.86827,0.10621 0.35386,-0.30289 0.70759,-0.55069 0.7861,-0.55069 0.22771,0 0.75666,0.64484 1.11561,1.36007 0.18205,0.36269 0.51268,0.7785 0.73477,0.92402 0.39099,0.25618 0.41301,0.25253 0.6936,-0.11456 0.15939,-0.2085 0.37061,-0.73491 0.46933,-1.16982 0.24967,-1.09954 -0.0809,-2.17732 -1.3459,-4.38785 -0.55182,-0.96429 -1.00331,-1.78855 -1.00331,-1.83169 0,-0.0431 0.43789,0.14236 0.97311,0.41222 2.94787,1.48632 4.04964,2.81246 4.2654,5.13406 l 0.0987,1.06279 0.71776,-0.49158 c 0.39476,-0.27037 2.46934,-2.25787 4.61018,-4.41667 l 3.89243,-3.92509 1.55697,0.29626 c 1.73768,0.33064 5.11133,0.80098 7.94057,1.10703 2.10141,0.22731 13.98566,0.2865 15.21937,0.0758 l 0.73956,-0.1263 -9e-5,-1.43066 c 0,-3.35589 -0.56613,-10.6064 -1.1811,-15.13199 -1.04207,-7.66868 -2.75384,-15.54724 -5.46329,-25.14507 -0.83986,-2.97506 -3.66132,-12.42435 -3.8703,-12.96178 -0.0843,-0.21652 -0.0233,-0.27246 0.29639,-0.27246 0.47701,0 0.75735,0.38454 1.07827,1.47911 0.12555,0.42817 0.56081,1.51416 0.96727,2.41331 4.80356,10.62591 8.97109,22.19411 12.78879,35.49892 0.38085,1.32733 1.04352,3.58548 1.47254,5.01814 1.04522,3.49027 2.30322,8.93512 2.4209,10.47826 0.0818,1.07264 0.05,1.3389 -0.22362,1.87536 -0.42005,0.82338 -1.30689,1.6214 -3.33523,3.00118 -1.54246,1.04924 -2.48606,1.89393 -2.64353,2.36636 -0.0423,0.12707 -0.39026,-0.029 -1.01441,-0.45501 -1.82047,-1.24265 -3.78707,-1.67433 -8.60957,-1.88991 -1.84154,-0.0823 -4.8196,-0.15199 -6.6179,-0.15481 -1.7983,-0.002 -4.2155,-0.10746 -5.37155,-0.2325 -2.74126,-0.29652 -4.52842,-0.29727 -5.23458,-0.002 -0.85769,0.35837 -1.71423,1.11078 -2.45759,2.15881 -0.63484,0.89501 -3.05094,5.23732 -3.05094,5.48326 0,0.21198 1.86127,-0.084 2.97499,-0.47313 0.61477,-0.2148 2.07109,-0.91314 3.2363,-1.55189 2.66979,-1.46355 3.62355,-1.88412 4.7958,-2.11476 1.36967,-0.26945 2.60067,-0.0241 6.62159,1.31902 2.17241,0.72574 5.4171,1.63387 8.68413,2.43057 11.71653,2.85719 17.18035,4.23715 19.61783,4.95475 l 2.56901,0.75631 0.0511,-2.82149 c 0.083,-4.58884 -0.32188,-11.77153 -0.99292,-17.61269 -1.88919,-16.44421 -7.04566,-33.84297 -14.47029,-48.82505 -0.56909,-1.14833 -0.93264,-1.98278 -0.80788,-1.85434 0.35781,0.36846 3.22514,4.71555 4.4673,6.77284 6.91282,11.4488 12.10751,24.30425 16.48371,40.7926 1.29566,4.88169 1.94408,8.18256 2.58449,13.1564 0.66999,5.20365 0.98036,6.56945 1.99165,8.76421 l 0.6306,1.36862 -0.60935,0.63298 c -1.12617,1.16985 -8.63155,7.92385 -8.93472,8.04023 -0.0639,0.0245 -0.73903,-0.31596 -1.50042,-0.75658 -5.6099,-3.24649 -13.78493,-6.66235 -20.06805,-8.38529 -5.73171,-1.57172 -9.8494,-2.18754 -14.63551,-2.18876 -4.28724,-8.8e-4 -6.4734,0.43989 -8.89546,1.79437 -1.28253,0.71723 -3.5092,2.39398 -3.40437,2.56359 0.11961,0.19352 2.2887,0.88679 3.89218,1.24401 2.01271,0.44837 6.6119,0.68079 9.18613,0.46419 3.88564,-0.32695 4.26173,-0.34609 4.68964,-0.23868 0.28024,0.0703 1.87686,1.56012 4.56819,4.26249 10.43696,10.47978 18.02694,16.74082 31.60002,26.06708 4.7155,3.2401 5.15328,3.46623 6.7076,3.46487 1.21204,-8.7e-4 2.09067,-0.30657 3.4102,-1.18579 l 0.52983,-0.35302 -0.0951,5.90793 c -0.13055,8.10957 -0.58927,14.18619 -1.59787,21.16621 -2.41627,16.72186 -7.52475,32.94635 -16.10411,51.14655 -0.78716,1.6699 -1.73168,3.7415 -2.09898,4.6038 -1.15001,2.6998 -1.90278,4.1737 -2.64992,5.1886 -0.68105,0.9252 -1.0902,1.2118 -0.70661,0.495 0.32105,-0.5998 2.61383,-6.4587 3.63381,-9.2856 6.46866,-17.928 9.80639,-34.856 10.54319,-53.47177 0.0864,-2.18364 0.17378,-6.49258 0.19411,-9.57537 0.0367,-5.55644 0.0339,-5.61177 -0.32039,-6.37409 -0.84831,-1.8252 -2.51625,-3.62978 -6.33758,-6.85671 -1.11323,-0.94007 -3.18694,-2.76602 -4.60829,-4.05769 -7.02081,-6.38035 -15.71273,-13.65386 -24.14364,-20.20368 -0.74209,-0.57652 -2.03826,-1.67974 -2.88039,-2.45161 -1.94907,-1.78646 -2.86593,-2.39739 -4.06377,-2.70778 -1.56362,-0.40517 -10.24444,-1.48727 -11.86938,-1.47957 l -0.54492,0.002 1.95044,1.9015 c 3.3193,3.23601 7.5749,6.86689 11.96181,10.20575 2.30709,1.75593 2.41125,1.7899 3.82649,1.24832 0.48035,-0.1838 0.91994,-0.28759 0.97692,-0.23062 0.42441,0.42441 0.41125,26.87971 -0.0179,35.98589 -1.43695,30.49136 -5.74829,53.92203 -13.47935,73.25553 -2.71449,6.7883 -5.26583,11.5385 -8.13239,15.1415 -0.59614,0.7493 -1.10647,1.3624 -1.1341,1.3624 -0.0276,0 0.3269,-0.7221 0.7878,-1.6047 z"
           id="path4364"
           transform="matrix(0.99584057,0,0,0.99584057,53.599609,-684.608)" />
        <path
           id="path4366"
           d="m 188.67578,61.501953 c -12.34229,-5.8e-5 -22.34772,10.005362 -22.34766,22.347656 -2e-5,4.533681 1.35385,8.748535 3.67383,12.271485 A 134.18938,134.18938 0 0 0 53.849609,228.9375 134.18938,134.18938 0 0 0 188.03906,363.12695 134.18938,134.18938 0 0 0 322.22656,228.9375 134.18938,134.18938 0 0 0 206.85742,96.238281 c 2.57496,-3.663298 4.08448,-7.985624 4.16602,-12.388672 -6e-5,-12.342294 -10.00537,-22.347714 -22.34766,-22.347656 z"
           style="fill:none;fill-opacity:1;stroke:#000000;stroke-width:0.5;stroke-miterlimit:4;stroke-dasharray:none;stroke-opacity:1" />
      </g>
      <circle
         style="fill:none;fill-opacity:1;stroke:#000000;stroke-width:0.5;stroke-miterlimit:4;stroke-dasharray:none;stroke-opacity:1"
         id="path4390"
         cx="188.55"
         cy="83.962173"
         r="11.155525" />
    </g>
  </g>
</svg>
