<?xml version="1.0" encoding="UTF-8" standalone="no"?>
<!-- Created with Inkscape (http://www.inkscape.org/) -->

<svg
   xmlns:dc="http://purl.org/dc/elements/1.1/"
   xmlns:cc="http://creativecommons.org/ns#"
   xmlns:rdf="http://www.w3.org/1999/02/22-rdf-syntax-ns#"
   xmlns:svg="http://www.w3.org/2000/svg"
   xmlns="http://www.w3.org/2000/svg"
   xmlns:sodipodi="http://sodipodi.sourceforge.net/DTD/sodipodi-0.dtd"
   xmlns:inkscape="http://www.inkscape.org/namespaces/inkscape"
   width="23.75in"
   height="12in"
   viewBox="0 0 2137.5 1080"
   id="svg2"
   version="1.1"
   inkscape:version="0.91 r13725"
   sodipodi:docname="DustBusterShelf.svg">
  <defs
     id="defs4" />
  <sodipodi:namedview
     id="base"
     pagecolor="#ffffff"
     bordercolor="#666666"
     borderopacity="1.0"
     inkscape:pageopacity="0.0"
     inkscape:pageshadow="2"
     inkscape:zoom="0.72140351"
     inkscape:cx="1068.75"
     inkscape:cy="540"
     inkscape:document-units="in"
     inkscape:current-layer="layer1"
     showgrid="false"
     units="in"
     inkscape:window-width="1680"
     inkscape:window-height="1001"
     inkscape:window-x="0"
     inkscape:window-y="1"
     inkscape:window-maximized="1" />
  <metadata
     id="metadata7">
    <rdf:RDF>
      <cc:Work
         rdf:about="">
        <dc:format>image/svg+xml</dc:format>
        <dc:type
           rdf:resource="http://purl.org/dc/dcmitype/StillImage" />
        <dc:title></dc:title>
      </cc:Work>
    </rdf:RDF>
  </metadata>
  <g
     inkscape:label="Layer 1"
     inkscape:groupmode="layer"
     id="layer1"
     transform="translate(0,27.637855)">
    <g
       id="g3365"
       transform="matrix(1.25,0,0,-1.25,43.199436,169.17021)">
      <path
         d="m 0,0 13.356,0 m 0,0 0,71.424 m 0,0 -13.356,0 m 0,0 L 0,0 m 0,-137.106 13.356,0 m 0,0 0,71.424 m 0,0 -13.356,0 m 0,0 0,-71.424 m 0,-137.106 13.356,0 m 0,0 0,71.424 m 0,0 -13.356,0 m 0,0 0,-71.424 m 450,0 0,71.424 m 0,0 -13.356,0 m 0,0 0,-71.424 m 0,0 13.356,0 m 0,137.106 0,71.424 m 0,0 -13.356,0 m 0,0 0,-71.424 m 0,0 13.356,0 M 450,0 l 0,71.424 m 0,0 -13.356,0 m 0,0 0,-71.424 m 0,0 L 450,0 m 27,-353.394 0,504 m -504,-504 504,0 m -504,504 0,-504 m 72.288,504 -72.288,0 m 72.288,-13.5 0,13.5 m 35.424,-13.5 -35.424,0 m 35.424,13.5 0,-13.5 m 72.576,13.5 -72.576,0 m 72.576,-13.5 0,13.5 m 35.424,-13.5 -35.424,0 m 35.424,13.5 0,-13.5 m 72.576,13.5 -72.576,0 m 72.576,-13.5 0,13.5 m 35.424,-13.5 -35.424,0 m 35.424,13.5 0,-13.5 m 72.576,13.5 -72.576,0 m 72.576,-13.5 0,13.5 m 35.424,-13.5 -35.424,0 m 35.424,13.5 0,-13.5 m 72.288,13.5 -72.288,0"
         style="fill:none;stroke:#000000;stroke-width:0.70899999;stroke-linecap:round;stroke-linejoin:round;stroke-miterlimit:10;stroke-dasharray:none;stroke-opacity:1"
         id="path3367"
         inkscape:connector-curvature="0" />
    </g>
    <g
       id="g3369"
       transform="matrix(1.25,0,0,1.25,43.199436,777.32731)">
      <path
         d="m 0,0 13.5,0 m 0,0 0,35.424 m 0,0 -13.5,0 m 0,0 L 0,0 m 0,-107.712 13.5,0 m 0,0 0,35.424 m 0,0 -13.5,0 m 0,0 0,-35.424 m 0,53.856 13.5,0 m 0,0 0,35.424 m 0,0 -13.5,0 m 0,0 0,-35.424 m 450,-53.856 0,35.424 m 0,0 -13.5,0 m 0,0 0,-35.424 m 0,0 13.5,0 m 0,53.856 0,35.424 m 0,0 -13.5,0 m 0,0 0,-35.424 m 0,0 13.5,0 M 450,0 l 0,35.424 m 0,0 -13.5,0 m 0,0 0,-35.424 m 0,0 13.5,0 m -477,-126.144 504,0 m -504,180 0,-180 m 71.712,180 -71.712,0 m 71.712,13.5 0,-13.5 m 36.576,13.5 -36.576,0 m 36.576,-13.5 0,13.5 m 71.424,-13.5 -71.424,0 m 71.424,13.5 0,-13.5 m 36.576,13.5 -36.576,0 m 36.576,-13.5 0,13.5 m 71.424,-13.5 -71.424,0 m 71.424,13.5 0,-13.5 m 36.576,13.5 -36.576,0 m 36.576,-13.5 0,13.5 m 71.424,-13.5 -71.424,0 m 71.424,13.5 0,-13.5 m 36.576,13.5 -36.576,0 m 36.576,-13.5 0,13.5 m 71.712,-13.5 -71.712,0 m 71.712,-180 0,180 m -252,-31.428 1.522,0.284 1.316,0.815 0.932,1.236 0.424,1.488 -0.143,1.542 -0.69,1.385 -1.144,1.043 -1.443,0.559 -1.548,0 -1.443,-0.559 -1.144,-1.043 -0.69,-1.385 -0.143,-1.542 0.424,-1.488 0.932,-1.236 1.316,-0.815 1.522,-0.284 m 0,-125.568 1.522,0.284 1.316,0.815 0.932,1.236 0.424,1.488 -0.143,1.542 -0.69,1.385 -1.144,1.043 -1.443,0.559 -1.548,0 -1.443,-0.559 -1.144,-1.043 -0.69,-1.385 -0.143,-1.542 0.424,-1.488 0.932,-1.236 1.316,-0.815 1.522,-0.284 m -155.21,84.844 3.867,0.277 3.789,0.824 3.633,1.355 3.403,1.858 3.105,2.324 2.741,2.742 2.324,3.104 1.858,3.403 1.355,3.633 0.825,3.789 0.276,3.868 -0.276,3.867 -0.825,3.789 -1.355,3.633 -1.858,3.403 -2.324,3.105 -2.741,2.741 -3.105,2.324 -3.403,1.858 -3.633,1.356 -3.789,0.824 L 69.79,36.057 65.922,35.781 62.133,34.957 58.5,33.601 55.097,31.743 51.993,29.419 49.251,26.678 46.927,23.573 45.069,20.17 43.714,16.537 42.89,12.748 42.613,8.881 42.89,5.013 l 0.824,-3.789 1.355,-3.633 1.858,-3.403 2.324,-3.104 2.742,-2.742 3.104,-2.324 3.403,-1.858 3.633,-1.355 3.789,-0.824 3.868,-0.277 m 27.176,-97.004 4.888,0.28 4.824,0.835 4.698,1.379 4.51,1.906 4.263,2.407 3.961,2.878 3.607,3.311 3.206,3.7 2.763,4.041 2.285,4.33 1.776,4.562 1.245,4.736 0.697,4.846 0.139,4.893 -0.419,4.878 -0.972,4.799 -1.513,4.656 -2.034,4.453 -2.528,4.193 -2.99,3.877 -3.412,3.511 -3.79,3.099 -4.118,2.647 -4.394,2.16 -4.611,1.646 -4.769,1.109 -4.864,0.558 -4.896,0 -4.864,-0.558 -4.768,-1.109 -4.611,-1.646 -4.394,-2.16 -4.119,-2.647 -3.79,-3.099 -3.412,-3.511 -2.99,-3.877 -2.528,-4.193 -2.034,-4.453 -1.513,-4.656 -0.972,-4.799 -0.419,-4.878 0.14,-4.893 0.697,-4.846 1.244,-4.736 1.777,-4.562 2.284,-4.33 2.764,-4.041 3.206,-3.7 3.607,-3.311 3.961,-2.878 4.263,-2.407 4.51,-1.906 4.697,-1.379 4.824,-0.835 4.888,-0.28 m 64.155,90.653 3.729,0.273 3.649,0.813 3.492,1.336 3.26,1.829 2.959,2.285 2.595,2.692 2.175,3.04 1.71,3.325 1.207,3.539 0.679,3.676 0.136,3.736 -0.409,3.716 -0.945,3.617 -1.462,3.441 -1.948,3.191 -2.391,2.874 -2.785,2.495 -3.118,2.063 -3.385,1.587 -3.58,1.077 -3.699,0.544 -3.738,0 -3.699,-0.544 -3.58,-1.077 -3.385,-1.587 -3.118,-2.063 -2.785,-2.495 -2.391,-2.874 -1.948,-3.191 -1.462,-3.441 -0.946,-3.617 -0.409,-3.716 0.137,-3.736 0.679,-3.676 1.207,-3.539 1.71,-3.325 2.175,-3.04 2.595,-2.692 2.959,-2.285 3.26,-1.829 3.492,-1.336 3.649,-0.813 3.729,-0.273 m 8.975,-60.661 2.679,0.281 2.563,0.833 2.333,1.347 2.003,1.803 1.583,2.18 1.096,2.461 0.56,2.636 0,2.694 -0.56,2.636 -1.096,2.461 -1.583,2.18 -2.003,1.803 -2.333,1.347 -2.563,0.833 -2.679,0.281 -2.68,-0.281 -2.563,-0.833 -2.333,-1.347 -2.002,-1.803 -1.584,-2.18 -1.096,-2.461 -0.56,-2.636 0,-2.694 0.56,-2.636 1.096,-2.461 1.584,-2.18 2.002,-1.803 2.333,-1.347 2.563,-0.833 2.68,-0.281 m -45.402,105.275 2.435,0.285 2.304,0.838 2.048,1.347 1.682,1.784 1.226,2.123 0.703,2.348 0.143,2.448 -0.426,2.414 -0.971,2.251 -1.464,1.966 -1.878,1.576 -2.191,1.1 -2.385,0.566 -2.452,0 -2.385,-0.566 -2.191,-1.1 -1.878,-1.576 -1.464,-1.966 -0.971,-2.251 -0.426,-2.414 0.143,-2.448 0.703,-2.348 1.226,-2.123 1.682,-1.784 2.048,-1.347 2.304,-0.838 2.435,-0.285 m -10.559,-36.007 2.259,0.285 2.117,0.839 1.842,1.338 1.451,1.754 0.97,2.06 0.426,2.237 -0.143,2.272 -0.703,2.165 -1.22,1.922 -1.66,1.559 -1.995,1.097 -2.205,0.566 -2.277,0 -2.205,-0.566 -1.995,-1.097 -1.66,-1.559 -1.22,-1.922 -0.703,-2.165 -0.143,-2.272 0.426,-2.237 0.97,-2.06 1.451,-1.754 1.842,-1.338 2.117,-0.839 2.258,-0.285 M 225,-85.441 l 3.772,0.276 3.693,0.822 3.532,1.352 3.299,1.851 2.994,2.312 2.625,2.723 2.201,3.076 1.73,3.364 1.221,3.58 0.687,3.72 0.138,3.78 -0.413,3.759 -0.957,3.66 -1.48,3.481 -1.97,3.229 -2.42,2.907 -2.817,2.525 -3.154,2.087 -3.425,1.605 -3.622,1.09 -3.743,0.551 -3.782,0 -3.743,-0.551 -3.622,-1.09 -3.425,-1.605 -3.154,-2.087 -2.817,-2.525 -2.42,-2.907 -1.97,-3.229 -1.48,-3.481 -0.957,-3.66 -0.413,-3.759 0.138,-3.78 0.687,-3.72 1.221,-3.58 1.73,-3.364 2.201,-3.076 2.625,-2.723 2.994,-2.312 3.299,-1.851 3.532,-1.352 3.693,-0.822 3.772,-0.276 m 44.346,106.196 2.119,0.279 1.974,0.818 1.696,1.301 1.301,1.695 0.818,1.975 0.279,2.119 -0.279,2.119 -0.818,1.974 -1.301,1.696 -1.696,1.301 -1.974,0.818 -2.119,0.279 -2.119,-0.279 -1.975,-0.818 -1.695,-1.301 -1.301,-1.696 -0.818,-1.974 -0.279,-2.119 0.279,-2.119 0.818,-1.975 1.301,-1.695 1.695,-1.301 1.975,-0.818 2.119,-0.279 m -48.569,-39.854 2.997,0.286 2.889,0.848 2.676,1.38 2.367,1.861 1.972,2.276 1.505,2.607 0.985,2.845 0.428,2.981 -0.143,3.007 -0.71,2.926 -1.25,2.739 -1.747,2.453 -2.179,2.078 -2.533,1.628 -2.795,1.119 -2.957,0.569 -3.011,0 -2.956,-0.569 -2.796,-1.119 -2.533,-1.628 -2.179,-2.078 -1.746,-2.453 -1.251,-2.739 -0.71,-2.926 -0.143,-3.007 0.428,-2.981 0.985,-2.845 1.506,-2.607 1.971,-2.276 2.367,-1.861 2.676,-1.38 2.889,-0.848 2.998,-0.286 m 61.239,-97.672 3.699,0.277 3.616,0.825 3.453,1.355 3.213,1.855 2.9,2.313 2.523,2.719 2.089,3.065 1.61,3.342 1.093,3.544 0.553,3.668 0,3.709 -0.553,3.668 -1.093,3.545 -1.61,3.342 -2.089,3.065 -2.523,2.719 -2.9,2.312 -3.213,1.855 -3.453,1.355 -3.616,0.826 -3.699,0.277 -3.699,-0.277 -3.616,-0.826 -3.453,-1.355 -3.213,-1.855 -2.9,-2.312 -2.523,-2.719 -2.089,-3.065 -1.609,-3.342 -1.094,-3.545 -0.553,-3.668 0,-3.709 0.553,-3.668 1.094,-3.544 1.609,-3.342 2.089,-3.065 2.523,-2.719 2.9,-2.313 3.213,-1.855 3.453,-1.355 3.616,-0.825 3.699,-0.277 m 24.285,54.187 4.68,0.272 4.618,0.814 4.491,1.345 4.305,1.857 4.06,2.344 3.761,2.8 3.41,3.218 3.014,3.591 2.576,3.917 2.105,4.19 1.603,4.406 1.081,4.562 0.545,4.657 0,4.688 -0.545,4.657 -1.081,4.562 -1.603,4.406 -2.105,4.19 -2.576,3.917 -3.014,3.591 -3.41,3.218 -3.761,2.8 -4.06,2.344 -4.305,1.857 -4.491,1.345 -4.618,0.814 -4.68,0.272 -4.681,-0.272 -4.617,-0.814 -4.492,-1.345 -4.305,-1.857 -4.06,-2.344 -3.761,-2.8 -3.41,-3.218 -3.014,-3.591 -2.576,-3.917 -2.104,-4.19 -1.604,-4.406 -1.081,-4.562 -0.544,-4.657 0,-4.688 0.544,-4.657 1.081,-4.562 1.604,-4.406 2.104,-4.19 2.576,-3.917 3.014,-3.591 3.41,-3.218 3.761,-2.8 4.06,-2.344 4.305,-1.857 4.492,-1.345 4.617,-0.814 4.681,-0.272 m 37.482,-53.836 2.65,0.288 2.525,0.851 2.284,1.374 1.935,1.833 1.495,2.205 0.987,2.476 0.431,2.63 -0.144,2.661 -0.713,2.568 -1.249,2.355 -1.725,2.031 -2.122,1.613 -2.418,1.119 -2.603,0.573 -2.665,0 -2.603,-0.573 -2.418,-1.119 -2.122,-1.613 -1.725,-2.031 -1.249,-2.355 -0.713,-2.568 -0.144,-2.661 0.431,-2.63 0.987,-2.476 1.495,-2.205 1.935,-1.833 2.284,-1.374 2.525,-0.851 2.649,-0.288 m -20.589,26.578 1.934,0.278 1.777,0.812 1.476,1.279 1.056,1.643 0.551,1.875 0,1.953 -0.551,1.874 -1.056,1.644 -1.476,1.279 -1.777,0.811 -1.934,0.278 -1.933,-0.278 -1.777,-0.811 -1.476,-1.279 -1.056,-1.644 -0.551,-1.874 0,-1.953 0.551,-1.875 1.056,-1.643 1.476,-1.279 1.777,-0.812 1.933,-0.278 m 35.899,92.641 3.347,0.277 3.256,0.825 3.076,1.349 2.812,1.837 2.471,2.275 2.063,2.65 1.598,2.954 1.091,3.177 0.552,3.312 0,3.359 -0.552,3.313 -1.091,3.176 -1.598,2.954 -2.063,2.651 -2.471,2.274 -2.812,1.837 -3.076,1.349 -3.256,0.825 -3.347,0.277 -3.347,-0.277 -3.256,-0.825 -3.075,-1.349 -2.812,-1.837 -2.471,-2.274 -2.063,-2.651 -1.598,-2.954 -1.091,-3.176 -0.553,-3.313 0,-3.359 0.553,-3.312 1.091,-3.177 1.598,-2.954 2.063,-2.65 2.471,-2.275 2.812,-1.837 3.075,-1.349 3.256,-0.825 3.347,-0.277 m 22.976,-33.061 2.898,0.285 2.788,0.846 2.568,1.373 2.252,1.848 1.848,2.251 1.373,2.569 0.845,2.787 0.286,2.899 -0.286,2.899 -0.845,2.787 -1.373,2.569 -1.848,2.252 -2.252,1.847 -2.568,1.373 -2.788,0.846 -2.898,0.285 -2.899,-0.285 -2.787,-0.846 -2.569,-1.373 -2.252,-1.847 -1.848,-2.252 -1.373,-2.569 -0.845,-2.787 -0.286,-2.899 0.286,-2.899 0.845,-2.787 1.373,-2.569 1.848,-2.251 2.252,-1.848 2.569,-1.373 2.787,-0.846 2.899,-0.285 m -226.755,-18.951 1.873,0.282 1.708,0.822 1.389,1.289 0.947,1.641 0.422,1.848 -0.142,1.889 -0.692,1.764 -1.181,1.482 -1.566,1.067 -1.811,0.559 -1.895,0 -1.811,-0.559 -1.565,-1.067 -1.182,-1.482 -0.692,-1.764 -0.142,-1.889 0.422,-1.848 0.948,-1.641 1.389,-1.289 1.707,-0.822 1.874,-0.282 m 248.653,63.03 2.652,0.279 2.535,0.824 2.309,1.333 1.982,1.784 1.567,2.157 1.084,2.435 0.555,2.608 0,2.666 -0.555,2.608 -1.084,2.436 -1.567,2.157 -1.982,1.784 -2.309,1.333 -2.535,0.824 -2.652,0.279 -2.651,-0.279 -2.536,-0.824 -2.309,-1.333 -1.981,-1.784 -1.568,-2.157 -1.084,-2.436 -0.554,-2.608 0,-2.666 0.554,-2.608 1.084,-2.435 1.568,-2.157 1.981,-1.784 2.309,-1.333 2.536,-0.824 2.651,-0.279 m 12.753,-26.56 2.27,0.276 2.137,0.81 1.881,1.299 1.515,1.71 1.063,2.024 0.547,2.22 0,2.285 -0.547,2.219 -1.063,2.024 -1.515,1.711 -1.881,1.299 -2.137,0.81 -2.27,0.276 -2.269,-0.276 -2.137,-0.81 -1.881,-1.299 -1.515,-1.711 -1.063,-2.024 -0.547,-2.219 0,-2.285 0.547,-2.22 1.063,-2.024 1.515,-1.71 1.881,-1.299 2.137,-0.81 2.269,-0.276 m -13.809,-70.983 3.586,0.282 3.497,0.839 3.323,1.377 3.067,1.879 2.735,2.336 2.336,2.735 1.879,3.067 1.376,3.322 0.84,3.498 0.282,3.585 -0.282,3.586 -0.84,3.497 -1.376,3.323 -1.879,3.067 -2.336,2.735 -2.735,2.336 -3.067,1.879 -3.323,1.376 -3.497,0.84 -3.586,0.282 -3.585,-0.282 -3.498,-0.84 -3.323,-1.376 -3.066,-1.879 -2.735,-2.336 -2.336,-2.735 -1.879,-3.067 -1.377,-3.323 -0.839,-3.497 -0.282,-3.586 0.282,-3.585 0.839,-3.498 1.377,-3.322 1.879,-3.067 2.336,-2.735 2.735,-2.336 3.066,-1.879 3.323,-1.377 3.498,-0.839 3.585,-0.282 m -50.681,2.009 2.97,0.275 2.868,0.816 2.669,1.329 2.38,1.798 2.009,2.203 1.57,2.536 1.077,2.781 0.548,2.931 0,2.982 -0.548,2.931 -1.077,2.781 -1.57,2.536 -2.009,2.203 -2.38,1.798 -2.669,1.329 -2.868,0.816 -2.97,0.275 -2.969,-0.275 -2.868,-0.816 -2.67,-1.329 -2.38,-1.798 -2.009,-2.203 -1.57,-2.536 -1.077,-2.781 -0.548,-2.931 0,-2.982 0.548,-2.931 1.077,-2.781 1.57,-2.536 2.009,-2.203 2.38,-1.798 2.67,-1.329 2.868,-0.816 2.969,-0.275 m -165.769,-30.825 1.934,0.278 1.777,0.811 1.476,1.279 1.056,1.644 0.551,1.874 0,1.953 -0.551,1.875 -1.056,1.643 -1.476,1.279 -1.777,0.812 -1.934,0.278 -1.933,-0.278 -1.777,-0.812 -1.476,-1.279 -1.056,-1.643 -0.551,-1.875 0,-1.953 0.551,-1.874 1.056,-1.644 1.476,-1.279 1.777,-0.811 1.933,-0.278 m -148.875,61.117 2.908,0.286 2.796,0.849 2.576,1.377 2.259,1.853 1.853,2.259 1.378,2.576 0.848,2.796 0.286,2.908 -0.286,2.908 -0.848,2.795 -1.378,2.577 -1.853,2.259 -2.259,1.853 -2.576,1.378 -2.796,0.848 -2.908,0.286 -2.908,-0.286 -2.795,-0.848 -2.577,-1.378 -2.259,-1.853 -1.853,-2.259 -1.377,-2.577 -0.849,-2.795 -0.286,-2.908 0.286,-2.908 0.849,-2.796 1.377,-2.576 1.853,-2.259 2.259,-1.853 2.577,-1.377 2.795,-0.849 2.908,-0.286 m 116.284,-63.261 2.259,0.286 2.117,0.838 1.842,1.338 1.451,1.754 0.969,2.06 0.427,2.237 -0.143,2.272 -0.703,2.165 -1.22,1.923 -1.66,1.558 -1.995,1.097 -2.205,0.566 -2.277,0 -2.205,-0.566 -1.995,-1.097 -1.66,-1.558 -1.22,-1.923 -0.704,-2.165 -0.143,-2.272 0.427,-2.237 0.969,-2.06 1.452,-1.754 1.842,-1.338 2.116,-0.838 2.259,-0.286 m -117.868,2.224 2.593,0.282 2.472,0.833 2.235,1.345 1.893,1.793 1.464,2.159 0.965,2.423 0.422,2.574 -0.141,2.604 -0.698,2.513 -1.221,2.305 -1.689,1.988 -2.076,1.578 -2.367,1.095 -2.548,0.561 -2.608,0 -2.547,-0.561 -2.367,-1.095 -2.077,-1.578 -1.688,-1.988 -1.222,-2.305 -0.698,-2.513 -0.141,-2.604 0.422,-2.574 0.966,-2.423 1.463,-2.159 1.894,-1.793 2.235,-1.345 2.471,-0.833 2.593,-0.282 m 344.208,-1.219 2.652,0.278 2.536,0.824 2.309,1.333 1.981,1.784 1.567,2.157 1.085,2.436 0.554,2.608 0,2.666 -0.554,2.608 -1.085,2.436 -1.567,2.157 -1.981,1.784 -2.309,1.333 -2.536,0.824 -2.652,0.278 -2.651,-0.278 -2.536,-0.824 -2.309,-1.333 -1.981,-1.784 -1.567,-2.157 -1.085,-2.436 -0.554,-2.608 0,-2.666 0.554,-2.608 1.085,-2.436 1.567,-2.157 1.981,-1.784 2.309,-1.333 2.536,-0.824 2.651,-0.278"
         style="fill:none;stroke:#000000;stroke-width:0.70899999;stroke-linecap:round;stroke-linejoin:round;stroke-miterlimit:10;stroke-dasharray:none;stroke-opacity:1"
         id="path3371"
         inkscape:connector-curvature="0" />
    </g>
    <g
       id="g3373"
       transform="matrix(0,1.25,1.25,0,999.09657,34.3094)">
      <path
         d="m 0,0 3.284,0.272 3.194,0.809 3.018,1.324 2.759,1.802 2.424,2.232 2.024,2.6 1.568,2.898 1.07,3.117 0.543,3.25 0,3.295 -0.543,3.251 -1.07,3.116 -1.568,2.898 -2.024,2.601 -2.424,2.232 -2.759,1.802 -3.018,1.324 -3.194,0.809 -3.284,0.272 -3.284,-0.272 -3.194,-0.809 -3.018,-1.324 -2.759,-1.802 -2.424,-2.232 -2.024,-2.601 -1.568,-2.898 -1.07,-3.116 -0.543,-3.251 0,-3.295 0.543,-3.25 1.07,-3.117 1.568,-2.898 2.024,-2.6 2.424,-2.232 L -9.496,2.405 -6.478,1.081 -3.284,0.272 0,0 m 136.498,-34.767 4.718,0.265 4.659,0.792 4.542,1.308 4.366,1.809 4.136,2.286 3.854,2.734 3.524,3.149 3.149,3.524 2.735,3.855 2.286,4.136 1.809,4.366 1.308,4.541 0.791,4.659 0.266,4.719 -0.266,4.719 -0.791,4.659 -1.308,4.541 -1.809,4.366 -2.286,4.136 -2.735,3.855 -3.149,3.524 -3.524,3.149 -3.854,2.735 -4.136,2.286 -4.366,1.808 -4.542,1.308 -4.659,0.792 -4.718,0.265 -4.719,-0.265 -4.659,-0.792 -4.541,-1.308 -4.367,-1.808 -4.136,-2.286 -3.854,-2.735 -3.524,-3.149 -3.149,-3.524 -2.735,-3.855 -2.286,-4.136 -1.808,-4.366 -1.309,-4.541 -0.791,-4.659 -0.265,-4.719 0.265,-4.719 0.791,-4.659 1.309,-4.541 1.808,-4.366 2.286,-4.136 2.735,-3.855 3.149,-3.524 3.524,-3.149 3.854,-2.734 4.136,-2.286 4.367,-1.809 4.541,-1.308 4.659,-0.792 4.719,-0.265 m 155.711,44.736 3.019,0.264 2.927,0.784 2.747,1.281 2.482,1.738 2.143,2.143 1.738,2.482 1.281,2.747 0.785,2.927 0.264,3.019 -0.264,3.019 -0.785,2.927 -1.281,2.747 -1.738,2.482 -2.143,2.143 -2.482,1.738 -2.747,1.281 -2.927,0.784 -3.019,0.265 -3.019,-0.265 -2.927,-0.784 -2.746,-1.281 -2.483,-1.738 -2.143,-2.143 -1.738,-2.482 -1.281,-2.747 -0.784,-2.927 -0.264,-3.019 0.264,-3.019 0.784,-2.927 1.281,-2.747 1.738,-2.482 2.143,-2.143 2.483,-1.738 2.746,-1.281 2.927,-0.784 3.019,-0.264 m -185.679,-69.13 2.631,0.267 2.522,0.792 2.312,1.283 2.006,1.722 1.618,2.091 1.165,2.373 0.662,2.56 0.134,2.64 -0.4,2.613 -0.918,2.48 -1.399,2.243 -1.821,1.916 -2.17,1.511 -2.43,1.042 -2.59,0.533 -2.643,0 -2.59,-0.533 -2.43,-1.042 -2.17,-1.511 -1.821,-1.916 -1.399,-2.243 -0.918,-2.48 -0.4,-2.613 0.134,-2.64 0.662,-2.56 1.165,-2.373 1.618,-2.091 2.006,-1.722 2.312,-1.283 2.522,-0.792 2.63,-0.267 m 120.457,26.031 4.06,0.266 3.99,0.794 3.853,1.308 3.649,1.799 3.383,2.261 3.059,2.683 2.682,3.058 2.261,3.383 1.799,3.649 1.308,3.853 0.794,3.991 0.266,4.06 -0.266,4.059 -0.794,3.991 -1.308,3.853 -1.799,3.649 -2.261,3.383 -2.682,3.059 -3.059,2.682 -3.383,2.261 -3.649,1.799 -3.853,1.308 -3.99,0.794 -4.06,0.266 -4.06,-0.266 -3.991,-0.794 -3.852,-1.308 -3.649,-1.799 -3.383,-2.261 -3.059,-2.682 -2.683,-3.059 -2.26,-3.383 -1.8,-3.649 -1.308,-3.853 -0.793,-3.991 -0.267,-4.059 0.267,-4.06 0.793,-3.991 1.308,-3.853 1.8,-3.649 2.26,-3.383 2.683,-3.058 3.059,-2.683 3.383,-2.261 3.649,-1.799 3.852,-1.308 3.991,-0.794 4.06,-0.266 m -169.227,-6.893 3.735,0.267 3.66,0.796 3.508,1.309 3.287,1.795 2.997,2.244 2.648,2.648 2.244,2.997 1.795,3.287 1.309,3.508 0.796,3.66 0.267,3.735 -0.267,3.735 -0.796,3.659 -1.309,3.508 -1.795,3.287 -2.244,2.998 -2.648,2.648 -2.997,2.244 -3.287,1.794 -3.508,1.309 -3.66,0.796 L 57.76,12.468 54.025,12.201 50.366,11.405 46.858,10.096 43.571,8.302 40.573,6.058 37.925,3.41 35.681,0.412 l -1.794,-3.287 -1.309,-3.508 -0.796,-3.659 -0.267,-3.735 0.267,-3.735 0.796,-3.66 1.309,-3.508 1.794,-3.287 2.244,-2.997 2.648,-2.648 2.998,-2.244 3.287,-1.795 3.508,-1.309 3.659,-0.796 3.735,-0.267 m 0,59.808 2.674,0.281 2.556,0.83 2.328,1.344 1.998,1.799 1.58,2.175 1.093,2.455 0.559,2.629 0,2.688 -0.559,2.63 -1.093,2.455 -1.58,2.175 -1.998,1.799 -2.328,1.344 -2.556,0.83 -2.674,0.281 -2.673,-0.281 -2.556,-0.83 -2.328,-1.344 -1.998,-1.799 -1.58,-2.175 -1.093,-2.455 -0.559,-2.63 0,-2.688 0.559,-2.629 1.093,-2.455 1.58,-2.175 1.998,-1.799 2.328,-1.344 2.556,-0.83 2.673,-0.281 m 116.343,-86.509 2.927,0.271 2.827,0.805 2.632,1.31 2.345,1.771 1.98,2.173 1.548,2.499 1.062,2.741 0.54,2.889 0,2.939 -0.54,2.889 -1.062,2.741 -1.548,2.499 -1.98,2.173 -2.345,1.771 -2.632,1.31 -2.827,0.805 -2.927,0.271 -2.926,-0.271 -2.828,-0.805 -2.631,-1.31 -2.345,-1.771 -1.981,-2.173 -1.547,-2.499 -1.062,-2.741 -0.54,-2.889 0,-2.939 0.54,-2.889 1.062,-2.741 1.547,-2.499 1.981,-2.173 2.345,-1.771 2.631,-1.31 2.828,-0.805 2.926,-0.271 m 127.301,-32.024 5.097,0.271 5.039,0.812 4.925,1.343 4.754,1.859 4.529,2.354 4.253,2.821 3.93,3.258 3.561,3.657 3.152,4.015 2.707,4.327 2.232,4.59 1.732,4.802 1.211,4.958 0.678,5.06 0.136,5.102 -0.408,5.088 -0.945,5.016 -1.474,4.887 -1.985,4.703 -2.473,4.465 -2.934,4.176 -3.361,3.842 -3.751,3.462 -4.097,3.044 -4.397,2.591 -4.649,2.11 -4.846,1.603 -4.989,1.079 -5.075,0.542 -5.104,0 -5.076,-0.542 -4.989,-1.079 -4.846,-1.603 -4.648,-2.11 -4.397,-2.591 -4.098,-3.044 -3.75,-3.462 -3.361,-3.842 -2.934,-4.176 -2.474,-4.465 -1.984,-4.703 -1.474,-4.887 -0.945,-5.016 -0.408,-5.088 0.136,-5.102 0.678,-5.06 1.211,-4.958 1.732,-4.802 2.232,-4.59 2.707,-4.327 3.152,-4.015 3.561,-3.657 3.93,-3.258 4.253,-2.821 4.529,-2.354 4.754,-1.859 4.925,-1.343 5.039,-0.812 5.097,-0.271 m 76.006,71.721 4.312,0.271 4.244,0.81 4.109,1.335 3.909,1.839 3.648,2.315 3.328,2.754 2.958,3.15 2.539,3.495 2.082,3.786 1.59,4.017 1.075,4.185 0.541,4.286 0,4.32 -0.541,4.287 -1.075,4.184 -1.59,4.017 -2.082,3.786 -2.539,3.495 -2.958,3.15 -3.328,2.754 -3.648,2.314 -3.909,1.84 -4.109,1.335 -4.244,0.81 -4.312,0.271 -4.312,-0.271 -4.244,-0.81 -4.109,-1.335 -3.909,-1.84 -3.648,-2.314 -3.328,-2.754 -2.958,-3.15 -2.539,-3.495 -2.082,-3.786 -1.59,-4.017 -1.075,-4.184 -0.541,-4.287 0,-4.32 0.541,-4.286 1.075,-4.185 1.59,-4.017 2.082,-3.786 2.539,-3.495 2.958,-3.15 3.328,-2.754 3.648,-2.315 3.909,-1.839 4.109,-1.335 4.244,-0.81 4.312,-0.271 m 0,-63.624 3.283,0.265 3.198,0.788 3.029,1.291 2.784,1.761 2.465,2.184 2.083,2.551 1.647,2.852 1.168,3.079 0.658,3.227 0.133,3.291 -0.397,3.269 -0.916,3.164 -1.412,2.975 -1.871,2.711 -2.281,2.375 -2.633,1.979 -2.916,1.53 -3.124,1.043 -3.251,0.528 -3.294,0 -3.251,-0.528 -3.124,-1.043 -2.916,-1.53 -2.633,-1.979 -2.281,-2.375 -1.871,-2.711 -1.412,-2.975 -0.916,-3.164 -0.397,-3.269 0.132,-3.291 0.659,-3.227 1.168,-3.079 1.647,-2.852 2.083,-2.551 2.465,-2.184 2.784,-1.761 3.03,-1.291 3.197,-0.788 3.283,-0.265 m -163.938,3.996 2.357,0.266 2.239,0.783 2.009,1.262 1.677,1.677 1.262,2.009 0.783,2.239 0.266,2.357 -0.266,2.357 -0.783,2.239 -1.262,2.009 -1.677,1.677 -2.009,1.262 -2.239,0.783 -2.357,0.266 -2.357,-0.266 -2.239,-0.783 -2.009,-1.262 -1.677,-1.677 -1.262,-2.009 -0.783,-2.239 -0.266,-2.357 0.266,-2.357 0.783,-2.239 1.262,-2.009 1.677,-1.677 2.009,-1.262 2.239,-0.783 2.357,-0.266 M 23.541,60.301 l -64.818,0 m 64.818,13.5 0,-13.5 m 72.576,13.5 -72.576,0 m 72.576,-13.5 0,13.5 m 64.818,-13.5 -64.818,0 m 64.818,13.5 0,-13.5 m 72.576,13.5 -72.576,0 m 72.576,-13.5 0,13.5 m 64.818,-13.5 -64.818,0 m 64.818,13.5 0,-13.5 m 72.576,13.5 -72.576,0 m 72.576,-13.5 0,13.5 m 64.818,-13.5 -64.818,0 m 64.818,-17.568 0,17.568 m 13.5,-17.568 -13.5,0 m 13.5,-36.576 0,36.576 m -13.5,-36.576 13.5,0 m -13.5,-17.568 0,17.568 m 13.5,-17.568 -13.5,0 m 13.5,-36.576 0,36.576 m -13.5,-36.576 13.5,0 m -13.5,-17.568 0,17.568 m 13.5,-17.568 -13.5,0 m 13.5,-36.576 0,36.576 m -13.5,-36.576 13.5,0 m -13.5,-17.568 0,17.568 m -72,-17.568 72,0 m -212.44,17.383 17.262,-4.058 17.379,-3.525 17.48,-2.989 17.563,-2.449 17.63,-1.907 17.681,-1.364 17.714,-0.818 17.731,-0.273 M -0.443,-46.07 223.283,-102.316 m -264.56,108.617 0.28,-5.493 0.837,-5.435 1.386,-5.322 1.92,-5.153 2.433,-4.932 2.923,-4.658 3.382,-4.337 3.805,-3.97 4.189,-3.563 4.53,-3.118 4.823,-2.642 5.067,-2.137 5.259,-1.611 m -40.834,106.371 0,-54"
         style="fill:none;stroke:#000000;stroke-width:0.70899999;stroke-linecap:round;stroke-linejoin:round;stroke-miterlimit:10;stroke-dasharray:none;stroke-opacity:1"
         id="path3375"
         inkscape:connector-curvature="0" />
    </g>
    <g
       id="g3377"
       transform="matrix(0,-1.25,-1.25,0,744.42816,541.89568)">
      <path
         d="m 0,0 3.284,0.272 3.194,0.809 3.018,1.324 2.759,1.802 2.424,2.232 2.024,2.6 1.568,2.898 1.07,3.117 0.543,3.25 0,3.295 -0.543,3.251 -1.07,3.116 -1.568,2.898 -2.024,2.601 -2.424,2.232 -2.759,1.802 -3.018,1.324 -3.194,0.808 -3.284,0.273 -3.284,-0.273 -3.194,-0.808 -3.018,-1.324 -2.759,-1.802 -2.424,-2.232 -2.024,-2.601 -1.568,-2.898 -1.07,-3.116 -0.543,-3.251 0,-3.295 0.543,-3.25 1.07,-3.117 1.568,-2.898 2.024,-2.6 2.424,-2.232 L -9.496,2.405 -6.478,1.081 -3.284,0.272 0,0 m 136.498,-34.767 4.718,0.265 4.659,0.792 4.542,1.308 4.366,1.808 4.136,2.287 3.854,2.734 3.524,3.149 3.149,3.524 2.735,3.855 2.286,4.136 1.809,4.366 1.308,4.541 0.791,4.659 0.266,4.719 -0.266,4.718 -0.791,4.66 -1.308,4.541 -1.809,4.366 -2.286,4.136 -2.735,3.855 -3.149,3.524 -3.524,3.149 -3.854,2.734 -4.136,2.287 -4.366,1.808 -4.542,1.308 -4.659,0.792 -4.718,0.265 -4.719,-0.265 -4.659,-0.792 -4.541,-1.308 -4.367,-1.808 -4.136,-2.287 -3.854,-2.734 -3.524,-3.149 -3.149,-3.524 -2.735,-3.855 -2.286,-4.136 -1.808,-4.366 -1.309,-4.541 -0.791,-4.66 -0.265,-4.718 0.265,-4.719 0.791,-4.659 1.309,-4.541 1.808,-4.366 2.286,-4.136 2.735,-3.855 3.149,-3.524 3.524,-3.149 3.854,-2.734 4.136,-2.287 4.367,-1.808 4.541,-1.308 4.659,-0.792 4.719,-0.265 m 155.711,44.736 3.019,0.264 2.927,0.784 2.747,1.281 2.482,1.738 2.143,2.143 1.739,2.482 1.28,2.747 0.785,2.927 0.264,3.019 -0.264,3.019 -0.785,2.927 -1.28,2.747 -1.739,2.482 -2.143,2.143 -2.482,1.738 -2.747,1.281 -2.927,0.784 -3.019,0.265 -3.019,-0.265 -2.927,-0.784 -2.746,-1.281 -2.483,-1.738 -2.143,-2.143 -1.738,-2.482 -1.281,-2.747 -0.784,-2.927 -0.264,-3.019 0.264,-3.019 0.784,-2.927 1.281,-2.747 1.738,-2.482 2.143,-2.143 2.483,-1.738 2.746,-1.281 2.927,-0.784 3.019,-0.264 m -185.679,-69.13 2.631,0.267 2.522,0.792 2.312,1.283 2.006,1.722 1.618,2.091 1.165,2.373 0.662,2.56 0.134,2.64 -0.4,2.613 -0.918,2.48 -1.399,2.243 -1.821,1.916 -2.17,1.511 -2.43,1.042 -2.59,0.533 -2.644,0 -2.589,-0.533 -2.43,-1.042 -2.17,-1.511 -1.821,-1.916 -1.399,-2.243 -0.918,-2.48 -0.4,-2.613 0.134,-2.64 0.662,-2.56 1.165,-2.373 1.618,-2.091 2.006,-1.722 2.312,-1.283 2.522,-0.792 2.63,-0.267 m 120.457,26.031 4.06,0.266 3.99,0.794 3.853,1.308 3.649,1.799 3.383,2.261 3.059,2.683 2.682,3.058 2.261,3.383 1.799,3.649 1.308,3.853 0.794,3.991 0.266,4.059 -0.266,4.06 -0.794,3.991 -1.308,3.853 -1.799,3.649 -2.261,3.383 -2.682,3.059 -3.059,2.682 -3.383,2.261 -3.649,1.799 -3.853,1.308 -3.99,0.794 -4.06,0.266 -4.06,-0.266 -3.991,-0.794 -3.852,-1.308 -3.649,-1.799 -3.383,-2.261 -3.059,-2.682 -2.683,-3.059 -2.26,-3.383 -1.8,-3.649 -1.308,-3.853 -0.793,-3.991 -0.267,-4.06 0.267,-4.059 0.793,-3.991 1.308,-3.853 1.8,-3.649 2.26,-3.383 2.683,-3.058 3.059,-2.683 3.383,-2.261 3.649,-1.799 3.852,-1.308 3.991,-0.794 4.06,-0.266 m -169.227,-6.893 3.735,0.267 3.66,0.796 3.508,1.309 3.287,1.795 2.997,2.244 2.648,2.648 2.244,2.997 1.795,3.287 1.309,3.509 0.796,3.659 0.267,3.735 -0.267,3.735 -0.796,3.659 -1.309,3.508 -1.795,3.287 -2.244,2.998 -2.648,2.648 -2.997,2.244 -3.287,1.794 -3.508,1.309 -3.66,0.796 L 57.76,12.468 54.025,12.201 50.366,11.405 46.858,10.096 43.571,8.302 40.573,6.058 37.925,3.41 35.681,0.412 l -1.794,-3.287 -1.309,-3.508 -0.796,-3.659 -0.267,-3.735 0.267,-3.735 0.796,-3.659 1.309,-3.509 1.794,-3.287 2.244,-2.997 2.648,-2.648 2.998,-2.244 3.287,-1.795 3.508,-1.309 3.659,-0.796 3.735,-0.267 m 0,59.808 2.674,0.281 2.556,0.83 2.328,1.344 1.998,1.799 1.58,2.175 1.093,2.455 0.559,2.629 0,2.688 -0.559,2.63 -1.093,2.455 -1.58,2.175 -1.998,1.799 -2.328,1.344 -2.556,0.83 -2.674,0.281 -2.673,-0.281 -2.556,-0.83 -2.328,-1.344 -1.998,-1.799 -1.58,-2.175 -1.093,-2.455 -0.559,-2.63 0,-2.688 0.559,-2.629 1.093,-2.455 1.58,-2.175 1.998,-1.799 2.328,-1.344 2.556,-0.83 2.673,-0.281 m 116.343,-86.509 2.927,0.271 2.827,0.805 2.632,1.31 2.345,1.771 1.98,2.172 1.548,2.5 1.062,2.74 0.54,2.89 0,2.939 -0.54,2.889 -1.062,2.741 -1.548,2.499 -1.98,2.173 -2.345,1.771 -2.632,1.31 -2.827,0.805 -2.927,0.271 -2.926,-0.271 -2.828,-0.805 -2.631,-1.31 -2.345,-1.771 -1.981,-2.173 -1.547,-2.499 -1.062,-2.741 -0.54,-2.889 0,-2.939 0.54,-2.89 1.062,-2.74 1.547,-2.5 1.981,-2.172 2.345,-1.771 2.631,-1.31 2.828,-0.805 2.926,-0.271 m 127.301,-32.024 5.097,0.271 5.039,0.812 4.925,1.343 4.754,1.859 4.529,2.354 4.253,2.821 3.93,3.258 3.561,3.657 3.152,4.015 2.707,4.327 2.232,4.59 1.732,4.802 1.211,4.958 0.678,5.06 0.135,5.102 -0.407,5.088 -0.945,5.016 -1.474,4.887 -1.985,4.702 -2.473,4.466 -2.934,4.176 -3.361,3.842 -3.751,3.462 -4.097,3.044 -4.397,2.591 -4.649,2.11 -4.846,1.603 -4.989,1.079 -5.075,0.542 -5.104,0 -5.076,-0.542 -4.989,-1.079 -4.846,-1.603 -4.648,-2.11 -4.397,-2.591 -4.098,-3.044 -3.75,-3.462 -3.361,-3.842 -2.934,-4.176 -2.474,-4.466 -1.984,-4.702 -1.474,-4.887 -0.946,-5.016 -0.407,-5.088 0.136,-5.102 0.678,-5.06 1.211,-4.958 1.732,-4.802 2.232,-4.59 2.707,-4.327 3.152,-4.015 3.561,-3.657 3.93,-3.258 4.253,-2.821 4.529,-2.354 4.754,-1.859 4.925,-1.343 5.039,-0.812 5.097,-0.271 m 76.006,71.721 4.312,0.271 4.244,0.81 4.109,1.335 3.909,1.839 3.648,2.315 3.328,2.754 2.958,3.15 2.539,3.495 2.082,3.786 1.59,4.017 1.075,4.185 0.541,4.286 0,4.32 -0.541,4.287 -1.075,4.184 -1.59,4.017 -2.082,3.786 -2.539,3.495 -2.958,3.15 -3.328,2.754 -3.648,2.315 -3.909,1.839 -4.109,1.335 -4.244,0.81 -4.312,0.271 -4.312,-0.271 -4.244,-0.81 -4.109,-1.335 -3.909,-1.839 -3.648,-2.315 -3.328,-2.754 -2.958,-3.15 -2.539,-3.495 -2.082,-3.786 -1.59,-4.017 -1.075,-4.184 -0.541,-4.287 0,-4.32 0.541,-4.286 1.075,-4.185 1.59,-4.017 2.082,-3.786 2.539,-3.495 2.958,-3.15 3.328,-2.754 3.648,-2.315 3.909,-1.839 4.109,-1.335 4.244,-0.81 4.312,-0.271 m 0,-63.624 3.283,0.265 3.198,0.788 3.029,1.291 2.784,1.761 2.465,2.184 2.083,2.551 1.647,2.852 1.168,3.079 0.658,3.227 0.133,3.291 -0.397,3.269 -0.916,3.164 -1.412,2.975 -1.871,2.711 -2.281,2.375 -2.633,1.979 -2.917,1.53 -3.124,1.043 -3.25,0.528 -3.294,0 -3.251,-0.528 -3.124,-1.043 -2.916,-1.53 -2.633,-1.979 -2.281,-2.375 -1.871,-2.711 -1.412,-2.975 -0.916,-3.164 -0.397,-3.269 0.132,-3.291 0.659,-3.227 1.168,-3.079 1.647,-2.852 2.083,-2.551 2.465,-2.184 2.784,-1.761 3.029,-1.291 3.198,-0.788 3.283,-0.265 m -163.938,3.996 2.357,0.266 2.239,0.783 2.009,1.262 1.677,1.677 1.262,2.009 0.783,2.239 0.266,2.357 -0.266,2.357 -0.783,2.239 -1.262,2.009 -1.677,1.677 -2.009,1.262 -2.239,0.783 -2.357,0.266 -2.357,-0.266 -2.239,-0.783 -2.009,-1.262 -1.677,-1.677 -1.262,-2.009 -0.783,-2.239 -0.266,-2.357 0.266,-2.357 0.783,-2.239 1.262,-2.009 1.677,-1.677 2.009,-1.262 2.239,-0.783 2.357,-0.266 M 23.541,60.301 l -64.818,0 m 64.818,13.5 0,-13.5 m 72.576,13.5 -72.576,0 m 72.576,-13.5 0,13.5 m 64.818,-13.5 -64.818,0 m 64.818,13.5 0,-13.5 m 72.576,13.5 -72.576,0 m 72.576,-13.5 0,13.5 m 64.818,-13.5 -64.818,0 m 64.818,13.5 0,-13.5 m 72.576,13.5 -72.576,0 m 72.576,-13.5 0,13.5 m 64.818,-13.5 -64.818,0 m 64.818,-17.568 0,17.568 m 13.5,-17.568 -13.5,0 m 13.5,-36.576 0,36.576 m -13.5,-36.576 13.5,0 m -13.5,-17.568 0,17.568 m 13.5,-17.568 -13.5,0 m 13.5,-36.576 0,36.576 m -13.5,-36.576 13.5,0 m -13.5,-17.568 0,17.568 m 13.5,-17.568 -13.5,0 m 13.5,-36.576 0,36.576 m -13.5,-36.576 13.5,0 m -13.5,-17.568 0,17.568 m -72,-17.568 72,0 m -212.44,17.383 17.262,-4.058 17.379,-3.526 17.48,-2.988 17.563,-2.449 17.63,-1.907 17.681,-1.364 17.714,-0.818 17.731,-0.273 M -0.443,-46.07 223.283,-102.316 m -264.56,108.617 0.28,-5.493 0.837,-5.435 1.386,-5.322 1.92,-5.153 2.433,-4.932 2.923,-4.658 3.382,-4.337 3.805,-3.97 4.189,-3.563 4.53,-3.118 4.823,-2.642 5.067,-2.137 5.259,-1.611 m -40.834,106.371 0,-54"
         style="fill:none;stroke:#000000;stroke-width:0.70899999;stroke-linecap:round;stroke-linejoin:round;stroke-miterlimit:10;stroke-dasharray:none;stroke-opacity:1"
         id="path3379"
         inkscape:connector-curvature="0" />
    </g>
  </g>
</svg>
